<?xml version="1.0" encoding="UTF-8" standalone="no"?>
<!-- Created with Inkscape (http://www.inkscape.org/) -->

<svg
   xmlns:dc="http://purl.org/dc/elements/1.1/"
   xmlns:cc="http://creativecommons.org/ns#"
   xmlns:rdf="http://www.w3.org/1999/02/22-rdf-syntax-ns#"
   xmlns:svg="http://www.w3.org/2000/svg"
   xmlns="http://www.w3.org/2000/svg"
   xmlns:sodipodi="http://sodipodi.sourceforge.net/DTD/sodipodi-0.dtd"
   xmlns:inkscape="http://www.inkscape.org/namespaces/inkscape"
   version="1.1"
   id="svg2426"
   xml:space="preserve"
   width="400"
   height="600"
   viewBox="0 0 400 600"
   sodipodi:docname="BugsBunny2.svg"
   inkscape:version="0.92.4 (5da689c313, 2019-01-14)"><metadata
     id="metadata2432"><rdf:RDF><cc:Work
         rdf:about=""><dc:format>image/svg+xml</dc:format><dc:type
           rdf:resource="http://purl.org/dc/dcmitype/StillImage" /><dc:title></dc:title></cc:Work></rdf:RDF></metadata><defs
     id="defs2430"><clipPath
       clipPathUnits="userSpaceOnUse"
       id="clipPath2442"><path
         d="M 0,4320 H 3456 V 0 H 0 Z"
         id="path2440"
         inkscape:connector-curvature="0" /></clipPath></defs><sodipodi:namedview
     pagecolor="#ffffff"
     bordercolor="#666666"
     borderopacity="1"
     objecttolerance="10"
     gridtolerance="10"
     guidetolerance="10"
     inkscape:pageopacity="0"
     inkscape:pageshadow="2"
     inkscape:window-width="1920"
     inkscape:window-height="986"
     id="namedview2428"
     showgrid="false"
     inkscape:zoom="0.65555555"
     inkscape:cx="863.90101"
     inkscape:cy="251.19084"
     inkscape:window-x="-11"
     inkscape:window-y="-11"
     inkscape:window-maximized="1"
     inkscape:current-layer="g2434" /><g
     id="g2434"
     inkscape:groupmode="layer"
     inkscape:label="Bugs_Bunny"
     transform="matrix(1.3333333,0,0,-1.3333333,0,600)"><g
       id="g2436"
       transform="matrix(0.30424875,0,0,0.30424875,-377.13993,-433.79507)"><g
         id="g2438"
         clip-path="url(#clipPath2442)"><g
           id="g2444"
           transform="translate(1654.2085,1875.1318)"><path
             d="m 0,0 -0.334,-0.385 -1.339,-1.159 c -23.406,-20.089 -37.115,-34.38 -53.502,-59.485 -4.346,-6.959 -10.366,-14.293 -13.041,-22.409 -1.336,-4.248 0,-6.563 2.008,-11.201 l 0.667,-0.77 c 13.712,-27.813 32.436,-48.674 54.171,-68.37 l 1.002,-0.771 c 4.683,-4.637 8.695,-9.276 13.375,-13.521 0.671,-0.774 3.681,-3.861 4.015,-2.701 l 0.334,1.157 c 1.671,3.86 2.675,8.112 3.678,12.356 3.343,13.522 7.356,25.498 11.368,38.241 5.016,17.386 10.033,35.925 14.379,53.696 3.01,13.134 5.685,26.262 7.69,39.398 l 1.005,5.795 c 1.337,8.496 4.012,16.608 -3.346,22.018 l -2.339,1.929 C 31.767,0.386 23.741,6.953 14.043,6.562 8.024,6.175 4.346,4.245 0,0 m -126.062,262.277 -2.675,-1.937 c -3.344,-2.314 -6.688,-5.789 -10.032,-8.882 -1.673,-1.544 -3.343,-3.475 -5.017,-5.41 l -2.006,-1.928 2.341,-3.09 c 2.007,-2.702 4.346,-5.408 6.687,-7.724 4.013,-4.637 8.027,-9.27 12.707,-12.748 l 3.678,-2.704 -1.002,5.409 c -1.337,9.271 -2.342,18.154 -3.344,27.422 -0.335,3.093 -0.669,6.182 -1.003,9.269 z m 123.721,49.827 4.346,-0.774 c 5.685,-0.772 11.37,-2.316 16.721,-3.861 0.334,-0.386 0.334,-0.386 0.668,-0.386 8.024,-2.317 15.714,-5.408 23.406,-8.496 l 0.335,-0.389 c 1.336,-0.386 1.002,-1.544 0.668,-3.091 L 43.469,292.02 C 42.8,284.294 42.13,276.954 41.461,269.616 v -0.386 c -1.002,-12.749 -4.68,-25.11 -5.682,-37.855 l -0.337,-2.706 -1.336,2.315 c -1.337,1.935 -2.339,4.251 -3.678,6.185 l -0.668,1.159 c -5.351,8.497 -10.031,19.31 -14.714,29.743 -5.685,12.358 -13.041,25.106 -16.385,39.398 z m 327.693,688.718 -9.36,-5.019 c -9.032,-4.251 -17.389,-9.27 -26.081,-14.68 L 270.85,969.147 c -8.362,-5.017 -17.055,-10.427 -25.413,-15.836 -26.75,-16.995 -53.505,-33.218 -79.921,-49.442 L 122.384,878.374 C 99.644,864.856 75.567,848.246 57.849,826.228 42.466,807.303 24.743,766.742 19.394,739.318 17.387,728.502 15.046,735.456 8.358,731.979 0.334,728.116 -4.014,722.709 -10.033,715.37 l -2.674,-3.09 -19.728,-23.563 c -4.014,-4.251 -7.358,-9.271 -11.704,-13.133 l -1.671,-1.544 -40.461,42.488 39.122,-44.807 -8.694,-11.587 c -2.339,-3.477 -11.368,-1.159 -15.046,-1.159 h -1.673 l -2.675,0.772 -4.681,3.863 c -5.351,4.634 -11.034,8.885 -17.053,12.746 l -4.682,3.478 -63.534,38.241 19.061,-13.907 23.742,-15.451 25.413,-16.222 c 4.013,-2.706 7.356,-5.795 10.7,-8.885 l 3.678,-3.09 2.675,-3.089 -4.012,-0.774 c -5.351,-0.386 -10.367,-1.547 -15.382,-3.477 -4.346,-1.93 -8.36,-4.249 -12.707,-7.339 l -2.675,-1.544 -15.717,6.953 -13.375,3.088 -4.011,0.386 7.021,-2.317 9.697,-3.476 10.032,-6.179 3.677,-1.932 -3.677,-3.091 c -6.354,-5.023 -8.359,-5.795 0,-6.953 l 1.672,-0.385 -1.672,-0.773 c 0,0 -0.334,-0.387 -0.669,-0.387 l -9.029,-4.636 -0.668,-0.772 c -3.343,-4.635 -6.019,-9.268 -8.36,-14.678 -1.003,-2.317 -2.005,-4.635 -2.339,-7.34 l -0.669,-3.088 v -1.158 c -1.005,-6.567 -3.345,-11.59 2.674,-6.567 4.682,3.86 10.367,14.293 6.019,1.93 -0.334,-1.158 -0.668,-1.93 -1.337,-2.702 -0.668,-1.546 -1.002,-3.479 -1.002,-5.796 -0.337,-8.496 0,-17.382 0.334,-25.879 l 0.334,-1.547 c 0.334,-5.406 1.003,-10.041 2.673,-15.45 l 0.335,-1.93 0.335,1.93 c 0.335,1.543 0.669,3.09 1.003,4.637 1.339,6.567 4.012,18.924 5.351,3.86 v -0.773 c 2.005,-7.338 7.356,-18.538 10.7,-27.037 5.351,-13.904 12.372,-23.562 19.06,-35.922 4.346,-8.111 4.011,-16.998 4.011,-26.269 V 458.5 c 0,-11.973 -0.334,-23.947 -1.001,-36.31 -0.671,-6.953 -7.359,-6.953 -12.708,-10.042 -9.697,-5.408 -19.394,-13.906 -26.751,-22.789 l -7.356,-8.885 c -4.681,-5.793 -10.366,-11.203 -14.712,-17.384 -6.687,-9.655 -13.375,-22.403 -19.728,-34.375 -15.048,-28.585 -55.844,-98.117 -28.757,-128.246 0.668,-0.771 1.67,-1.929 2.341,-2.702 14.712,-15.837 33.103,-25.491 52.163,-31.288 3.008,-0.771 24.743,-5.794 25.414,-6.565 0.334,-0.388 0,-1.159 0,-1.931 -0.337,-1.934 -0.337,-2.32 -1.339,-2.708 -4.347,-1.158 -7.691,-1.158 -11.034,-4.245 -8.027,-7.34 -3.346,-6.18 -13.709,-10.819 -9.365,-3.859 -15.382,-13.129 -25.079,-16.993 h -0.334 c -1.673,-0.773 -3.681,-1.544 -5.685,-2.702 -8.361,-4.638 -8.027,-19.317 -5.685,-28.971 0.334,-1.93 3.677,-3.089 2.006,-3.861 l -3.009,-1.162 c -1.339,-0.773 -2.675,-1.93 -4.014,-3.475 -10.366,-13.521 -5.015,-26.27 1.339,-40.17 3.009,-6.186 7.689,-12.362 12.038,-17.772 1.337,-1.158 0.668,-2.701 0,-4.251 -1.339,-3.473 -1.005,-7.721 -0.671,-11.972 0,-3.863 -1.336,-3.478 -4.012,-3.093 l -0.668,0.386 -3.343,1.164 c -3.01,0.772 -5.018,0 -7.022,-1.55 -7.356,-5.403 -20.063,-19.31 -19.728,-31.286 0.334,-5.403 3.006,-8.11 7.021,-8.497 2.339,-0.386 6.354,1.157 4.68,-2.316 -2.341,-5.796 -4.68,-11.204 -7.021,-17.001 -7.356,-18.923 -5.015,-48.667 17.721,-35.145 6.353,4.246 9.365,11.204 7.358,-0.386 v -1.546 c -2.007,-14.676 1.336,-36.309 7.356,-49.83 2.675,-5.795 5.685,-8.883 8.694,-9.268 0.669,-0.387 1.337,-0.387 2.005,-0.387 1.005,0.387 2.007,0.772 3.012,1.546 4.68,3.857 7.022,9.267 8.358,15.449 2.341,8.111 3.01,15.836 3.344,24.333 0.668,10.819 -0.334,21.246 -1.673,32.064 l -0.668,3.088 v 0.387 c -0.334,3.474 -2.005,6.953 2.007,6.18 l 3.344,-0.772 h 0.334 c 6.687,1.16 9.697,2.702 12.372,10.429 0.335,1.156 1.003,2.702 1.337,3.858 l 0.668,1.549 c 3.012,8.885 2.675,29.359 -1.67,40.944 -3.679,9.66 -12.707,14.677 -21.402,11.589 h -0.334 c -4.68,-2.315 -5.349,-6.953 -5.349,2.704 v 0.384 c 0,2.703 0,5.796 -0.334,8.498 l -0.334,3.092 c 0,3.09 0.668,3.09 3.008,2.317 l 3.343,-0.385 c 1.005,0 2.342,0.771 3.678,1.544 7.024,3.864 10.368,8.503 15.716,11.975 2.008,1.159 4.013,1.159 6.019,0.772 7.693,-1.157 14.714,-0.772 21.736,0.773 5.017,0.772 10.365,1.545 15.382,3.473 7.356,2.707 16.719,8.117 21.399,15.065 3.344,5.023 5.685,10.431 7.692,15.841 2.673,8.499 2.339,8.113 6.019,1.932 3.008,-5.024 4.013,-6.953 2.34,-12.75 L -57.18,53.305 -72.228,23.562 c -4.012,-7.339 -8.024,-14.68 -12.036,-21.633 -11.37,-20.472 -25.413,-39.011 -38.454,-57.942 -3.68,-5.403 -7.022,-11.199 -10.368,-16.993 l -0.668,-1.159 c -2.673,-5.408 -4.346,-11.204 -4.681,-16.993 -1.672,-18.931 4.013,-32.837 13.041,-46.743 11.368,-16.609 27.084,-29.743 40.125,-44.807 l 1.005,-1.158 c 3.678,-4.252 -0.334,-4.252 -3.68,-4.637 -10.031,-1.546 -26.082,5.022 -36.113,8.115 -1.671,0.387 -3.344,1.159 -5.349,1.93 -7.021,3.089 -14.714,10.428 -23.074,14.679 -3.007,1.93 -6.353,3.859 -9.361,5.403 -6.019,3.096 -11.369,6.573 -17.723,8.117 -1.002,0.386 -2.005,0.773 -3.344,1.158 -15.048,3.861 -30.762,3.088 -45.81,-1.928 -11.033,-3.481 -25.747,-15.066 -36.113,-26.657 -14.043,-15.065 -18.391,-24.333 -20.396,-44.034 -1.673,-15.451 8.358,-24.334 13.04,-37.855 2.34,-6.181 4.347,-11.971 8.693,-16.608 13.709,-14.293 22.738,-14.679 40.461,-17 3.678,-0.772 5.683,-2.702 8.024,-5.404 12.039,-13.135 33.106,-15.45 52.834,-13.135 22.402,2.317 48.149,10.819 72.226,18.924 25.747,8.889 46.144,16.23 70.889,29.358 6.687,3.094 2.005,-6.561 1.337,-13.907 -2.005,-20.468 20.73,-54.077 35.444,-72.228 13.709,-16.994 24.745,-27.428 40.462,-40.943 22.067,-19.702 44.473,-35.924 72.56,-43.648 13.375,-3.866 23.408,-0.386 36.115,3.859 2.673,0.771 9.694,-0.772 16.382,-1.93 17.723,-3.479 28.76,-2.315 42.135,5.024 13.041,7.339 13.041,10.426 21.399,22.789 2.673,3.86 6.352,5.403 10.028,7.726 3.012,1.929 5.351,4.631 7.027,7.723 3.675,7.341 4.009,22.019 2.672,35.149 -2.338,20.087 -11.036,35.151 -22.067,49.057 -10.033,12.75 -20.4,22.405 -34.11,28.586 -17.723,8.111 -45.81,5.024 -64.535,3.86 -1.337,-0.386 -2.339,-0.386 -3.342,0 -16.387,4.251 -62.865,8.883 -70.889,32.45 -3.681,10.427 2.673,61.415 7.022,90.387 3.006,20.082 5.684,33.988 11.704,52.918 1.671,6.567 3.341,13.515 5.016,20.087 6.349,23.949 14.378,47.125 21.734,70.686 1.671,5.022 4.348,21.631 8.692,22.403 h 0.668 0.334 c 9.365,1.544 20.067,5.41 28.091,11.976 0.335,0.387 0.669,0.387 1.003,0.773 19.394,15.45 28.087,30.129 37.118,53.69 1.67,4.637 7.355,25.105 -1.342,12.742 l -0.334,-0.385 c -2.005,-2.702 -3.342,-4.246 -3.008,-2.316 0.335,2.701 0.669,4.639 0.669,6.953 l 0.334,7.727 c 0.334,22.403 0.334,27.426 -5.684,48.281 -3.008,9.659 -6.02,18.542 -9.362,27.811 l -1.671,4.252 c -5.35,13.135 -10.367,32.446 -10.367,46.737 v 1.159 c 0.334,3.093 0,3.093 -2.673,1.934 l -2.677,-0.773 -0.335,-0.384 c -17.389,-13.907 -29.762,-25.884 -40.793,-46.356 -2.678,-4.252 -3.346,-3.862 -7.356,-2.702 l -2.677,1.156 c -7.691,0.773 -15.046,-0.386 -22.736,0 -11.37,0.387 -6.024,3.095 -2.344,9.657 l 1.002,2.314 6.02,11.205 2.678,4.251 c 8.023,14.288 15.714,28.966 21.064,44.808 l 3.342,10.041 c 5.017,14.68 12.373,34.378 5.351,48.671 -3.676,8.5 -15.714,17.382 -24.407,22.403 -23.742,13.904 -44.139,25.108 -66.209,42.489 -8.694,6.181 -17.052,15.451 -26.081,20.859 -7.692,4.636 -15.382,6.953 -23.743,7.34 -9.028,0.386 -6.687,0.386 0.671,6.566 3.678,3.475 6.687,5.793 12.707,5.022 19.057,-3.091 40.793,-3.863 59.519,2.318 l 1.336,0.387 c 6.688,2.316 5.685,1.157 1.339,-3.477 l -1.339,-1.162 c -3.678,-2.314 1.339,-1.543 3.678,-1.543 4.349,0.386 9.029,0.386 12.707,2.705 l 3.01,1.543 c 7.021,3.864 18.391,18.928 11.369,1.934 -3.012,-7.727 0.669,-3.091 3.676,-0.387 0.668,0.773 1.342,1.544 2.344,1.93 l 7.355,7.726 c 3.008,3.477 4.683,9.658 6.354,14.678 1.337,4.251 2.005,3.09 3.68,0 l 6.683,-10.816 c 5.017,-7.725 10.033,-15.065 14.716,-22.404 1.337,-1.932 7.356,-12.746 3.342,-4.248 -0.668,1.544 -1.337,2.704 -1.671,4.248 -4.014,7.728 -7.69,16.226 -12.038,23.179 l -6.354,10.041 c -1.003,1.545 -2.005,3.09 -2.673,4.251 -1.337,1.931 -2.344,3.474 -2.678,4.632 -1.67,4.251 0.334,9.658 3.012,3.094 2.005,-5.41 4.01,-3.866 4.01,1.157 v 3.86 c 0,4.251 0.673,3.865 3.346,1.16 l 6.353,-6.566 5.017,-6.179 c 4.01,-5.023 8.024,-10.429 12.038,-15.836 0.669,-0.774 1.337,-1.933 2.005,-2.708 4.014,-5.406 10.363,-13.903 13.375,-15.836 0.669,-0.386 -1.002,1.933 -1.336,3.09 -2.678,4.25 -5.017,8.5 -8.025,12.746 -2.009,2.708 -4.014,5.411 -6.019,7.727 -4.014,5.408 -7.694,10.817 -11.704,16.609 l -9.699,10.044 -4.678,5.021 -0.673,21.246 9.699,-5.021 11.036,-8.112 2.005,-1.545 c 1.336,-1.161 2.673,-2.319 4.014,-3.092 14.378,-11.201 27.419,-25.88 41.796,-36.309 0,0 -4.015,5.796 -5.017,7.339 -11.031,13.52 -23.404,24.722 -36.779,34.766 -1.341,1.157 -2.678,1.93 -4.014,3.088 l -3.68,2.705 -10.364,6.953 -8.362,4.634 c -2.005,1.159 -2.339,5.024 -2.673,8.112 -1.671,9.271 -8.358,20.86 -15.046,25.497 l -7.355,5.403 10.697,20.86 c 5.351,10.817 7.694,23.948 9.699,35.924 1.67,9.27 5.685,17.767 7.022,27.813 v 2.316 c 1.671,23.948 -10.034,6.181 -11.704,18.155 -1.003,8.884 -4.683,15.451 -8.693,23.175 l -0.669,1.161 c -1.002,2.316 -3.345,5.407 0.335,5.018 h 0.334 c 3.007,0 6.019,-0.386 9.027,-0.771 l 5.35,-0.772 c 24.077,-3.475 45.142,-12.36 68.546,-16.995 1.341,-0.386 2.678,-0.772 4.349,-0.772 27.757,-3.865 58.181,-3.093 87.275,2.317 36.111,6.567 70.221,20.087 101.316,42.104 7.36,5.793 14.715,11.585 21.737,17.767 4.01,3.476 8.024,7.338 11.704,11.202 l 1.671,1.547 6.353,5.793 c 4.683,4.248 9.361,7.724 13.041,13.13 l 5.685,7.339 c 2.673,3.866 2.673,10.819 -1.002,13.907 -5.352,3.476 -14.382,-0.386 -19.733,-1.929 h -0.334 c -40.793,-9.27 -82.255,-11.591 -123.721,-10.817 -37.113,0.773 -73.897,0.386 -111.014,-3.476 -23.409,-2.704 -45.81,-6.567 -68.212,-14.678 -2.677,-1.159 -29.093,-11.974 -14.382,-1.159 4.014,2.702 10.034,4.249 14.716,5.796 21.734,8.884 49.486,19.309 67.878,31.287 0.334,0 0.334,0 0.668,0.386 l 21.07,12.746 c 2.338,1.547 5.346,3.476 8.692,6.181 49.151,39.786 84.933,95.793 116.365,154.121 l 3.007,4.637 c 5.351,9.269 10.702,20.857 12.707,32.059 l 0.668,3.089 c 2.344,16.223 -5.012,13.906 -14.712,8.885 z"
             style="fill:#231f20;fill-opacity:1;fill-rule:evenodd;stroke:none"
             id="path2446"
             inkscape:connector-curvature="0" /></g><g
           id="g2448"
           transform="translate(1459.2622,1876.6748)"><path
             d="m 0,0 -3.678,-3.859 -7.356,-8.888 -2.675,-6.177 c -2.341,-5.801 0,-15.456 6.353,-13.519 h 0.335 c 2.675,1.158 8.694,2.7 6.687,-1.937 -1.002,-2.316 -2.341,-4.245 -4.012,-6.566 -4.012,-5.019 -6.354,-10.813 -7.69,-17.38 -0.334,-0.774 -0.669,-1.545 -0.669,-2.317 -1.004,-4.252 -2.677,-12.749 -1.672,-19.316 1.336,-11.972 13.041,-11.972 20.062,-5.794 2.676,2.707 5.351,5.794 8.026,8.888 2.674,3.473 8.359,6.176 2.674,-0.386 l -0.335,-0.387 c -2.005,-4.251 -2.673,-10.817 -2.673,-16.613 0,-7.338 1.003,-26.65 5.015,-40.17 3.678,-13.135 11.033,-16.995 16.384,-9.268 10.032,14.678 7.356,50.988 5.017,69.525 -0.668,3.859 -1.339,6.953 -3.009,10.819 -0.337,1.543 -0.671,3.087 1.336,2.317 1.005,-0.386 1.673,-1.544 2.675,-2.317 l 0.335,-0.386 2.675,-1.164 c 2.341,-1.158 5.685,-1.929 8.361,-0.77 7.355,2.706 8.024,15.062 8.692,23.946 0.668,8.503 2.007,22.795 -3.01,30.901 -4.68,7.345 -21.735,13.134 -25.077,2.708 -0.67,-2.321 0,-3.48 0.669,-4.637 2.005,-2.702 3.344,-2.702 5.349,-2.702 3.009,0 3.009,-1.158 0,-2.317 -1.337,-0.771 -3.01,-1.158 -4.013,-1.934 -2.005,-1.931 -3.009,-4.246 -4.012,-6.954 -0.334,-0.773 -3.678,-24.334 -6.019,-15.836 0,1.157 0.669,3.094 0,4.252 -0.668,1.542 -3.344,1.156 -5.685,0.771 -2.341,-0.386 -3.344,-3.094 -5.015,-4.637 -1.672,-1.931 -5.016,-1.159 -3.009,1.158 1.671,2.321 3.009,3.479 3.344,6.566 v 0.778 c 0.334,1.93 0,6.948 0,11.199 0,6.18 2.005,15.065 -0.669,20.475 C 10.366,4.246 4.349,3.861 0,-0.385 Z"
             style="fill:#009e59;fill-opacity:1;fill-rule:evenodd;stroke:none"
             id="path2450"
             inkscape:connector-curvature="0" /></g><g
           id="g2452"
           transform="translate(1482.6685,1841.9092)"><path
             d="m 0,0 h -3.007 c -4.683,-0.385 -3.01,11.205 -3.01,15.451 0.334,3.865 0.334,8.111 0.334,11.977 0.334,7.723 0.334,15.064 1.003,22.789 l 1.673,12.363 2.673,11.197 c 0.67,2.323 1.339,4.252 2.341,6.569 1.005,2.316 1.673,4.636 3.01,6.181 1.337,0.772 2.341,1.157 2.007,-1.157 L 6.354,81.504 5.017,76.1 C 4.683,75.322 4.349,74.166 4.349,73.393 3.346,69.141 2.341,65.281 1.673,61.035 V 60.65 C 0.67,55.24 1.005,49.445 0.67,44.809 v -0.387 c -0.334,-2.703 -1.338,-13.907 0,-15.45 0.335,-0.386 0.669,6.567 0.669,6.953 0,3.087 0.334,5.794 0.668,8.497 0.671,5.409 1.339,10.818 1.673,15.835 v 0.778 c 0.334,4.246 1.337,8.106 2.339,12.358 l 1.673,8.111 1.003,1.929 C 12.039,80.346 9.699,73.007 9.365,68.756 L 9.031,64.123 C 8.695,62.965 8.695,62.193 8.695,61.035 8.36,55.24 8.026,49.831 8.026,44.035 8.36,34.381 8.36,25.111 7.692,15.842 7.692,13.521 7.358,11.59 6.354,8.885 V 8.498 C 5.017,5.796 4.014,4.637 3.68,1.55 3.346,-0.385 2.007,0.386 0,0"
             style="fill:#91d44f;fill-opacity:1;fill-rule:evenodd;stroke:none"
             id="path2454"
             inkscape:connector-curvature="0" /></g><g
           id="g2456"
           transform="translate(1504.0698,1965.9033)"><path
             d="m 0,0 -1.002,1.158 c -0.669,1.158 -3.01,1.158 -4.013,1.546 -5.016,1.543 -14.714,2.702 -18.391,0.386 -2.342,-1.932 -5.017,-5.791 -7.022,-6.953 -3.678,-2.317 -7.69,-3.862 -10.031,-6.955 -2.341,-3.088 -3.344,-6.176 -3.678,-10.041 -0.671,-12.358 5.348,-23.175 11.702,-32.83 l 2.341,-4.251 c 2.005,-2.703 3.01,-3.474 4.012,0 1.339,5.794 2.676,11.204 4.681,16.608 l 0.336,0.77 c 0.669,1.55 1.336,2.708 1.336,4.251 -0.334,3.481 -3.009,2.317 -5.685,1.932 -2.675,0.385 -7.021,0 -2.004,2.708 0.668,0.771 1.336,1.157 2.341,1.543 3.676,0.771 6.017,0 8.692,-2.316 l 0.335,-0.386 c 2.675,-2.321 5.016,-5.024 6.687,-8.502 1.003,-1.932 2.007,-3.859 3.344,-5.019 h 0.336 c 1.337,-1.93 0.334,-2.321 -1.338,-1.93 l -0.669,0.773 c -1.339,1.931 -2.007,0.772 -2.341,-1.164 -0.669,-6.182 -2.005,-14.287 -0.334,-20.082 1.336,-2.707 4.682,-1.163 7.355,-0.391 9.363,3.866 17.724,11.975 21.402,22.409 0.668,1.545 1.002,3.088 1.336,4.632 0.337,2.316 0.671,5.023 0.671,7.338 0.334,3.095 0.668,6.182 0,8.884 0,0.386 0,0.773 -0.334,1.157 l -0.337,1.164 c -0.334,1.16 -1.336,1.93 -1.67,3.088 0,0.772 0,1.159 0.668,1.159 2.341,0.771 2.341,0 2.675,-2.317 l 0.334,-3.094 c 0,-0.384 0,-0.771 0.335,-1.157 0.668,-2.702 1.67,-5.018 2.675,-7.335 1.003,-2.705 1.003,-3.094 2.341,-0.39 3.678,6.953 7.69,13.521 12.707,20.474 1.002,1.157 1.671,2.315 1.336,4.251 -1.002,10.04 -5.684,22.017 -11.035,30.129 -2.34,2.702 -7.356,6.567 -8.024,0.771 -0.335,-1.157 -0.335,-2.321 -1.003,-3.478 l -3.68,-5.405 C 16.05,10.814 12.707,6.182 10.365,5.018 7.692,3.861 3.009,4.247 1.004,3.475 0,3.09 0,3.09 0.67,1.545 H 0.334 L 1.004,0.773 C 2.007,-1.542 1.673,-2.701 0,-0.386 Z"
             style="fill:#f6842a;fill-opacity:1;fill-rule:evenodd;stroke:none"
             id="path2458"
             inkscape:connector-curvature="0" /></g><g
           id="g2460"
           transform="translate(1533.1611,2030.7949)"><path
             d="m 0,0 c -1.337,1.935 -1.671,3.478 -1.337,4.251 0,0 5.351,1.156 9.027,3.093 5.685,2.316 6.69,8.497 10.368,1.544 C 21.735,2.32 23.743,0.776 20.396,-1.546 14.043,-5.403 5.017,-7.335 0,0"
             style="fill:#ffffff;fill-opacity:1;fill-rule:evenodd;stroke:none"
             id="path2462"
             inkscape:connector-curvature="0" /></g><g
           id="g2464"
           transform="translate(1530.1514,1992.9443)"><path
             d="m 0,0 v 0 h -1.671 c -1.004,0 -1.673,-0.385 -2.007,1.159 l -0.334,0.386 v 3.088 l -0.334,8.883 c 0,3.093 -1.003,5.409 -3.009,7.338 l -0.335,0.388 c -1.673,1.929 -4.012,1.929 -5.685,3.479 -0.334,0.384 -0.668,0.773 -0.334,1.544 0.668,1.543 2.007,3.477 3.01,4.636 2.005,1.93 3.678,3.474 5.684,4.247 C -1.671,36.305 3.01,35.92 5.017,32.831 5.685,31.288 5.351,27.422 4.346,25.878 3.678,24.335 3.01,23.948 2.341,22.785 0.671,19.698 1.339,16.223 1.339,12.745 V 1.93 C 1.339,0.386 1.339,-0.385 0,0"
             style="fill:#ffffff;fill-opacity:1;fill-rule:evenodd;stroke:none"
             id="path2466"
             inkscape:connector-curvature="0" /></g><g
           id="g2468"
           transform="translate(1480.3296,1974.0146)"><path
             d="m 0,0 -0.334,-0.771 c 0,-0.773 -0.668,-1.159 -1.003,-1.934 -1.338,-2.316 -3.012,-4.248 -4.682,-5.792 -4.347,-3.087 -4.347,9.269 -4.683,13.136 0,3.087 -0.334,5.403 0.336,7.333 1.003,5.023 5.015,7.343 9.364,9.274 5.682,2.702 10.699,5.404 15.713,9.27 8.695,7.338 21.402,17.38 27.755,5.409 1.002,-1.93 1.339,-4.25 1.673,-6.567 C 45.142,21.633 43.134,11.972 40.793,7.726 37.115,2.703 32.435,0 25.413,-1.544 24.411,-1.93 23.74,-1.93 22.738,-1.93 16.384,-2.314 9.029,-3.864 3.009,-2.314 c -0.67,0 -1.339,0.384 -2.007,1.543 L 0.668,0 C 0.334,0.772 0.334,1.158 0,0"
             style="fill:#ffffff;fill-opacity:1;fill-rule:evenodd;stroke:none"
             id="path2470"
             inkscape:connector-curvature="0" /></g><g
           id="g2472"
           transform="translate(1551.5527,2025.0029)"><path
             d="m 0,0 c -1.673,-1.543 -4.349,-1.543 -6.688,-1.543 -2.675,0 -4.682,0.386 -6.019,-0.387 -2.675,-1.162 -4.348,-6.958 -5.351,-10.045 -2.338,-7.338 -1.336,-17.38 1.339,-23.175 0.334,0 0.334,-0.386 0.334,-0.386 2.342,-4.251 4.681,-8.499 6.354,-12.749 4.012,-9.27 5.682,-18.539 6.353,-28.579 v -6.574 c 0.334,-4.63 -0.334,-7.333 -1.005,-0.386 v 0.777 c -0.334,4.246 -1.002,8.499 -4.346,2.702 -2.675,-4.251 -5.014,-8.112 -8.026,-11.971 -3.008,-3.865 -7.022,-6.572 -9.027,-10.818 -0.668,-1.543 -1.336,-2.702 -2.007,-4.247 l -1.671,-5.022 c -2.341,-5.796 23.072,-3.093 28.758,-1.55 11.702,3.48 23.406,6.572 30.427,18.158 3.344,5.41 5.685,11.586 8.695,17.381 2.673,5.022 2.339,7.339 -1.005,11.205 l -0.668,0.771 C 30.764,-60.256 10.031,-15.449 7.021,-5.794 L 6.02,-1.543 C 4.346,3.09 3.344,3.861 0,0.389 Z"
             style="fill:#ffffff;fill-opacity:1;fill-rule:evenodd;stroke:none"
             id="path2474"
             inkscape:connector-curvature="0" /></g><g
           id="g2476"
           transform="translate(1719.0786,2596.2944)"><path
             d="m 0,0 c 1.002,1.547 1.671,1.934 2.673,3.09 3.346,2.32 6.688,5.022 10.034,6.182 3.675,1.544 8.024,1.933 12.373,1.544 2.338,0 13.041,-2.704 4.343,-2.704 -1.337,0 -2.673,-0.386 -4.343,-0.386 -1.676,0 -3.347,-0.386 -4.683,-0.772 C 16.048,5.41 2.339,-1.93 15.714,-1.543 h 4.348 l 8.693,-1.159 c 4.682,-0.386 19.06,-2.704 26.081,-5.409 3.012,-1.159 3.346,-1.544 0,-1.93 -1.002,0 -2.338,-0.386 -2.338,-0.386 -8.025,0.772 -16.053,0 -23.743,0 h -6.019 -2.339 c -2.339,0 -4.349,-1.546 -1.671,-3.093 4.01,-1.931 8.358,-2.703 12.038,-5.404 l 4.679,-3.48 c 1.002,-0.772 2.009,-1.543 2.678,-2.701 h 0.334 c 1.67,-1.933 2.672,-3.865 -0.669,-3.479 -3.012,0 -6.353,1.932 -9.031,2.707 -4.344,1.158 -8.693,2.316 -12.707,2.701 l -2.339,0.387 c -1.002,0 -1.675,-0.387 -1.675,0.772 0,2.318 0,4.251 -0.334,6.566 -0.334,3.092 -1.334,5.796 -4.01,8.498 C 6.019,-5.02 4.012,-3.088 1.671,-2.315 0,-1.543 -0.668,-1.543 0,0"
             style="fill:#abaaaa;fill-opacity:1;fill-rule:evenodd;stroke:none"
             id="path2478"
             inkscape:connector-curvature="0" /></g><g
           id="g2480"
           transform="translate(1756.8643,2583.9351)"><path
             d="m 0,0 -9.699,-0.772 c -2.005,0 -1.671,-0.388 0,-1.161 1.003,-0.386 2.344,-1.158 3.68,-1.544 2.005,-1.158 3.007,-3.088 4.678,-1.158 l 0.668,0.772 c 0.339,0.386 0.673,1.158 1.008,1.544 l 0.334,0.772 C 1.337,-0.387 1.337,0 0.335,0 Z"
             style="fill:#231f20;fill-opacity:1;fill-rule:evenodd;stroke:none"
             id="path2482"
             inkscape:connector-curvature="0" /></g><g
           id="g2484"
           transform="translate(1714.7305,2412.8193)"><path
             d="m 0,0 h 0.334 c 3.346,0 6.354,-1.16 9.029,-3.093 1.339,-1.158 4.682,-3.86 3.344,-5.02 -1.003,-1.159 -2.674,-2.32 -4.347,-3.092 -0.334,0 -0.334,-0.385 -0.668,-0.385 -1.004,0 -2.007,-0.386 -3.344,-0.386 -4.014,0 -4.682,6.18 -4.682,10.43 C -0.334,-1.16 -0.668,0 0,0"
             style="fill:#f471b4;fill-opacity:1;fill-rule:evenodd;stroke:none"
             id="path2486"
             inkscape:connector-curvature="0" /></g><g
           id="g2488"
           transform="translate(1601.375,2427.8843)"><path
             d="m 0,0 -1.003,-2.322 c -2.007,-4.246 -4.012,-8.883 -6.019,-13.518 -1.336,-2.704 -2.675,-5.793 -3.678,-8.497 -3.009,-6.954 -5.016,-14.292 -6.353,-21.632 -2.676,-11.587 -4.012,-24.721 -1.671,-36.306 1.337,-8.115 4.346,-17.001 10.7,-20.088 5.348,-2.705 9.028,-0.772 13.375,3.087 2.675,3.094 5.348,6.568 8.026,10.048 4.012,5.791 7.356,11.583 9.026,18.923 l 0.335,0.387 c 0,0.385 0.334,0.774 0.334,1.16 1.339,5.021 2.007,11.588 1.673,17.383 0,2.702 -0.334,5.021 -0.668,7.339 0,2.702 -0.337,3.86 -2.008,5.407 -3.677,3.862 -4.346,0.772 -4.68,-3.863 -0.336,-4.637 -0.67,-8.498 -1.339,-12.748 -1.671,-5.793 -5.685,-12.747 -8.024,-18.153 -0.668,-1.158 -5.685,-11.977 -5.017,-4.637 0,1.547 1.337,3.09 2.008,4.251 3.343,6.179 5.682,12.36 7.355,18.539 1.339,5.024 2.007,9.657 2.676,15.064 0.334,3.48 0.668,6.568 0.668,10.045 l -0.334,5.406 v 1.547 c -1.003,2.704 -2.005,5.02 -3.344,7.338 L 6.688,-4.638 6.353,-4.251 C 6.019,-3.48 6.019,-3.094 5.685,-2.322 4.346,1.158 2.341,4.631 0,0"
             style="fill:#e22739;fill-opacity:1;fill-rule:evenodd;stroke:none"
             id="path2490"
             inkscape:connector-curvature="0" /></g><g
           id="g2492"
           transform="translate(1681.9609,2402)"><path
             d="m 0,0 -0.668,-1.157 -1.337,-1.93 c -1.673,-2.319 -3.01,-4.251 -4.683,-5.796 -3.677,-3.862 -7.355,-7.339 -11.37,-10.43 -2.672,-1.932 -4.011,-3.09 -4.346,-5.406 -0.668,-4.637 1.674,-10.816 5.017,-14.678 4.346,-6.182 9.363,-7.725 15.048,-7.725 6.688,-0.387 6.017,0.386 11.034,3.862 1.673,1.157 3.009,2.319 4.68,3.091 5.017,3.474 9.363,7.725 14.046,11.586 1.336,1.545 2.675,1.545 4.346,1.932 1.003,0.388 2.004,1.16 2.341,1.932 1.002,4.635 -3.009,4.249 -4.682,6.568 -1.337,1.543 -2.005,3.474 -4.012,2.701 l -0.669,-0.386 c -1.673,-0.772 -2.007,-3.088 -3.344,-4.248 L 19.06,-21.63 16.051,-23.946 C 12.707,-26.651 9.363,-28.97 6.02,-31.286 l -5.018,-3.09 5.018,4.634 c 3.343,3.091 6.687,5.796 10.031,8.887 l 5.35,4.247 v 0.386 0.386 c 0.334,1.544 -2.341,2.319 -4.682,2.705 -2.342,0.386 -4.012,1.158 -6.017,2.319 C 9.029,-9.269 7.69,-7.724 6.688,-5.406 6.354,-4.247 6.354,-2.702 6.02,-1.157 5.017,4.251 3.01,4.251 0.334,0 Z"
             style="fill:#ffffff;fill-opacity:1;fill-rule:evenodd;stroke:none"
             id="path2494"
             inkscape:connector-curvature="0" /></g><g
           id="g2496"
           transform="translate(1724.7637,2061.3086)"><path
             d="m 0,0 c -1.339,-1.931 -3.012,-3.474 -4.683,-5.403 -5.35,-5.797 -8.36,-4.638 -15.047,-4.638 -6.688,0 -10.7,1.162 -16.385,5.408 -5.685,4.633 -8.693,10.434 -6.354,21.248 0.335,2.701 1.003,5.022 -2.673,2.314 -1.338,-0.771 -2.341,-2.314 -3.68,-3.473 -2.339,-2.321 -3.678,-4.638 -4.346,-6.953 -2.007,-4.638 -2.007,-11.204 0,-16.223 2.007,-5.024 5.351,-7.73 10.365,-11.204 4.349,-3.475 9.364,-5.018 14.714,-5.796 9.363,-1.157 19.395,0.778 26.082,6.567 2.675,2.316 5.014,5.024 6.353,8.883 1.001,2.323 1.335,5.023 0.666,8.112 C 4.346,4.252 2.673,3.865 0,0.391 Z"
             style="fill:#ffffff;fill-opacity:1;fill-rule:evenodd;stroke:none"
             id="path2498"
             inkscape:connector-curvature="0" /></g><g
           id="g2500"
           transform="translate(1714.396,2036.2021)"><path
             d="m 0,0 c 1.002,0.387 2.007,0.773 3.01,1.55 1.673,0.771 3.678,1.545 5.351,2.703 2.675,1.544 4.68,3.859 7.018,6.953 2.344,3.474 2.678,6.181 2.678,10.427 l -0.334,0.772 c 0,5.022 6.354,3.479 9.361,3.479 8.029,0 17.723,1.543 24.746,-3.865 2.004,-1.545 3.011,-3.475 4.347,-5.791 C 58.851,11.206 59.519,0.773 55.175,-2.7 46.478,-10.04 38.12,-17.764 30.096,-26.263 24.745,-32.059 20.063,-38.625 14.043,-42.872 c -3.341,-2.706 -7.355,-4.251 -11.368,-3.863 -9.363,1.157 -8.36,16.608 -6.353,24.719 1.003,3.479 2.008,6.566 3.678,9.66 0.668,1.929 1.673,3.473 3.01,4.632 l 0.668,0.386 c 0.336,0.385 0.336,0.385 0.671,0.385 0.334,0.772 1.002,1.158 1.336,1.546 2.676,2.32 5.351,4.251 8.358,5.794 3.68,2.32 7.695,3.093 11.371,5.022 2.672,1.158 3.679,3.09 0,3.475 C 20.731,9.27 12.373,3.866 8.695,1.164 8.026,0.387 7.022,-0.386 6.019,-1.156 5.351,-1.544 5.017,-1.93 4.683,-2.315 3.678,-3.087 2.675,-3.857 1.673,-5.021 L 1.336,-5.795 C 0,-7.338 -0.334,-8.109 -1.67,-6.566 l -1.339,1.545 c -0.669,0.775 -1.003,1.164 -1.337,1.548 -0.668,1.543 3.344,2.702 4.346,3.087 z"
             style="fill:#ffffff;fill-opacity:1;fill-rule:evenodd;stroke:none"
             id="path2502"
             inkscape:connector-curvature="0" /></g><g
           id="g2504"
           transform="translate(1760.2061,2022.3018)"><path
             d="m 0,0 c 1.003,1.544 1.671,2.701 4.015,2.701 4.009,0.773 8.692,-1.157 12.372,-3.477 0.668,-0.774 1.337,-1.16 2.339,-1.93 2.339,-2.316 4.014,-3.866 4.682,-7.727 1.003,-5.794 1.003,-11.204 0.669,-16.608 -0.335,-5.408 -1.671,-9.66 -3.347,-14.678 -2.004,-5.41 -3.675,-10.432 -5.345,-15.836 l -2.344,-6.568 -5.351,-8.883 -0.335,-0.387 c -2.004,-2.32 -4.009,-4.251 -6.352,-5.795 -0.669,-0.385 -1.003,-0.385 -1.671,-0.771 -0.335,0 -0.669,-0.387 -1.003,-0.387 -5.35,-2.32 -4.014,0.773 -2.005,3.475 0.669,1.158 1.671,1.93 2.005,3.478 2.674,7.721 5.017,16.223 7.022,24.721 3.341,13.521 6.019,31.673 -4.683,40.169 -3.341,2.702 -4.344,1.931 -0.668,8.112 z"
             style="fill:#ffffff;fill-opacity:1;fill-rule:evenodd;stroke:none"
             id="path2506"
             inkscape:connector-curvature="0" /></g><g
           id="g2508"
           transform="translate(1783.2803,1958.9502)"><path
             d="m 0,0 -1.002,-1.156 c -1.007,-1.55 -1.676,-3.094 -3.347,-3.481 -8.023,-1.929 -4.009,3.481 -1.671,8.502 2.674,6.563 5.686,12.745 7.357,19.698 l 0.668,3.087 c 1.671,8.118 4.683,28.971 -2.339,36.311 -4.349,4.251 -11.37,1.935 -15.719,5.408 -0.334,0.774 0,1.159 0.669,2.317 2.009,2.709 4.014,4.251 6.353,4.636 C -4.349,76.096 4.01,76.481 9.026,73.006 15.38,68.369 16.717,58.715 16.383,50.604 15.714,46.739 15.38,42.486 14.378,38.627 13.041,33.609 11.031,28.586 9.36,23.563 7.021,17.768 3.008,4.252 0,0"
             style="fill:#ffffff;fill-opacity:1;fill-rule:evenodd;stroke:none"
             id="path2510"
             inkscape:connector-curvature="0" /></g><g
           id="g2512"
           transform="translate(1663.9033,2036.2021)"><path
             d="m 0,0 -0.334,-1.544 c -2.005,-8.883 -2.673,-16.608 -1.002,-24.719 3.009,-13.519 11.37,-24.339 19.728,-33.993 8.36,-9.656 16.721,-18.538 26.75,-25.878 l 1.338,-1.159 c 13.375,-9.66 30.094,-22.018 40.796,-6.953 5.012,7.34 7.69,16.994 9.695,25.878 0,0.386 0.335,1.159 0.335,1.93 1.34,9.274 7.021,32.063 0.334,40.562 -2.674,3.087 -6.354,5.017 -9.362,3.473 -4.347,-2.316 -15.045,-17.767 -21.403,-22.789 -1.669,-1.543 -3.341,-2.317 -5.346,-3.474 -4.014,-1.55 -4.683,-3.865 -4.349,-8.883 v -0.386 c 0.335,-2.321 0.669,-4.637 1.003,-6.958 0.336,-1.545 1.005,-6.562 2.007,-8.107 1.673,-2.321 4.683,0 6.685,1.93 2.01,1.929 4.015,4.246 6.023,6.568 l 0.669,0.771 c 3.341,3.86 6.019,5.41 1.67,-0.771 l -0.334,-0.391 c -2.005,-3.475 -4.347,-6.177 -7.694,-8.107 -2.336,-1.162 -5.346,-2.321 -6.015,-4.252 -1.004,-2.32 -1.004,-2.32 -2.34,1.158 -1.339,3.48 -2.342,7.34 -3.01,10.813 -0.669,2.709 -1.003,4.639 -1.337,7.346 v 1.544 c 0,3.473 0.334,5.405 -2.007,6.953 -4.683,2.315 -7.692,5.795 -9.363,10.426 -4.012,11.977 5.685,27.428 5.017,28.972 0,0.387 -0.337,0.772 -0.671,1.157 l -0.668,1.159 -1.002,1.158 c -2.342,2.32 -3.344,3.479 -6.02,3.866 -4.346,0.77 -8.026,0.77 -12.372,1.929 C 20.065,0.773 12.373,6.183 7.692,13.136 7.024,13.906 6.354,14.68 6.02,15.065 3.346,17.001 0.671,2.321 0,0"
             style="fill:#ffffff;fill-opacity:1;fill-rule:evenodd;stroke:none"
             id="path2514"
             inkscape:connector-curvature="0" /></g><g
           id="g2516"
           transform="translate(1625.1152,1630.6221)"><path
             d="m 0,0 c -15.38,-4.638 -43.803,-10.429 -54.502,2.702 -0.334,0.391 -0.334,0.776 -0.669,0.776 -8.026,10.042 -20.064,27.037 -23.408,31.288 -15.714,20.082 -30.762,36.305 -54.503,47.51 -23.408,11.204 -48.487,17.379 -72.562,3.087 -8.026,-4.633 -15.716,-9.655 -22.738,-15.837 l -3.678,-3.088 c -10.699,-8.882 -19.394,-28.585 -19.728,-44.421 v -0.772 c 0,-6.182 1.671,-22.404 4.681,-18.93 1.002,1.163 1.338,2.322 1.672,3.865 1.671,6.182 2.342,13.135 4.681,18.924 4.683,13.522 13.709,22.797 23.742,30.903 6.02,5.021 21.734,18.543 29.089,16.611 1.005,0 -1.67,-1.161 -2.339,-1.547 -8.026,-3.86 -15.382,-8.883 -22.069,-15.064 -10.031,-8.106 -18.392,-18.539 -24.075,-30.903 -3.011,-5.789 -4.348,-11.971 -5.016,-18.924 -2.005,-20.473 6.019,-39.017 24.41,-45.965 1.003,-0.386 1.671,-0.386 2.674,-0.771 4.014,-1.159 8.026,-1.936 12.038,-2.322 10.365,-0.773 7.356,3.093 5.685,13.522 -1.002,6.567 -1.002,13.132 0,19.7 1.337,9.269 4.012,18.152 8.692,25.493 8.027,12.361 21.402,19.314 33.775,25.491 1.002,0.386 11.033,3.478 7.689,1.163 -2.005,-1.163 -5.014,-2.322 -7.689,-3.479 -12.707,-6.567 -25.414,-15.066 -32.436,-29.357 -3.009,-5.791 -5.014,-12.749 -6.019,-19.311 -1.002,-6.953 -0.668,-13.133 0,-19.7 1.005,-6.954 2.675,-13.522 6.687,-18.932 15.049,-19.695 55.508,-15.449 73.565,-10.426 13.041,3.865 25.413,7.725 38.455,11.59 24.745,7.725 49.153,16.223 73.896,26.648 1.673,0.774 3.346,1.932 5.017,2.709 l 10.702,4.246 c 3.341,1.548 3.341,2.708 3.675,6.181 0.67,3.474 1.339,6.953 1.673,10.042 V 9.27 l -0.668,1.157 c 0,0 -5.351,-4.247 -7.356,-5.404 C 9.031,2.702 4.349,1.543 0,0"
             style="fill:#ffffff;fill-opacity:1;fill-rule:evenodd;stroke:none"
             id="path2518"
             inkscape:connector-curvature="0" /></g><g
           id="g2520"
           transform="translate(1643.5068,1582.334)"><path
             d="m 0,0 c 1.673,-5.018 4.014,-9.27 6.354,-13.9 l 4.014,-9.27 2.339,-3.478 c 7.022,-9.655 13.709,-19.702 21.067,-28.971 13.709,-17.382 25.747,-28.972 40.793,-41.715 25.077,-20.859 59.856,-46.357 92.29,-39.789 5.017,0.773 9.027,2.708 12.373,5.41 3.675,3.473 7.022,6.953 9.361,11.199 0.334,0.385 0.334,0.385 0.334,0.771 2.01,3.48 3.346,7.344 4.348,11.591 4.015,16.608 3.346,40.175 -4.348,52.918 -3.007,5.41 -8.024,9.655 -12.372,13.906 -7.691,7.342 -1.671,4.637 2.343,1.159 0.334,-0.386 0.334,-0.772 0.668,-1.159 4.683,-4.251 9.695,-9.654 11.037,-11.584 9.694,-13.906 11.699,-37.473 6.353,-55.24 -1.676,-6.182 -4.349,-11.201 -7.695,-16.223 -2.005,-2.701 -3.676,-4.637 -5.346,-7.338 -1.676,-2.316 -1.342,-3.48 5.012,-4.252 21.738,-1.931 42.135,-1.544 59.189,15.451 4.344,4.251 6.015,10.045 7.691,15.45 0.668,2.708 1.336,5.41 1.671,8.117 0,8.883 -1.671,23.946 -2.006,28.579 -2.343,15.843 -8.697,29.356 -20.397,40.561 -5.35,5.411 -12.038,11.584 -12.706,13.13 0,0.777 5.012,-2.316 5.681,-3.089 3.68,-2.703 7.025,-6.18 10.701,-9.656 12.707,-13.133 17.724,-24.719 19.729,-40.946 0.668,-6.567 2.004,-19.696 1.67,-28.579 -0.334,-7.34 -2.338,-11.977 5.351,-4.637 9.031,7.724 9.699,20.859 8.024,33.216 -1.336,14.293 -6.353,30.906 -12.702,40.561 v 0.385 c -4.014,6.568 -8.029,12.745 -13.046,18.152 l -9.026,9.659 c -8.023,8.886 -20.73,14.676 -32.435,16.611 -10.702,1.546 -22.067,1.932 -32.769,0.772 -19.729,-2.321 -36.783,-11.976 -53.5,-23.946 -14.716,-10.433 -24.076,-19.703 -36.783,-33.995 -3.01,-3.476 -6.688,-6.567 -10.699,-8.884 -8.695,-4.636 -13.042,0.387 -24.078,10.815 -6.353,5.795 -11.033,11.59 -18.389,22.015 C 24.745,-8.49 19.06,-0.771 14.38,7.346 c 0,0.386 -0.335,0.771 -0.335,0.771 L 8.36,19.316 c -1.672,2.707 -3.009,5.795 -4.68,8.497 -1.339,1.931 -2.341,2.318 -4.014,0 0,-0.385 -0.334,-0.385 -0.334,-0.771 C -2.339,23.568 -2.339,20.475 -2.673,17 -3.01,10.434 -2.339,5.796 0,0"
             style="fill:#ffffff;fill-opacity:1;fill-rule:evenodd;stroke:none"
             id="path2522"
             inkscape:connector-curvature="0" /></g><g
           id="g2524"
           transform="translate(1597.3628,1920.7119)"><path
             d="m 0,0 -9.029,-17.768 c -8.695,-17 -19.06,-32.449 -28.757,-48.286 -1.337,-2.315 -3.007,-4.637 -4.68,-6.953 -4.347,-6.181 -8.361,-12.749 -12.707,-18.926 -5.351,-8.503 -11.368,-16.613 -16.05,-25.496 -8.359,-14.291 -10.031,-28.584 -5.017,-43.262 7.692,-22.79 34.108,-45.966 48.822,-64.504 l 1.336,-1.931 c 1.337,-1.162 13.375,-15.842 3.344,-9.659 -1.339,0.386 -2.676,0.77 -4.012,0.77 -7.69,0 -15.716,0.386 -23.072,2.317 -4.348,0.777 -7.692,1.935 -11.704,3.479 -9.029,3.093 -5.351,0.387 -1.339,-5.023 l 1.673,-1.93 c 10.699,-13.519 21.401,-27.04 31.432,-41.332 6.354,-8.493 11.034,-10.813 18.056,-11.973 8.36,-1.157 16.052,-0.772 24.077,0.387 10.699,1.543 40.125,8.496 40.459,23.946 0,1.546 0.334,3.089 0.668,5.024 1.004,7.726 3.012,14.292 5.685,21.246 l 1.339,2.702 c 2.341,5.794 2.675,6.568 -1.005,10.433 -13.375,13.129 -25.413,23.562 -38.118,37.463 -6.353,7.343 -13.043,13.521 -18.392,21.635 -6.353,9.265 -10.365,19.313 -15.382,28.581 -0.668,1.548 -1.67,1.158 -2.673,1.158 h -0.336 v -0.771 c -0.334,-0.772 -0.668,-1.931 -1.003,-2.702 -1.673,-5.024 -2.675,-5.797 -2.341,0 0.334,3.087 1.002,5.407 2.341,8.109 l 0.335,0.387 c 0.334,0.773 0.668,1.544 1.004,2.316 1.671,5.024 4.01,9.661 6.351,13.908 9.029,15.449 16.051,25.496 26.084,37.467 10.7,13.134 23.406,22.79 35.443,33.994 5.351,4.632 11.704,9.269 1.338,10.042 -1.672,0 -17.052,0.771 -17.386,1.158 -0.671,1.162 6.35,3.092 1.336,4.637 l -0.334,0.385 -3.344,0.773 C 26.75,-20.088 20.731,-10.819 14.043,-2.316 9.029,3.859 6.353,14.678 1.67,3.473 1.336,2.316 0.668,1.157 0,0"
             style="fill:#abaaaa;fill-opacity:1;fill-rule:evenodd;stroke:none"
             id="path2526"
             inkscape:connector-curvature="0" /></g><g
           id="g2528"
           transform="translate(1704.0308,1945.0439)"><path
             d="M 0,0 V -0.771 C 3.678,-11.199 5.351,-22.404 5.685,-33.608 6.353,-39.397 6.019,-45.193 6.019,-50.987 5.014,-76.479 0,-99.269 -5.015,-125.925 l -1.339,-8.109 c -2.341,-11.973 -5.685,-23.177 -8.694,-34.768 -7.356,-27.807 -13.375,-54.076 -23.741,-82.269 -0.668,-2.323 -1.672,-4.252 -2.341,-6.574 -0.334,-1.543 -1.002,-3.086 -1.336,-4.631 -5.017,-14.678 -7.356,-30.129 -11.37,-45.579 -4.012,-15.45 -5.015,-18.152 5.351,-35.923 9.696,-16.223 18.391,-32.448 30.43,-46.739 10.363,-12.362 22.401,-26.268 36.447,-13.134 0.334,0 0.668,0.386 1.002,0.772 8.694,7.726 17.722,20.474 26.418,27.042 1.337,1.543 3.008,2.701 4.679,3.858 5.684,4.638 11.704,9.269 18.056,13.135 5.686,3.48 11.37,6.953 17.056,10.04 0.334,0.389 0.668,0.389 1.002,0.774 5.686,2.707 8.024,3.092 0,5.022 -10.367,2.707 -22.071,3.481 -32.769,6.183 -10.368,3.472 -21.733,8.497 -28.757,15.836 -7.692,8.496 -7.358,20.087 -6.687,33.216 1.671,41.333 9.696,88.457 20.06,127.088 8.363,30.902 19.06,61.416 27.756,91.931 4.345,15.45 8.693,30.514 11.033,46.35 1.007,5.797 1.341,11.592 1.007,17.767 v 3.866 c 0,5.795 1.335,8.111 -4.683,6.568 C 68.213,4.638 65.875,3.095 62.529,-1.156 L 61.526,-1.93 c -1.67,-1.935 -2.673,-3.865 -5.017,-4.25 H 54.17 C 49.488,-6.953 51.159,-5.022 47.149,-9.654 38.118,-19.702 22.738,-8.883 14.379,-3.865 9.697,-0.771 5.351,1.931 1.339,5.411 -3.344,9.27 -1.339,4.252 0,0.387 Z"
             style="fill:#abaaaa;fill-opacity:1;fill-rule:evenodd;stroke:none"
             id="path2530"
             inkscape:connector-curvature="0" /></g><g
           id="g2532"
           transform="translate(1784.2832,1951.2256)"><path
             d="m 0,0 c 0.668,8.498 9.694,22.018 12.038,29.742 4.344,14.293 8.358,33.99 5.017,43.651 -0.334,0.384 -0.334,0.384 -0.334,0.773 C 14.043,80.73 8.357,84.206 1.67,85.363 H 1.336 l -0.334,1.163 c -0.668,3.088 0.668,4.633 2.339,6.95 l 0.673,0.77 c 1.337,2.708 5.68,11.204 0.334,5.41 -1.341,-1.544 -2.343,-3.86 -3.346,-5.41 L 0.668,93.86 c -1.337,-1.93 -1.003,-5.017 -1.671,-7.334 -0.668,-2.32 -1.675,-1.935 -3.68,-1.935 h -0.335 c -7.355,0 -2.672,6.182 -4.343,12.363 -1.007,3.859 -1.675,6.567 -3.68,9.655 -1.671,3.089 0,5.794 1.671,8.111 l 5.684,8.112 c 1.003,1.157 2.005,2.707 3.008,4.25 6.019,8.883 13.713,15.065 21.07,22.019 l 1.002,0.77 5.016,4.246 c 8.359,6.958 2.674,-11.97 2.674,-16.606 v -0.387 C 26.415,115.884 33.771,96.183 39.122,75.709 42.129,64.89 42.468,54.464 42.468,42.878 l 0.669,-7.732 c 0.334,-4.631 0.668,-3.472 2.339,-0.385 l 0.668,1.934 c 3.341,6.183 2.672,2.317 2.672,-3.093 V 32.059 C 48.482,27.428 47.814,24.335 46.478,20.475 41.795,7.725 35.441,-5.408 27.084,-15.45 21.732,-22.018 15.714,-27.041 8.692,-29.742 6.688,-30.514 4.682,-30.899 3.007,-30.899 -2.005,-30.129 1.002,-14.291 0.668,-8.883 0.668,-6.182 0,-3.087 0,0"
             style="fill:#abaaaa;fill-opacity:1;fill-rule:evenodd;stroke:none"
             id="path2534"
             inkscape:connector-curvature="0" /></g><g
           id="g2536"
           transform="translate(1782.6123,1911.4355)"><path
             d="m 0,0 -0.673,-4.245 -0.668,-6.181 c -0.335,-7.725 -1.337,-7.339 6.692,-3.473 h 0.668 l 6.014,3.087 c 5.686,2.707 11.036,6.18 16.388,9.655 h 0.668 c 5.684,4.637 11.036,9.274 16.387,15.451 4.677,5.795 9.026,11.976 12.038,19.314 l 4.678,11.586 c 2.005,5.025 2.005,11.204 -3.341,4.251 l -1.337,-2.316 c -1.007,-1.156 -1.675,-1.935 -2.678,-2.706 -2.005,-1.931 -0.668,1.55 0,2.706 0.335,0 0.335,0.386 0.335,0.772 0.334,0.387 0.334,0.387 0.334,0.772 l 2.344,5.795 v 0.386 c 0.668,6.569 1.336,12.749 1.002,18.926 v 15.836 1.935 c 0.334,5.023 -0.668,9.656 -1.671,14.293 -2.344,9.655 -5.351,18.923 -9.032,28.192 -3.006,8.89 -6.018,17.001 -9.026,25.499 0,0.384 -0.334,0.384 -0.334,0.771 -1.341,3.859 -2.01,7.725 -3.012,11.59 l -0.668,2.702 c -1.003,2.703 -1.67,5.408 -2.339,8.11 -0.334,-2.702 -1.002,-5.407 -1.002,-8.11 v -2.316 c 0,-4.251 0,-8.117 0.668,-11.976 v -0.771 c 0.668,-11.978 5.346,-23.562 8.692,-35.154 1.337,-5.022 3.347,-10.814 4.349,-16.608 0.668,-3.093 0.668,-25.878 4.009,-15.065 l 0.334,0.772 c 1.337,5.024 2.01,1.16 2.01,-1.542 v -1.937 c 0,-5.789 0.668,-11.584 0.668,-16.993 0.334,-5.79 -0.668,-10.429 -2.344,-16.224 L 49.819,55.241 C 49.151,52.539 48.148,50.219 47.146,47.515 44.808,42.878 42.464,38.246 40.459,33.995 L 40.125,33.608 C 39.122,32.452 38.454,30.907 37.447,29.358 35.108,25.884 32.101,22.797 29.089,19.702 16.716,8.503 16.048,11.204 3.007,5.41 0.668,4.64 0.668,2.708 0,0"
             style="fill:#ffffff;fill-opacity:1;fill-rule:evenodd;stroke:none"
             id="path2538"
             inkscape:connector-curvature="0" /></g><g
           id="g2540"
           transform="translate(1538.8462,2275.6904)"><path
             d="m 0,0 c -12.373,-10.427 -22.738,-23.176 -32.101,-37.469 -7.69,-11.198 -14.378,-23.175 -21.399,-34.76 -7.692,-11.977 -14.045,-21.631 -20.399,-36.31 v -0.387 c -5.685,-11.204 -10.699,-23.561 -15.048,-35.925 -10.031,-30.127 -6.687,-41.718 12.038,-61.414 9.03,-9.66 21.402,-15.451 33.772,-19.703 9.031,-3.478 33.774,-13.134 44.139,-9.654 0.668,0 1.003,0.387 1.673,0.387 12.036,5.789 4.013,17.765 0,27.425 -0.334,1.545 -1.005,2.702 -1.339,3.861 l -1.002,5.023 c -1.336,5.794 -0.668,8.497 -5.351,11.199 l -2.339,1.544 c -4.683,2.707 -9.363,6.954 -13.041,10.819 l -4.014,4.246 c -3.007,3.094 -7.69,11.976 -10.699,7.345 l -1.337,-1.937 c -0.671,-0.771 -8.027,-11.197 -7.358,-4.251 0.334,1.937 3.346,5.41 4.348,6.571 l 4.012,4.633 c 6.02,7.34 11.034,12.749 17.721,17.768 8.361,6.953 7.358,7.73 6.019,17 -1.336,10.04 -1.67,22.017 -1.336,33.988 0.334,16.225 0.668,34.767 6.353,49.831 l 1.003,2.701 c 3.678,10.433 6.353,18.544 11.036,28.585 L 9.697,0 c 2.007,4.251 10.699,14.292 0,6.953 C 6.353,5.022 3.344,2.707 0.334,0 Z"
             style="fill:#abaaaa;fill-opacity:1;fill-rule:evenodd;stroke:none"
             id="path2542"
             inkscape:connector-curvature="0" /></g><g
           id="g2544"
           transform="translate(1686.3096,2077.1504)"><path
             d="m 0,0 3.007,10.04 c 0.334,1.931 1.005,4.251 1.673,6.567 2.341,8.113 3.344,16.997 4.68,25.495 1.005,6.179 2.008,12.747 2.676,19.314 v 0.386 c 1.005,8.497 1.005,17.38 1.339,25.495 0.334,3.09 -0.668,8.11 3.678,6.563 h 0.334 c 2.676,-1.157 5.014,-2.701 7.69,-3.473 4.012,-1.158 3.344,1.93 0,3.473 -1.671,0.775 -3.344,1.161 -4.681,1.933 -2.675,1.547 -5.35,2.704 -8.36,3.863 -14.043,6.953 -29.425,10.816 -44.137,14.678 -1.004,0.386 -2.007,0.772 -3.009,1.158 -0.671,0 -0.671,0 -1.005,0.387 -2.005,0.385 -4.012,1.16 -6.019,1.932 -7.022,2.319 -10.366,-1.932 -0.335,-3.863 3.68,-0.771 4.683,-0.771 5.351,-4.637 1.337,-6.951 3.344,-13.131 5.351,-19.31 3.678,-10.042 8.024,-19.316 13.041,-28.585 C -15.382,55.234 3.007,23.563 1.336,18.539 1.002,17.767 1.002,17.381 0.668,16.607 0,11.199 0.668,8.497 -4.015,6.567 L -5.017,6.182 c -2.007,-0.774 -3.678,-1.936 -5.351,-3.866 -5.685,-6.182 -7.021,-10.041 -7.021,-18.158 0,-1.93 -0.335,-3.473 -0.669,-4.633 -2.341,-6.567 -4.348,-12.747 -6.019,-18.923 -2.005,-6.181 -2.341,-5.408 -5.017,0 l -1.336,1.93 c -5.351,9.27 -9.697,19.31 -15.046,28.585 -5.017,8.497 -9.029,18.153 -13.041,27.035 -6.019,13.135 -13.041,25.877 -18.726,39.399 -6.353,14.293 -12.706,41.333 -16.05,62.579 -3.678,24.72 -5.351,49.053 4.012,71.457 2.342,5.795 5.685,10.433 9.029,15.452 l 0.334,0.773 c 2.675,3.863 6.019,6.953 9.029,10.43 3.344,3.088 5.348,4.248 10.031,5.02 l 7.69,1.161 c 1.673,0 6.019,0 2.675,-2.319 l -1.67,-1.161 c -2.678,-1.929 -5.017,-4.63 -7.692,-7.339 -1.339,-1.158 -2.342,-2.316 -3.678,-3.088 v -0.386 c -2.008,-1.544 -3.678,-2.704 -5.686,-3.865 l -3.009,-2.316 c -1.002,-1.543 -1.671,-2.702 -2.341,-3.863 l -0.669,-1.16 v -0.386 c 0.335,-4.632 1.339,-5.407 3.68,-1.158 1.337,2.318 2.674,5.024 4.681,6.181 2.007,1.544 3.678,2.316 5.683,3.476 0.67,0.773 1.673,1.159 2.677,1.547 10.7,2.702 26.416,-6.18 35.777,-13.52 12.038,-9.272 22.069,-18.93 34.442,-27.814 19.394,-14.291 41.129,-23.175 59.856,-37.853 8.358,-6.567 13.709,-10.816 15.713,-16.996 C 91.286,99.27 80.25,69.141 73.563,52.918 63.867,29.356 51.829,5.408 36.447,-13.906 34.44,-16.227 33.104,-18.158 31.43,-19.702 23.072,-27.042 8.692,-23.176 1.671,-13.906 -1.673,-9.655 -1.673,-5.023 0,0.385 Z"
             style="fill:#abaaaa;fill-opacity:1;fill-rule:evenodd;stroke:none"
             id="path2546"
             inkscape:connector-curvature="0" /></g><g
           id="g2548"
           transform="translate(1565.9302,2315.4766)"><path
             d="m 0,0 c -0.668,-6.564 -1.671,-11.974 -1.671,-20.084 v -3.478 -1.161 c 0,-3.473 -2.007,-2.701 -4.348,-3.859 -2.673,-1.158 -3.678,-3.094 -5.349,-6.182 -6.019,-11.201 -11.37,-22.789 -15.716,-35.151 -3.678,-10.428 -7.356,-23.176 -8.695,-34.764 -3.01,-23.175 0.671,-64.122 3.344,-87.682 1.002,-8.496 1.673,-14.292 3.01,-20.473 3.677,-16.995 10.699,-34.762 15.382,-51.375 4.012,-14.292 9.697,-28.194 15.716,-41.328 14.043,-33.222 28.423,-61.415 49.488,-89.228 2.007,-2.703 4.012,-5.025 6.019,-7.726 5.351,-7.339 11.036,-18.929 19.394,-22.018 6.688,-2.314 18.726,-1.158 27.084,-3.088 5.351,-1.162 9.697,-2.32 14.714,-5.023 l 2.341,-1.55 c 1.671,-1.156 7.356,-5.789 11.703,-8.883 0.67,-0.385 1.004,-0.77 1.672,-1.157 0,-0.386 0.334,-0.386 0.334,-0.386 2.34,-1.544 3.01,-1.544 3.344,0.386 1.673,6.953 2.342,13.906 3.01,20.859 1.002,18.924 1.671,25.883 -4.683,44.036 -0.668,2.316 -1.671,5.017 -2.339,7.34 -5.016,13.907 -6.687,14.292 -15.047,24.718 -0.669,0.774 -1.674,1.931 -2.342,2.701 l -1.002,1.164 c -10.366,12.359 -22.404,25.106 -23.741,42.487 0,3.093 0,5.795 0.335,8.888 0.668,5.019 -5.686,12.743 -8.027,17.38 l -6.353,12.364 c -13.041,24.72 -25.748,49.824 -35.779,76.093 -1.337,3.088 -2.341,5.789 -3.344,8.883 -8.692,22.791 -14.377,51.761 -17.721,76.481 -1.004,9.268 0.668,31.672 3.344,42.878 3.343,14.292 9.363,23.561 17.721,33.991 5.685,7.34 4.012,6.564 -3.678,6.564 -13.375,0.776 -22.07,4.638 -31.099,16.998 L 6.688,0 C 1.339,6.953 2.007,15.453 0,0"
             style="fill:#ffffff;fill-opacity:1;fill-rule:evenodd;stroke:none"
             id="path2550"
             inkscape:connector-curvature="0" /></g><g
           id="g2552"
           transform="translate(1608.0625,2542.2188)"><path
             d="m 0,0 -7.356,-8.112 c -1.673,-1.932 -0.334,-1.544 1.673,-1.932 l 4.346,-1.159 c 3.344,-0.385 6.688,-1.546 9.697,-3.09 3.678,-1.544 17.387,-11.588 7.69,-0.387 -1.671,1.545 -3.009,3.477 -4.68,5.024 -0.334,0.772 -0.668,1.158 -1.005,1.544 -2.339,2.702 -4.68,5.406 -7.021,7.725 L 2.341,0 C 1.339,0.771 1.339,1.157 0.336,0.386 Z"
             style="fill:#abaaaa;fill-opacity:1;fill-rule:evenodd;stroke:none"
             id="path2554"
             inkscape:connector-curvature="0" /></g><g
           id="g2556"
           transform="translate(1585.3242,2529.0835)"><path
             d="M 0,0 4.683,0.386 C 8.026,0.772 11.704,0.772 15.048,0 c 5.685,-1.158 11.368,-2.702 16.719,-5.406 7.69,-3.477 14.043,-8.886 19.728,-15.451 5.017,-5.795 9.697,-11.974 14.044,-18.54 0.336,0 0.336,-0.387 0.67,-0.773 1.002,-1.547 2.341,-3.09 3.344,-5.023 3.343,-4.634 6.687,-9.269 10.031,-14.293 0.334,-0.772 1.002,-1.544 1.673,-2.315 7.356,-11.978 14.377,-24.723 21.733,-37.082 3.678,-5.796 3.678,-7.34 -2.005,-1.931 -12.372,12.357 -23.074,26.263 -35.781,39.013 -4.346,4.248 -9.026,8.883 -13.375,13.134 -3.344,3.087 -6.687,6.179 -9.697,9.27 -6.017,5.794 -12.37,11.586 -18.055,17.766 -4.014,3.864 -7.356,8.111 -11.37,11.589 -0.334,0.387 -0.668,0.387 -1.003,0.773 -2.007,1.544 -4.012,3.088 -6.019,4.635 -0.334,0.385 -0.668,0.385 -1.002,0.773 -1.003,0.774 -2.007,1.545 -2.676,2.317 z"
             style="fill:#ffffff;fill-opacity:1;fill-rule:evenodd;stroke:none"
             id="path2558"
             inkscape:connector-curvature="0" /></g><g
           id="g2560"
           transform="translate(1568.6055,2527.5391)"><path
             d="m 0,0 c -5.014,-1.157 -9.697,-2.316 -15.048,-4.248 l -1.671,-0.774 c -2.341,-1.159 -5.016,-2.316 -7.355,-3.861 l -2.008,-1.157 c -7.356,-5.023 -4.346,-6.953 2.008,-3.866 l 3.344,1.544 c 3.343,1.932 6.687,2.322 10.365,2.322 l 2.676,-0.39 c 5.014,0 5.348,-2.704 0,-3.091 -8.361,-0.385 -4.347,-3.087 0,-5.406 0.334,0 0.668,-0.386 1.336,-0.386 v -0.389 c 7.021,-3.088 13.711,-6.95 20.399,-10.812 l 2.339,-1.158 c 9.697,-5.024 18.391,-11.205 27.755,-17.384 4.345,-3.09 9.028,-5.406 13.709,-8.499 12.372,-7.725 24.074,-17.767 35.444,-27.424 4.012,-3.09 23.406,-20.086 25.079,-18.927 1.337,1.157 -5.351,6.953 -7.355,9.269 -4.349,4.252 -8.695,8.499 -13.041,12.748 -11.371,11.202 -22.072,22.404 -33.44,33.607 -7.69,7.338 -16.051,14.677 -23.74,22.016 -5.017,5.021 -9.697,10.043 -14.38,14.679 C 21.735,-6.953 15.048,0.387 10.7,1.544 8.026,2.703 2.676,0.772 0,0"
             style="fill:#ffffff;fill-opacity:1;fill-rule:evenodd;stroke:none"
             id="path2562"
             inkscape:connector-curvature="0" /></g><g
           id="g2564"
           transform="translate(1672.5981,2484.2764)"><path
             d="M 0,0 0.336,3.479 V 4.637 C 0.67,8.112 0.67,11.977 1.004,15.45 l 2.005,11.976 c 0.669,4.636 1.674,8.884 2.676,13.52 2.675,10.043 7.022,19.699 12.707,27.812 4.012,5.407 13.041,18.155 19.394,17.383 C 46.815,84.98 49.154,65.281 49.488,55.237 49.824,43.649 47.817,32.833 45.142,22.018 43.471,15.065 41.129,8.112 38.454,1.547 36.113,-4.249 19.73,-40.169 17.053,-39.784 c -0.669,0 -2.005,2.702 -2.339,3.473 l -7.022,10.048 c -3.68,5.017 -2.007,3.087 0.334,7.724 2.005,3.86 3.344,7.34 4.347,11.2 1.338,4.637 1.338,8.886 0.668,13.52 -1.337,9.269 -6.017,6.182 -9.029,0 C 4.012,5.795 3.678,5.41 3.344,5.023 V 4.637 C 2.341,3.09 1.673,1.547 0.336,0.386 Z"
             style="fill:#ffffff;fill-opacity:1;fill-rule:evenodd;stroke:none"
             id="path2566"
             inkscape:connector-curvature="0" /></g><g
           id="g2568"
           transform="translate(1735.4609,2436.3809)"><path
             d="m 0,0 1.341,5.021 1.337,3.476 c 1.002,2.702 2.339,6.182 3.676,9.27 1.335,2.705 6.353,16.222 10.367,25.109 1.003,2.317 6.353,15.063 9.361,8.499 0.673,-1.546 0,-6.567 0,-8.499 v -1.548 c 0,-7.339 -1.003,-15.064 -3.342,-22.404 -0.334,-1.929 -1.002,-3.86 -1.671,-5.792 -3.011,-8.111 -7.021,-15.45 -10.702,-22.789 -0.668,-1.161 -1.336,-2.32 -2.004,-3.091 l -3.012,-5.795 -2.673,-3.475 c -1.671,-1.933 -3.012,-3.479 -4.683,-5.023 l -2.344,-1.543 c -1.337,-1.159 -2.336,-1.931 -2.336,0.386 0.333,1.929 0.333,2.315 0.999,3.862 l 1.003,0.774 c 2.344,3.089 4.683,6.179 6.359,9.27 1.336,2.315 2.339,5.795 2.004,8.112 0,2.315 -0.668,4.247 -2.673,3.862 C -0.668,-3.093 -0.668,-1.933 0,-0.386 Z"
             style="fill:#ffffff;fill-opacity:1;fill-rule:evenodd;stroke:none"
             id="path2570"
             inkscape:connector-curvature="0" /></g><g
           id="g2572"
           transform="translate(1606.0576,2437.1538)"><path
             d="m 0,0 1.67,4.248 2.676,4.634 c 1.003,1.93 1.003,3.864 3.009,3.477 L 21.064,7.724 c 17.724,-6.567 35.445,-15.063 53.837,-21.245 2.675,-0.772 5.351,-1.93 8.024,-3.863 l 0.668,-0.386 c 2.342,-1.546 2.008,-1.546 0,-3.476 l -0.668,-0.772 -1.671,-5.409 c -0.668,-2.317 -1.673,-2.317 -3.343,-3.475 -1.005,-0.386 -1.339,-0.771 -2.008,-1.932 -1.336,-1.547 -2.675,-3.477 -4.011,-5.021 -3.679,-4.637 -7.693,-8.883 -12.039,-12.749 l -2.007,-1.543 c -4.012,-3.477 -6.351,-6.953 -5.014,-13.135 1.002,-4.635 3.343,-8.884 5.35,-11.974 3.678,-5.02 7.69,-5.407 14.712,-6.564 2.675,-0.389 5.351,-0.775 7.358,-0.389 2.339,0.774 4.012,2.705 6.019,4.25 4.01,3.089 8.024,6.566 12.036,9.657 l 1.005,0.772 c 4.346,3.477 8.692,6.181 12.37,10.044 0.335,0.386 1.005,0.772 1.339,1.157 l 1.671,0.386 c 2.007,0.386 7.69,2.705 7.69,0 v -1.93 -0.772 l 1.336,-10.429 0.669,-6.953 c 0.334,-3.092 -1,-2.319 -3.342,-1.932 -12.372,0.771 -23.406,-2.704 -35.11,-7.727 h -0.334 c -13.375,-5.793 -25.414,-12.359 -38.118,-18.538 -9.7,-5.024 -19.394,-8.885 -29.428,-10.045 -6.687,-0.773 -13.375,-0.773 -20.397,0 -2.341,0.388 -3.009,1.932 -0.668,3.092 l 0.668,0.385 c 5.686,2.703 9.363,6.182 13.041,11.974 l 0.334,0.387 c 7.356,10.815 10.702,23.561 11.036,37.469 0,5.405 -0.67,11.2 -2.341,15.063 l -0.67,1.161 c -0.669,1.544 -1.337,3.474 -2.674,3.474 -2.007,0.387 -2.675,0.387 -3.009,2.704 -1.005,10.43 -4.012,18.156 -8.026,27.425 -1.337,2.705 -2.674,5.408 -4.347,6.953 -2.007,2.705 -2.675,2.316 -1.002,5.795 z"
             style="fill:#871b3a;fill-opacity:1;fill-rule:evenodd;stroke:none"
             id="path2574"
             inkscape:connector-curvature="0" /></g><g
           id="g2576"
           transform="translate(1695.002,2412.4297)"><path
             d="M 0,0 C -1.671,1.547 -3.678,1.547 -4.012,-1.157 -4.681,-7.338 -2.673,-11.973 0,-16.61 c 4.014,-5.793 10.368,-6.179 16.05,-6.179 2.008,0 2.342,-1.157 2.008,-3.09 -0.334,-1.544 1.002,-1.93 2.005,-3.088 l 1.004,-0.775 c 1.671,-1.543 3.01,-1.543 4.681,-1.157 1.672,0.385 4.014,0 6.019,0.771 3.006,1.161 4.343,3.862 5.016,6.953 1.337,4.635 1.671,4.249 5.352,2.32 l 0.668,-0.386 c 7.021,-3.865 15.046,-6.182 22.735,-8.887 4.683,-1.932 4.683,-1.157 3.347,3.09 -2.344,5.41 -5.018,9.655 -6.688,15.065 l -0.335,0.387 c -0.673,1.543 -1.007,1.929 -2.008,3.09 l -3.342,3.863 c -2.678,2.316 -5.017,4.248 -7.69,6.18 L 47.814,2.32 C 46.479,3.091 46.145,2.706 45.142,1.547 l -1.671,-1.932 c -3.68,-3.862 -7.361,-7.725 -11.37,-11.201 -3.344,-3.477 -5.685,-5.024 -9.363,-4.25 -4.346,1.159 -5.014,3.863 -5.349,7.34 -0.334,4.634 0,8.496 -2.007,11.974 -0.334,1.158 -1.002,1.93 -1.673,2.705 -0.668,1.157 -1.336,2.318 -2.005,3.09 l -5.685,7.725 -3.678,3.86 C 0,23.565 -2.005,25.881 -4.346,28.586 l -0.335,0.386 c -4.345,5.021 -7.692,10.815 -11.37,16.222 -2.675,4.249 -6.687,10.044 -10.031,15.453 -4.346,7.34 -9.697,13.904 -14.711,20.472 -2.007,2.704 -4.015,5.02 -6.353,7.338 -2.008,1.933 -4.683,4.636 -7.022,6.951 -1.339,1.161 -2.676,2.708 -4.015,3.865 -2.005,1.93 -6.353,6.182 -2.672,1.93 0.667,-0.771 1.001,-1.157 1.67,-1.93 1.336,-1.543 2.675,-3.477 4.346,-4.637 2.341,-2.702 4.683,-6.179 6.688,-8.883 1.672,-2.316 4.348,-6.181 6.019,-8.496 5.017,-6.953 9.028,-13.136 13.375,-20.089 3.009,-4.246 6.69,-10.042 9.362,-14.678 3.01,-5.407 6.02,-10.042 9.03,-15.45 C -6.688,20.858 -3.344,15.84 0.334,9.273 0.668,8.115 2.675,8.501 3.678,8.501 4.683,8.501 5.685,8.115 6.354,8.115 10.031,6.183 9.697,5.021 7.355,3.863 6.354,3.478 5.017,3.863 4.014,3.863 1.336,3.863 2.675,1.934 2.341,0.39 2.007,-1.545 1.002,-0.771 0,0"
             style="fill:#ffffff;fill-opacity:1;fill-rule:evenodd;stroke:none"
             id="path2578"
             inkscape:connector-curvature="0" /></g><g
           id="g2580"
           transform="translate(1736.4678,2388.0938)"><path
             d="m 0,0 27.753,-10.813 c 1.67,-0.771 2.673,-0.771 2.673,-3.476 v -15.065 c 0,-3.09 0,-2.705 -2.005,-0.388 l -0.668,0.775 c -3.681,3.862 -7.69,7.725 -12.039,11.201 l -3.68,3.477 c -3.342,3.09 -6.353,5.792 -10.029,8.111 l -3.012,2.319 c -1.671,1.157 -2.005,1.157 -1.671,3.088 0.669,1.932 1.003,1.546 2.344,0.771 z"
             style="fill:#ffffff;fill-opacity:1;fill-rule:evenodd;stroke:none"
             id="path2582"
             inkscape:connector-curvature="0" /></g><g
           id="g2584"
           transform="translate(1733.1221,2379.9834)"><path
             d="m 0,0 v -2.315 c 0,-1.931 1.337,-3.091 2.339,-4.638 l 1.007,-1.545 c 2.005,-3.087 4.009,-6.181 6.348,-8.882 l 15.385,-20.089 c 1.671,-2.316 2.005,-3.087 2.339,0 1.003,4.637 0.669,9.273 0,13.906 -0.334,1.545 -0.334,3.864 -1.671,5.024 l -1.67,1.159 c -2.344,1.544 -4.348,3.087 -6.353,5.021 L 2.673,1.161 C 0.668,2.704 -0.334,1.932 -0.334,0 Z"
             style="fill:#ffffff;fill-opacity:1;fill-rule:evenodd;stroke:none"
             id="path2586"
             inkscape:connector-curvature="0" /></g><g
           id="g2588"
           transform="translate(1764.2207,2349.082)"><path
             d="m 0,0 -0.334,1.544 c 0,1.161 0.334,1.161 1.336,1.933 0.334,0.385 0.334,0.385 0.668,0.385 0.669,0 0.669,-1.157 1.003,-1.543 V 1.931 C 3.007,1.158 3.007,0.772 2.673,0 L 2.339,-3.473 C 2.005,-5.407 1.67,-5.021 0.668,-3.473 0,-2.702 0,-1.544 0,0.386 Z"
             style="fill:#ffffff;fill-opacity:1;fill-rule:evenodd;stroke:none"
             id="path2590"
             inkscape:connector-curvature="0" /></g><g
           id="g2592"
           transform="translate(1545.1992,2507.8374)"><path
             d="m 0,0 -1.002,-0.772 -7.022,-4.634 c -5.685,-3.863 -11.036,-8.498 -15.048,-14.676 -0.67,-0.775 -1.005,-1.932 -1.673,-2.707 -1.671,-3.088 -3.678,-6.565 -4.68,-10.042 -0.334,-1.157 1.671,1.159 2.341,1.544 1.002,1.159 2.005,1.933 3.007,3.092 2.008,2.318 4.014,4.248 6.019,6.568 1.339,1.931 4.683,6.563 7.356,8.496 4.683,3.09 6.354,-1.543 1.005,-6.951 -0.334,0 -0.668,-0.389 -1.005,-0.775 -0.334,-0.385 -0.334,-0.385 -0.334,-0.77 l -5.683,-6.954 -4.011,-9.273 c -2.676,-5.406 -3.012,-11.199 -3.012,-17.38 l 0.336,-1.93 c 0,-6.953 -1.005,-15.451 0.668,-22.404 0.335,-1.16 0.669,1.545 1.003,2.702 2.341,6.568 3.009,12.749 3.343,19.702 v 0.387 1.543 0.773 c 1.003,5.022 3.678,4.637 3.344,-2.316 -1.002,-16.226 -0.668,-23.176 7.024,-37.469 1.336,-3.093 2.673,-6.953 4.012,-10.045 4.346,-10.429 9.029,-20.084 13.709,-29.355 l 2.008,-3.863 c 4.68,-9.27 2.338,5.409 2.004,8.497 v 1.93 c -0.334,5.023 2.008,3.866 3.01,0 3.678,-11.585 1.005,-26.264 3.344,-38.626 1.336,-10.041 8.024,-22.79 13.709,-28.197 6.019,-5.793 12.038,-10.044 19.728,-10.815 11.37,-1.544 24.411,1.158 32.77,3.862 4.014,1.16 8.36,2.705 12.372,3.863 l 11.37,3.863 c 2.005,0.771 13.375,1.161 8.358,-2.705 -2.339,-1.544 -5.349,-1.93 -8.024,-2.702 -2.676,-0.386 -5.351,-1.159 -8.024,-1.933 -0.671,0 -2.007,-0.386 -3.346,-0.386 -4.346,-0.774 -4.68,-1.16 0,-1.16 2.341,-0.386 4.348,-0.386 6.688,-0.386 17.723,-1.158 36.783,-5.021 53.836,0.386 l 4.346,1.546 c 4.014,1.161 7.024,2.705 10.702,5.407 l 1.671,1.547 c 3.345,2.704 7.691,3.09 3.009,-2.319 l -5.349,-6.181 -0.668,-0.386 c -3.346,-3.474 -5.685,-5.021 0.668,-3.474 2.34,0.386 4.347,1.158 6.354,1.929 2.005,0.774 3.344,1.545 4.678,3.477 2.343,2.319 4.349,5.021 6.692,7.34 l 2.338,2.318 c 3.008,3.088 5.686,6.567 8.359,10.428 2.344,4.251 6.687,9.271 4.014,-0.387 l -0.334,-1.158 -1.67,-2.701 c -1.675,-3.48 -3.681,-6.182 -4.683,-10.433 -0.334,-1.157 -0.668,-2.316 -1.002,-3.474 -1.342,-4.636 -1.008,-3.479 1.67,-0.386 1.003,1.158 1.671,2.316 2.674,3.474 0.334,0 0.334,0.386 0.668,0.386 0.339,0.386 0.673,0.773 1.007,1.547 0.669,1.547 1.67,3.09 2.672,4.634 l 2.674,5.023 c 1.341,2.317 2.01,4.632 2.344,7.34 l 0.334,1.543 c 0.334,1.932 1.336,3.477 0.334,5.021 -2.678,3.863 -12.707,16.225 -14.043,18.155 l -3.012,3.862 c -1.337,1.547 -2.34,3.091 -3.342,5.022 -1.002,1.932 -5.351,11.204 -5.351,7.725 0,-2.703 -0.334,-5.02 -0.334,-7.725 0.334,-2.703 0.334,-5.408 1.003,-7.725 0.334,-0.774 0.668,-1.159 1.002,-1.931 1.337,-2.705 2.01,-5.024 2.01,-8.498 0,-2.318 -1.007,-1.931 -2.344,0 0,0.386 -0.334,0.386 -0.334,0.773 -0.334,0.386 -0.668,0.772 -1.003,1.158 l -0.334,0.771 c -3.68,6.568 -5.685,5.411 -12.706,5.024 -6.354,-0.386 -12.373,-1.158 -18.392,-3.09 -13.041,-4.636 -27.084,-13.907 -37.786,-19.699 -8.358,-4.638 -17.387,-8.886 -25.747,-11.591 -7.022,-1.93 -14.378,-3.474 -21.065,-3.859 h -2.676 -1.337 c -5.351,0.385 -10.365,1.543 -14.713,3.473 -4.681,2.32 -9.029,5.796 -12.373,10.044 -7.021,9.273 -6.687,21.243 -6.019,33.219 0.67,18.156 5.685,34.378 12.039,50.988 4.014,10.042 8.026,17.767 14.043,28.197 0,0.386 0.333,0.775 0.333,0.775 l 0.671,0.772 c 1.003,1.929 3.344,4.245 0.668,5.02 -5.014,1.547 -18.391,-0.386 -16.05,3.863 0.335,0.386 13.71,-0.387 15.716,-0.387 3.01,-0.385 6.02,-0.385 9.364,-1.156 3.009,-0.387 6.353,-1.161 9.026,-2.32 l 11.37,-4.633 c 10.702,-4.638 22.069,-8.885 32.769,-13.907 2.008,-0.773 8.027,-4.25 3.009,-0.386 -1.001,0.772 -2.006,1.543 -3.009,2.315 -9.026,6.954 -18.391,13.52 -27.418,20.474 l -13.041,10.427 c -9.029,6.953 -19.06,11.591 -28.423,17.387 -9.028,5.406 -17.721,10.812 -26.416,16.222 C 21.399,-6.564 13.709,-1.158 6.02,2.708 3.678,3.479 3.01,2.322 0,0"
             style="fill:#ffffff;fill-opacity:1;fill-rule:evenodd;stroke:none"
             id="path2594"
             inkscape:connector-curvature="0" /></g><g
           id="g2596"
           transform="translate(1715.0645,2415.9077)"><path
             d="m 0,0 c -6.02,7.725 -12.036,15.064 -18.056,22.017 l -1.673,2.316 c -2.672,3.48 -2.338,3.48 0.334,6.954 2.342,3.479 4.683,7.338 7.022,11.204 0.671,0.772 1.005,1.93 1.673,3.087 2.008,4.638 4.012,9.273 5.685,13.908 4.681,11.587 9.698,23.175 12.036,35.152 1.339,6.178 2.008,12.357 2.342,17.766 0.336,11.201 -0.669,28.585 -3.344,35.537 -5.014,12.361 -14.711,12.361 -23.406,2.317 -6.019,-6.953 -10.7,-13.906 -14.714,-22.79 -2.339,-5.408 -4.346,-10.813 -6.353,-16.608 -3.342,-11.976 -4.681,-25.109 -5.015,-37.854 v -3.479 c 0,-9.269 -2.341,-9.269 -7.356,-2.701 -5.016,5.794 -8.36,14.291 -14.379,19.698 -9.026,8.114 -15.046,14.292 -22.738,24.336 -4.681,6.182 -10.366,10.813 -15.048,16.608 l -2.005,2.705 c -1.671,1.932 5.016,6.564 7.356,8.886 2.007,2.316 4.014,4.631 6.353,6.951 8.026,8.885 15.717,17.769 23.072,27.037 4.012,5.025 7.358,9.273 13.378,11.591 l 0.334,0.387 c 5.014,1.929 12.706,7.725 14.043,-0.387 0,-0.386 0.334,-0.772 0.334,-1.161 0.334,-1.157 1.002,-1.543 2.675,0.389 2.008,3.088 1.337,7.337 1.337,11.2 v 2.704 c 0,18.541 19.394,60.644 29.092,76.482 0,0.387 0,0.387 0.333,0.773 17.056,27.037 43.805,44.035 69.219,59.485 28.754,18.153 58.851,34.378 87.945,52.532 15.713,9.27 31.093,18.925 46.477,29.359 8.359,5.019 16.383,10.426 24.406,15.449 6.02,3.475 12.039,7.34 18.393,10.814 6.019,3.865 36.449,24.336 37.451,17.382 1.337,-8.497 -1.671,-18.154 -5.35,-26.652 -6.02,-13.52 -15.714,-32.059 -23.071,-44.807 -1.341,-1.93 -2.343,-3.863 -3.679,-5.795 -3.676,-6.179 -7.356,-11.585 -10.703,-17.381 -4.343,-8.111 -9.026,-15.45 -14.043,-22.789 -22.401,-31.673 -46.144,-60.644 -75.906,-82.663 -16.382,-11.975 -33.103,-21.629 -51.829,-31.674 h -0.334 c -1.671,-0.772 -3.342,-1.932 -5.013,-2.705 -11.704,-6.954 -26.749,-10.813 -39.456,-15.836 -4.348,-1.93 -8.697,-3.474 -13.375,-5.407 -6.019,-2.318 -11.704,-6.954 -17.055,-10.43 -6.353,-3.863 -12.372,-7.725 -18.726,-11.587 -0.334,-0.386 -1.002,-0.386 -1.336,-0.775 -1.673,-0.772 -3.347,-1.158 -5.351,-1.93 -2.007,-0.386 -4.012,-1.158 -7.022,-3.477 -0.334,-0.386 -0.334,-0.386 -0.668,-0.386 -1.673,-1.546 -7.358,1.547 -10.702,-0.772 l -1.002,-0.774 -1.671,-1.93 c -1.339,-1.159 -2.678,-2.702 -4.015,-3.862 l -0.334,-0.387 c -2.004,-1.933 -3.009,-4.634 -4.346,-7.339 -2.341,-5.793 -1.005,-3.862 1.337,0 1.005,1.546 2.007,3.091 3.343,4.635 3.01,3.091 6.02,5.409 9.698,7.339 l 2.007,0.772 v -1.158 c 0,0 -7.356,-10.814 -8.361,-11.974 0,-0.386 -0.334,-0.386 -0.334,-0.772 -2.007,-3.091 -4.012,-6.181 -5.685,-9.657 0,0 1.005,1.157 2.008,2.318 2.004,2.318 4.011,5.02 6.019,7.339 3.677,4.249 6.353,8.884 10.699,12.361 l 1.005,0.385 c 2.339,2.318 5.014,3.862 8.024,5.023 3.009,1.158 5.685,1.545 8.692,0.773 3.346,-0.773 5.686,-2.705 8.026,-6.181 l 1.339,-1.545 c 1.671,-3.479 3.008,-6.953 3.008,-10.816 l 0.334,-1.16 c 0.336,-2.703 0,-4.246 2.005,-5.793 l 1.007,-0.775 c 10.029,-7.725 17.051,-20.083 21.733,-32.831 l 4.015,-11.588 c 1.336,-3.862 0.668,-4.249 -1.676,-5.792 -2.005,-1.161 -4.344,-2.707 -6.015,-4.251 -1.006,-1.159 -1.006,-1.931 0,-1.931 2.005,0.386 4.01,2.702 5.681,3.861 2.678,2.321 3.68,3.092 4.014,-0.772 0,-2.317 -1.67,-4.246 -3.012,-5.793 -2.673,-3.09 -6.015,-7.726 -7.017,-11.588 0,-0.385 0.334,-0.385 0.334,0 3.342,3.088 6.349,7.725 9.027,11.588 1.671,1.933 3.008,3.863 4.682,5.406 3.342,2.705 7.022,1.545 5.681,-4.634 L 51.161,82.661 c 0,-0.772 -0.335,-1.544 -0.335,-1.929 -0.668,-2.706 -2.004,-7.34 -4.681,-5.796 H 45.81 v 3.476 l 0.335,0.386 v 0.389 c 0.334,0.386 0.668,0.772 1.006,1.158 1.671,2.316 3.341,5.406 0.334,5.406 -0.672,0 -3.346,-6.178 -3.68,-6.953 l -3.68,-6.95 -1.003,-1.546 C 33.438,60.258 29.428,50.216 25.413,39.397 L 25.079,38.24 C 21.403,28.584 18.058,18.541 15.38,8.111 c -1,-3.474 -1.669,-6.181 -2.005,-9.655 0,-3.091 -0.334,-5.024 -3.007,-3.479 -1.674,1.16 -3.01,1.935 -4.683,2.32 C 3.346,-1.931 1.339,-1.544 0,0"
             style="fill:#abaaaa;fill-opacity:1;fill-rule:evenodd;stroke:none"
             id="path2598"
             inkscape:connector-curvature="0" /></g><g
           id="g2600"
           transform="translate(1763.2178,2562.6924)"><path
             d="M 0,0 3.008,-0.775 C 5.013,-1.547 6.354,-2.322 5.013,0.386 L 4.679,0.771 c -1.337,3.087 0.668,1.931 3.011,1.544 3.676,0 7.356,-1.544 10.698,-2.315 9.365,-1.934 18.391,-3.865 27.422,-6.182 13.375,-3.091 33.103,-6.568 46.812,-9.658 16.717,-3.091 22.067,-3.476 39.123,-2.318 11.37,0.772 22.406,2.318 35.781,6.181 5.68,1.544 14.711,4.251 20.397,5.795 7.689,2.317 15.38,5.021 22.735,8.884 16.387,8.111 33.104,16.608 47.82,28.198 3.675,2.702 6.687,6.181 10.029,9.656 l 5.016,5.409 c 3.007,1.544 6.688,1.544 9.695,2.702 10.034,5.022 7.021,6.567 2.01,5.022 -1.337,0 -2.344,-0.385 -3.68,-0.771 l -9.695,-2.705 -3.346,-0.775 c -35.443,-4.631 -71.558,-4.631 -107.339,-4.245 -11.365,0 -23.403,0.386 -35.108,0.386 -1.336,-0.386 -3.007,-0.386 -4.348,-0.386 -11.366,0 -22.067,-0.775 -33.104,-1.547 -19.06,-1.932 -38.115,-5.021 -56.507,-10.43 l -6.688,-1.929 c -5.35,-1.544 -9.03,-2.704 -14.047,-1.544 l -17.385,3.473 -10.702,0.386 c -3.008,0 -6.353,0.387 -2.005,4.252 0.334,0.386 0.668,0.386 0.668,0.386 2.674,0.772 19.395,0 16.383,4.634 l -0.669,0.772 c -0.334,1.161 -8.023,2.319 -3.007,4.635 1.336,0.386 2.673,1.157 4.01,1.932 7.361,3.476 14.382,5.407 22.071,6.952 l 7.691,1.932 h 0.334 c 13.041,3.091 25.748,5.792 39.123,7.339 11.035,1.16 22.071,2.318 33.102,3.09 32.436,2.316 65.539,0.773 98.308,0 30.43,-1.157 60.86,1.158 90.951,7.339 5.352,0.774 10.034,2.317 14.717,3.864 3.676,1.546 15.046,5.792 17.724,1.16 0.668,-0.774 0.668,-1.936 0.668,-2.707 -0.334,-5.793 -5.351,-10.813 -8.698,-14.293 l -3.006,-3.088 C 306.627,56.778 301.61,52.532 296.259,47.895 l -1.67,-1.544 c -4.35,-3.866 -8.36,-7.726 -13.041,-11.202 l -0.669,-0.774 C 274.86,30.128 268.841,25.491 263.155,21.243 249.112,11.198 232.062,-1.547 216.343,-8.114 c -1.67,-0.773 -3.68,-1.544 -5.685,-2.319 -2.005,-0.772 -3.342,-1.158 -5.35,-1.93 -3.342,-1.158 -6.354,-2.316 -9.362,-3.09 -2.673,-1.158 -5.35,-1.933 -8.023,-2.705 -2.01,-0.386 -4.349,-1.158 -6.354,-1.545 -7.36,-1.929 -15.05,-3.476 -22.406,-4.634 -7.689,-1.547 -15.714,-3.09 -23.738,-3.863 -17.055,-1.93 -34.779,-1.93 -52.168,0.387 -5.346,0.772 -10.028,1.929 -15.714,3.476 -7.355,2.318 -15.38,4.249 -23.074,6.179 -10.364,2.705 -20.397,5.023 -31.094,6.953 l -2.344,0.387 c -1.002,0.385 -2.005,0.385 -3.007,0.77 l -2.004,0.39 -16.053,2.319 c -3.342,0.386 -7.357,0 -9.696,3.088 l -1.006,1.156 c 0,0.387 -0.334,0.773 -0.668,1.161 L -23.074,0 c -1.337,1.93 -5.017,4.632 -2.673,5.018 1.336,0 2.673,0 4.01,0.388 C -14.382,5.792 -7.026,2.315 0,0"
             style="fill:#abaaaa;fill-opacity:1;fill-rule:evenodd;stroke:none"
             id="path2602"
             inkscape:connector-curvature="0" /></g><g
           id="g2604"
           transform="translate(1786.9561,2578.9141)"><path
             d="m 0,0 c 0.668,0 1.341,0.772 1.341,3.088 0,1.546 -1.675,3.093 -3.68,4.638 -2.339,1.544 -3.012,3.473 1.671,5.02 l 1.336,0.386 c 4.683,1.547 9.031,2.705 13.714,4.248 l 2.005,0.387 c 4.343,1.16 8.692,1.932 13.375,2.704 10.368,1.548 21.065,2.705 31.766,3.863 24.745,2.318 49.152,2.704 73.897,2.704 28.76,0 57.514,-0.775 86.607,1.547 l 0.335,0.387 h 1.671 c 2.673,0 23.074,2.701 22.066,1.157 -0.333,-0.385 -0.667,-1.544 -1.001,-2.318 -0.668,-1.159 -3.676,-3.864 -7.022,-6.565 -8.358,-6.954 -17.39,-13.52 -26.416,-19.316 -26.75,-17.38 -56.178,-26.652 -85.935,-32.444 -9.7,-1.934 -35.447,-2.319 -45.141,-1.161 -14.044,1.546 -27.753,4.635 -41.801,7.339 -17.385,3.091 -34.773,7.339 -52.163,11.587 -2.673,0.772 -12.038,3.477 -15.046,7.34 0,0.386 -0.334,0.772 -0.668,1.158 -2.344,8.5 9.026,8.885 14.377,7.725 C -10.697,3.088 -3.676,-0.385 0,0"
             style="fill:#e6d1ae;fill-opacity:1;fill-rule:evenodd;stroke:none"
             id="path2606"
             inkscape:connector-curvature="0" /></g><g
           id="g2608"
           transform="translate(1706.0381,2620.2451)"><path
             d="m 0,0 0.334,0.772 c 0,0.386 0.334,0.772 0.334,1.161 0.668,1.929 1.671,3.86 2.676,5.792 3.677,6.951 7.355,13.517 11.367,20.085 l 0.334,0.385 c 3.01,5.025 6.688,10.044 9.695,15.451 4.683,6.954 7.695,10.819 12.711,16.225 6.02,6.18 11.7,13.518 18.388,19.314 4.014,3.476 8.362,6.567 12.372,9.655 l 2.01,1.547 c 5.012,4.248 10.363,8.111 15.38,12.359 3.341,1.932 6.353,4.252 9.365,6.567 8.023,5.409 16.382,10.816 24.74,16.223 l 4.015,2.318 c 3.675,2.705 7.355,5.021 11.036,6.954 8.357,5.406 16.716,10.043 25.079,14.674 6.349,3.481 12.368,6.568 18.721,10.048 2.677,1.544 5.685,3.088 8.363,4.632 4.678,2.707 9.026,5.409 13.709,8.113 6.687,3.863 13.375,8.111 19.728,12.746 l 0.668,0.386 c 8.025,5.796 16.053,11.204 23.744,17.383 2.338,1.934 4.677,3.863 6.687,5.793 2.005,1.547 10.362,8.886 5.346,2.319 -1.671,-2.319 -3.676,-4.635 -5.346,-6.951 -2.344,-3.093 -4.349,-6.567 -6.353,-9.66 -5.017,-8.112 -10.034,-16.223 -15.051,-24.334 -6.019,-9.655 -12.038,-19.7 -18.387,-28.971 l -2.01,-2.701 c -8.023,-11.977 -16.382,-24.338 -25.747,-34.382 l -0.335,-0.385 C 174.882,93.863 166.185,83.818 157.158,74.936 140.771,59.871 122.05,48.669 102.655,39.4 86.269,31.672 69.887,25.494 53.5,17.77 40.125,11.588 27.752,4.635 14.377,-1.162 11.368,-2.318 2.005,-4.634 0.334,-6.954 l -1.673,-2.704 c -1.003,-1.544 -1.671,-2.701 -2.342,-4.635 l -0.334,-0.386 c -0.668,-1.546 -1.671,-2.318 -1.336,-0.389 0,0.389 0.334,0.389 0.334,0.775 0.334,3.477 2.007,6.565 3.344,9.659 0.668,1.543 1.005,3.087 1.673,4.246 z"
             style="fill:#231f20;fill-opacity:1;fill-rule:evenodd;stroke:none"
             id="path2610"
             inkscape:connector-curvature="0" /></g><g
           id="g2612"
           transform="translate(1711.3867,2447.9658)"><path
             d="M 0,0 0.67,0.389 C 1.673,0.774 2.007,0.389 2.675,0 4.683,-1.93 6.353,-4.245 8.026,-6.564 8.694,-6.95 9.028,-7.725 9.697,-8.496 v -0.773 c -0.669,-0.386 -1.337,-1.158 -1.671,-1.543 -0.668,-0.773 -0.334,-0.773 0,-1.545 l 1.671,-1.932 v -0.389 c 0.668,-1.158 1.339,-1.93 2.007,-2.702 1.673,-3.091 4.012,-9.655 -1.339,-2.702 -0.334,0.386 -0.334,0.386 -0.668,0.772 -1.003,1.545 -2.339,3.088 -3.344,4.632 l -1.002,1.16 c -1.339,1.547 -2.676,2.706 -4.347,4.249 -1.338,1.159 -2.675,1.544 -4.014,2.705 -2.005,1.158 -3.344,2.319 0,1.546 2.007,-0.388 3.68,-2.321 5.351,-3.478 l 1.337,-0.773 c 0.668,-0.386 1.005,-0.772 1.673,-1.158 0.334,0 0.334,0 0.334,0.386 0.334,1.158 0.334,1.545 0,1.931 l -0.334,0.771 c -0.668,0.389 -1.005,1.16 -1.673,1.933 -1.003,1.547 -2.674,2.318 -4.012,3.476 l -0.669,0.387 C -2.005,-0.771 -1.003,-0.771 0,0"
             style="fill:#231f20;fill-opacity:1;fill-rule:evenodd;stroke:none"
             id="path2614"
             inkscape:connector-curvature="0" /></g><g
           id="g2616"
           transform="translate(1551.5527,2230.1113)"><path
             d="m 0,0 c -0.668,-2.316 -1.336,-4.635 -2.007,-6.953 -1.671,-5.022 -2.676,-10.427 -3.344,-15.838 -1.67,-14.678 -1.337,-30.514 1.339,-45.193 1.337,-6.954 3.678,-7.725 3.344,0 -0.334,14.679 -1.339,30.515 0.668,45.193 0.668,3.866 1.337,8.112 2.339,12.364 0,1.157 0.337,2.316 0.671,3.474 C 3.344,-4.635 3.678,-2.316 4.012,0 5.017,11.204 3.01,7.725 0.334,0.385 V 0 Z"
             style="fill:#231f20;fill-opacity:1;fill-rule:evenodd;stroke:none"
             id="path2618"
             inkscape:connector-curvature="0" /></g><g
           id="g2620"
           transform="translate(1710.7183,2626.0381)"><path
             d="m 0,0 c 3.344,7.725 8.36,14.678 12.707,21.246 7.353,11.2 12.036,20.473 21.735,30.9 5.016,5.41 9.361,10.429 14.712,15.45 5.684,5.41 11.704,10.429 18.725,15.451 4.349,3.093 8.693,6.182 12.707,9.271 10.368,7.34 20.063,15.065 30.764,22.404 6.02,3.862 12.039,7.339 18.058,11.202 9.361,5.795 18.721,11.202 28.421,16.222 14.377,8.111 28.754,16.223 42.797,25.494 5.686,3.477 11.037,7.34 16.722,11.203 l 6.019,3.862 c 4.014,2.319 12.373,9.658 16.386,10.43 0,0 -1.34,-3.477 -1.34,-3.862 -3.342,-6.953 -7.69,-12.361 -12.038,-18.542 -1.337,-1.931 -2.339,-3.862 -3.676,-5.795 -3.681,-5.792 -7.356,-11.974 -11.036,-17.766 C 199.291,127.082 185.247,108.154 169.867,90.771 156.158,74.549 148.129,66.825 131.413,55.622 122.716,49.829 114.024,44.421 105.332,39.399 98.644,35.537 91.957,32.446 85.269,29.742 73.23,24.336 60.858,19.701 49.154,13.52 L 38.118,8.496 C 32.771,5.795 27.42,3.09 22.07,0.385 21.401,0 20.733,-0.387 20.06,-0.772 14.045,-3.475 7.692,-6.181 1.339,-8.498 -5.015,-10.813 -4.012,-9.271 0,0.385 Z"
             style="fill:#e6d1ae;fill-opacity:1;fill-rule:evenodd;stroke:none"
             id="path2622"
             inkscape:connector-curvature="0" /></g></g></g></g></svg>