<?xml version="1.0" encoding="UTF-8" standalone="no"?>
<!-- Created with Inkscape (http://www.inkscape.org/) -->

<svg
   xmlns:dc="http://purl.org/dc/elements/1.1/"
   xmlns:cc="http://creativecommons.org/ns#"
   xmlns:rdf="http://www.w3.org/1999/02/22-rdf-syntax-ns#"
   xmlns:svg="http://www.w3.org/2000/svg"
   xmlns="http://www.w3.org/2000/svg"
   xmlns:sodipodi="http://sodipodi.sourceforge.net/DTD/sodipodi-0.dtd"
   xmlns:inkscape="http://www.inkscape.org/namespaces/inkscape"
   width="400"
   height="400"
   viewBox="0 0 105.83333 105.83334"
   version="1.1"
   id="svg8"
   inkscape:version="0.92.4 (5da689c313, 2019-01-14)"
   sodipodi:docname="Daffy.svg">
  <defs
     id="defs2" />
  <sodipodi:namedview
     id="base"
     pagecolor="#ffffff"
     bordercolor="#666666"
     borderopacity="1.0"
     inkscape:pageopacity="0.0"
     inkscape:pageshadow="2"
     inkscape:zoom="3.959798"
     inkscape:cx="107.56607"
     inkscape:cy="324.79334"
     inkscape:document-units="mm"
     inkscape:current-layer="layer1"
     showgrid="false"
     units="px"
     inkscape:window-width="1920"
     inkscape:window-height="986"
     inkscape:window-x="-11"
     inkscape:window-y="-11"
     inkscape:window-maximized="1" />
  <metadata
     id="metadata5">
    <rdf:RDF>
      <cc:Work
         rdf:about="">
        <dc:format>image/svg+xml</dc:format>
        <dc:type
           rdf:resource="http://purl.org/dc/dcmitype/StillImage" />
        <dc:title />
      </cc:Work>
    </rdf:RDF>
  </metadata>
  <g
     inkscape:label="Layer 1"
     inkscape:groupmode="layer"
     id="layer1"
     transform="translate(0,-191.16665)">
    <rect
       style="opacity:1;fill:#ffffff;fill-opacity:1;stroke:none;stroke-width:2;stroke-miterlimit:4;stroke-dasharray:none;stroke-opacity:1;paint-order:normal"
       id="rect2827"
       width="8.3270311"
       height="7.2196803"
       x="45.440681"
       y="205.94312"
       ry="0" />
    <rect
       style="opacity:1;fill:#ffffff;fill-opacity:1;stroke:none;stroke-width:2.53257227;stroke-miterlimit:4;stroke-dasharray:none;stroke-opacity:1;paint-order:normal"
       id="rect2829"
       width="7.7244024"
       height="12.427616"
       x="48.439949"
       y="200.66757" />
    <rect
       style="opacity:1;fill:#ffffff;fill-opacity:1;stroke:none;stroke-width:4.17291975;stroke-miterlimit:4;stroke-dasharray:none;stroke-opacity:1;paint-order:normal"
       id="rect2831"
       width="3.3604138"
       height="13.272919"
       x="45.027893"
       y="202.97235" />
    <g
       id="g953"
       transform="matrix(1.0393297,0,0,1.0393297,-2.4377183,-7.4383525)">
      <path
         style="fill:#cfd0d0;stroke-width:0.23087907"
         d="m 59.140174,289.41259 c -3.695185,-1.81094 -7.119218,-4.14386 -10.162404,-6.91145 -4.260148,1.78667 -8.732592,3.71853 -13.421796,3.53795 -3.048022,-2.02012 -7.142355,-2.37603 -9.894411,-4.64407 -1.066675,-1.86045 -4.837036,-5.88624 -0.100749,-5.80247 6.836157,0.21377 13.689412,0.71993 20.526426,0.28054 2.682258,-1.70919 1.278325,-6.34401 1.870411,-9.26601 -0.297466,-1.03973 0.810044,-3.44048 -0.473271,-3.5252 -1.919411,-1.27507 -0.159301,-6.07108 -3.745286,-6.31714 -4.132015,2.52264 -6.876516,-3.12255 -6.954883,-6.61004 -1.514776,-3.06069 5.340864,-4.21001 0.50196,-5.13407 -2.959658,-0.79385 -7.78675,-1.57587 -7.135719,-5.59667 1.286444,-3.57286 4.665054,-5.87522 6.793501,-8.94785 2.553796,-2.29341 3.308154,-6.44887 6.97379,-7.0533 1.744671,1.93138 4.857039,-3.32393 2.041921,-2.27572 -3.734984,0.57626 -7.652957,-0.49657 -10.224487,-3.35355 -3.775495,-2.56537 -9.130082,-4.08222 -10.747953,-8.82309 1.441737,-4.71391 6.85724,0.51373 9.750048,1.26465 1.249895,-0.48441 4.738832,1.23013 4.950674,-0.41548 0.742484,-3.40757 6.501779,-1.47663 5.788636,-6.08537 0.307154,-3.27837 6.219048,-4.04337 5.618828,-6.56503 2.861518,-0.30643 1.526306,-0.7442 0.545613,-2.46726 3.482672,0.0486 4.716741,2.27511 5.362648,5.77073 -0.02241,4.70341 1.808247,8.67693 5.094558,11.89929 2.003986,5.46189 -7.00439,2.52367 -8.39892,6.05854 -0.904706,1.31554 -4.885647,7.71231 -1.212936,4.556 1.623601,1.44339 3.910272,0.53005 5.905299,-0.0506 1.395202,-1.54189 1.920099,-4.49794 3.539966,-6.24666 2.351498,-2.9887 1.885719,-7.53623 5.715494,-9.22811 3.409382,-0.22334 5.822805,-6.66659 8.773325,-4.43979 2.880654,3.84234 -6.747899,5.80162 -0.964961,7.80021 3.391803,1.87775 8.627672,1.29348 10.402272,5.38672 1.148923,3.78645 -4.534261,0.33764 -3.458512,4.35075 -3.554381,1.83282 -4.971479,-5.05522 -8.635292,-5.62665 -3.021883,-1.29425 -7.164826,-1.80648 -7.055696,2.66626 -2.00147,3.03754 -0.340655,7.78722 -2.608977,9.66569 -4.039627,0.4706 -7.938484,1.73481 -11.544566,3.60066 0.168231,5.39929 1.525377,11.25221 5.799871,14.90058 2.15109,-1.42185 0.116078,-8.9223 3.492414,-4.60456 2.24413,2.50522 3.896568,5.80657 3.23249,9.29926 -1.067403,4.1618 -2.401647,8.65438 -4.291385,12.20565 -1.064905,2.92576 -4.673012,6.64909 -4.965239,10.74864 -0.783659,2.24474 -1.490235,4.96903 1.681477,4.9015 5.988971,1.5855 12.328985,1.32956 18.286936,2.96867 3.013102,2.32521 -3.590361,3.05345 -3.371942,5.93248 -3.385205,1.06339 -7.139714,0.87684 -9.864952,3.57008 -1.201393,-0.26003 -2.308216,-0.85827 -3.414221,-1.37474 z M 52.69083,271.22036 c 1.21905,-2.87786 2.306271,-6.32039 1.752818,-8.87811 -4.613688,-2.028 -2.764363,6.8532 -3.192885,9.73884 -0.250794,4.10814 0.796239,0.64094 1.440067,-0.86073 z M 41.666626,242.47592 c -0.579808,-1.92145 -0.04719,-10.23379 -3.027633,-5.74643 -1.726358,1.34322 -0.395802,2.55109 0.68614,3.7529 0.447183,0.26871 2.354717,3.51448 2.341493,1.99353 z m 8.571432,-19.91042 c 1.080755,-3.0128 -5.249184,0.27621 -1.4339,0.80518 0.616141,0.10191 1.27708,-0.14095 1.4339,-0.80518 z m -0.1154,-12.7933 c 1.742931,-2.09916 3.309997,-5.03373 1.964644,-8.03473 -2.319104,2.09514 -3.524687,6.42698 -2.535324,9.12296 l 0.342584,-0.30655 z m -3.127465,-3.60498 c 0.758246,-2.12221 -0.154994,-4.41189 -0.758735,-0.93594 -0.677139,1.39026 -0.079,3.63053 0.758735,0.93594 z"
         id="path975"
         inkscape:connector-curvature="0" />
      <path
         style="fill:#b1b0af;stroke-width:0.23087907"
         d="m 59.297749,289.2692 c -3.802322,-1.79035 -7.213906,-4.27688 -10.363253,-7.03791 -3.996417,1.92433 -8.352843,3.5684 -12.823395,3.66208 -3.299884,-1.82978 -7.673357,-2.32976 -10.348315,-4.91837 -1.908113,-1.88761 -4.276369,-5.99074 0.541136,-5.14904 6.91602,0.17576 13.871584,0.60617 20.772686,0.0462 1.102129,-3.97232 1.262015,-8.24537 0.975366,-12.34768 -2.223205,-1.63878 -0.490369,-6.4915 -4.262558,-6.97201 -4.219626,2.62521 -6.905015,-3.24188 -6.842811,-6.78891 -0.647809,-2.8525 3.335846,-4.34887 4.452801,-2.29686 -1.820163,-3.26272 -7.120335,-2.63943 -9.912299,-4.76345 -3.1342,-3.1986 0.93066,-6.61817 3.034579,-9.05931 2.302066,-2.88107 5.02125,-5.54697 6.717369,-8.83958 2.351357,-1.78449 5.947716,0.16827 6.324941,-3.95785 -3.907985,0.3158 -8.443389,0.54006 -11.221922,-2.78304 -3.551156,-2.85378 -8.781263,-3.95314 -10.903937,-8.37407 -0.539432,-5.2214 6.61989,-0.49207 8.858,0.68549 1.696033,0.0537 4.363764,0.61051 5.650008,0.14555 -0.848796,-4.14396 6.4316,-1.48703 5.466996,-5.96755 0.325442,-3.55784 5.415746,-4.92243 6.379437,-6.90876 -1.056054,-1.16714 3.125995,-0.13505 0.81682,-1.83708 -1.150707,-2.34682 2.148655,1.22363 2.679616,0.15427 1.577738,3.41479 1.856328,7.20607 2.608978,10.88386 0.884912,2.81132 7.812338,7.21529 1.980211,9.02079 -4.26625,-0.32232 -7.145981,2.41851 -8.569213,6.22824 -1.3275,2.63184 -0.86499,3.14049 1.094723,1.19109 2.611903,1.69507 7.319443,0.31509 7.739547,-3.3441 2.20543,-3.16644 3.895321,-6.6489 5.014349,-10.30278 2.83973,-2.50994 6.667033,-3.77071 9.167315,-6.80935 4.271074,-0.84548 1.304681,5.52953 -1.249287,6.23921 2.454602,3.30369 7.269792,3.02909 10.674126,4.85487 2.876685,1.44489 2.361613,5.55664 -1.078083,4.11528 0.464572,4.6731 -3.589379,2.31976 -4.880349,-0.20918 -2.420608,-3.06495 -6.451814,-4.32098 -10.239621,-3.80922 -0.770309,3.3117 -2.309765,6.48143 -2.534564,9.88054 1.035171,4.35838 -3.986849,3.20415 -7.134972,4.49523 -1.624562,0.97737 -5.376407,1.09889 -5.422508,3.27865 0.238486,5.17164 1.617893,11.05222 5.975996,14.26833 2.013805,-1.59813 0.596065,-9.15496 3.613183,-4.10521 2.06842,2.12225 3.046347,4.90519 2.961241,7.96052 -1.184454,4.2686 -1.840802,8.84461 -4.609152,12.48917 0.243935,2.6771 -3.701803,5.04371 -3.920861,8.44828 -1.169303,3.05464 -3.216416,8.26297 2.105188,8.03323 5.481241,1.23138 11.187817,1.15382 16.63225,2.5249 3.848086,1.95833 -3.311988,2.81368 -2.818566,5.70382 -3.224107,1.24753 -7.152027,0.81042 -9.833274,3.55894 -1.147937,-0.24126 -2.208775,-0.80222 -3.267922,-1.28725 z m -5.545298,-20.60488 c 1.025612,-2.84117 2.540846,-7.13983 -1.728232,-7.16801 -1.159071,3.35126 -1.049057,7.21699 -0.978875,10.84082 -0.261147,4.79864 1.303288,0.60109 1.969593,-1.53122 0.254089,-0.71098 0.500614,-1.42469 0.737514,-2.14159 z M 41.669674,241.20609 c -0.17551,-2.97566 -0.943143,-9.25121 -3.639189,-3.85562 -1.553629,1.35223 1.000404,2.50111 1.537851,3.74631 1.063676,1.16372 2.680152,3.89428 2.101338,0.10931 z m 8.621953,-18.21286 c 2.042833,-3.39203 -5.58661,-1.09534 -1.986468,0.5743 0.694502,0.14167 1.50968,-0.006 1.986468,-0.5743 z m -0.260298,-12.13619 c 1.135876,-2.79849 3.987872,-5.69138 2.078401,-9.14328 -2.486064,1.71157 -4.184446,7.3971 -2.381546,9.35509 z m -3.433652,-3.40037 c 1.681862,-1.99918 0.347591,-6.82644 -0.531062,-2.14986 -0.06603,0.54837 -0.959507,3.68287 0.531062,2.14986 z"
         id="path973"
         inkscape:connector-curvature="0" />
      <path
         style="fill:#91908e;stroke-width:0.23087907"
         d="m 61.852338,290.33682 c -4.684359,-1.97747 -9.072677,-4.78137 -12.799096,-8.25068 -4.112099,1.86785 -8.480164,3.53756 -13.024905,3.76202 -3.156806,-2.02465 -7.574385,-2.31265 -10.122199,-4.94406 -1.692209,-1.82924 -4.370952,-5.74159 0.350966,-4.85776 6.915333,0.14966 13.865519,0.57568 20.764709,-0.006 1.488463,-2.86599 0.912809,-6.40354 1.171452,-9.58208 -0.231242,-1.11895 0.626665,-3.61383 -0.350543,-3.7904 -1.878858,-0.95061 -0.06116,-4.0766 -2.537353,-5.52182 -1.529718,-2.31257 -5.274849,2.11074 -6.51297,-1.82301 -1.898312,-2.59946 -3.0942,-8.47959 1.172283,-8.77155 1.736212,3.13463 2.133305,-0.69273 -0.365503,-0.93172 -3.278038,-1.81608 -10.206007,-1.51227 -8.965961,-6.80019 2.371127,-3.95304 5.970892,-7.04828 8.667447,-10.79792 1.544972,-2.58818 3.775676,-4.78656 6.667412,-4.06496 0.759102,-2.21029 3.10674,0.26682 4.480946,-0.13117 -0.345277,2.51357 2.211441,-2.02298 3.715336,0.4054 1.632412,-0.61562 4.888961,-0.14065 5.237719,-2.30997 1.617457,-4.10599 5.035408,-7.46554 5.61933,-11.95338 2.818495,-2.71361 6.880791,-3.87474 9.354851,-7.09348 3.486729,-1.24582 1.948376,5.29194 -0.955686,5.50913 0.119408,4.35395 7.912199,3.6499 10.898374,6.11755 2.733152,2.21068 0.628244,4.41 -1.925199,3.69844 0.612026,4.62706 -3.55666,1.79138 -4.534367,-0.50243 -2.437443,-3.19902 -6.498954,-4.08845 -10.307688,-3.90735 -0.864099,3.22595 -2.236495,6.36264 -2.750612,9.64109 0.7767,3.61901 -1.82066,3.92292 -4.918701,4.28617 -2.699035,1.11907 -8.411429,1.37505 -7.454438,5.51421 0.404089,4.70278 2.054798,9.86278 5.937205,12.76616 2.198318,-1.44331 0.941271,-8.96708 3.744898,-3.84298 2.169914,2.45437 3.669225,6.21111 2.243235,9.7578 -0.913576,3.57284 -1.683075,7.37348 -4.061014,10.40634 -0.163961,2.90417 -4.124767,5.44347 -4.176665,9.15402 -2.148856,3.82328 -1.553921,8.09167 3.66883,7.66645 5.291647,1.09501 10.832941,0.9571 16.006555,2.50707 1.572837,2.10049 -3.800085,2.6004 -3.576014,5.30366 -3.356265,1.01559 -7.074292,0.93137 -9.792945,3.48455 l -0.569675,-0.0969 z m -9.352152,-17.7889 c 0.541644,-2.72502 3.466608,-6.72433 1.986924,-8.91119 1.774749,-2.21481 -3.981187,-3.57596 -3.13703,-0.21773 -0.513321,3.64035 -1.023855,8.44636 0.118334,11.46103 0.450829,-0.72484 0.702693,-1.55 1.031772,-2.33211 z M 41.777545,241.0425 c -0.363412,-2.43973 -0.604049,-9.4876 -3.489939,-4.31606 -2.652023,1.99101 3.37348,7.10662 3.646417,6.07407 -0.03876,-0.58713 -0.09378,-1.17301 -0.156478,-1.75801 z m 7.722762,-19.78025 c -3.699672,-1.1493 -8.008345,0.72561 -11.349745,-1.92952 -3.75194,-3.66877 -9.667172,-4.65469 -12.446075,-9.3719 -1.016282,-5.193 6.002686,-1.04495 8.049895,0.34209 2.959084,0.70736 6.577293,1.49918 7.19292,-1.9669 5.814882,0.4227 3.791698,-7.01077 8.638378,-8.58791 1.805301,-0.80607 2.677553,-1.92675 2.771467,-2.66212 2.854676,0.64852 -1.813706,-3.55871 1.370716,-1.27269 1.10728,2.48311 1.568849,-1.68725 1.890739,1.67355 2.205595,3.67128 0.685287,8.72938 3.711495,11.99409 4.202845,2.26837 3.166018,7.32994 -1.819292,6.65902 -4.41818,-1.04596 -4.210957,6.23249 -8.010498,5.12229 z m 0.597753,-10.35904 c 1.07958,-2.86624 4.314504,-5.99799 2.021771,-9.40235 -2.612012,1.95849 -4.19114,7.39372 -2.513816,9.79835 l 0.280693,-0.14815 0.21135,-0.24785 z m -2.825343,-4.75975 c 0.714997,-1.56992 0.02354,-5.44054 -1.057995,-1.91527 -0.915843,1.99943 -0.800165,6.34765 1.057995,1.91527 z"
         id="path971"
         inkscape:connector-curvature="0" />
      <path
         style="fill:#f5a800;stroke-width:0.23087907"
         d="m 58.73547,288.75844 c -3.526827,-1.76048 -6.805104,-4.01436 -9.59252,-6.80775 -4.207353,1.92572 -8.704831,3.73229 -13.391201,3.72428 -3.104606,-2.35319 -8.20058,-1.95107 -10.213983,-5.50866 -2.213729,-1.57487 -2.961306,-5.01426 0.853737,-4.11775 6.792317,0.22603 13.613452,0.53004 20.398482,0.13028 2.031441,-3.1259 1.390577,-7.73253 1.609058,-11.4692 0.329278,-2.42047 -2.590496,-2.6051 -1.167161,-4.98148 -1.471721,-2.21425 -2.771828,-5.07757 -5.707507,-2.63617 -3.833949,-0.74782 -6.589218,-8.70625 -2.249067,-10.3461 1.36413,-0.91773 2.289604,3.3645 2.303827,0.0559 -2.764702,-2.64175 -7.379771,-2.26676 -10.094046,-4.60594 -2.954766,-3.37193 1.94443,-6.5688 3.832031,-9.14423 2.459095,-2.73464 4.748687,-6.00117 7.083656,-8.53658 1.761387,-0.99217 3.627924,0.14895 4.671089,-1.45241 1.694409,1.05919 3.836848,0.26302 3.470126,1.90955 2.240527,-2.41137 5.845772,0.50626 8.556079,-2.06964 1.47344,-4.38258 5.119333,-7.80537 5.852092,-12.47879 2.043615,-2.93345 6.157642,-3.57016 8.451621,-6.47676 3.431997,-4.10432 4.002767,3.76948 0.282511,4.11073 -2.179088,3.0168 4.968667,4.28659 7.322885,5.18489 3.519956,-0.73613 6.815917,6.21116 1.780699,4.48185 -0.430189,1.16498 -1.119435,4.72081 -3.09221,2.0185 -2.413354,-3.18318 -5.693738,-6.18908 -9.975158,-6.03578 -4.284501,-0.73846 -2.971499,5.59788 -4.741918,8.12938 0.1248,3.70157 -0.823654,5.9809 -4.903122,5.73324 -2.601452,1.12898 -8.581128,1.35274 -7.710976,5.13648 0.137549,4.85604 1.946771,9.9571 5.582323,13.28157 3.106702,0.87805 0.873896,-9.07239 3.8907,-4.13532 1.81585,2.57651 3.43023,5.25622 2.839949,8.7062 -1.335043,3.23107 -1.292781,6.96659 -3.371425,9.93229 -1.240644,3.64806 -4.316003,6.44847 -5.243498,10.75789 -1.455995,3.22512 -2.39938,8.05796 2.711037,7.75128 5.471463,1.20097 11.132597,1.2759 16.586333,2.50955 2.892401,1.878 -3.549847,2.36271 -2.80287,5.05197 -3.173483,1.59181 -7.330943,0.99665 -10.08322,3.75766 -1.327676,-0.27017 -2.528697,-0.98049 -3.738353,-1.56098 z M 52.918322,271.6244 c 0.763971,-3.11814 4.219166,-8.52174 0.581034,-10.09547 -3.708585,-0.91972 -2.14527,5.81782 -2.703032,8.19042 -0.132047,1.88687 0.140826,8.46348 1.612478,3.22017 l 0.249579,-0.63868 0.259945,-0.67644 z M 42.13922,243.05312 c -0.580109,-2.59679 -0.33545,-6.9943 -1.866414,-8.52486 -1.132279,1.34879 -4.421459,3.43783 -2.15647,5.09155 0.775943,0.72801 4.178075,5.85146 4.022884,3.43331 z m 7.014769,-22.02605 c -4.039469,-0.65801 -8.739338,0.67858 -12.013563,-2.49161 -3.593191,-3.39368 -9.319461,-4.3798 -11.620354,-9.12857 0.660063,-4.71109 6.557404,0.63815 9.182329,1.20365 1.331744,-0.19707 5.525562,1.34573 5.346885,-0.51686 -0.225348,-2.31324 5.056706,-2.84898 5.410637,-2.97385 1.341825,3.21137 2.978158,-3.95034 1.695059,-5.3085 2.002524,-2.44238 6.783902,-3.44231 5.907194,-5.76901 -0.824364,-1.71596 2.041084,1.57354 2.347363,0.67175 1.400803,3.49367 1.551208,7.31735 2.543762,10.96802 1.548746,2.19934 7.076116,6.91456 1.591304,8.01736 -4.412408,-0.6278 -6.232799,3.03673 -8.842493,5.53802 -0.525433,0.0949 -1.047917,-0.0827 -1.548123,-0.2104 z m 1.022464,-10.02491 c 0.754171,-2.90254 3.633356,-4.45782 2.628961,-8.19126 -1.233018,-3.67494 -3.899831,3.04707 -3.85303,4.87711 -0.1913,0.8765 -0.725307,4.86283 1.224069,3.31415 z"
         id="path969"
         inkscape:connector-curvature="0" />
      <path
         style="fill:#918770;stroke-width:0.23087907"
         d="m 58.73547,288.75844 c -3.526827,-1.76048 -6.805104,-4.01436 -9.59252,-6.80775 -4.207353,1.92572 -8.704831,3.73229 -13.391201,3.72428 -3.104606,-2.35319 -8.20058,-1.95107 -10.213983,-5.50866 -2.213729,-1.57487 -2.961306,-5.01426 0.853737,-4.11775 6.792317,0.22603 13.613452,0.53004 20.398482,0.13028 2.031441,-3.1259 1.390577,-7.73253 1.609058,-11.4692 0.329278,-2.42047 -2.590496,-2.6051 -1.167161,-4.98148 -1.471721,-2.21425 -2.771828,-5.07757 -5.707507,-2.63617 -3.833949,-0.74782 -6.589218,-8.70625 -2.249067,-10.3461 1.36413,-0.91773 2.289604,3.3645 2.303827,0.0559 -2.764702,-2.64175 -7.379771,-2.26676 -10.094046,-4.60594 -2.954766,-3.37193 1.94443,-6.5688 3.832031,-9.14423 2.459095,-2.73464 4.748687,-6.00117 7.083656,-8.53658 1.761387,-0.99217 3.627924,0.14895 4.671089,-1.45241 1.694409,1.05919 3.836848,0.26302 3.470126,1.90955 2.240527,-2.41137 5.845772,0.50626 8.556079,-2.06964 1.47344,-4.38258 5.119333,-7.80537 5.852092,-12.47879 2.043615,-2.93345 6.157642,-3.57016 8.451621,-6.47676 3.431997,-4.10432 4.002767,3.76948 0.282511,4.11073 -2.179088,3.0168 4.968667,4.28659 7.322885,5.18489 3.519956,-0.73613 6.815917,6.21116 1.780699,4.48185 -0.430189,1.16498 -1.119435,4.72081 -3.09221,2.0185 -2.413354,-3.18318 -5.693738,-6.18908 -9.975158,-6.03578 -4.284501,-0.73846 -2.971499,5.59788 -4.741918,8.12938 0.1248,3.70157 -0.823654,5.9809 -4.903122,5.73324 -2.601452,1.12898 -8.581128,1.35274 -7.710976,5.13648 0.137549,4.85604 1.946771,9.9571 5.582323,13.28157 3.106702,0.87805 0.873896,-9.07239 3.8907,-4.13532 1.81585,2.57651 3.43023,5.25622 2.839949,8.7062 -1.335043,3.23107 -1.292781,6.96659 -3.371425,9.93229 -1.240644,3.64806 -4.316003,6.44847 -5.243498,10.75789 -1.455995,3.22512 -2.39938,8.05796 2.711037,7.75128 5.471463,1.20097 11.132597,1.2759 16.586333,2.50955 2.892401,1.878 -3.549847,2.36271 -2.80287,5.05197 -3.173483,1.59181 -7.330943,0.99665 -10.08322,3.75766 -1.327676,-0.27017 -2.528697,-0.98049 -3.738353,-1.56098 z m 5.200053,-0.14702 c 2.836744,-2.82274 8.113947,-0.36739 9.323033,-4.9655 2.375998,-0.92351 2.765891,-1.76528 -0.33631,-1.85894 -6.10037,-1.08858 -12.590617,-0.86679 -18.341705,-3.37614 -1.488682,-4.29156 1.767992,-9.05512 2.94528,-13.25067 -2.833858,-0.7702 -2.767592,5.67467 -4.274947,7.83783 -0.972808,3.71855 -5.833795,8.68742 -0.533424,11.11467 2.958353,2.31891 6.330574,4.10209 9.796472,5.5203 0.554207,-0.21734 0.984486,-0.6362 1.421601,-1.02155 z m -23.529931,-4.29499 c 3.577463,-1.13733 8.626849,-1.67085 9.358263,-6.16939 0.955562,-1.96595 0.20421,-4.26807 0.394733,-6.38469 -0.37524,-2.45504 0.678303,-6.70862 -0.834062,-7.88105 -0.614538,4.1997 0.352146,9.27239 -1.677886,12.92862 -7.511807,1.07404 -15.080929,0.0389 -22.613503,0.0377 -1.735747,0.69697 2.096956,3.8552 2.974032,4.85267 4.235197,0.4465 7.481883,4.83776 11.919444,2.73411 l 0.478982,-0.11794 z m 12.51273,-12.69203 c 0.763971,-3.11814 4.219166,-8.52174 0.581034,-10.09547 -3.708585,-0.91972 -2.14527,5.81782 -2.703032,8.19042 -0.132047,1.88687 0.140826,8.46348 1.612478,3.22017 l 0.249579,-0.63868 0.259945,-0.67644 z M 42.13922,243.05312 c -0.580109,-2.59679 -0.33545,-6.9943 -1.866414,-8.52486 -1.132279,1.34879 -4.421459,3.43783 -2.15647,5.09155 0.775943,0.72801 4.178075,5.85146 4.022884,3.43331 z m 7.014769,-22.02605 c -4.039469,-0.65801 -8.739338,0.67858 -12.013563,-2.49161 -3.593191,-3.39368 -9.319461,-4.3798 -11.620354,-9.12857 0.660063,-4.71109 6.557404,0.63815 9.182329,1.20365 1.331744,-0.19707 5.525562,1.34573 5.346885,-0.51686 -0.225348,-2.31324 5.056706,-2.84898 5.410637,-2.97385 1.341825,3.21137 2.978158,-3.95034 1.695059,-5.3085 2.002524,-2.44238 6.783902,-3.44231 5.907194,-5.76901 -0.824364,-1.71596 2.041084,1.57354 2.347363,0.67175 1.400803,3.49367 1.551208,7.31735 2.543762,10.96802 1.548746,2.19934 7.076116,6.91456 1.591304,8.01736 -4.412408,-0.6278 -6.232799,3.03673 -8.842493,5.53802 -0.525433,0.0949 -1.047917,-0.0827 -1.548123,-0.2104 z m -3.039004,-1.1296 c 3.39294,0.47443 6.878969,-5.54954 4.983653,-7.01761 -0.287495,-2.89113 8.981307,-1.64985 2.9799,-0.62657 -1.741818,1.54944 -2.512128,5.11303 1.028993,3.27771 2.37463,-0.11809 8.656123,-0.49727 5.040444,-4.10197 -3.125877,-4.77368 -7.679886,-0.76889 -11.134238,0.81921 -1.628478,-1.58197 -2.92045,-1.58236 -4.511027,-0.59617 -1.543765,-1.15678 -5.081281,0.55284 -7.517366,-0.0139 -2.246375,-0.36325 -1.503036,0.30315 -1.372987,1.67857 -2.808815,-1.99209 -5.527554,-5.38165 -9.304567,-5.04186 -0.210255,2.65985 4.864763,6.08398 5.929945,5.8046 -0.924138,-1.2016 -6.966734,-5.51004 -2.434592,-3.55775 3.932281,2.54601 6.272942,7.15157 10.610722,9.05516 1.829988,0.62277 3.81098,0.62748 5.70112,0.3206 z m 0.12799,-6.78286 c 0.650806,-3.8615 2.444398,1.44642 0,0 z m 3.933478,-2.11245 c 0.754171,-2.90254 3.633356,-4.45782 2.628961,-8.19126 -1.233018,-3.67494 -3.899831,3.04707 -3.85303,4.87711 -0.1913,0.8765 -0.725307,4.86283 1.224069,3.31415 z m -5.30043,-0.54986 c 0.627963,-4.39498 -6.975649,0.3195 -2.399652,-0.33093 0.230358,-2.68236 1.812547,1.05528 2.399652,0.33093 z"
         id="path967"
         inkscape:connector-curvature="0" />
      <path
         style="fill:#d08f00;stroke-width:0.23087907"
         d="m 60.928822,289.75593 c -4.305208,-1.82397 -8.122418,-4.57883 -11.677281,-7.57081 -3.661217,0.8769 -7.292996,2.82581 -11.174137,3.33542 -3.879318,0.67747 -6.733551,-2.93825 -10.520315,-3.28637 -1.546439,-1.35104 -6.687129,-6.57752 -1.508667,-6.10349 7.094838,0.0491 14.271776,1.17973 21.310863,-0.0795 1.27521,-4.06323 1.023601,-8.47918 1.036054,-12.70359 -1.009644,-1.11918 -1.914041,-2.1066 -1.27186,-3.9567 -1.29235,-2.56527 -3.19896,-4.2849 -5.902698,-2.34246 -3.282872,-1.39777 -4.733316,-6.01206 -3.673056,-9.29114 1.327761,-1.14075 3.322321,-1.54821 3.512431,0.75786 2.004272,-3.42751 -4.653542,-3.79465 -6.804171,-4.94844 -5.640621,-0.54023 -3.491215,-6.93542 -0.09007,-9.1458 2.46829,-2.81796 4.784164,-5.76962 7.22449,-8.60735 0.83646,-3.07329 4.521093,-0.37262 5.821865,-2.60338 1.125033,1.22541 3.74268,-0.17015 2.971317,2.00856 2.640346,-2.44794 8.898294,0.81124 9.748938,-4.2433 1.710399,-3.46375 4.433018,-6.54067 5.001352,-10.47929 2.40071,-3.03894 6.715518,-3.98647 9.277408,-7.21459 3.537971,-2.01301 1.977368,4.98149 -0.932788,5.06969 -0.04584,3.71537 6.549555,4.46937 9.762869,5.4636 3.019688,0.77052 3.283282,5.7243 -0.331703,3.81906 -0.995475,0.88376 -0.375748,5.00911 -2.9329,2.17292 -2.335032,-3.2734 -5.695597,-6.31032 -9.991091,-6.1178 -4.509006,-0.95077 -2.952766,5.69286 -4.912709,8.25001 0.100487,3.30375 -0.773562,6.06695 -4.824786,5.61529 -3.519319,0.94808 -9.655314,2.03988 -7.630742,6.93166 0.69294,4.2938 2.189863,9.58249 6.256701,11.74174 1.844277,-0.86228 0.74648,-8.88675 3.317637,-4.04695 1.612295,2.41828 3.137445,4.65424 2.683798,8.2873 -1.407812,3.27996 -1.325982,7.14963 -3.537203,10.14616 -0.967753,3.36161 -3.625292,5.5171 -4.707444,9.27677 -0.817299,3.03926 -3.958942,8.92913 1.535954,9.05042 5.755371,1.36698 11.764342,1.27716 17.488059,2.7531 2.309848,1.8498 -3.7615,2.29374 -3.239463,5.09097 -3.295629,1.12528 -7.0377,0.63438 -9.624762,3.53064 -0.578854,-0.10598 -1.12239,-0.33523 -1.661891,-0.56016 z m 3.006701,-1.14451 c 2.836744,-2.82274 8.113947,-0.36739 9.323033,-4.9655 2.375998,-0.92351 2.765891,-1.76528 -0.33631,-1.85894 -6.10037,-1.08858 -12.590617,-0.86679 -18.341705,-3.37614 -1.488682,-4.29156 1.767992,-9.05512 2.94528,-13.25067 -2.833858,-0.7702 -2.767592,5.67467 -4.274947,7.83783 -0.972808,3.71855 -5.833795,8.68742 -0.533424,11.11467 2.958353,2.31891 6.330574,4.10209 9.796472,5.5203 0.554207,-0.21734 0.984486,-0.6362 1.421601,-1.02155 z m -23.529931,-4.29499 c 3.577463,-1.13733 8.626849,-1.67085 9.358263,-6.16939 0.955562,-1.96595 0.20421,-4.26807 0.394733,-6.38469 -0.37524,-2.45504 0.678303,-6.70862 -0.834062,-7.88105 -0.614538,4.1997 0.352146,9.27239 -1.677886,12.92862 -7.511807,1.07404 -15.080929,0.0389 -22.613503,0.0377 -1.735747,0.69697 2.096956,3.8552 2.974032,4.85267 4.235197,0.4465 7.481883,4.83776 11.919444,2.73411 l 0.478982,-0.11794 z m 12.386234,-12.18086 c 0.777945,-3.23423 4.356391,-8.34813 1.071971,-10.5266 -3.952419,-1.36569 -2.671719,5.13126 -3.089784,7.52251 -0.05232,1.54019 -0.246256,9.04511 1.52624,4.1908 l 0.242521,-0.5744 z m -10.56421,-28.22575 c -0.646325,-2.6806 -0.121389,-8.76922 -2.197667,-9.36628 -2.605193,1.9528 -3.770424,4.85086 -0.46682,6.8932 0.767916,0.55291 1.846753,2.80469 2.664487,2.47308 z m 7.33085,-22.86772 c -4.408198,-1.04482 -9.880933,0.88878 -13.191877,-3.34455 -3.593395,-2.7706 -8.85469,-3.95119 -10.805185,-8.46274 0.996845,-4.43112 6.535533,1.16373 9.300808,1.51103 2.502395,0.30049 5.876206,1.27106 6.027453,-2.18844 1.919094,-0.58638 4.931542,-2.13684 4.992476,-0.27356 3.800735,-1.96118 -0.800424,-7.50305 4.065681,-8.57983 2.378384,-1.21478 3.82955,-2.65656 3.291041,-4.07684 3.104939,1.36597 3.410795,5.10981 3.841038,8.64065 -0.88231,4.50714 6.182603,6.69861 4.364591,10.60996 -3.901792,1.16719 -8.375955,1.24783 -9.864139,5.97189 -0.395076,0.87438 -1.370463,0.0999 -2.021887,0.19243 z m -3.443481,-1.14463 c 3.39294,0.47443 6.878969,-5.54954 4.983653,-7.01761 -0.287495,-2.89113 8.981307,-1.64985 2.9799,-0.62657 -1.741818,1.54944 -2.512128,5.11303 1.028993,3.27771 2.37463,-0.11809 8.656123,-0.49727 5.040444,-4.10197 -3.125877,-4.77368 -7.679886,-0.76889 -11.134238,0.81921 -1.628478,-1.58197 -2.92045,-1.58236 -4.511027,-0.59617 -1.543765,-1.15678 -5.081281,0.55284 -7.517366,-0.0139 -2.246375,-0.36325 -1.503036,0.30315 -1.372987,1.67857 -2.808815,-1.99209 -5.527554,-5.38165 -9.304567,-5.04186 -0.210255,2.65985 4.864763,6.08398 5.929945,5.8046 -0.924138,-1.2016 -6.966734,-5.51004 -2.434592,-3.55775 3.932281,2.54601 6.272942,7.15157 10.610722,9.05516 1.829988,0.62277 3.81098,0.62748 5.70112,0.3206 z m 0.12799,-6.78286 c 0.650806,-3.8615 2.444398,1.44642 0,0 z m 3.783157,-1.87817 c 1.176564,-2.89011 3.963909,-5.2174 2.739451,-9.17536 -3.085539,-1.17614 -5.32908,7.5835 -3.154346,9.43614 l 0.414895,-0.26081 z m -5.150109,-0.78414 c 0.627963,-4.39498 -6.975649,0.3195 -2.399652,-0.33093 0.230358,-2.68236 1.812547,1.05528 2.399652,0.33093 z"
         id="path965"
         inkscape:connector-curvature="0" />
      <path
         style="fill:#887751;stroke-width:0.23087907"
         d="m 60.928822,289.75593 c -4.305208,-1.82397 -8.122418,-4.57883 -11.677281,-7.57081 -3.661217,0.8769 -7.292996,2.82581 -11.174137,3.33542 -3.879318,0.67747 -6.733551,-2.93825 -10.520315,-3.28637 -1.546439,-1.35104 -6.687129,-6.57752 -1.508667,-6.10349 7.094838,0.0491 14.271776,1.17973 21.310863,-0.0795 1.27521,-4.06323 1.023601,-8.47918 1.036054,-12.70359 -1.009644,-1.11918 -1.914041,-2.1066 -1.27186,-3.9567 -1.29235,-2.56527 -3.19896,-4.2849 -5.902698,-2.34246 -3.282872,-1.39777 -4.733316,-6.01206 -3.673056,-9.29114 1.327761,-1.14075 3.322321,-1.54821 3.512431,0.75786 2.004272,-3.42751 -4.653542,-3.79465 -6.804171,-4.94844 -5.640621,-0.54023 -3.491215,-6.93542 -0.09007,-9.1458 2.46829,-2.81796 4.784164,-5.76962 7.22449,-8.60735 0.83646,-3.07329 4.521093,-0.37262 5.821865,-2.60338 1.125033,1.22541 3.74268,-0.17015 2.971317,2.00856 2.640346,-2.44794 8.898294,0.81124 9.748938,-4.2433 1.710399,-3.46375 4.433018,-6.54067 5.001352,-10.47929 2.40071,-3.03894 6.715518,-3.98647 9.277408,-7.21459 3.537971,-2.01301 1.977368,4.98149 -0.932788,5.06969 -0.04584,3.71537 6.549555,4.46937 9.762869,5.4636 3.019688,0.77052 3.283282,5.7243 -0.331703,3.81906 -0.995475,0.88376 -0.375748,5.00911 -2.9329,2.17292 -2.335032,-3.2734 -5.695597,-6.31032 -9.991091,-6.1178 -4.509006,-0.95077 -2.952766,5.69286 -4.912709,8.25001 0.100487,3.30375 -0.773562,6.06695 -4.824786,5.61529 -3.519319,0.94808 -9.655314,2.03988 -7.630742,6.93166 0.69294,4.2938 2.189863,9.58249 6.256701,11.74174 1.844277,-0.86228 0.74648,-8.88675 3.317637,-4.04695 1.612295,2.41828 3.137445,4.65424 2.683798,8.2873 -1.407812,3.27996 -1.325982,7.14963 -3.537203,10.14616 -0.967753,3.36161 -3.625292,5.5171 -4.707444,9.27677 -0.817299,3.03926 -3.958942,8.92913 1.535954,9.05042 5.755371,1.36698 11.764342,1.27716 17.488059,2.7531 2.309848,1.8498 -3.7615,2.29374 -3.239463,5.09097 -3.295629,1.12528 -7.0377,0.63438 -9.624762,3.53064 -0.578854,-0.10598 -1.12239,-0.33523 -1.661891,-0.56016 z m 3.029969,-0.83753 c 2.323859,-3.16503 8.372944,-0.0109 8.937112,-4.79832 2.670335,-0.81915 3.68243,-2.66468 -0.02351,-2.62699 -6.011947,-0.98424 -12.294188,-0.95162 -18.046706,-3.12045 -1.517291,-3.54234 1.228307,-7.79626 2.271405,-11.39025 2.274463,-3.30005 -2.38956,-2.9287 -2.029684,0.1407 -1.350183,4.93643 -3.92099,9.46487 -5.350537,14.33887 3.25062,4.02291 8.158682,6.43441 12.846761,8.40192 0.547994,-0.17826 0.97438,-0.57392 1.395159,-0.94548 z m -24.804649,-4.02962 c 3.323528,-1.02321 7.490794,-1.50745 9.794237,-4.23769 0.680845,-1.72526 1.858994,-3.26286 1.439835,-5.20846 -0.05496,-4.02784 -0.04543,-8.05768 -0.191186,-12.08339 -2.105266,-0.24514 -0.942038,2.40242 -1.317709,3.66394 -0.278863,3.15431 0.159467,6.68657 -1.311707,9.53433 -7.480363,0.91108 -15.066578,-0.004 -22.577129,0.0358 -2.321189,0.9322 1.884219,4.03854 2.74417,5.29538 4.020322,0.0739 6.854141,4.39407 10.947777,3.10336 l 0.471711,-0.10332 z m 13.637684,-12.75321 c 0.777945,-3.23423 4.356391,-8.34813 1.071971,-10.5266 -3.952419,-1.36569 -2.671719,5.13126 -3.089784,7.52251 -0.05232,1.54019 -0.246256,9.04511 1.52624,4.1908 l 0.242521,-0.5744 z m -10.56421,-28.22575 c -0.646325,-2.6806 -0.121389,-8.76922 -2.197667,-9.36628 -2.605193,1.9528 -3.770424,4.85086 -0.46682,6.8932 0.767916,0.55291 1.846753,2.80469 2.664487,2.47308 z m 7.33085,-22.86772 c -4.408198,-1.04482 -9.880933,0.88878 -13.191877,-3.34455 -3.593395,-2.7706 -8.85469,-3.95119 -10.805185,-8.46274 0.996845,-4.43112 6.535533,1.16373 9.300808,1.51103 2.502395,0.30049 5.876206,1.27106 6.027453,-2.18844 1.919094,-0.58638 4.931542,-2.13684 4.992476,-0.27356 3.800735,-1.96118 -0.800424,-7.50305 4.065681,-8.57983 2.378384,-1.21478 3.82955,-2.65656 3.291041,-4.07684 3.104939,1.36597 3.410795,5.10981 3.841038,8.64065 -0.88231,4.50714 6.182603,6.69861 4.364591,10.60996 -3.901792,1.16719 -8.375955,1.24783 -9.864139,5.97189 -0.395076,0.87438 -1.370463,0.0999 -2.021887,0.19243 z M 47.75286,219.807 c 3.516464,-0.8489 4.3731,-6.06382 4.399259,-7.9785 1.619243,-0.87578 5.124005,-0.47343 1.460433,0.4197 -1.159895,1.53054 -2.53816,5.30374 0.910699,3.60417 3.396026,0.17121 9.979033,-1.34856 5.100967,-5.30022 -2.977548,-3.67434 -7.1356,-0.3603 -10.101444,1.3986 -3.39079,-0.0678 -5.198468,-5.68935 -8.673727,-2.70991 -1.194697,2.7253 5.643527,-0.39315 1.810337,1.88688 -2.636566,0.62386 -7.970677,-0.29869 -7.972379,1.13705 -1.960605,-1.57097 -7.150422,-6.35934 -8.692268,-3.14122 1.354016,2.66111 5.074871,5.59383 7.294256,5.8289 -1.29544,-1.44894 -5.990406,-5.99687 -2.003506,-2.89667 3.763215,3.03276 6.652159,8.45827 12.133545,8.2263 1.451195,-0.0155 2.933124,-0.0593 4.333828,-0.47508 z m -1.247052,-6.81466 c -0.14005,-1.66105 1.84222,0.0171 0,0 z m -1.810672,-1.5456 c -0.432925,-1.25511 1.637556,0.19177 0,0 z m 5.330996,-0.2103 c 1.176564,-2.89011 3.963909,-5.2174 2.739451,-9.17536 -3.085539,-1.17614 -5.32908,7.5835 -3.154346,9.43614 l 0.414895,-0.26081 z"
         id="path963"
         inkscape:connector-curvature="0" />
      <path
         style="fill:#9b7014;stroke-width:0.23087907"
         d="m 59.308824,288.76621 c -3.746855,-1.73746 -6.999637,-4.29789 -10.22506,-6.82156 -4.146543,1.28402 -8.250312,3.48209 -12.743564,3.48196 -3.540801,-1.95831 -8.878128,-2.05869 -10.853974,-5.91918 -2.443708,-1.57054 -1.93704,-4.01417 1.213317,-3.07415 6.757343,0.0754 13.539883,0.37256 20.283744,-0.0315 2.209615,-3.22035 1.347053,-7.96327 1.670444,-11.81361 0.05134,-2.36971 -2.705796,-2.66052 -1.530252,-5.19736 -1.29235,-2.56527 -3.19896,-4.2849 -5.902698,-2.34246 -3.282872,-1.39777 -4.733316,-6.01206 -3.673056,-9.29114 1.327761,-1.14075 3.322321,-1.54821 3.512431,0.75786 2.004272,-3.42751 -4.653542,-3.79465 -6.804171,-4.94844 -5.640621,-0.54023 -3.491215,-6.93542 -0.09007,-9.1458 2.46829,-2.81796 4.784164,-5.76962 7.22449,-8.60735 0.83646,-3.07329 4.521093,-0.37262 5.821865,-2.60338 1.125033,1.22541 3.74268,-0.17015 2.971317,2.00856 2.640346,-2.44794 8.898294,0.81124 9.748938,-4.2433 1.710399,-3.46375 4.433018,-6.54067 5.001352,-10.47929 2.40071,-3.03894 6.715518,-3.98647 9.277408,-7.21459 3.537971,-2.01301 1.977368,4.98149 -0.932788,5.06969 -0.04584,3.71537 6.549555,4.46937 9.762869,5.4636 3.019688,0.77052 3.283282,5.7243 -0.331703,3.81906 -0.995475,0.88376 -0.375748,5.00911 -2.9329,2.17292 -2.335032,-3.2734 -5.695597,-6.31032 -9.991091,-6.1178 -4.509006,-0.95077 -2.952766,5.69286 -4.912709,8.25001 0.100487,3.30375 -0.773562,6.06695 -4.824786,5.61529 -3.519319,0.94808 -9.655314,2.03988 -7.630742,6.93166 0.69294,4.2938 2.189863,9.58249 6.256701,11.74174 1.844277,-0.86228 0.74648,-8.88675 3.317637,-4.04695 1.612295,2.41828 3.137445,4.65424 2.683798,8.2873 -1.407812,3.27996 -1.325982,7.14963 -3.537203,10.14616 -1.22879,2.22957 -1.231668,3.99053 -3.464916,5.75917 -1.490356,3.60289 -2.999896,7.38378 -3.148529,11.30994 3.258898,2.14613 7.55648,1.97622 11.321272,2.67115 2.825746,0.78908 9.412548,-0.027 9.846777,2.52629 -3.300584,1.08046 -3.386736,5.63622 -7.707894,4.57849 -3.820072,0.0671 -4.750265,4.55214 -8.676255,1.30698 z m 4.649967,0.15219 c 2.323859,-3.16503 8.372944,-0.0109 8.937112,-4.79832 2.670335,-0.81915 3.68243,-2.66468 -0.02351,-2.62699 -6.011947,-0.98424 -12.294188,-0.95162 -18.046706,-3.12045 -1.517291,-3.54234 1.228307,-7.79626 2.271405,-11.39025 2.274463,-3.30005 -2.38956,-2.9287 -2.029684,0.1407 -1.350183,4.93643 -3.92099,9.46487 -5.350537,14.33887 3.25062,4.02291 8.158682,6.43441 12.846761,8.40192 0.547994,-0.17826 0.97438,-0.57392 1.395158,-0.94548 z m -24.804649,-4.02962 c 3.323528,-1.02321 7.490794,-1.50745 9.794237,-4.23769 0.680845,-1.72526 1.858994,-3.26286 1.439835,-5.20846 -0.05496,-4.02784 -0.04543,-8.05768 -0.191186,-12.08339 -2.105266,-0.24514 -0.942038,2.40242 -1.317709,3.66394 -0.278863,3.15431 0.159467,6.68657 -1.311707,9.53433 -7.480363,0.91108 -15.066578,-0.004 -22.577129,0.0358 -2.321189,0.9322 1.884219,4.03854 2.74417,5.29538 4.020322,0.0739 6.854141,4.39407 10.947777,3.10336 l 0.471711,-0.10332 z M 52.352313,273.826 c 1.146601,-3.21087 2.711824,-6.46103 3.077996,-9.83173 -0.07244,-3.1544 -4.69451,-3.61609 -4.582162,0.14487 0.04024,3.49209 -1.305209,8.71216 0.62683,11.22578 0.455205,-0.39887 0.613423,-1.02236 0.877336,-1.53892 z M 42.227616,243.90982 c -0.646325,-2.6806 -0.121389,-8.76922 -2.197667,-9.36628 -2.605193,1.9528 -3.770424,4.85086 -0.46682,6.8932 0.767916,0.55291 1.846753,2.80469 2.664487,2.47308 z m 7.272691,-22.87417 c -3.644869,-1.72831 -8.435499,0.94936 -11.753359,-2.37153 -3.611479,-3.48542 -9.313299,-4.46203 -11.904275,-9.07492 0.12007,-4.55693 6.279445,0.65487 8.567595,1.14587 2.423255,0.41821 6.370423,1.41067 6.529161,-2.01081 1.972096,-0.50049 4.847066,-2.40515 4.942712,-0.4404 3.800735,-1.96118 -0.800424,-7.50305 4.065681,-8.57983 2.378384,-1.21478 3.82955,-2.65656 3.291041,-4.07684 3.128554,1.37036 3.395358,5.15645 3.871064,8.69367 -0.915641,4.48959 5.524801,6.4752 4.267106,10.3877 -1.939654,1.7721 -5.37496,0.19771 -6.971138,2.07175 -1.660843,1.48623 -2.136311,5.3812 -4.905588,4.25534 z M 47.75286,219.807 c 3.516464,-0.8489 4.3731,-6.06382 4.399259,-7.9785 1.619243,-0.87578 5.124005,-0.47343 1.460433,0.4197 -1.159895,1.53054 -2.53816,5.30374 0.910699,3.60417 3.396026,0.17121 9.979033,-1.34856 5.100967,-5.30022 -2.977548,-3.67434 -7.1356,-0.3603 -10.101444,1.3986 -3.39079,-0.0678 -5.198468,-5.68935 -8.673727,-2.70991 -1.194697,2.7253 5.643527,-0.39315 1.810337,1.88688 -2.636566,0.62386 -7.970677,-0.29869 -7.972379,1.13705 -1.960605,-1.57097 -7.150422,-6.35934 -8.692268,-3.14122 1.354016,2.66111 5.074871,5.59383 7.294256,5.8289 -1.29544,-1.44894 -5.990406,-5.99687 -2.003506,-2.89667 3.763215,3.03276 6.652159,8.45827 12.133545,8.2263 1.451195,-0.0155 2.933124,-0.0593 4.333828,-0.47508 z m -1.247052,-6.81466 c -0.14005,-1.66105 1.84222,0.0171 0,0 z m -1.810672,-1.5456 c -0.432925,-1.25511 1.637556,0.19177 0,0 z m 5.567072,-0.12794 c 0.716836,-3.09696 3.837009,-5.2589 2.503375,-9.25772 -3.143954,-1.05085 -4.225735,5.91395 -3.973911,8.72258 -0.09056,0.95822 0.960507,0.97201 1.470536,0.53514 z"
         id="path961"
         inkscape:connector-curvature="0" />
      <path
         style="fill:#5c5c5b;stroke-width:0.23087907"
         d="m 48.923109,281.78308 c 0.621646,-0.93044 0.544104,0.8989 0,0 z m 2.081447,-5.71426 c 0.632656,-2.52667 0.331434,1.93195 0,0 z m 7.153717,-11.12342 c -1.322999,-1.04121 -3.617709,-0.79067 -3.56444,-3.03679 -2.135084,-1.66764 -3.204421,0.18049 -3.739709,1.65759 -2.285054,-0.4008 -4.872641,-1.2741 -3.730645,-4.1754 -1.29235,-2.56527 -3.19896,-4.2849 -5.902698,-2.34246 -3.282872,-1.39777 -4.733316,-6.01206 -3.673056,-9.29114 1.327761,-1.14075 3.322321,-1.54821 3.512431,0.75786 2.004272,-3.42751 -4.653542,-3.79465 -6.804171,-4.94844 -5.640621,-0.54023 -3.491215,-6.93542 -0.09007,-9.1458 2.46829,-2.81796 4.784164,-5.76962 7.22449,-8.60735 0.83646,-3.07329 4.521093,-0.37262 5.821865,-2.60338 1.125033,1.22541 3.74268,-0.17015 2.971317,2.00856 2.640346,-2.44794 8.898294,0.81124 9.748938,-4.2433 1.710399,-3.46375 4.433018,-6.54067 5.001352,-10.47929 2.40071,-3.03894 6.715518,-3.98647 9.277408,-7.21459 3.537971,-2.01301 1.977368,4.98149 -0.932788,5.06969 -0.04584,3.71537 6.549555,4.46937 9.762869,5.4636 3.019688,0.77052 3.283282,5.7243 -0.331703,3.81906 -0.995475,0.88376 -0.375748,5.00911 -2.9329,2.17292 -2.335032,-3.2734 -5.695597,-6.31032 -9.991091,-6.1178 -4.509006,-0.95077 -2.952766,5.69286 -4.912709,8.25001 0.100487,3.30375 -0.773562,6.06695 -4.824786,5.61529 -3.519319,0.94808 -9.655314,2.03988 -7.630742,6.93166 0.69294,4.2938 2.189863,9.58249 6.256701,11.74174 1.844277,-0.86228 0.74648,-8.88675 3.317637,-4.04695 1.612295,2.41828 3.137445,4.65424 2.683798,8.2873 -1.407812,3.27996 -1.325982,7.14963 -3.537203,10.14616 -1.737174,1.51048 -0.173611,4.31341 -2.980096,4.33125 z M 42.227616,243.90982 c -0.646325,-2.6806 -0.121389,-8.76922 -2.197667,-9.36628 -2.605193,1.9528 -3.770424,4.85086 -0.46682,6.8932 0.767916,0.55291 1.846753,2.80469 2.664487,2.47308 z m 7.447822,-22.85127 c -4.320068,-0.29403 1.738932,-2.8227 2.132256,-4.68196 2.406327,-0.46369 3.597696,0.13219 1.241755,2.24075 -1.016797,1.20778 -1.320218,3.39465 -3.374011,2.44121 z M 34.27144,216.13323 c -0.7543,-1.56293 2.071708,1.0708 0,0 z m 18.345735,-3.81749 c 0.677557,-1.33684 0.49725,0.61527 0,0 z m -4.654088,-1.41253 c -1.869588,0.22412 -4.849936,-3.41605 -2.503164,-3.71658 0.600247,3.59377 3.723847,-3.71347 1.720339,-5.10851 1.703894,-2.51967 5.798646,-3.41447 6.277772,-5.53009 -1.633429,-2.16895 2.030976,0.57939 2.113928,1.05078 1.021206,3.30366 2.451123,8.43341 1.974634,11.1143 -2.524878,-1.36676 -5.694576,2.33838 -6.927422,1.95391 -0.02596,-2.52675 3.183366,-3.51514 2.328631,-6.81981 -0.160721,-5.57336 -4.397176,1.25858 -3.960485,3.6497 -0.459691,0.6721 0.413217,5.58085 -1.024233,3.4063 z m -14.410436,-0.0252 c -0.906225,-1.43774 2.075233,0.99764 0,0 z m 6.641306,0.008 c 0.982694,-0.93622 0.597291,1.00445 0,0 z"
         id="path959"
         inkscape:connector-curvature="0" />
      <path
         style="fill:#2e2e2f;stroke-width:0.23087907"
         d="m 51.004556,276.2997 c 0.530123,-1.62571 0.32091,1.09607 0,0 z m 6.85909,-11.83474 c -2.825123,0.25515 -2.359165,-4.07049 -5.991193,-3.40716 -0.596736,1.64031 -1.540535,3.28151 -3.411102,1.54664 -2.421209,-0.65974 -0.127087,-3.65114 -2.655786,-5.20941 -3.929928,-6.97269 -3.019136,-15.23312 -4.802354,-22.79328 -0.415625,-1.25348 1.123309,-6.07271 -0.365318,-2.44258 0.210391,2.68284 -3.732825,4.28801 -3.579125,6.45958 1.535897,2.22797 3.977111,3.94204 4.806859,6.54601 0.08527,2.75595 -4.472921,-1.55943 -6.422032,-1.45265 -4.880147,0.20319 -6.116135,-5.56007 -2.165926,-8.05986 3.039789,-3.51229 6.092142,-7.10107 8.916002,-10.74228 1.96477,-1.98614 3.460735,0.93565 4.697669,-1.51947 1.744156,0.78186 3.858994,0.17084 2.83322,2.28898 2.600557,-2.60206 6.528537,-0.24265 9.522612,-2.55318 1.414629,-4.5675 5.33502,-8.04694 5.993722,-12.89712 0.690175,-2.30581 6.585438,-0.0683 2.383416,-1.95099 3.031178,-0.75386 5.519337,-5.26617 8.303524,-5.00919 2.258981,3.82512 -6.732671,5.15658 -1.397541,7.71118 1.503003,0.59175 3.083507,1.75126 1.178654,1.507 2.45294,0.0205 10.271482,2.60882 6.440071,5.00419 -4.822733,-1.6515 -9.624787,-4.66813 -14.915528,-3.85218 -0.75216,3.49909 -2.495926,6.98576 -2.919631,10.55042 -0.130696,4.26347 -5.974348,2.56833 -8.627994,4.57096 -2.794786,0.91205 -4.822162,2.15963 -3.503201,5.09954 0.568861,4.47183 2.118963,9.41265 5.783417,12.2795 3.448329,2.41399 0.744934,-7.10797 3.266128,-4.91082 0.946684,2.00774 1.786639,3.51755 2.782854,4.17097 1.198527,3.9964 -0.428396,7.63105 -1.255864,11.46712 -1.425669,2.80532 -2.371134,5.71099 -3.908294,7.82613 -0.104969,0.56687 -0.841216,-0.0321 -0.987259,-0.22805 z M 43.442927,233.2082 c 0.05746,-3.97575 -0.638609,3.93309 -0.05407,0.62535 z m -2.997642,23.41584 c -2.524811,-1.93061 -4.284062,-6.80329 -2.123201,-9.24194 1.650211,0.7046 2.060615,7.83622 2.676028,2.97573 -0.06006,-2.48778 1.657671,-3.71945 1.673855,-0.58477 0.541128,3.10615 3.379801,8.0809 -2.226682,6.85098 z m -0.606365,-8.09239 c -1.293129,-3.37658 1.943097,-0.73998 0.550105,1.20491 -0.355901,-0.30435 -0.397256,-0.79712 -0.550105,-1.20491 z m 9.084189,-27.73953 c -1.81281,-0.6627 2.37482,-3.23305 3.114003,-4.42894 4.349791,-1.33079 0.309602,3.93912 -1.482644,4.6778 l -0.818816,-0.0817 -0.812544,-0.16725 z m 31.078333,-1.02229 c -1.356365,-1.47251 -5.538494,-5.72556 -1.226797,-3.11976 1.911109,-0.008 5.192399,3.89919 1.877213,3.70859 z m 3.991895,-2.09807 c -0.0011,-1.88653 -1.637105,-5.18321 0.978848,-2.0267 0.669919,0.87095 0.516537,2.73768 -0.978848,2.0267 z m -49.740543,-1.70457 c -0.09171,-1.17106 1.487168,1.00903 0,0 z m 18.364381,-3.65145 c 0.677557,-1.33684 0.49725,0.61527 0,0 z m -4.654088,-1.41253 c -1.18281,-0.33863 -4.48127,-1.68699 -2.791763,-3.38776 1.000177,3.77282 3.975392,-3.91785 2.189045,-5.62225 1.765046,-1.87485 6.213079,-3.28703 6.566954,-5.46223 3.02664,2.01939 2.554211,6.33685 3.427001,9.64451 2.29701,4.38997 -4.291732,1.38767 -5.992269,4.52556 -1.668416,0.23646 0.0901,-2.46277 1.06635,-2.76596 1.042253,-1.90447 1.202685,-9.27717 -1.952535,-5.10372 -1.973467,2.37369 -1.503587,6.69892 -2.122954,8.66117 l -0.38983,-0.48918 z m 6.274448,-11.07433 c -1.223901,-1.19332 0.755703,5.32786 0.155656,0.6515 l -0.155646,-0.6515 z M 33.68298,211.01611 c -0.368338,-1.06151 1.353329,0.82707 0,0 z m 6.813043,-0.1129 c 0.707982,-0.74232 0.07295,0.79556 0,0 z"
         id="path957"
         inkscape:connector-curvature="0" />
      <path
         style="fill:#020202;stroke-width:0.23087907"
         d="m 57.982509,264.19215 c -2.726185,0.0706 -3.08353,-4.43214 -6.886915,-3.32937 0.997609,3.60341 -4.979436,1.55577 -3.409841,-0.68718 -2.359686,-3.50654 -3.98488,-7.74436 -4.581215,-12.07373 -0.661759,-4.68906 -1.002784,-9.42643 -1.921161,-14.07857 -0.141875,-1.43124 2.153543,-7.08218 -0.321359,-3.20929 -0.506831,3.03747 -3.015,6.68685 -5.44038,7.29841 2.404364,1.56089 6.738497,5.46486 5.824151,7.71468 -3.059345,-2.12319 -7.894799,-1.66884 -9.910131,-4.83801 -1.303352,-3.79386 3.912,-6.24167 5.59265,-9.27125 2.380569,-2.40424 4.010726,-5.98974 7.039982,-7.35578 1.390577,-0.20242 0.15945,2.99347 1.975802,0.42043 0.618943,-1.96849 5.657565,-0.78086 2.905242,1.15401 1.186817,0.41628 3.932382,-2.5319 6.190404,-1.26163 5.028675,0.36351 5.049773,-4.25622 7.469822,-7.43092 2.781096,-2.48086 1.577511,-9.73992 6.73189,-7.54602 3.857661,1.75206 0.438656,-1.19949 -1.115881,-1.66116 3.040972,-0.47462 5.292793,-4.76629 7.578386,-4.75539 2.262333,4.01935 -6.811778,4.74491 -1.565673,7.77721 0.390973,2.91259 6.162507,1.68216 8.484028,4.15674 1.041302,4.6931 -5.599429,-1.1134 -8.076967,-0.96437 -2.738481,-0.50471 -8.846508,-2.95415 -8.17968,1.75411 -1.85285,3.31009 -1.113266,8.57333 -4.015124,10.6822 -4.046956,0.86632 -8.651614,1.80415 -11.539855,4.97797 2.388776,1.59023 1.017782,6.61092 3.058336,9.27404 1.109919,2.84563 4.310496,6.84517 7.040404,6.20485 -2.132303,-1.13221 -0.487166,-5.58919 0.121774,-5.90239 1.058398,2.31675 2.015732,4.05678 2.940147,5.24101 1.040936,3.66329 -1.145819,6.04314 -1.183103,9.69114 -1.034856,2.84616 -2.647239,5.90686 -3.966894,8.07222 -0.318979,0.74522 -0.398941,0.3445 -0.838839,-0.054 z M 43.73165,234.84745 c 0.23352,-1.86734 0.507165,-6.93068 -0.832126,-2.48946 -0.759548,1.74266 0.950901,7.49993 0.832126,2.48946 z m -3.265394,21.53007 c -2.327575,-1.6977 -4.18601,-6.96944 -1.874613,-8.68825 0.851647,1.29329 1.976734,8.77832 2.556212,3.90099 -0.186891,-2.2516 1.26665,-5.02674 1.398124,-1.10809 0.628026,2.80694 2.857733,7.16571 -2.079723,5.89535 z m -0.501894,-8.37923 c -1.044326,-2.20248 1.332943,0.22555 0.24224,0.47282 l -0.242244,-0.47282 z m 8.843308,-27.4865 c -1.592358,-0.67531 3.126867,-1.8008 2.761146,-3.66223 2.604071,-0.9069 3.254728,-0.47881 1.300876,1.45074 -0.96553,1.59135 -1.867692,3.40608 -4.062022,2.21149 z m 31.407922,-0.7606 c -1.703302,-1.76423 -3.700686,-4.42639 -0.160648,-2.15674 2.194028,-8.3e-4 2.841118,3.82842 0.160648,2.15674 z m 4.190746,-2.07071 c -0.455531,-1.44621 -0.660089,-4.36184 0.620856,-1.37372 0.213197,0.31546 0.105903,1.88495 -0.620856,1.37372 z m -36.584044,-7.23902 c -2.046173,0.0233 -2.784177,-1.5543 -0.639351,-2.4633 1.714187,-2.2835 -0.866076,-7.57033 2.592676,-6.97314 0.625778,-2.20115 3.881874,-2.38059 4.777664,-3.51467 2.255716,1.89885 1.809919,6.10051 2.668417,9.02612 1.696594,3.46877 -4.427597,0.9454 -5.816819,3.75442 -1.806335,-0.93064 2.732866,-2.01291 1.684767,-4.43954 0.719576,-2.13194 -0.280506,-7.00931 -2.651688,-3.40843 -2.080519,1.83516 -1.389774,7.67635 -2.615666,8.01854 z m 6.970542,-7.92784 c 1.277946,-2.60638 -3.305481,-5.18805 -1.040849,-1.65841 -0.105195,0.94979 0.575313,4.37494 1.040849,1.65841 z"
         id="path955"
         inkscape:connector-curvature="0" />
    </g>
  </g>
</svg>
