<?xml version="1.0" encoding="UTF-8" standalone="no"?>
<!-- Created with Inkscape (http://www.inkscape.org/) -->

<svg
   xmlns:dc="http://purl.org/dc/elements/1.1/"
   xmlns:cc="http://creativecommons.org/ns#"
   xmlns:rdf="http://www.w3.org/1999/02/22-rdf-syntax-ns#"
   xmlns:svg="http://www.w3.org/2000/svg"
   xmlns="http://www.w3.org/2000/svg"
   xmlns:sodipodi="http://sodipodi.sourceforge.net/DTD/sodipodi-0.dtd"
   xmlns:inkscape="http://www.inkscape.org/namespaces/inkscape"
   width="400"
   height="400"
   viewBox="0 0 105.83333 105.83334"
   version="1.1"
   id="svg8"
   inkscape:version="0.92.4 (5da689c313, 2019-01-14)"
   sodipodi:docname="Elmer.svg">
  <defs
     id="defs2" />
  <sodipodi:namedview
     id="base"
     pagecolor="#ffffff"
     bordercolor="#666666"
     borderopacity="1.0"
     inkscape:pageopacity="0.0"
     inkscape:pageshadow="2"
     inkscape:zoom="3.959798"
     inkscape:cx="107.56607"
     inkscape:cy="213.67656"
     inkscape:document-units="mm"
     inkscape:current-layer="layer1"
     showgrid="false"
     units="px"
     inkscape:window-width="1920"
     inkscape:window-height="986"
     inkscape:window-x="-11"
     inkscape:window-y="-11"
     inkscape:window-maximized="1" />
  <metadata
     id="metadata5">
    <rdf:RDF>
      <cc:Work
         rdf:about="">
        <dc:format>image/svg+xml</dc:format>
        <dc:type
           rdf:resource="http://purl.org/dc/dcmitype/StillImage" />
        <dc:title />
      </cc:Work>
    </rdf:RDF>
  </metadata>
  <g
     inkscape:label="Layer 1"
     inkscape:groupmode="layer"
     id="layer1"
     transform="translate(0,-191.16665)">
    <rect
       style="opacity:1;fill:#ffffff;fill-opacity:1;stroke:none;stroke-width:2;stroke-miterlimit:4;stroke-dasharray:none;stroke-opacity:1;paint-order:normal"
       id="rect3393"
       width="14.568035"
       height="14.221104"
       x="34.678219"
       y="223.63449" />
    <g
       id="g837"
       transform="matrix(1.0176551,0,0,1.0176551,-1.4551504,-4.8681447)">
      <path
         style="fill:#f7e9ca;stroke-width:0.20038283"
         d="m 26.440798,292.41778 c -3.892319,-1.42685 -7.981799,-5.92411 -4.829752,-10.012 1.586281,-3.78674 10.594748,0.12631 6.298023,-4.56544 -3.78696,-4.32189 0.714093,-8.37327 4.5045,-10.40466 0.01798,-2.00842 1.816106,-3.60051 -1.375721,-4.02434 -4.474591,-3.80439 2.018094,-8.07742 2.147198,-12.15285 1.484631,-2.94626 -0.443862,-4.83387 -3.176115,-5.03348 -0.667265,-2.19561 0.808134,-4.98108 -1.922552,-6.08333 -2.693265,-3.99599 -8.081682,-6.95526 -7.142176,-12.58696 0.362534,-5.60495 4.859474,-9.42078 7.712585,-13.85252 3.261052,-4.28319 4.200896,-10.16847 9.307066,-13.01301 5.981142,-4.30985 14.553669,-5.77827 21.212368,-2.25219 2.229809,3.82163 6.537107,2.67281 9.922135,4.37831 2.740387,1.24682 2.520333,5.68658 -1.174058,3.86817 1.717585,1.31509 2.619911,8.34789 -1.48196,7.2584 -2.532642,-4.65939 -1.168531,3.69601 -3.755223,4.57583 -2.866202,2.81669 -8.347972,-1.96959 -9.515985,3.27688 -1.306952,4.68009 4.585084,-1.22416 6.872205,0.51462 4.822336,1.36748 -0.09348,6.7199 -3.374776,6.21703 -4.170022,-0.86127 -3.779118,3.87061 -6.561661,6.1474 0.02646,2.43901 3.693961,3.78676 2.51489,6.9612 2.737359,2.81004 -7.54843,4.35118 -2.004426,6.12462 3.911811,3.67737 9.093733,1.32769 12.663179,-1.40263 4.510521,0.19122 9.122142,4.32227 10.043138,8.72707 0.08512,4.97632 0.660449,9.63086 2.908912,13.64177 0.880121,3.19536 -1.681525,7.19925 -5.189568,6.89452 1.763001,1.23543 2.005304,8.38637 -0.370287,3.72096 -0.717274,-3.8449 -6.227495,-1.56319 -6.677629,-6.04782 -1.620627,-5.38289 2.150373,-10.28231 2.771603,-15.46049 -2.001639,-4.62977 -3.767609,4.64023 -6.385171,5.43229 -5.464264,2.16702 5.569485,5.49593 -0.451138,8.23271 -3.28293,1.98831 -7.531547,4.87411 -7.788298,8.48927 3.641171,0.0728 9.806416,-2.5734 10.147316,3.24654 -0.331217,5.17864 -6.739989,7.75237 -11.285514,6.25313 -3.585462,0.33627 -6.925386,-4.41252 -10.037539,-1.34972 -4.280824,2.60135 -9.309187,5.77744 -14.525569,4.28072 z m 15.284897,-56.546 c 3.20668,-1.12865 1.504107,-10.08741 -1.311344,-5.1493 -1.882395,1.07086 -1.821736,6.77989 1.311344,5.1493 z m 5.776664,-2.77589 c -0.246245,-5.61762 -1.555118,5.00438 -0.03115,0.38919 l 0.01864,-0.23284 z m 36.68394,57.35249 c -1.708728,-1.54294 -8.397311,0.89037 -4.639627,-2.47931 -3.482912,-2.70898 3.964293,-1.7404 0.913183,-4.6762 -0.780773,-3.06585 -4.425926,-7.39918 -3.916941,-9.41186 3.900436,1.26032 4.117165,6.43872 5.080287,9.84601 -1.021588,4.85017 5.287658,-0.3356 4.707519,3.8582 -2.205578,1.01404 -1.683135,1.23493 -1.241847,3.189 l -0.318721,-0.0138 -0.583857,-0.31205 z M 69.985347,288.7157 c 2.083186,-2.1543 -4.982933,-1.80599 -0.509509,-2.98433 1.763991,-0.2213 -2.687753,-3.6043 1.199972,-1.59146 2.337356,-0.37329 4.740796,-0.29927 6.198124,0.43768 -1.995328,1.62378 0.458106,5.07874 -2.810554,3.61533 -1.340401,-0.35001 -3.306008,0.1262 -4.078033,0.52278 z m 4.809188,-5.85844 c 0.07937,-2.2565 5.093421,-5.10984 1.965707,-1.45731 -0.460627,0.3684 -1.251535,2.38897 -1.965707,1.45731 z"
         id="path859"
         inkscape:connector-curvature="0" />
      <path
         style="fill:#dacfb4;stroke-width:0.20038283"
         d="m 26.73519,292.43135 c -4.760668,-1.10516 -8.67762,-7.4498 -4.034375,-11.11115 1.800611,-1.82227 8.84245,0.64647 5.442205,-3.08688 -3.371619,-4.07142 -0.460398,-8.4889 3.66021,-10.25655 1.75131,-2.29605 1.926014,-4.14126 -1.22347,-5.15754 -3.638287,-3.47119 2.498597,-7.58755 2.905002,-11.35269 1.429719,-3.57593 -1.047112,-4.68972 -3.838873,-5.82448 1.260572,-4.23418 -2.975442,-7.34553 -5.666094,-10.24688 -4.403458,-4.06515 -3.591278,-11.30784 0.249488,-15.44999 1.853126,-3.85281 5.755896,-6.25488 6.923699,-10.44104 3.629485,-9.94131 15.820672,-15.0993 25.704998,-12.0761 3.628351,1.88529 5.881529,5.23516 10.344872,4.62915 3.937061,0.56442 5.230112,5.89057 0.358485,4.90425 4.3596,1.81978 0.263586,10.7246 -2.383933,5.19053 0.388899,2.16172 -3.990218,10.6508 -8.802976,6.57914 -2.63004,-0.30542 -5.667912,6.74286 -0.976135,4.64916 2.528286,-2.41075 8.734468,-1.32197 5.895181,2.9 -3.073695,3.25914 -8.958758,1.10155 -9.804379,6.61073 -1.43869,1.98058 -2.313198,2.65299 -0.04811,4.23333 1.702022,3.38807 2.577232,7.661 -2.271616,8.58414 -1.647054,2.11182 4.148097,2.32482 5.358125,4.04428 4.215933,1.56064 6.923524,-4.69329 11.099091,-3.24135 4.267203,2.30734 8.265836,6.30364 8.030621,11.53595 -0.506824,4.02293 0.986515,7.71044 2.638554,11.1274 1.21353,3.65042 -3.385928,6.34229 -5.042745,6.80701 1.354931,1.31489 1.651488,7.2905 -0.590431,3.4452 -0.204978,-4.29229 -6.135259,-1.43491 -6.621858,-6.09495 -1.752906,-5.5017 2.437563,-10.44532 2.737583,-15.79301 -1.469098,-4.60233 -3.786785,3.8009 -5.592114,5.10737 -4.074675,0.89034 -2.101553,4.20957 0.407554,5.59153 -0.077,4.72188 -7.341608,4.81998 -8.51342,9.23364 -1.620883,1.73735 -1.217981,3.40516 1.43463,2.52384 4.124882,-2.08463 10.162966,0.94577 6.80617,5.87418 -2.693959,4.71206 -8.85593,4.47439 -13.296281,2.69757 -3.253379,-1.88125 -6.634132,-1.97384 -9.341676,0.87735 -3.619736,1.91218 -7.716879,4.2739 -11.947979,2.98686 z m 16.799625,-27.264 c 0.776575,-1.83518 1.531103,-2.58745 3.531869,-1.24673 2.341778,0.34331 2.816961,-4.61527 0.28921,-2.13205 -4.820529,-0.15614 1.733078,-8.55946 -3.415067,-6.0684 -2.179115,2.59212 -6.820239,4.89817 -3.207343,8.6667 0.639056,0.79474 1.839881,1.47638 2.801331,0.78048 z m 18.497214,-8.29107 c 0.868037,-2.21696 7.858596,-3.93356 5.434736,-5.6762 -0.991519,1.51828 -3.170897,-5.97749 -2.908533,-2.81918 1.971487,2.01672 -0.375873,5.52182 -0.754749,1.37788 -1.782474,-2.28591 -2.691988,-0.0537 -0.976652,1.33734 -0.907145,1.85077 -5.323333,5.75447 -0.873799,6.08964 l 0.079,-0.30944 z m -18.618844,-8.44687 c 0.517133,-3.2748 -3.359061,0.50545 0,0 z m 0.269126,-3.013 c 3.061907,-1.50633 10.959662,-5.53472 4.970323,-8.59714 2.562231,1.05451 1.708857,6.91587 -2.329726,5.69597 -2.702311,-1.80767 -3.518775,-1.32889 -4.83345,1.43053 -1.702089,-3.54162 4.326072,-7.12357 4.716932,-2.90283 3.837363,0.85744 1.814629,-4.46062 -1.07495,-2.82726 -2.225538,-0.79288 2.342401,-1.97435 0.245103,-3.62558 -0.587498,-2.03231 1.240787,-8.50811 3.168257,-4.02369 2.423363,0.2473 -1.457784,5.27576 1.697018,2.1602 1.787617,-1.34981 1.788205,-6.94189 -0.577436,-2.96012 -1.6471,-1.13901 -4.240064,-3.59473 -6.28645,-3.09926 1.445751,3.77191 1.931973,8.66558 -0.857055,11.96964 -2.745502,-1.31788 -5.86478,-2.37743 -4.801044,-5.91827 0.360097,-3.72981 7.156947,-5.39999 4.225735,-9.7012 -2.30433,-5.33786 -3.700509,3.82791 -4.913464,2.56443 -2.208,-3.34638 4.498638,-6.31326 1.733885,-8.53909 -4.78636,-0.1972 -10.914058,-0.39174 -13.755174,4.26413 -2.844996,3.69968 -3.612774,9.50404 -0.09888,13.05688 1.242242,2.67724 3.061845,2.05993 3.613951,-0.35455 2.546381,-2.2121 5.460448,5.6056 2.034487,1.71059 -2.484533,-1.47488 -2.242992,4.11934 0.02158,1.64912 2.138348,1.78417 6.20695,-3.95804 6.257757,1.07415 -0.319847,1.629 -1.518601,6.25521 1.635217,3.90923 2.167767,0.29485 2.512235,5.00447 5.207382,3.06412 z m -1.416586,-0.21013 c -0.940249,-2.77364 4.676269,-1.7645 1.229787,-0.36291 -0.242002,0.32727 -0.832358,0.71136 -1.229787,0.36291 z m -10.47689,-5.1361 c -0.555204,-2.83797 -4.504208,1.07492 -0.609477,0.50392 0.254853,-0.0662 0.397106,-0.36158 0.609477,-0.50392 z m 9.975608,-4.14423 c 2.897572,-1.04811 1.912947,-10.21744 -1.180614,-5.51838 -1.939364,1.42215 -2.290916,6.86399 1.180614,5.51838 z m 5.75684,-1.89712 c 1.108114,-3.79044 -2.064288,-2.57602 -1.048421,0.41602 0.232884,1.32573 1.120924,0.48911 1.048421,-0.41602 z m 36.684089,56.3233 c -1.549765,-1.80451 -8.373283,1.20078 -4.49313,-2.35269 -2.814214,-2.82971 2.100494,-1.97855 3.630482,-1.70958 2.57849,-2.36884 4.499683,2.57898 0.957719,2.30446 0.101441,0.75417 1.883317,2.86836 -0.09507,1.75781 z M 70.18573,288.51965 c 1.497547,-2.01992 -4.653186,-1.55882 -0.698202,-2.71313 2.567732,0.0509 -2.916253,-3.42928 1.307657,-1.6853 2.45413,0.0115 7.969003,-0.91218 4.875176,2.83702 1.075284,3.01216 -2.952327,-0.12464 -4.83915,1.50351 l -0.645481,0.058 z m 11.041624,-2.95293 c -0.86271,-3.94288 -3.214377,-7.43771 -5.056123,-10.91522 2.765636,-1.9836 4.197372,4.92166 5.087784,7.09375 0.202284,1.16279 0.970511,2.83869 -0.03166,3.82147 z m -6.335477,-2.55949 c -0.04816,-2.46135 5.080978,-4.95814 1.529354,-1.27685 -0.371902,0.44922 -0.745346,1.53286 -1.529354,1.27685 z"
         id="path857"
         inkscape:connector-curvature="0" />
      <path
         style="fill:#a4a29c;stroke-width:0.20038283"
         d="m 26.595615,292.25877 c -4.754167,-1.11175 -8.36281,-7.78858 -3.439406,-11.04568 2.410652,-1.47411 9.144793,1.05274 5.032186,-3.25681 -3.644428,-4.38808 0.47179,-8.29985 4.236518,-10.36673 -0.588686,-2.17174 3.574054,-3.45276 -0.494144,-3.77673 -5.47276,-3.27515 0.978541,-8.34908 1.486182,-12.18115 0.914416,-2.98533 0.302849,-5.16114 -3.026218,-5.59642 -1.981783,-1.54241 1.438701,-4.57038 -1.935559,-5.74064 -1.821013,-3.07314 -5.460977,-4.93487 -6.670422,-8.58497 -2.298128,-5.44284 1.486028,-10.69112 4.755044,-14.74535 3.483797,-3.16404 4.505622,-7.81671 6.990081,-11.68639 5.623818,-7.54955 16.983208,-11.11596 25.50674,-6.6049 2.432834,4.79929 8.46584,1.68208 11.311493,5.69854 1.969741,2.70118 -1.637908,2.34617 -3.11766,2.13814 2.725167,1.38414 2.793199,8.51995 -0.903351,6.98524 -2.555046,-5.24951 -1.081277,3.76056 -3.784737,4.85969 -2.665292,2.83666 -7.820612,-1.87391 -9.277347,2.67955 -2.268508,3.58886 1.59706,3.23667 3.588053,1.53504 4.770074,-2.14165 6.988911,4.12221 1.913421,5.27007 -3.151203,0.60807 -6.144952,0.30087 -6.806808,4.04355 -2.204256,1.79622 -3.084377,4.84937 0.0866,6.1521 0.398492,1.72379 0.02713,4.07009 0.800054,5.20804 -1.835379,1.4136 -7.275504,3.59338 -2.072176,4.77404 3.466837,2.73556 8.40789,2.71521 11.027785,-1.05333 4.489997,-1.48438 9.018716,2.82459 10.880203,6.50561 1.136225,4.87343 0.415288,10.46728 2.90911,14.66134 2.272728,3.81369 -1.794006,7.09848 -4.592577,7.62436 0.170204,1.4451 2.555307,6.44782 0.27414,2.94332 -0.588315,1.62273 -1.152202,-3.16203 -3.439168,-2.13661 -4.277064,-0.24447 -4.391643,-5.52861 -3.681215,-8.69376 0.791617,-3.7319 2.699855,-7.20506 2.882717,-11.06566 -2.448247,-3.34207 -3.065749,2.57409 -4.477678,3.94654 -3.006078,1.52 -5.922437,5.59669 -1.330199,7.27095 0.93243,4.53248 -6.895878,4.98693 -8.248247,8.99022 -0.32247,1.69877 -3.41699,3.98498 0.386845,3.1447 4.000111,-1.92725 11.784621,0.59475 7.697912,5.79128 -2.589178,4.19065 -7.851638,4.31151 -12.020376,2.83793 -3.327619,-0.58304 -6.38214,-3.97553 -8.977777,-0.23575 -3.936504,2.35509 -8.762922,4.92593 -13.470017,3.71063 z M 43.804516,265.3098 c 0.740356,-3.36601 6.74437,0.52622 5.135334,-4.33504 -2.885304,2.01216 -4.874999,-2.59009 -2.004094,-4.31326 -1.582778,-4.45605 -5.276419,1.74927 -7.289064,2.7166 -1.217763,2.4975 0.905822,7.33492 4.157824,5.9317 z m 18.136966,-7.81237 c 1.293321,-3.19956 8.520955,-3.43014 5.454559,-8.21724 -0.672498,4.37424 -0.880404,-3.38258 -3.885807,-1.76032 1.677351,0.84989 1.95798,5.98611 0.504188,2.3892 -1.528827,-2.84971 -3.629907,-0.41097 -1.413857,1.35728 -1.431428,1.95679 -5.619016,5.48143 -0.659083,6.23108 z M 43.608899,248.4959 c 0.294894,-4.41672 -4.528886,0.72487 0,0 z m 0.169027,-2.84896 c 3.074045,-1.87288 10.950649,-5.0982 5.293297,-8.93902 -1.841484,-3.02379 5.816874,-7.03859 1.673923,-8.80335 -2.137423,3.00776 -6.074264,-1.68305 -8.070932,-3.61868 -1.15369,-1.77806 -2.507469,-5.36748 -3.911174,-1.66325 -0.846721,2.12782 -1.861529,4.04667 -1.476784,0.45048 0.333443,-2.32974 5.352914,-6.55992 -0.07997,-6.23495 -5.307955,-0.51972 -11.629528,0.9347 -13.66921,6.4906 -2.476949,4.24553 -0.844975,12.08287 4.139127,12.98628 -0.152309,-4.07442 5.286011,-1.43653 3.956377,0.15183 -4.553974,-4.88742 -3.433978,6.89135 0.198486,3.78499 1.730764,-1.78141 -5.149283,-1.14211 -1.585528,-2.72306 1.757917,2.54287 5.728609,-3.01825 4.787834,-0.13686 4.505478,-0.5471 -2.076316,7.33545 3.436541,5.47308 1.866717,-0.35347 2.423054,4.98534 5.308013,2.78191 z m -1.445408,-0.8212 c 1.705515,-3.51583 3.09026,0.46673 0,0 z m -0.919753,-1.59038 c -0.786025,-2.17771 4.005882,-6.34441 3.717519,-2.27776 3.82457,2.85968 5.060455,-5.02163 0.44687,-2.96134 -2.341323,-0.97134 2.843295,-0.19116 0.150482,-2.14983 -1.445326,-3.04531 1.783873,-9.79522 3.185602,-3.69697 -0.808803,2.42503 -2.140675,5.48902 0.90856,6.36332 1.381419,4.31029 -5.574929,4.60359 -6.835702,2.14699 -0.701787,0.39495 -0.581297,3.38739 -1.573331,2.57559 z m 6.097988,-8.48893 c 1.465479,-1.77436 -1.219677,-5.7931 -1.137335,-1.76616 -0.37103,0.6268 0.262351,4.00039 1.137335,1.76616 z m -5.9755,3.06362 c -4.897469,-0.48691 -4.234472,-6.76563 -0.996089,-8.92585 1.853162,-1.67361 3.318584,-4.09947 3.300395,-0.0985 0.560641,2.26191 1.166394,10.22771 -2.304306,9.0244 z m 0.265094,-1.73789 c 3.569621,-1.40558 1.458967,-11.0024 -1.620001,-5.37784 -2.039955,1.2493 -1.64799,7.07593 1.620001,5.37784 z m 24.456195,-27.60711 c -1.777559,-3.13323 -1.266968,-0.0707 0.331128,0.93508 l 0.04959,-0.13831 z m 17.47557,81.50342 c -1.871644,-1.05673 -7.196307,0.96127 -3.778304,-1.97147 -2.660149,-3.57143 3.260321,-0.31402 4.454949,-2.1383 4.656464,1.24797 -2.100779,2.1335 0.404731,4.32094 0.297179,0.72809 -1.414929,-0.58966 -1.081376,-0.21117 z M 70.386113,288.5318 c 1.59913,-2.05872 -4.482872,-1.66215 -0.804349,-2.58081 2.640987,0.26251 -2.013377,-3.24416 1.288392,-1.63017 2.327289,-0.13326 7.321058,-0.83125 4.616412,2.66988 1.142446,2.96975 -3.185307,-0.63626 -5.100455,1.5411 z m 10.997941,-3.25383 c -0.62526,-3.94444 -3.72349,-7.29186 -4.6944,-10.87362 3.623137,1.6119 4.305406,6.72269 4.746942,10.34073 l -0.05254,0.53294 z m -6.188753,-2.66538 c 0.539573,-2.01513 3.653899,-3.7325 0.977196,-0.89498 -0.244555,0.0794 -0.590198,1.30899 -0.977196,0.89498 z"
         id="path855"
         inkscape:connector-curvature="0" />
      <path
         style="fill:#95935f;stroke-width:0.20038283"
         d="m 27.704572,292.4178 c -3.831979,-0.94875 -8.456396,-4.78279 -6.20748,-9.10853 1.266762,-3.72782 7.569048,-1.74861 8.265578,-3.13854 -2.554181,-3.17705 -4.713034,-8.35534 0.287131,-10.41825 1.784221,-1.72915 6.622607,-5.78304 1.573598,-6.49254 -4.843326,-2.56666 1.131156,-7.78985 1.976678,-11.18629 1.257795,-3.2375 0.378194,-5.86332 -3.273602,-6.24404 -1.24328,-1.73379 1.252611,-4.49959 -1.834048,-5.72087 -3.119801,-4.06258 -8.867888,-8.15957 -6.882323,-14.23377 0.915828,-4.39607 4.404038,-7.78701 7.03198,-11.20634 3.039948,-4.24146 4.035235,-9.94696 8.633352,-13.01884 6.091629,-4.91111 15.352536,-6.62981 22.270684,-2.50216 2.127632,4.81093 8.533681,1.03618 10.800715,5.61022 2.094712,3.63186 -5.733028,-0.27203 -2.432475,2.94688 3.3445,1.87488 -0.80881,9.47325 -2.355181,3.9663 -2.056071,-1.04791 -0.439501,6.77434 -4.219675,7.15828 -3.161472,1.4527 -7.214804,-2.31829 -8.336415,2.54645 -2.183282,5.9065 5.063442,-0.51321 7.745696,1.50497 3.074351,3.08747 -2.935515,5.81105 -5.743796,5.4917 -3.033676,-0.0884 -2.766671,4.46661 -5.205505,6.19515 -1.103946,2.73412 4.34354,3.24235 2.059302,6.48789 0.876481,1.63815 1.230277,2.53314 -1.085756,3.44785 -2.725356,0.64772 -3.790906,3.12241 -0.224598,3.56974 3.898204,3.19602 8.89223,2.38123 11.997883,-1.25337 4.679044,-0.28168 9.644101,3.84664 10.438178,8.46823 -0.102704,5.47549 1.377191,10.27907 3.001502,15.24471 -0.05748,4.23547 -4.86109,4.34667 -6.684929,6.3683 -4.592749,0.0246 -6.240283,-4.98185 -5.068201,-8.74627 0.796678,-4.00614 3.019542,-7.71356 2.949357,-11.88402 -4.099659,-2.75629 -2.844929,4.77732 -6.282786,5.67353 -2.747576,1.29918 -3.387262,5.15321 0.02748,5.79766 0.861029,4.46265 -5.751356,5.26832 -7.669584,8.49686 -1.180504,2.2115 -4.011427,5.36217 0.511044,4.14066 4.045801,-2.09469 10.941867,0.54897 7.066857,5.63866 -2.831194,4.59191 -8.667627,3.68631 -12.999863,2.23815 -2.927972,-1.01833 -5.484485,-3.11095 -7.80952,0.11663 -3.64873,2.19743 -7.932741,4.49621 -12.321278,4.04501 z m 42.681541,-20.92797 c -1.027274,-1.78836 -0.779168,1.517 0,0 z m 4.004588,-1.43134 c -1.529803,-2.04567 -0.426662,2.22913 0,0 z m -30.64233,-4.28662 c 0.722606,-3.10504 6.794859,-0.63173 5.720818,-4.81076 -2.875802,1.49029 -5.287239,-1.58583 -2.769846,-3.79677 0.283689,-3.66095 -2.958959,-2.54719 -4.24578,-0.3147 -4.977375,1.78603 -3.792144,9.24524 1.294808,8.92223 z m 18.717415,-9.13083 c 2.982178,-0.70626 7.770541,-5.24865 4.61012,-7.31998 -0.259533,2.51034 -1.96176,-4.27982 -3.76747,-1.59244 1.459271,0.77056 2.307528,5.22137 0.700817,1.88532 -1.336627,-2.80972 -4.235595,-0.20362 -1.553728,1.38622 -1.36947,1.93237 -5.264931,5.99497 -0.643374,6.70869 l 0.417729,-0.43009 z m -18.728382,-7.94476 c 1.942038,-2.5566 -5.061406,-2.21687 -0.175637,-3.17642 3.199655,-1.02917 10.42157,-4.41775 6.477682,-8.33172 -4.262266,-3.31568 4.955347,-5.79404 0.977895,-9.21883 -2.563737,2.19952 -6.241655,-1.71665 -8.485573,-3.96643 -0.381058,-3.78974 -3.471729,-3.67199 -4.523915,-0.33515 -2.26074,1.86477 0.906545,-3.78173 2.015057,-4.94644 -0.494385,-3.89538 -7.228553,-1.45875 -10.207157,-1.37821 -4.387368,1.14485 -6.991376,5.86713 -7.566713,10.11417 -0.410625,3.67593 1.760093,7.4882 4.857102,9.3256 1.333007,-0.74026 1.723702,-4.52985 4.042414,-1.71451 1.773272,2.05789 -3.395977,-1.63665 -2.867829,1.78286 -1.126643,2.9975 4.506428,5.81054 3.648501,2.35209 -2.113291,-0.058 -3.28637,-2.15107 -0.756381,-1.09943 1.40404,1.40791 4.642834,-3.13961 2.648575,-0.01 5.186059,-3.18797 -0.548935,8.34759 5.071874,4.70296 2.269807,1.2272 1.791787,6.22749 4.844105,5.89929 z m -1.168344,-4.20134 c 1.348734,-2.68527 1.435817,1.03681 0,0 z m -1.038073,-1.93918 c -0.04494,-2.00901 3.981772,-5.16799 3.638881,-1.43303 2.938006,2.86658 5.530313,-3.689 1.765931,-3.48961 6.267486,-1.09822 0.02305,8.48638 -2.599703,3.41839 -0.601995,-2.88981 -1.894982,1.18676 -2.805109,1.50425 z m -0.03762,-4.93744 c -5.041475,-0.81121 -3.475947,-7.17834 -0.207518,-9.25895 3.213381,-3.5616 3.158229,4.62121 2.598817,6.80925 -0.288212,0.79864 -1.236254,3.50777 -2.391299,2.4497 z m 0.32582,-1.34577 c 3.571836,-1.4445 1.837754,-11.5783 -1.528915,-6.0771 -1.728701,1.97539 -2.833803,7.12514 1.528915,6.0771 z m 3.218503,1.25239 c 0.294608,-0.81252 0.578632,0.70893 0,0 z m 1.23641,-0.76384 c -2.184664,-2.05664 0.769489,-10.3509 2.182333,-4.8743 0.07707,1.50786 0.07674,5.15788 -2.182333,4.8743 z m 1.407353,-1.84358 c 1.465319,-2.02899 -1.330307,-6.50504 -1.549918,-1.92011 -0.202883,0.85148 0.419947,4.08223 1.549918,1.92011 z m -7.553142,-15.07578 c -1.449119,0.19155 -0.884942,1.61028 0,0 z m 26.733705,-10.14186 c -0.01482,-2.355 -3.897196,-4.58984 -1.165403,-1.14 0.246849,0.27971 0.519795,1.68376 1.165403,1.14 z m -0.283173,-5.73906 c -4.100037,-1.08144 0.852523,1.22179 0,0 z m 17.03254,85.70771 c -2.199533,-0.48221 -5.782405,0.56135 -3.558876,-1.97861 -1.490967,-2.68142 2.852103,-0.0839 3.885507,-1.62175 3.83968,0.52593 0.636677,1.80864 0.0031,2.82549 0.34428,0.53728 0.842144,1.24212 -0.329754,0.77487 z m -9.155279,-1.8754 c -1.760982,0.23534 -6.968378,-0.58216 -3.651325,-2.47138 -2.771228,-1.93463 6.052612,-0.66601 4.955819,-0.15789 -0.890115,0.62304 0.635011,3.95292 -1.304494,2.62927 z m 5.494119,-7.9081 c -1.042309,-1.6432 0.959927,0.0124 0,0 z m -8.428603,-1.61558 c -1.046478,-0.99227 1.121125,0.1384 0,0 z"
         id="path853"
         inkscape:connector-curvature="0" />
      <path
         style="fill:#757472;stroke-width:0.20038283"
         d="m 27.704572,292.4178 c -3.831979,-0.94875 -8.456396,-4.78279 -6.20748,-9.10853 1.266762,-3.72782 7.569048,-1.74861 8.265578,-3.13854 -2.554181,-3.17705 -4.713034,-8.35534 0.287131,-10.41825 1.784221,-1.72915 6.622607,-5.78304 1.573598,-6.49254 -4.843326,-2.56666 1.131156,-7.78985 1.976678,-11.18629 1.257795,-3.2375 0.378194,-5.86332 -3.273602,-6.24404 -1.24328,-1.73379 1.252611,-4.49959 -1.834048,-5.72087 -3.119801,-4.06258 -8.867888,-8.15957 -6.882323,-14.23377 0.915828,-4.39607 4.404038,-7.78701 7.03198,-11.20634 3.039948,-4.24146 4.035235,-9.94696 8.633352,-13.01884 6.091629,-4.91111 15.352536,-6.62981 22.270684,-2.50216 2.127632,4.81093 8.533681,1.03618 10.800715,5.61022 2.094712,3.63186 -5.733028,-0.27203 -2.432475,2.94688 3.3445,1.87488 -0.80881,9.47325 -2.355181,3.9663 -2.056071,-1.04791 -0.439501,6.77434 -4.219675,7.15828 -3.161472,1.4527 -7.214804,-2.31829 -8.336415,2.54645 -2.183282,5.9065 5.063442,-0.51321 7.745696,1.50497 3.074351,3.08747 -2.935515,5.81105 -5.743796,5.4917 -3.033676,-0.0884 -2.766671,4.46661 -5.205505,6.19515 -1.103946,2.73412 4.34354,3.24235 2.059302,6.48789 0.876481,1.63815 1.230277,2.53314 -1.085756,3.44785 -2.725356,0.64772 -3.790906,3.12241 -0.224598,3.56974 3.898204,3.19602 8.89223,2.38123 11.997883,-1.25337 4.679044,-0.28168 9.644101,3.84664 10.438178,8.46823 -0.102704,5.47549 1.377191,10.27907 3.001502,15.24471 -0.05748,4.23547 -4.86109,4.34667 -6.684929,6.3683 -4.592749,0.0246 -6.240283,-4.98185 -5.068201,-8.74627 0.796678,-4.00614 3.019542,-7.71356 2.949357,-11.88402 -4.099659,-2.75629 -2.844929,4.77732 -6.282786,5.67353 -2.747576,1.29918 -3.387262,5.15321 0.02748,5.79766 0.861029,4.46265 -5.751356,5.26832 -7.669584,8.49686 -1.180504,2.2115 -4.011427,5.36217 0.511044,4.14066 4.045801,-2.09469 10.941867,0.54897 7.066857,5.63866 -2.831194,4.59191 -8.667627,3.68631 -12.999863,2.23815 -2.927972,-1.01833 -5.484485,-3.11095 -7.80952,0.11663 -3.64873,2.19743 -7.932741,4.49621 -12.321278,4.04501 z m 42.681541,-20.92797 c -1.027274,-1.78836 -0.779168,1.517 0,0 z m 4.004588,-1.43134 c -1.529803,-2.04567 -0.426662,2.22913 0,0 z m -30.426405,-4.29494 c 1.072425,-2.03372 8.104775,-2.48664 4.776751,-4.68046 -3.424788,1.59552 -3.319034,-3.42057 -1.803518,-4.67907 -1.881149,-3.84201 -6.127428,1.53753 -7.590351,3.39021 -1.043713,2.71243 1.473331,6.94142 4.617118,5.96932 z m 18.43782,-8.90241 c 2.818582,-1.61442 8.020386,-4.59309 4.752721,-8.31413 0.398471,3.03931 -4.194565,-4.18037 -3.599,-0.32244 1.517652,1.55855 1.744259,3.68436 0.226435,0.8537 -2.70476,-1.99626 -2.962645,0.49228 -1.43507,2.12555 -1.484652,1.99812 -5.274134,5.67818 -0.493063,6.60633 0.382406,-0.13744 0.51416,-0.5908 0.547977,-0.94901 z m -18.642323,-8.12962 c 2.298121,-2.05468 -4.085554,-2.48665 -0.448447,-2.65197 2.853848,-1.92372 11.242054,-4.74285 6.528339,-8.9337 -3.423421,-2.9567 5.75321,-7.68031 0.947208,-9.43587 -3.445338,2.45147 -7.505781,-2.54839 -9.212911,-5.49649 -1.001307,-4.91203 -5.144318,4.88718 -3.357357,-0.79292 2.069871,-1.75989 2.96929,-5.64883 -1.1187,-4.76514 -4.611782,-0.24449 -10.235181,0.32135 -12.687649,4.84766 -2.80235,3.96078 -3.210746,9.92835 0.475846,13.49757 1.153907,2.27215 3.590006,2.21479 3.598773,-0.4421 1.481578,-1.71453 4.50147,2.67395 1.539923,0.4007 -5.137679,0.99031 1.871166,9.60211 1.991783,4.28704 -2.159441,-0.0502 -3.265639,-2.05056 -0.783497,-1.00902 1.955547,0.8871 3.455507,-2.3777 2.973381,-0.40088 4.699086,-2.14666 -1.094327,8.13582 4.497135,5.01544 2.540994,0.88065 1.952898,6.44921 5.056173,5.87968 z m -1.226892,-4.07845 c 0.988005,-2.24038 1.717364,0.30699 0,0 z m -0.800782,-2.53927 c 0.753382,-2.93678 3.351046,-3.27543 3.960515,-0.59876 4.748655,1.90157 2.064248,-5.11177 2.378521,-3.85867 5.126657,2.14786 -3.702767,7.66473 -4.498921,2.38446 -0.766972,0.54788 -1.086796,1.51756 -1.840115,2.07297 z m -0.405096,-4.65585 c -5.578309,-1.29894 -2.35082,-8.03987 1.071037,-10.0554 2.080913,0.37007 3.148193,9.72702 -0.911629,10.14907 l -0.159404,-0.0937 z m 0.49216,-1.1854 c 3.571836,-1.4445 1.837754,-11.5783 -1.528915,-6.0771 -1.728701,1.97539 -2.833803,7.12514 1.528915,6.0771 z m 4.375323,0.30973 c -1.771966,-2.35817 1.073943,-10.07529 2.198077,-4.22207 -0.01715,1.19104 -0.09263,5.41251 -2.198077,4.22207 z m 1.486943,-1.66476 c 1.465319,-2.02899 -1.330307,-6.50504 -1.549918,-1.92011 -0.202883,0.85148 0.419947,4.08223 1.549918,1.92011 z m -7.98346,-14.46228 c 1.719432,-2.22588 -2.831874,1.92227 -0.172322,0.14087 z m 27.164023,-10.75536 c -0.01482,-2.355 -3.897196,-4.58984 -1.165403,-1.14 0.246849,0.27971 0.519795,1.68376 1.165403,1.14 z m -0.283173,-5.73906 c -4.100037,-1.08144 0.852523,1.22179 0,0 z m 17.212315,85.69045 c -1.645929,-1.5871 -6.27685,1.35274 -3.601076,-1.62795 -1.790667,-3.64027 2.687579,0.24795 4.408409,-1.86186 4.164197,1.15299 -2.641467,1.83576 -0.394782,3.74128 -0.136359,-0.0845 -0.276446,-0.16688 -0.412551,-0.25147 z m -9.134703,-1.90187 c -1.447768,0.24652 -6.282361,-0.4349 -4.404619,-1.58436 2.435275,-0.46266 -2.182471,-2.46111 1.201292,-1.77118 1.903763,0.10055 5.552786,-0.0959 3.753938,2.12813 0.317709,0.57816 0.536035,2.56883 -0.550611,1.22741 z m 5.293768,-7.86437 c -1.042309,-1.6432 0.959927,0.0124 0,0 z m -8.428603,-1.61558 c -1.046478,-0.99227 1.121125,0.1384 0,0 z"
         id="path851"
         inkscape:connector-curvature="0" />
      <path
         style="fill:#a2730e;stroke-width:0.20038283"
         d="m 26.877145,292.06002 c -4.682533,-1.03608 -8.451658,-7.65418 -3.410205,-10.77334 1.962,-1.23749 9.427164,1.40881 5.612905,-2.51839 -4.026155,-3.8482 -1.3692,-8.71787 3.117763,-10.57527 0.771466,-1.00116 0.870856,-2.78412 2.368343,-3.74633 -5.908234,-0.54695 -5.029796,-7.27024 -1.566901,-10.42545 1.297306,-3.08739 2.38143,-8.63599 -2.654265,-8.19951 -0.369357,-2.07567 1.195992,-4.52787 -1.392774,-5.3715 -2.202926,-4.09384 -7.564764,-6.39401 -7.557121,-11.62739 -0.297738,-5.64645 4.047273,-9.80601 7.110213,-14.01268 3.579338,-3.64302 3.627609,-9.45353 8.135056,-12.46655 5.641248,-4.90605 14.267346,-7.01976 21.250587,-3.95171 2.988977,2.51936 5.46538,4.36778 9.521028,4.17474 3.700546,0.65197 4.039185,5.75903 -0.395262,3.27283 -2.326577,-0.0463 3.172895,2.56414 1.836641,4.51938 0.831661,3.76606 -3.234435,3.95213 -3.518977,0.39826 -1.776256,0.90233 -0.475167,7.49067 -4.503861,8.1319 -3.159146,0.90238 -6.65214,-2.57953 -7.843775,2.1819 -2.339426,3.52107 1.818108,3.72064 3.824879,1.76789 4.498504,-2.05106 6.587582,3.63278 1.840939,4.77166 -2.888693,0.84912 -6.38556,-0.0866 -6.66547,3.75692 -0.636004,1.60629 -3.787009,4.22146 -1.179308,1.24787 2.306812,-1.58893 1.621652,-7.0309 -1.791919,-4.48136 -5.883924,-0.75079 -7.592518,-6.96507 -9.740593,-11.24173 -3.688875,-1.1294 -8.062704,-0.19587 -11.590286,1.22081 -4.983832,3.17275 -7.531317,10.70205 -3.820648,15.76265 1.287537,1.92425 4.113879,4.76768 4.563713,1.10429 1.233086,-1.63443 4.182645,0.96341 1.144542,-0.0399 -4.462218,2.38539 2.404574,10.02446 3.471635,3.32063 1.265389,-0.28155 4.056405,-1.38673 3.056193,1.64214 -1.088339,2.7317 0.243766,4.65187 2.683193,3.07955 1.444062,1.41724 4.464084,9.20482 5.095984,3.90582 -3.551553,-0.55226 3.223614,-2.35106 4.415157,-3.50233 3.353608,-0.36676 3.287116,-5.45548 2.615712,-6.06403 1.689768,2.05639 0.96735,4.59032 1.293234,6.12619 -3.127288,1.19395 -6.476269,4.03376 -1.265798,4.74046 3.10399,3.05501 7.706209,2.71803 10.651592,-0.4501 1.54524,-3.02063 7.759489,1.68955 3.203194,-0.25578 -4.232636,-2.38034 1.984015,5.02686 -1.567732,1.00709 -2.857196,-1.80432 -2.032981,2.0068 -1.22526,2.77085 -1.849273,1.73877 -4.411813,6.31542 -0.06295,6.66093 0.746889,-3.61555 3.164282,-0.20172 1.118288,1.56393 -2.482278,2.40305 -7.623695,6.53108 -2.04372,8.77211 -0.284192,4.08818 -6.189812,4.85908 -8.08993,8.18041 -0.219962,2.16263 -4.699352,4.79758 -0.412138,4.12072 3.843709,-1.53775 11.926163,-0.82346 8.429507,5.10246 -2.605345,4.63211 -8.399366,3.95353 -12.692137,2.60195 -3.093743,-0.75629 -5.76767,-3.62242 -8.138781,-0.0686 -3.842914,2.31949 -8.611062,4.96548 -13.230491,3.86559 z M 43.68522,265.9667 c 1.618844,-1.65821 8.561475,-3.1057 5.020719,-5.14572 -3.087546,1.75887 -3.198144,-3.18578 -1.556646,-4.33175 -2.025693,-4.53419 -5.603454,0.94854 -7.580923,2.73679 -1.743902,2.75504 0.743979,7.44523 4.11685,6.74068 z m 5.031557,-6.1594 c 3.117257,-3.09218 9.017113,-3.45668 11.023746,-7.20293 -3.804577,0.3864 -7.129039,3.3611 -10.811363,4.61642 -2.210959,0.12286 -3.301775,5.37704 -0.212383,2.58651 z m 0.779122,-3.71846 c 3.06532,-2.57485 10.249407,-3.21483 11.206477,-6.08962 -4.013005,0.79424 -8.52769,2.34287 -11.850775,5.01016 -0.68495,0.94889 -0.508531,2.0728 0.644298,1.07946 z m 17.483706,-46.57826 c 0.341796,-1.81439 -4.371739,-5.15523 -1.928601,-1.67713 0.396775,0.32677 1.380779,3.38802 1.928601,1.67713 z m 0.503887,-5.05355 c -1.44744,-1.97909 -5.205306,-0.47176 -1.224431,-0.0258 0.379803,0.0895 0.881128,0.41579 1.224431,0.0258 z m 11.719465,84.96651 c 2.007671,-0.24481 0.200135,-4.66926 2.695269,-2.22934 0.990467,-1.7234 5.641382,0.0155 2.370166,0.55347 -0.293273,3.34799 -2.922584,0.45 -5.065435,1.67587 z M 74.56496,287.586 c -1.652007,0.11247 -6.371609,-0.547 -3.534971,-1.79939 -0.593572,-2.58237 6.448212,-1.089 4.236912,1.87635 0.37371,0.63248 -0.884749,0.28044 -0.701941,-0.077 z m -7.598143,-11.33708 c -4.722738,-2.74816 -2.540295,-8.89189 -1.227082,-12.99288 0.931599,-2.15613 3.253606,-8.09626 -0.432632,-7.7698 2.689857,-1.44246 3.645496,-4.51389 2.505881,-6.79517 4.78954,2.05747 5.701825,7.60127 5.255734,12.26009 -0.0397,4.42407 5.02574,8.76159 1.231742,12.71248 -2.136121,0.97673 -4.978638,3.81208 -7.333643,2.58528 z m 2.377305,-0.49094 c -4.587184,-1.14018 1.194325,-8.56103 1.843522,-3.46662 0.450567,-6.36612 -7.695035,2.45515 -2.851725,3.71426 l 0.529985,-0.0492 z m 1.436384,-2.25253 c -0.925944,0.12349 -0.215523,1.62905 0,0 z m -4.70909,-0.0619 c -0.868821,-2.85088 5.429599,-4.07625 2.170776,-6.3326 2.0854,-3.68953 2.093736,-8.26913 1.727858,-12.48056 -1.546054,-4.35432 -2.885735,2.85993 -2.225382,4.67751 -0.554298,4.50018 -3.977521,8.77946 -2.605017,13.51307 0.368546,0.65295 0.549853,2.22979 0.931765,0.62258 z m 7.90083,0.0431 c 1.287013,-1.88387 -4.601145,1.58621 -0.411771,0.42683 z m -3.428284,-2.19578 c -2.330134,-2.06996 -0.156169,2.91822 0,0 z m 3.950504,-0.50471 c 1.690089,1.19682 0.909989,-4.59231 -1.486202,-1.84964 -2.941179,1.83656 4.258546,-0.73707 0.318662,0.69254 -0.468117,0.67128 0.99049,2.8449 1.16754,1.1571 z m -2.490124,-2.32114 c 2.818586,-0.85966 -1.090185,-3.41943 0.452806,-5.61542 0.01229,-3.92206 0.751561,-10.31027 -3.333389,-12.05081 2.815751,3.63327 1.808865,7.82081 1.615979,12.04355 0.286175,0.72543 -0.569677,7.66483 1.264604,5.62268 z m -2.136116,-1.93273 c -0.267732,-2.37971 -1.461438,2.14674 0,0 z m 3.782458,-1.02893 c 0.110059,-2.08783 -1.159798,0.47625 -0.339375,0.54664 z M 42.770988,244.39035 c 1.167707,-1.95507 0.224343,1.36533 0,0 z m 2.413026,-2.56746 c -2.189301,-2.20216 4.958065,2.26158 4.169344,-2.00104 -0.761485,-4.54261 1.69879,2.24086 -1.768567,2.19218 -0.785145,0.24185 -1.666061,0.18719 -2.400777,-0.19114 z m -1.151298,-2.09868 c 0.09091,-1.43804 1.069715,0.51367 0,0 z m -13.773263,-1.14426 c -2.992787,-1.80955 4.879503,0.44341 0,0 z m 11.419701,-1.05307 c -1.100906,-2.07671 3.918007,-2.43584 1.085307,-0.132 -0.123772,0.61222 -0.882404,0.58356 -1.085307,0.132 z m 4.580178,-1.03704 c -1.871678,-3.46432 3.137335,1.4011 0,0 z m -7.441753,-0.38091 c -0.311692,-1.12782 1.08366,1.06063 0,0 z m 4.734389,-1.68992 c 0.203791,-1.56949 0.644296,-0.0713 0,0 z m -5.026723,-2.79354 c 0.712945,-1.7538 0.569399,1.11876 0,0 z m 9.534805,-0.0851 c -0.290666,-1.29638 0.674618,0.45161 0,0 z m -7.438318,-1.99916 c 3.24645,-3.1983 -1.745165,2.26698 0,0 z m 6.319591,0.56959 c 0.419335,-0.86798 0.351921,0.77136 0,0 z m -4.613919,-2.59543 c 1.313281,-1.40314 -0.291321,1.28152 0,0 z m -3.601777,-5.88336 c 0.51764,-0.65522 1.875725,-1.66742 0.536772,-0.45462 z"
         id="path849"
         inkscape:connector-curvature="0" />
      <path
         style="fill:#514f4d;stroke-width:0.20038283"
         d="m 26.877145,292.06002 c -4.682533,-1.03608 -8.451658,-7.65418 -3.410205,-10.77334 1.962,-1.23749 9.427164,1.40881 5.612905,-2.51839 -4.026155,-3.8482 -1.3692,-8.71787 3.117763,-10.57527 0.771466,-1.00116 0.870856,-2.78412 2.368343,-3.74633 -5.908234,-0.54695 -5.029796,-7.27024 -1.566901,-10.42545 1.297306,-3.08739 2.38143,-8.63599 -2.654265,-8.19951 -0.369357,-2.07567 1.195992,-4.52787 -1.392774,-5.3715 -2.202926,-4.09384 -7.564764,-6.39401 -7.557121,-11.62739 -0.297738,-5.64645 4.047273,-9.80601 7.110213,-14.01268 3.579338,-3.64302 3.627609,-9.45353 8.135056,-12.46655 5.641248,-4.90605 14.267346,-7.01976 21.250587,-3.95171 2.988977,2.51936 5.46538,4.36778 9.521028,4.17474 3.700546,0.65197 4.039185,5.75903 -0.395262,3.27283 -2.326577,-0.0463 3.172895,2.56414 1.836641,4.51938 0.831661,3.76606 -3.234435,3.95213 -3.518977,0.39826 -1.776256,0.90233 -0.475167,7.49067 -4.503861,8.1319 -3.159146,0.90238 -6.65214,-2.57953 -7.843775,2.1819 -2.339426,3.52107 1.818108,3.72064 3.824879,1.76789 4.498504,-2.05106 6.587582,3.63278 1.840939,4.77166 -2.888693,0.84912 -6.38556,-0.0866 -6.66547,3.75692 -0.636004,1.60629 -3.787009,4.22146 -1.179308,1.24787 2.306812,-1.58893 1.621652,-7.0309 -1.791919,-4.48136 -5.883924,-0.75079 -7.592518,-6.96507 -9.740593,-11.24173 -3.688875,-1.1294 -8.062704,-0.19587 -11.590286,1.22081 -4.983832,3.17275 -7.531317,10.70205 -3.820648,15.76265 1.287537,1.92425 4.113879,4.76768 4.563713,1.10429 1.233086,-1.63443 4.182645,0.96341 1.144542,-0.0399 -4.462218,2.38539 2.404574,10.02446 3.471635,3.32063 1.265389,-0.28155 4.056405,-1.38673 3.056193,1.64214 -1.088339,2.7317 0.243766,4.65187 2.683193,3.07955 1.444062,1.41724 4.464084,9.20482 5.095984,3.90582 -3.551553,-0.55226 3.223614,-2.35106 4.415157,-3.50233 3.353608,-0.36676 3.287116,-5.45548 2.615712,-6.06403 1.689768,2.05639 0.96735,4.59032 1.293234,6.12619 -3.127288,1.19395 -6.476269,4.03376 -1.265798,4.74046 3.10399,3.05501 7.706209,2.71803 10.651592,-0.4501 1.54524,-3.02063 7.759489,1.68955 3.203194,-0.25578 -4.232636,-2.38034 1.984015,5.02686 -1.567732,1.00709 -2.857196,-1.80432 -2.032981,2.0068 -1.22526,2.77085 -1.849273,1.73877 -4.411813,6.31542 -0.06295,6.66093 0.746889,-3.61555 3.164282,-0.20172 1.118288,1.56393 -2.482278,2.40305 -7.623695,6.53108 -2.04372,8.77211 -0.284192,4.08818 -6.189812,4.85908 -8.08993,8.18041 -0.219962,2.16263 -4.699352,4.79758 -0.412138,4.12072 3.843709,-1.53775 11.926163,-0.82346 8.429507,5.10246 -2.605345,4.63211 -8.399366,3.95353 -12.692137,2.60195 -3.093743,-0.75629 -5.76767,-3.62242 -8.138781,-0.0686 -3.842914,2.31949 -8.611062,4.96548 -13.230491,3.86559 z m 9.007657,-12.69688 c 3.332445,-2.97857 5.041329,-7.04441 5.052545,-11.31835 -0.472206,-6.22091 -6.429158,-0.45307 -9.020911,1.20934 -5.041375,2.00741 -4.664665,7.49943 -0.856301,10.59274 1.767515,1.87339 3.53549,1.82911 4.824667,-0.48373 z M 43.68522,265.9667 c 1.618844,-1.65821 8.561475,-3.1057 5.020719,-5.14572 -3.087546,1.75887 -3.198144,-3.18578 -1.556646,-4.33175 -2.025693,-4.53419 -5.603454,0.94854 -7.580923,2.73679 -1.743902,2.75504 0.743979,7.44523 4.11685,6.74068 z m 5.031557,-6.1594 c 3.117257,-3.09218 9.017113,-3.45668 11.023746,-7.20293 -3.804577,0.3864 -7.129039,3.3611 -10.811363,4.61642 -2.210959,0.12286 -3.301775,5.37704 -0.212383,2.58651 z m 0.779122,-3.71846 c 3.06532,-2.57485 10.249407,-3.21483 11.206477,-6.08962 -4.013005,0.79424 -8.52769,2.34287 -11.850775,5.01016 -0.68495,0.94889 -0.508531,2.0728 0.644298,1.07946 z m 17.483706,-46.57826 c 0.341796,-1.81439 -4.371739,-5.15523 -1.928601,-1.67713 0.396775,0.32677 1.380779,3.38802 1.928601,1.67713 z m 0.503887,-5.05355 c -1.44744,-1.97909 -5.205306,-0.47176 -1.224431,-0.0258 0.379803,0.0895 0.881128,0.41579 1.224431,0.0258 z m 11.719465,84.96178 c 1.163828,-1.70746 1.848253,0.23234 0,0 z m 4.431322,0.0194 c -0.54126,-0.78606 1.076414,0.31192 0,0 z m -2.327302,-0.41492 c 0.97986,-0.81955 0.518746,0.76969 0,0 z m -0.70134,-0.79578 c -2.016249,-2.71068 1.731302,-1.87735 0,0 z m 3.005742,-0.19726 c -1.871895,-3.47222 4.710996,-0.32938 0.757772,-0.32292 z m -8.755096,-0.25936 c -1.140564,-4.15737 1.202743,-0.8658 0,0 z m -3.736577,-0.54007 c -2.764524,-1.2794 0.646821,-0.58673 -0.267303,-2.25064 2.039151,-0.8728 4.280481,0.0393 0.922476,0.42264 -1.687901,2.04007 3.745844,1.79353 0.334286,2.19799 -0.305481,0.2765 -1.052358,0.13838 -0.989459,-0.36999 z m 10.688228,0.11258 c 1.239938,-0.99672 0.612688,0.42476 0,0 z m -6.88817,-1.86857 c 0.07178,-1.0752 1.212079,0.26505 0,0 z m -7.952947,-9.22595 c -4.722738,-2.74816 -2.540295,-8.89189 -1.227082,-12.99288 0.931599,-2.15613 3.253606,-8.09626 -0.432632,-7.7698 2.689857,-1.44246 3.645496,-4.51389 2.505881,-6.79517 4.78954,2.05747 5.701825,7.60127 5.255734,12.26009 -0.0397,4.42407 5.02574,8.76159 1.231742,12.71248 -2.136121,0.97673 -4.978638,3.81208 -7.333643,2.58528 z m 2.377305,-0.49094 c -4.587184,-1.14018 1.194325,-8.56103 1.843522,-3.46662 0.450567,-6.36612 -7.695035,2.45515 -2.851725,3.71426 l 0.529985,-0.0492 z m 1.436384,-2.25253 c -0.925944,0.12349 -0.215523,1.62905 0,0 z m -4.70909,-0.0619 c -0.868821,-2.85088 5.429599,-4.07625 2.170776,-6.3326 2.0854,-3.68953 2.093736,-8.26913 1.727858,-12.48056 -1.546054,-4.35432 -2.885735,2.85993 -2.225382,4.67751 -0.554298,4.50018 -3.977521,8.77946 -2.605017,13.51307 0.368546,0.65295 0.549853,2.22979 0.931765,0.62258 z m 7.90083,0.0431 c 1.287013,-1.88387 -4.601145,1.58621 -0.411771,0.42683 z m -3.428284,-2.19578 c -2.330134,-2.06996 -0.156169,2.91822 0,0 z m 3.950504,-0.50471 c 1.690089,1.19682 0.909989,-4.59231 -1.486202,-1.84964 -2.941179,1.83656 4.258546,-0.73707 0.318662,0.69254 -0.468117,0.67128 0.99049,2.8449 1.16754,1.1571 z m -2.490124,-2.32114 c 2.818586,-0.85966 -1.090185,-3.41943 0.452806,-5.61542 0.01229,-3.92206 0.751561,-10.31027 -3.333389,-12.05081 2.815751,3.63327 1.808865,7.82081 1.615979,12.04355 0.286175,0.72543 -0.569677,7.66483 1.264604,5.62268 z m -2.136116,-1.93273 c -0.267732,-2.37971 -1.461438,2.14674 0,0 z m 3.782458,-1.02893 c 0.110059,-2.08783 -1.159798,0.47625 -0.339375,0.54664 z M 42.770988,244.39035 c 1.167707,-1.95507 0.224343,1.36533 0,0 z m 2.413026,-2.56746 c -2.189301,-2.20216 4.958065,2.26158 4.169344,-2.00104 -0.761485,-4.54261 1.69879,2.24086 -1.768567,2.19218 -0.785145,0.24185 -1.666061,0.18719 -2.400777,-0.19114 z m -1.151298,-2.09868 c 0.09091,-1.43804 1.069715,0.51367 0,0 z m -13.773263,-1.14426 c -2.992787,-1.80955 4.879503,0.44341 0,0 z m 11.419701,-1.05307 c -1.100906,-2.07671 3.918007,-2.43584 1.085307,-0.132 -0.123772,0.61222 -0.882404,0.58356 -1.085307,0.132 z m 4.580178,-1.03704 c -1.871678,-3.46432 3.137335,1.4011 0,0 z m -7.441753,-0.38091 c -0.311692,-1.12782 1.08366,1.06063 0,0 z m 4.734389,-1.68992 c 0.203791,-1.56949 0.644296,-0.0713 0,0 z m -5.026723,-2.79354 c 0.712945,-1.7538 0.569399,1.11876 0,0 z m 9.534805,-0.0851 c -0.290666,-1.29638 0.674618,0.45161 0,0 z m -7.438318,-1.99916 c 3.24645,-3.1983 -1.745165,2.26698 0,0 z m 6.319591,0.56959 c 0.419335,-0.86798 0.351921,0.77136 0,0 z m -4.613919,-2.59543 c 1.313281,-1.40314 -0.291321,1.28152 0,0 z m -3.601777,-5.88336 c 0.51764,-0.65522 1.875725,-1.66742 0.536772,-0.45462 z"
         id="path847"
         inkscape:connector-curvature="0" />
      <path
         style="fill:#716f05;stroke-width:0.20038283"
         d="m 26.642812,291.80811 c -4.850045,-0.88937 -7.860205,-8.32798 -2.480317,-10.67204 2.001426,-0.45512 8.893504,1.58763 5.131723,-2.25879 -4.251706,-4.09747 -0.884408,-9.01237 3.491071,-10.94472 -0.590107,-2.33804 4.761048,-3.77316 0.352886,-4.18555 -6.219213,-2.05696 -0.434065,-8.17105 0.544935,-11.6 1.100961,-2.55738 1.451566,-6.67005 -2.488657,-6.09659 -2.625174,-2.62333 2.082536,-8.88462 4.852997,-7.64602 -0.370218,2.50094 -1.577619,6.93849 2.560722,4.86468 2.051144,0.85587 3.562691,8.69167 5.34144,4.67865 0.243405,-3.52969 5.560411,-5.41553 8.089012,-5.66899 1.021031,2.56966 -8.147567,3.26912 -2.967696,5.44397 2.224513,1.33131 9.684879,3.18329 3.668535,4.64689 -3.367256,0.10961 -4.776585,6.22881 -7.331487,1.98914 -2.750736,1.59011 -7.749944,4.41285 -6.375233,8.45097 1.672655,5.25617 7.490065,2.75254 10.207321,-0.0508 0.879847,-2.31211 0.150165,-4.19169 3.308269,-5.01208 2.556209,-1.38211 6.692877,-4.72708 7.547994,-0.33711 2.194076,2.39867 3.749131,-3.42314 3.414205,0.70375 -0.61714,3.41143 -7.938438,5.44816 -4.33084,9.21695 4.80197,2.17266 -2.960365,5.74411 -5.061108,7.42574 -1.844214,1.41173 -2.038761,4.14097 -3.628067,5.66962 3.566222,1.24187 10.410065,-2.88571 11.211448,2.70157 -0.666836,4.9405 -6.451939,7.20028 -10.797824,5.60054 -4.338086,-0.28274 -8.171358,-4.92895 -11.47227,-0.27491 -3.785367,2.0227 -8.360871,4.72292 -12.789059,3.35516 z m 9.24199,-12.44497 c 3.332445,-2.97857 5.041329,-7.04441 5.052545,-11.31835 -0.472206,-6.22091 -6.429158,-0.45307 -9.020911,1.20934 -5.041375,2.00741 -4.664665,7.49943 -0.856301,10.59274 1.767515,1.87339 3.53549,1.82911 4.824667,-0.48373 z m 44.119686,9.67201 c 0.333267,-1.11096 0.584019,0.72961 0,0 z m 1.565491,-0.14871 c 1.216594,-0.28976 -0.285663,0.42826 0,0 z m -0.877861,-0.64246 c -0.688824,-2.06747 1.217389,-1.68021 0,0 z m 2.919261,-0.17969 c -1.05394,-3.16493 3.305037,-0.30477 0,0 z M 71.33433,287.0195 c -1.976082,-0.69185 1.78177,-3.13832 0.216686,-0.29352 3.194433,0.7486 1.357918,0.91255 -0.216686,0.29352 z m 3.387508,-0.33152 c 0.426399,-2.69973 0.129415,1.93451 0,0 z m -1.329983,-1.7892 c -1.0823,-0.99054 2.397684,1.26641 0,0 z m -1.039486,-0.02 c 1.216604,-0.28976 -0.285654,0.42823 0,0 z m -5.472955,-8.81326 c -1.825678,-0.47146 -3.168315,-5.00906 -1.133534,-1.78073 0.817343,-0.85864 2.599722,-5.64916 2.713327,-4.38429 -1.991191,1.43436 -1.023566,4.36101 -1.579793,6.16502 z m 2.90555,-0.47414 c 0.688248,-1.63694 3.647101,-7.60544 4.077303,-2.81627 -2.817839,-0.83724 -2.618198,2.85732 -4.077303,2.81627 z m -1.842524,-1.10157 c -1.373721,-3.83826 4.551981,-2.38877 1.358724,0.30905 -0.425521,0.40647 -1.149914,0.25665 -1.358724,-0.30905 z m -3.638128,-4.38692 c -0.0018,-2.56007 2.19257,-8.28788 2.423954,-8.3892 -0.956236,3.3607 -2.158314,6.68322 -2.53597,10.17689 l 0.05601,-0.89384 z m 6.883332,-0.41652 c -1.838881,-0.75549 -2.747185,-3.77451 -0.327095,-1.60268 0.138379,0.15903 1.452956,2.6894 0.327095,1.60268 z m 2.938949,-1.83684 c -0.998874,-2.02303 1.39149,0.79678 0,0 z m -0.734738,-1.04417 c 0.465579,-1.44416 0.890771,0.55063 0,0 z m -3.005742,-0.50231 c -1.180703,-1.59014 -0.04692,-3.35931 0.423599,-0.6917 0.143468,0.1021 -0.246992,1.87944 -0.423599,0.6917 z m 3.622711,-0.84141 c 0.209907,-0.73568 0.05539,0.90168 0,0 z m -1.017734,-1.21643 c 0.561521,-1.25847 0.40586,1.3657 0,0 z m 1.001914,0.11919 c 0.461029,-0.47009 0.345603,0.74478 0,0 z m -3.763592,-2.69334 c 0.4231,-3.38611 0.190115,1.25669 0,0 z m -22.586749,-0.70134 c 0.8652,-0.87231 0.07711,0.73387 0,0 z m -1.210537,-0.21371 c -0.29784,-1.07602 1.074545,0.99071 0,0 z m 26.40507,-1.9905 c 0.110983,-1.37054 0.110967,1.37057 0,0 z m -2.428041,0.10019 c 0.07075,-2.29541 0.679594,0.21462 0.003,0.0341 z m -24.469746,-0.30057 c 0.483559,-0.78694 0.483604,0.78692 0,0 z m 1.238909,-0.94385 c 1.671379,-1.32986 3.550012,-1.3054 0.77924,-0.0438 -0.149695,0.14388 -0.964168,0.75436 -0.77924,0.0438 z m 3.770661,-1.94027 c 0.828161,-1.00759 0.498939,0.47955 0,0 z m 16.072897,-1.27383 c 0.253402,-2.56711 3.311047,-2.61662 2.439544,-2.16835 -0.988432,-0.74445 -2.775108,3.84552 -2.439544,2.16835 z m 3.395875,0.15029 c 0.149462,-1.1135 0.149596,1.11367 0,0 z m 0.861845,-2.61831 c -0.265797,-1.0176 0.661832,0.76714 0,0 z M 60.96812,251.76755 c 0.95145,-2.46265 2.187381,0.54536 0,0 z m 7.313571,-1.61976 c -0.139422,-1.79029 0.998357,0.0167 0.270474,0.36665 z m -8.115102,-0.80026 c 0.53844,-0.83755 0.766792,0.91026 0,0 z m -30.686468,-8.22701 c -1.079126,-1.21269 1.942468,1.50333 0,0 z m 22.27039,-1.78031 c 0.163016,-1.32152 0.431384,1.06831 0,0 z m -21.011494,-0.99176 c -0.407026,-1.11258 1.775136,1.03899 0,0 z m -3.142876,-0.43608 c -0.0046,-1.25855 0.934811,0.95695 0,0 z m 14.285516,-0.40172 c -0.473531,-2.97266 3.399419,-0.82675 0,0 z m 4.465567,-1.17483 c -0.417319,-2.1041 2.063336,1.64739 0,0 z m -22.708271,-2.16729 c -3.625567,-4.29876 -2.090802,-11.02207 1.769825,-14.63928 -2.898543,3.83048 -5.159121,9.43791 -2.016686,13.78891 0.316179,0.43506 1.184903,2.23725 0.336879,0.9673 z m 5.221518,0.5173 c 1.077552,-0.81506 0.141104,0.62835 0,0 z m 23.50481,-6.92955 c -4.71784,0.71139 -9.705986,-1.81571 -10.91584,-6.64314 -0.399838,-5.4456 -5.565935,-5.41751 -9.669042,-4.45873 -2.283973,-0.50718 -7.777757,4.32673 -4.654839,0.14315 3.990158,-3.81989 4.810003,-9.46945 8.561366,-13.35701 5.798937,-5.89861 15.404367,-8.13454 22.996744,-4.61276 2.199976,3.55429 5.75154,3.2803 9.246064,4.1659 2.458156,0.32483 3.014227,4.57548 -0.148507,2.67911 -4.502294,-0.28568 3.31258,3.66085 0.736561,6.42035 -1.651994,5.047 -4.041478,-6.48606 -4.130867,-0.6824 0.748505,4.31029 -3.966006,10.24344 -8.118104,6.49231 -3.244425,0.0332 -6.488686,8.38876 -0.997102,6.08286 2.225088,-2.26219 8.693436,-1.31 5.133832,2.36474 -2.172516,1.7569 -5.399921,2.17051 -8.040266,1.40562 z m 14.894447,-17.80294 c 0.772331,-2.29887 -5.252563,-6.30728 -2.275517,-2.00489 0.516954,0.69785 1.023489,3.0134 2.275517,2.00489 z m 0.6216,-5.55702 c -1.355632,-2.30179 -6.514057,-0.56552 -1.7688,0.22212 0.51021,0.11251 1.50746,0.5113 1.7688,-0.22212 z"
         id="path845"
         inkscape:connector-curvature="0" />
      <path
         style="fill:#7b3c02;stroke-width:0.20038283"
         d="m 26.642812,291.80811 c -4.850045,-0.88937 -7.860205,-8.32798 -2.480317,-10.67204 2.001426,-0.45512 8.893504,1.58763 5.131723,-2.25879 -4.251706,-4.09747 -0.884408,-9.01237 3.491071,-10.94472 -0.590107,-2.33804 4.761048,-3.77316 0.352886,-4.18555 -6.219213,-2.05696 -0.434065,-8.17105 0.544935,-11.6 1.100961,-2.55738 1.451566,-6.67005 -2.488657,-6.09659 -2.625174,-2.62333 2.082536,-8.88462 4.852997,-7.64602 -0.370218,2.50094 -1.577619,6.93849 2.560722,4.86468 2.051144,0.85587 3.562691,8.69167 5.34144,4.67865 0.243405,-3.52969 5.560411,-5.41553 8.089012,-5.66899 1.021031,2.56966 -8.147567,3.26912 -2.967696,5.44397 2.224513,1.33131 9.684879,3.18329 3.668535,4.64689 -3.367256,0.10961 -4.776585,6.22881 -7.331487,1.98914 -2.750736,1.59011 -7.749944,4.41285 -6.375233,8.45097 1.672655,5.25617 7.490065,2.75254 10.207321,-0.0508 0.879847,-2.31211 0.150165,-4.19169 3.308269,-5.01208 2.556209,-1.38211 6.692877,-4.72708 7.547994,-0.33711 2.194076,2.39867 3.749131,-3.42314 3.414205,0.70375 -0.61714,3.41143 -7.938438,5.44816 -4.33084,9.21695 4.80197,2.17266 -2.960365,5.74411 -5.061108,7.42574 -1.844214,1.41173 -2.038761,4.14097 -3.628067,5.66962 3.566222,1.24187 10.410065,-2.88571 11.211448,2.70157 -0.666836,4.9405 -6.451939,7.20028 -10.797824,5.60054 -4.338086,-0.28274 -8.171358,-4.92895 -11.47227,-0.27491 -3.785367,2.0227 -8.360871,4.72292 -12.789059,3.35516 z m 6.271714,-1.10871 c 3.899859,-1.67041 9.777417,-2.96806 9.770784,-8.28714 -1.05805,-2.92346 -2.009306,4.24858 -4.763695,3.66484 -3.632726,0.62072 -8.189099,3.06904 -11.254892,-0.19804 -1.43796,-1.57253 -1.54546,-3.7791 0.05112,-0.87047 3.436262,3.01993 8.827533,1.71979 12.431469,-0.18308 4.969337,-3.19641 -3.081985,-6.20469 -5.095498,-2.71169 -4.001907,0.0547 -11.370502,-2.75162 -12.266118,3.47845 0.444147,4.842 7.135696,7.06695 11.12683,5.10713 z m 4.208039,-7.40819 c -3.042477,-2.06728 2.427421,0.83483 0,-3e-5 z m 19.869926,4.81383 c 2.012006,-0.63131 5.599424,-5.18037 3.154224,-5.83577 -2.235178,2.87623 -5.587055,4.38794 -9.195689,3.36842 -2.626773,0.36979 -6.23471,-1.82706 -7.83987,-1.53393 0.77348,3.47567 5.888599,2.89178 8.677217,4.04269 1.703258,0.35376 3.533686,0.59276 5.204118,-0.0414 z m -0.117823,-3.79071 c 2.675523,-0.72644 4.465291,-5.31197 0.07733,-3.43006 -2.786794,0.65464 -6.318784,-1.02185 -8.513506,1.43129 1.758648,-4.95046 -8.709966,-0.80827 -3.411292,1.59435 3.718912,1.06502 8.065296,2.0258 11.730105,0.48147 l 0.117367,-0.0771 z m -21.702794,-4.08745 c 3.006871,-3.13748 6.116924,-6.66386 5.586387,-11.33167 1.391534,-3.77946 -2.770342,-5.13478 -5.08046,-2.30481 -3.508609,2.68842 -10.780998,5.53405 -6.632923,10.78597 1.221294,1.71759 4.229201,6.06435 6.126996,2.85051 z m 45.350193,7.42066 c -0.290666,-1.29638 0.674618,0.45161 0,0 z M 66.879414,276.06553 c -1.825678,-0.47146 -3.168315,-5.00906 -1.133534,-1.78073 0.817343,-0.85864 2.599722,-5.64916 2.713327,-4.38429 -1.991191,1.43436 -1.023566,4.36101 -1.579793,6.16502 z m 2.90555,-0.47414 c 0.688248,-1.63694 3.647101,-7.60544 4.077303,-2.81627 -2.817839,-0.83724 -2.618198,2.85732 -4.077303,2.81627 z m -1.842524,-1.10157 c -1.373721,-3.83826 4.551981,-2.38877 1.358724,0.30905 -0.425521,0.40647 -1.149914,0.25665 -1.358724,-0.30905 z m -3.638128,-4.38692 c -0.0018,-2.56007 2.19257,-8.28788 2.423954,-8.3892 -0.956236,3.3607 -2.158314,6.68322 -2.53597,10.17689 l 0.05601,-0.89384 z m 6.883332,-0.41652 c -1.838881,-0.75549 -2.747185,-3.77451 -0.327095,-1.60268 0.138379,0.15903 1.452956,2.6894 0.327095,1.60268 z m 2.938949,-1.83684 c -0.998874,-2.02303 1.39149,0.79678 0,0 z m -0.734738,-1.04417 c 0.465579,-1.44416 0.890771,0.55063 0,0 z m -3.005742,-0.50231 c -1.180703,-1.59014 -0.04692,-3.35931 0.423599,-0.6917 0.143468,0.1021 -0.246992,1.87944 -0.423599,0.6917 z m 3.622711,-0.84141 c 0.209907,-0.73568 0.05539,0.90168 0,0 z m -1.017734,-1.21643 c 0.561521,-1.25847 0.40586,1.3657 0,0 z m 1.001914,0.11919 c 0.461029,-0.47009 0.345603,0.74478 0,0 z m -3.763592,-2.69334 c 0.4231,-3.38611 0.190115,1.25669 0,0 z m -22.586749,-0.70134 c 0.8652,-0.87231 0.07711,0.73387 0,0 z m -1.210537,-0.21371 c -0.29784,-1.07602 1.074545,0.99071 0,0 z m 26.40507,-1.9905 c 0.110983,-1.37054 0.110967,1.37057 0,0 z m -2.428041,0.10019 c 0.07075,-2.29541 0.679594,0.21462 0.003,0.0341 z m -24.469746,-0.30057 c 0.483559,-0.78694 0.483604,0.78692 0,0 z m 1.238909,-0.94385 c 1.671379,-1.32986 3.550012,-1.3054 0.77924,-0.0438 -0.149695,0.14388 -0.964168,0.75436 -0.77924,0.0438 z m 3.770661,-1.94027 c 0.828161,-1.00759 0.498939,0.47955 0,0 z m 16.072897,-1.27383 c 0.253402,-2.56711 3.311047,-2.61662 2.439544,-2.16835 -0.988432,-0.74445 -2.775108,3.84552 -2.439544,2.16835 z m 3.395875,0.15029 c 0.149462,-1.1135 0.149596,1.11367 0,0 z m 0.861845,-2.61831 c -0.265797,-1.0176 0.661832,0.76714 0,0 z M 60.96812,251.76755 c 0.95145,-2.46265 2.187381,0.54536 0,0 z m 7.313571,-1.61976 c -0.139422,-1.79029 0.998357,0.0167 0.270474,0.36665 z m -8.115102,-0.80026 c 0.53844,-0.83755 0.766792,0.91026 0,0 z m -30.686468,-8.22701 c -1.079126,-1.21269 1.942468,1.50333 0,0 z m 22.27039,-1.78031 c 0.163016,-1.32152 0.431384,1.06831 0,0 z m -21.011494,-0.99176 c -0.407026,-1.11258 1.775136,1.03899 0,0 z m -3.142876,-0.43608 c -0.0046,-1.25855 0.934811,0.95695 0,0 z m 14.285516,-0.40172 c -0.473531,-2.97266 3.399419,-0.82675 0,0 z m 4.465567,-1.17483 c -0.417319,-2.1041 2.063336,1.64739 0,0 z m -22.708271,-2.16729 c -3.625567,-4.29876 -2.090802,-11.02207 1.769825,-14.63928 -2.898543,3.83048 -5.159121,9.43791 -2.016686,13.78891 0.316179,0.43506 1.184903,2.23725 0.336879,0.9673 z m 5.221518,0.5173 c 1.077552,-0.81506 0.141104,0.62835 0,0 z m 23.50481,-6.92955 c -4.71784,0.71139 -9.705986,-1.81571 -10.91584,-6.64314 -0.399838,-5.4456 -5.565935,-5.41751 -9.669042,-4.45873 -2.283973,-0.50718 -7.777757,4.32673 -4.654839,0.14315 3.990158,-3.81989 4.810003,-9.46945 8.561366,-13.35701 5.798937,-5.89861 15.404367,-8.13454 22.996744,-4.61276 2.199976,3.55429 5.75154,3.2803 9.246064,4.1659 2.458156,0.32483 3.014227,4.57548 -0.148507,2.67911 -4.502294,-0.28568 3.31258,3.66085 0.736561,6.42035 -1.651994,5.047 -4.041478,-6.48606 -4.130867,-0.6824 0.748505,4.31029 -3.966006,10.24344 -8.118104,6.49231 -3.244425,0.0332 -6.488686,8.38876 -0.997102,6.08286 2.225088,-2.26219 8.693436,-1.31 5.133832,2.36474 -2.172516,1.7569 -5.399921,2.17051 -8.040266,1.40562 z m 14.894447,-17.80294 c 0.772331,-2.29887 -5.252563,-6.30728 -2.275517,-2.00489 0.516954,0.69785 1.023489,3.0134 2.275517,2.00489 z m 0.6216,-5.55702 c -1.355632,-2.30179 -6.514057,-0.56552 -1.7688,0.22212 0.51021,0.11251 1.50746,0.5113 1.7688,-0.22212 z"
         id="path843"
         inkscape:connector-curvature="0" />
      <path
         style="fill:#7c0101;stroke-width:0.20038283"
         d="m 26.642812,291.80811 c -4.850045,-0.88937 -7.860205,-8.32798 -2.480317,-10.67204 2.001426,-0.45512 8.893504,1.58763 5.131723,-2.25879 -4.251706,-4.09747 -0.884408,-9.01237 3.491071,-10.94472 -0.590107,-2.33804 4.761048,-3.77316 0.352886,-4.18555 -6.219213,-2.05696 -0.434065,-8.17105 0.544935,-11.6 1.100961,-2.55738 1.451566,-6.67005 -2.488657,-6.09659 -2.545608,-2.7706 1.893339,-8.3631 4.786946,-7.99485 0.530817,1.95641 -1.303717,5.36214 -0.2274,1.19922 -1.100003,-2.65245 -4.921066,3.2542 -4.782533,5.06567 1.216209,4.19824 8.778401,-0.39166 9.446313,4.50319 -2.309134,-2.13449 -6.654461,-2.67533 -5.870119,1.83552 0.04395,4.25065 -6.975462,9.24032 -1.857663,12.44452 3.346608,2.43577 5.85474,-0.0977 6.276317,-3.40245 3.340038,-2.47571 0.869518,-5.47907 -2.480578,-4.2148 -1.720823,1.22663 -3.785777,1.74331 -1.098904,-0.26128 2.719773,-0.23045 6.52522,-2.10762 6.777593,-0.17055 0.215066,1.88009 4.137204,-3.92501 5.153696,0.21194 1.456219,-0.80634 2.868879,-2.95286 4.013379,-3.4888 -1.218858,-1.79206 -2.0089,-3.73615 -0.01583,-1.0206 3.665992,1.827 2.196886,-1.4434 -0.338035,-1.91017 -3.32975,-0.72565 -6.644247,-2.44494 -1.83403,-4.12693 2.371868,-0.98085 2.537071,-2.92899 -0.0082,-1.14265 -2.211132,1.01987 -2.399877,1.13085 -0.344266,-0.56757 2.329868,-2.59494 5.275746,0.50197 1.43927,1.33257 -3.993329,1.10497 -2.529574,3.90058 0.868209,4.36978 2.408259,0.46355 6.322091,2.87266 1.682629,3.61323 -2.396119,0.0536 -4.651007,3.78957 -5.390865,3.65575 -2.743993,-3.63725 -7.355374,1.66681 -8.482574,4.44954 -0.605748,2.58501 2.147783,4.71911 -1.744982,4.99311 -3.111738,2.72598 -8.803856,4.14425 -9.517634,8.5466 0.484729,3.24473 4.014599,9.78803 7.809009,6.32097 3.044829,-3.09411 6.07072,-6.61152 5.398944,-11.28751 0.931714,-1.35634 -0.03836,-3.49322 -0.05143,-3.57384 3.196373,1.61593 6.187244,-0.8909 8.776396,-2.71053 0.477925,-2.15143 -1.021608,-3.52276 1.979146,-4.38702 2.668927,-1.3221 7.597875,-5.75475 8.53906,-0.92256 2.194076,2.39867 3.749131,-3.42314 3.414205,0.70375 -0.61714,3.41143 -7.938438,5.44816 -4.33084,9.21695 4.80197,2.17266 -2.960365,5.74411 -5.061108,7.42574 -1.844214,1.41173 -2.038761,4.14097 -3.628067,5.66962 3.566222,1.24187 10.410065,-2.88571 11.211448,2.70157 -0.666836,4.9405 -6.451939,7.20028 -10.797824,5.60054 -4.338086,-0.28274 -8.171358,-4.92895 -11.47227,-0.27491 -3.759003,2.01533 -8.390805,4.72797 -12.78907,3.35493 z m 6.163607,-1.00904 c 4.044218,-1.6906 9.965446,-3.17485 9.933217,-8.62272 -1.247777,-2.68956 -1.901799,3.99822 -4.362862,3.70067 -4.171286,1.24235 -10.634425,3.48822 -12.824636,-1.90309 -0.04584,-0.65259 2.858104,3.39988 5.03554,2.76692 3.647536,-0.11269 9.841584,-0.23022 10.317684,-4.90923 -3.600411,-3.66609 -6.978769,2.1017 -10.985969,-0.15724 -4.20101,-1.96535 -11.020321,2.44827 -6.922831,6.86513 2.475522,2.57796 6.452047,3.77345 9.809857,2.25956 z m 4.223142,-7.62324 c -2.408712,-1.96737 2.516157,1.33142 0,0 z m 19.830712,4.97569 c 2.113383,-0.43671 5.843839,-5.34485 3.19601,-5.80865 -2.212809,2.8354 -5.546037,4.28958 -9.101498,3.29944 -2.504966,0.50693 -6.798259,-2.34777 -7.680603,-1.4224 2.277008,4.35774 8.909991,3.79368 13.15472,4.14074 z m 0.133499,-3.9231 c 2.28357,-0.47402 4.545424,-4.92723 0.440184,-3.53437 -2.613299,0.30666 -7.378673,0.48497 -8.591874,0.63714 -1.043514,-3.94326 -8.732154,0.88213 -3.164167,2.89748 3.471245,0.68338 8.158121,1.8407 11.315857,-2.5e-4 z m -7.915685,-11.62374 c 1.340039,-2.58525 4.278963,-2.03477 4.833242,0.2237 2.533497,0.5154 9.576672,-4.06022 4.544504,-4.92467 -4.169774,1.336 -8.678378,3.06406 -12.998071,1.38757 -1.97076,-1.50966 -5.177571,-2.03994 -4.167943,1.55136 -0.333565,3.58412 6.100405,3.80104 7.788268,1.76204 z M 48.49429,269.0473 c -1.553988,-0.40623 -0.410263,0.40327 0,0 z m -2.154115,-0.38756 c -2.046684,-0.95789 -5.128555,-1.86252 -1.450586,-0.18697 0.213863,0.0908 3.385343,0.90745 1.450586,0.18697 z m 7.969052,-0.6759 c 5.671824,-0.095 3.673529,-9.22717 0.351636,-10.51851 -4.125922,-0.0907 -4.481787,4.32371 -5.528814,6.66529 -2.11518,0.3639 -7.901324,2.73186 -2.947058,3.81251 2.66279,0.614 5.450666,0.55822 8.124236,0.0407 z m -19.114655,-2.0532 c 2.111999,-2.04216 -3.960433,1.78451 -0.103573,0.059 z m 4.132204,-2.55632 c -0.672505,-1.31861 -0.505809,1.2786 0,0 z m 20.848285,-1.45277 c 3.116043,-1.46203 1.637121,-3.91054 -0.479679,-4.91623 -1.892962,-2.99167 -4.42437,-0.0611 -2.387324,2.14916 0.354874,1.25314 0.972742,4.23166 2.867003,2.76707 z m 3.197653,-4.57541 c -0.6668,-1.1056 -0.477052,1.31826 0,0 z m 17.149353,30.3014 c -0.290666,-1.29638 0.674618,0.45161 0,0 z M 66.879414,276.06553 c -1.825678,-0.47146 -3.168315,-5.00906 -1.133534,-1.78073 0.817343,-0.85864 2.599722,-5.64916 2.713327,-4.38429 -1.991191,1.43436 -1.023566,4.36101 -1.579793,6.16502 z m 2.90555,-0.47414 c 0.688248,-1.63694 3.647101,-7.60544 4.077303,-2.81627 -2.817839,-0.83724 -2.618198,2.85732 -4.077303,2.81627 z m -1.842524,-1.10157 c -1.373721,-3.83826 4.551981,-2.38877 1.358724,0.30905 -0.425521,0.40647 -1.149914,0.25665 -1.358724,-0.30905 z m -3.638128,-4.38692 c -0.0018,-2.56007 2.19257,-8.28788 2.423954,-8.3892 -0.956236,3.3607 -2.158314,6.68322 -2.53597,10.17689 l 0.05601,-0.89384 z m 6.883332,-0.41652 c -1.838881,-0.75549 -2.747185,-3.77451 -0.327095,-1.60268 0.138379,0.15903 1.452956,2.6894 0.327095,1.60268 z m 2.938949,-1.83684 c -0.998874,-2.02303 1.39149,0.79678 0,0 z m -0.734738,-1.04417 c 0.465579,-1.44416 0.890771,0.55063 0,0 z m -3.005742,-0.50231 c -1.180703,-1.59014 -0.04692,-3.35931 0.423599,-0.6917 0.143468,0.1021 -0.246992,1.87944 -0.423599,0.6917 z m 3.622711,-0.84141 c 0.209907,-0.73568 0.05539,0.90168 0,0 z m -1.017734,-1.21643 c 0.561521,-1.25847 0.40586,1.3657 0,0 z m 1.001914,0.11919 c 0.461029,-0.47009 0.345603,0.74478 0,0 z m -3.763592,-2.69334 c 0.4231,-3.38611 0.190115,1.25669 0,0 z m -22.586749,-0.70134 c 0.8652,-0.87231 0.07711,0.73387 0,0 z m -1.210537,-0.21371 c -0.29784,-1.07602 1.074545,0.99071 0,0 z m 26.40507,-1.9905 c 0.110983,-1.37054 0.110967,1.37057 0,0 z m -2.428041,0.10019 c 0.07075,-2.29541 0.679594,0.21462 0.003,0.0341 z m -24.469746,-0.30057 c 0.483559,-0.78694 0.483604,0.78692 0,0 z m 1.238909,-0.94385 c 1.671379,-1.32986 3.550012,-1.3054 0.77924,-0.0438 -0.149695,0.14388 -0.964168,0.75436 -0.77924,0.0438 z m 3.770661,-1.94027 c 0.828161,-1.00759 0.498939,0.47955 0,0 z m 16.072897,-1.27383 c 0.253402,-2.56711 3.311047,-2.61662 2.439544,-2.16835 -0.988432,-0.74445 -2.775108,3.84552 -2.439544,2.16835 z m 3.395875,0.15029 c 0.149462,-1.1135 0.149596,1.11367 0,0 z m 0.861845,-2.61831 c -0.265797,-1.0176 0.661832,0.76714 0,0 z M 60.96812,251.76755 c 0.95145,-2.46265 2.187381,0.54536 0,0 z m 7.313571,-1.61976 c -0.139422,-1.79029 0.998357,0.0167 0.270474,0.36665 z M 43.255259,249.7823 c 0.820553,-1.13562 1.225395,0.60577 0,0 z m 16.91133,-0.43477 c 0.53844,-0.83755 0.766792,0.91026 0,0 z m -18.632871,-0.95182 c -1.175179,-2.81738 -3.214781,-5.78165 -6.053185,-4.83029 2.813348,-0.31264 4.168594,-0.5506 5.179753,2.56981 0.102855,0.25609 1.998739,3.39988 0.873432,2.26048 z m 2.818449,-1.39086 c -0.829378,-2.07131 1.41101,-1.84815 0,0 z m 1.349287,-2.20263 c 1.216592,-0.28977 -0.285661,0.42826 0,0 z m -16.221333,-3.6817 c -1.079126,-1.21269 1.942468,1.50333 0,0 z m 22.27039,-1.78031 c 0.163016,-1.32152 0.431384,1.06831 0,0 z m -21.011494,-0.99176 c -0.407026,-1.11258 1.775136,1.03899 0,0 z m -3.142876,-0.43608 c -0.0046,-1.25855 0.934811,0.95695 0,0 z m 14.285516,-0.40172 c -0.473531,-2.97266 3.399419,-0.82675 0,0 z m 4.465567,-1.17483 c -0.417319,-2.1041 2.063336,1.64739 0,0 z m -22.708271,-2.16729 c -3.625567,-4.29876 -2.090802,-11.02207 1.769825,-14.63928 -2.898543,3.83048 -5.159121,9.43791 -2.016686,13.78891 0.316179,0.43506 1.184903,2.23725 0.336879,0.9673 z m 5.221518,0.5173 c 1.077552,-0.81506 0.141104,0.62835 0,0 z m 23.50481,-6.92955 c -4.71784,0.71139 -9.705986,-1.81571 -10.91584,-6.64314 -0.399838,-5.4456 -5.565935,-5.41751 -9.669042,-4.45873 -2.283973,-0.50718 -7.777757,4.32673 -4.654839,0.14315 3.990158,-3.81989 4.810003,-9.46945 8.561366,-13.35701 5.798937,-5.89861 15.404367,-8.13454 22.996744,-4.61276 2.199976,3.55429 5.75154,3.2803 9.246064,4.1659 2.458156,0.32483 3.014227,4.57548 -0.148507,2.67911 -4.502294,-0.28568 3.31258,3.66085 0.736561,6.42035 -1.651994,5.047 -4.041478,-6.48606 -4.130867,-0.6824 0.748505,4.31029 -3.966006,10.24344 -8.118104,6.49231 -3.244425,0.0332 -6.488686,8.38876 -0.997102,6.08286 2.225088,-2.26219 8.693436,-1.31 5.133832,2.36474 -2.172516,1.7569 -5.399921,2.17051 -8.040266,1.40562 z m 4.039459,-0.34271 c 3.763863,0.71749 6.653944,-5.98306 1.12757,-3.85338 -2.466482,0.77515 -6.647111,3.71439 -6.318894,-0.7535 0.306471,-1.76079 3.196885,-3.33013 2.614671,-6.1242 0.342708,-2.74082 0.47816,-1.20094 1.201434,-0.0115 1.370234,-3.14459 0.02978,-9.99229 -4.472649,-6.36239 -2.384099,1.18719 -9.473315,3.78036 -7.391779,6.2076 1.868379,0.23833 6.885509,3.69143 2.382985,1.57775 -2.469751,-1.89625 -6.251428,-0.29417 -3.616218,2.86911 1.380676,4.69209 6.660543,7.91413 11.239231,5.405 2.028036,-0.61438 5.013949,-3.16938 6.771373,-0.88282 -2.122206,-1.61451 -9.534496,2.84788 -4.308988,2.07026 z m 4.483127,-9.40472 c 4.172734,-3.07942 3.138155,-9.2544 1.808805,-13.54629 -0.591925,-2.108 -4.221988,-5.8194 -2.528677,-1.23972 -0.387408,4.1936 -7.483308,4.59591 -4.120012,9.11204 -0.140216,3.41575 0.08639,7.96692 4.839884,5.67397 z m 7.203596,-6.03037 c 2.511461,-3.1059 -6.228887,-8.69018 -3.057353,-3.70805 0.657708,1.17403 2.960598,1.96352 1.121164,2.60204 -0.241196,0.97154 1.640107,3.06237 1.936189,1.10601 z m -1.39955,-3.85108 c -0.07854,-0.83918 0.528266,0.93459 0,0 z m 3.293434,-2.47038 c -0.304872,-2.17297 -3.676159,-2.64102 -3.437093,-2.19633 -2.61026,-1.12061 -3.445654,0.98312 -0.467897,1.15537 1.74115,-0.25465 2.325022,-0.0956 2.331634,1.02131 0.353567,0.0864 1.488535,0.84693 1.573356,0.0196 z"
         id="path841"
         inkscape:connector-curvature="0" />
      <path
         style="fill:#2f2213;stroke-width:0.20038283"
         d="m 26.642812,291.80811 c -4.850045,-0.88937 -7.860205,-8.32798 -2.480317,-10.67204 2.001426,-0.45512 8.893504,1.58763 5.131723,-2.25879 -4.251706,-4.09747 -0.884408,-9.01237 3.491071,-10.94472 -0.590107,-2.33804 4.761048,-3.77316 0.352886,-4.18555 -6.219213,-2.05696 -0.434065,-8.17105 0.544935,-11.6 1.100961,-2.55738 1.451566,-6.67005 -2.488657,-6.09659 -2.545608,-2.7706 1.893339,-8.3631 4.786946,-7.99485 0.530817,1.95641 -1.303717,5.36214 -0.2274,1.19922 -1.100003,-2.65245 -4.921066,3.2542 -4.782533,5.06567 1.216209,4.19824 8.778401,-0.39166 9.446313,4.50319 -2.309134,-2.13449 -6.654461,-2.67533 -5.870119,1.83552 0.04395,4.25065 -6.975462,9.24032 -1.857663,12.44452 3.346608,2.43577 5.85474,-0.0977 6.276317,-3.40245 3.340038,-2.47571 0.869518,-5.47907 -2.480578,-4.2148 -1.720823,1.22663 -3.785777,1.74331 -1.098904,-0.26128 2.719773,-0.23045 6.52522,-2.10762 6.777593,-0.17055 0.215066,1.88009 4.137204,-3.92501 5.153696,0.21194 1.456219,-0.80634 2.868879,-2.95286 4.013379,-3.4888 -1.218858,-1.79206 -2.0089,-3.73615 -0.01583,-1.0206 3.665992,1.827 2.196886,-1.4434 -0.338035,-1.91017 -3.32975,-0.72565 -6.644247,-2.44494 -1.83403,-4.12693 2.371868,-0.98085 2.537071,-2.92899 -0.0082,-1.14265 -2.211132,1.01987 -2.399877,1.13085 -0.344266,-0.56757 2.329868,-2.59494 5.275746,0.50197 1.43927,1.33257 -3.993329,1.10497 -2.529574,3.90058 0.868209,4.36978 2.408259,0.46355 6.322091,2.87266 1.682629,3.61323 -2.396119,0.0536 -4.651007,3.78957 -5.390865,3.65575 -2.743993,-3.63725 -7.355374,1.66681 -8.482574,4.44954 -0.605748,2.58501 2.147783,4.71911 -1.744982,4.99311 -3.111738,2.72598 -8.803856,4.14425 -9.517634,8.5466 0.484729,3.24473 4.014599,9.78803 7.809009,6.32097 3.044829,-3.09411 6.07072,-6.61152 5.398944,-11.28751 0.931714,-1.35634 -0.03836,-3.49322 -0.05143,-3.57384 3.196373,1.61593 6.187244,-0.8909 8.776396,-2.71053 0.477925,-2.15143 -1.021608,-3.52276 1.979146,-4.38702 2.668927,-1.3221 7.597875,-5.75475 8.53906,-0.92256 2.194076,2.39867 3.749131,-3.42314 3.414205,0.70375 -0.61714,3.41143 -7.938438,5.44816 -4.33084,9.21695 4.80197,2.17266 -2.960365,5.74411 -5.061108,7.42574 -1.844214,1.41173 -2.038761,4.14097 -3.628067,5.66962 3.566222,1.24187 10.410065,-2.88571 11.211448,2.70157 -0.666836,4.9405 -6.451939,7.20028 -10.797824,5.60054 -4.338086,-0.28274 -8.171358,-4.92895 -11.47227,-0.27491 -3.759003,2.01533 -8.390805,4.72797 -12.78907,3.35493 z m 6.163607,-1.00904 c 4.044218,-1.6906 9.965446,-3.17485 9.933217,-8.62272 -1.247777,-2.68956 -1.901799,3.99822 -4.362862,3.70067 -4.171286,1.24235 -10.634425,3.48822 -12.824636,-1.90309 -0.04584,-0.65259 2.858104,3.39988 5.03554,2.76692 3.647536,-0.11269 9.841584,-0.23022 10.317684,-4.90923 -3.600411,-3.66609 -6.978769,2.1017 -10.985969,-0.15724 -4.20101,-1.96535 -11.020321,2.44827 -6.922831,6.86513 2.475522,2.57796 6.452047,3.77345 9.809857,2.25956 z m 4.223142,-7.62324 c -2.408712,-1.96737 2.516157,1.33142 0,0 z m 19.830712,4.97569 c 2.113383,-0.43671 5.843839,-5.34485 3.19601,-5.80865 -2.212809,2.8354 -5.546037,4.28958 -9.101498,3.29944 -2.504966,0.50693 -6.798259,-2.34777 -7.680603,-1.4224 2.277008,4.35774 8.909991,3.79368 13.15472,4.14074 z m 0.133499,-3.9231 c 2.28357,-0.47402 4.545424,-4.92723 0.440184,-3.53437 -2.613299,0.30666 -7.378673,0.48497 -8.591874,0.63714 -1.043514,-3.94326 -8.732154,0.88213 -3.164167,2.89748 3.471245,0.68338 8.158121,1.8407 11.315857,-2.5e-4 z M 42.9105,279.98448 c 2.674372,-0.005 5.315001,-5.98467 6.549438,-4.34011 -3.676832,0.48089 -2.763391,6.11521 0.951752,3.34519 1.088121,-1.2863 4.139149,-5.47585 3.519824,-5.22223 -2.607953,0.4683 -0.645527,-4.76889 -2.778177,-1.72622 -2.700119,3.35314 -8.012185,1.81754 -10.67563,3.17019 -1.80657,1.62126 -5.134244,5.99443 -0.08205,5.04199 0.843706,-0.0159 1.688691,-0.0916 2.514839,-0.26881 z m 6.167587,-7.3798 c 1.340039,-2.58525 4.278963,-2.03477 4.833242,0.2237 2.533497,0.5154 9.576672,-4.06022 4.544504,-4.92467 -4.169774,1.336 -8.678378,3.06406 -12.998071,1.38757 -1.97076,-1.50966 -5.177571,-2.03994 -4.167943,1.55136 -0.333565,3.58412 6.100405,3.80104 7.788268,1.76204 z M 48.49429,269.0473 c -1.553988,-0.40623 -0.410263,0.40327 0,0 z m -2.154115,-0.38756 c -2.046684,-0.95789 -5.128555,-1.86252 -1.450586,-0.18697 0.213863,0.0908 3.385343,0.90745 1.450586,0.18697 z m 7.969052,-0.6759 c 5.671824,-0.095 3.673529,-9.22717 0.351636,-10.51851 -4.125922,-0.0907 -4.481787,4.32371 -5.528814,6.66529 -2.11518,0.3639 -7.901324,2.73186 -2.947058,3.81251 2.66279,0.614 5.450666,0.55822 8.124236,0.0407 z m -19.114655,-2.0532 c 2.111999,-2.04216 -3.960433,1.78451 -0.103573,0.059 z m 4.132204,-2.55632 c -0.672505,-1.31861 -0.505809,1.2786 0,0 z m 20.848285,-1.45277 c 3.116043,-1.46203 1.637121,-3.91054 -0.479679,-4.91623 -1.892962,-2.99167 -4.42437,-0.0611 -2.387324,2.14916 0.354874,1.25314 0.972742,4.23166 2.867003,2.76707 z m 3.197653,-4.57541 c -0.6668,-1.1056 -0.477052,1.31826 0,0 z m 17.149353,30.3014 c -0.290666,-1.29638 0.674618,0.45161 0,0 z M 66.879414,276.06553 c -1.825678,-0.47146 -3.168315,-5.00906 -1.133534,-1.78073 0.817343,-0.85864 2.599722,-5.64916 2.713327,-4.38429 -1.991191,1.43436 -1.023566,4.36101 -1.579793,6.16502 z m 2.90555,-0.47414 c 0.688248,-1.63694 3.647101,-7.60544 4.077303,-2.81627 -2.817839,-0.83724 -2.618198,2.85732 -4.077303,2.81627 z m -1.842524,-1.10157 c -1.373721,-3.83826 4.551981,-2.38877 1.358724,0.30905 -0.425521,0.40647 -1.149914,0.25665 -1.358724,-0.30905 z m -3.638128,-4.38692 c -0.0018,-2.56007 2.19257,-8.28788 2.423954,-8.3892 -0.956236,3.3607 -2.158314,6.68322 -2.53597,10.17689 l 0.05601,-0.89384 z m 6.883332,-0.41652 c -1.838881,-0.75549 -2.747185,-3.77451 -0.327095,-1.60268 0.138379,0.15903 1.452956,2.6894 0.327095,1.60268 z m 2.938949,-1.83684 c -0.998874,-2.02303 1.39149,0.79678 0,0 z m -0.734738,-1.04417 c 0.465579,-1.44416 0.890771,0.55063 0,0 z m -3.005742,-0.50231 c -1.180703,-1.59014 -0.04692,-3.35931 0.423599,-0.6917 0.143468,0.1021 -0.246992,1.87944 -0.423599,0.6917 z m 3.622711,-0.84141 c 0.209907,-0.73568 0.05539,0.90168 0,0 z m -1.017734,-1.21643 c 0.561521,-1.25847 0.40586,1.3657 0,0 z m 1.001914,0.11919 c 0.461029,-0.47009 0.345603,0.74478 0,0 z m -3.763592,-2.69334 c 0.4231,-3.38611 0.190115,1.25669 0,0 z m -22.586749,-0.70134 c 0.8652,-0.87231 0.07711,0.73387 0,0 z m -1.210537,-0.21371 c -0.29784,-1.07602 1.074545,0.99071 0,0 z m 26.40507,-1.9905 c 0.110983,-1.37054 0.110967,1.37057 0,0 z m -2.428041,0.10019 c 0.07075,-2.29541 0.679594,0.21462 0.003,0.0341 z m -24.469746,-0.30057 c 0.483559,-0.78694 0.483604,0.78692 0,0 z m 1.238909,-0.94385 c 1.671379,-1.32986 3.550012,-1.3054 0.77924,-0.0438 -0.149695,0.14388 -0.964168,0.75436 -0.77924,0.0438 z m 3.770661,-1.94027 c 0.828161,-1.00759 0.498939,0.47955 0,0 z m 16.072897,-1.27383 c 0.253402,-2.56711 3.311047,-2.61662 2.439544,-2.16835 -0.988432,-0.74445 -2.775108,3.84552 -2.439544,2.16835 z m 3.395875,0.15029 c 0.149462,-1.1135 0.149596,1.11367 0,0 z m 0.861845,-2.61831 c -0.265797,-1.0176 0.661832,0.76714 0,0 z M 60.96812,251.76755 c 0.95145,-2.46265 2.187381,0.54536 0,0 z m 7.313571,-1.61976 c -0.139422,-1.79029 0.998357,0.0167 0.270474,0.36665 z M 43.255259,249.7823 c 0.820553,-1.13562 1.225395,0.60577 0,0 z m 16.91133,-0.43477 c 0.53844,-0.83755 0.766792,0.91026 0,0 z m -18.632871,-0.95182 c -1.175179,-2.81738 -3.214781,-5.78165 -6.053185,-4.83029 2.813348,-0.31264 4.168594,-0.5506 5.179753,2.56981 0.102855,0.25609 1.998739,3.39988 0.873432,2.26048 z m 2.818449,-1.39086 c -0.829378,-2.07131 1.41101,-1.84815 0,0 z m 1.349287,-2.20263 c 1.216592,-0.28977 -0.285661,0.42826 0,0 z m -16.221333,-3.6817 c -1.079126,-1.21269 1.942468,1.50333 0,0 z m 22.27039,-1.78031 c 0.163016,-1.32152 0.431384,1.06831 0,0 z m -21.011494,-0.99176 c -0.407026,-1.11258 1.775136,1.03899 0,0 z m -3.142876,-0.43608 c -0.0046,-1.25855 0.934811,0.95695 0,0 z m 14.285516,-0.40172 c -0.473531,-2.97266 3.399419,-0.82675 0,0 z m 4.465567,-1.17483 c -0.417319,-2.1041 2.063336,1.64739 0,0 z m -22.708271,-2.16729 c -3.625567,-4.29876 -2.090802,-11.02207 1.769825,-14.63928 -2.898543,3.83048 -5.159121,9.43791 -2.016686,13.78891 0.316179,0.43506 1.184903,2.23725 0.336879,0.9673 z m 5.221518,0.5173 c 1.077552,-0.81506 0.141104,0.62835 0,0 z m 23.50481,-6.92955 c -4.71784,0.71139 -9.705986,-1.81571 -10.91584,-6.64314 -0.399838,-5.4456 -5.565935,-5.41751 -9.669042,-4.45873 -2.283973,-0.50718 -7.777757,4.32673 -4.654839,0.14315 3.990158,-3.81989 4.810003,-9.46945 8.561366,-13.35701 5.798937,-5.89861 15.404367,-8.13454 22.996744,-4.61276 2.199976,3.55429 5.75154,3.2803 9.246064,4.1659 2.458156,0.32483 3.014227,4.57548 -0.148507,2.67911 -4.502294,-0.28568 3.31258,3.66085 0.736561,6.42035 -1.651994,5.047 -4.041478,-6.48606 -4.130867,-0.6824 0.748505,4.31029 -3.966006,10.24344 -8.118104,6.49231 -3.244425,0.0332 -6.488686,8.38876 -0.997102,6.08286 2.225088,-2.26219 8.693436,-1.31 5.133832,2.36474 -2.172516,1.7569 -5.399921,2.17051 -8.040266,1.40562 z m 4.039459,-0.34271 c 3.763863,0.71749 6.653944,-5.98306 1.12757,-3.85338 -2.466482,0.77515 -6.647111,3.71439 -6.318894,-0.7535 0.306471,-1.76079 3.196885,-3.33013 2.614671,-6.1242 0.342708,-2.74082 0.47816,-1.20094 1.201434,-0.0115 1.370234,-3.14459 0.02978,-9.99229 -4.472649,-6.36239 -2.384099,1.18719 -9.473315,3.78036 -7.391779,6.2076 1.868379,0.23833 6.885509,3.69143 2.382985,1.57775 -2.469751,-1.89625 -6.251428,-0.29417 -3.616218,2.86911 1.380676,4.69209 6.660543,7.91413 11.239231,5.405 2.028036,-0.61438 5.013949,-3.16938 6.771373,-0.88282 -2.122206,-1.61451 -9.534496,2.84788 -4.308988,2.07026 z m 4.483127,-9.40472 c 4.172734,-3.07942 3.138155,-9.2544 1.808805,-13.54629 -0.591925,-2.108 -4.221988,-5.8194 -2.528677,-1.23972 -0.387408,4.1936 -7.483308,4.59591 -4.120012,9.11204 -0.140216,3.41575 0.08639,7.96692 4.839884,5.67397 z m -30.578318,-1.56178 c 4.080381,-1.4697 9.466915,1.34983 12.402735,-2.41034 4.004169,-3.18599 8.865644,-5.03868 13.504026,-6.89108 5.140308,-1.00797 3.506233,-8.24075 -0.962094,-8.99389 -9.785952,-2.45066 -21.489968,3.74582 -23.742368,13.87741 2.128875,1.27151 -7.121564,5.16218 -1.414165,4.46171 l 0.211868,-0.0439 z m 37.781914,-4.46859 c 2.511461,-3.1059 -6.228887,-8.69018 -3.057353,-3.70805 0.657708,1.17403 2.960598,1.96352 1.121164,2.60204 -0.241196,0.97154 1.640107,3.06237 1.936189,1.10601 z m -1.39955,-3.85108 c -0.07854,-0.83918 0.528266,0.93459 0,0 z m 3.293434,-2.47038 c -0.304872,-2.17297 -3.676159,-2.64102 -3.437093,-2.19633 -2.61026,-1.12061 -3.445654,0.98312 -0.467897,1.15537 1.74115,-0.25465 2.325022,-0.0956 2.331634,1.02131 0.353567,0.0864 1.488535,0.84693 1.573356,0.0196 z"
         id="path839"
         inkscape:connector-curvature="0" />
    </g>
  </g>
</svg>
