<?xml version="1.0" encoding="UTF-8" standalone="no"?>
<!-- Created with Inkscape (http://www.inkscape.org/) -->

<svg
   xmlns:dc="http://purl.org/dc/elements/1.1/"
   xmlns:cc="http://creativecommons.org/ns#"
   xmlns:rdf="http://www.w3.org/1999/02/22-rdf-syntax-ns#"
   xmlns:svg="http://www.w3.org/2000/svg"
   xmlns="http://www.w3.org/2000/svg"
   xmlns:sodipodi="http://sodipodi.sourceforge.net/DTD/sodipodi-0.dtd"
   xmlns:inkscape="http://www.inkscape.org/namespaces/inkscape"
   width="400"
   height="400"
   viewBox="0 0 105.83333 105.83334"
   version="1.1"
   id="svg8"
   inkscape:version="0.92.4 (5da689c313, 2019-01-14)"
   sodipodi:docname="Lola.svg">
  <defs
     id="defs2" />
  <sodipodi:namedview
     id="base"
     pagecolor="#ffffff"
     bordercolor="#666666"
     borderopacity="1.0"
     inkscape:pageopacity="0.0"
     inkscape:pageshadow="2"
     inkscape:zoom="2.8"
     inkscape:cx="-9.3900643"
     inkscape:cy="248.2885"
     inkscape:document-units="mm"
     inkscape:current-layer="layer1"
     showgrid="false"
     units="px"
     inkscape:window-width="1920"
     inkscape:window-height="986"
     inkscape:window-x="-11"
     inkscape:window-y="-11"
     inkscape:window-maximized="1" />
  <metadata
     id="metadata5">
    <rdf:RDF>
      <cc:Work
         rdf:about="">
        <dc:format>image/svg+xml</dc:format>
        <dc:type
           rdf:resource="http://purl.org/dc/dcmitype/StillImage" />
        <dc:title />
      </cc:Work>
    </rdf:RDF>
  </metadata>
  <g
     inkscape:label="Layer 1"
     inkscape:groupmode="layer"
     id="layer1"
     transform="translate(0,-191.16665)">
    <rect
       style="opacity:1;fill:#ffffff;fill-opacity:1;stroke:none;stroke-width:2;stroke-miterlimit:4;stroke-dasharray:none;stroke-opacity:1;paint-order:normal"
       id="rect3953"
       width="19.915787"
       height="13.990787"
       x="38.600567"
       y="212.53983" />
    <rect
       style="opacity:1;fill:#ffffff;fill-opacity:1;stroke:none;stroke-width:2;stroke-miterlimit:4;stroke-dasharray:none;stroke-opacity:1;paint-order:normal"
       id="rect3955"
       width="13.418155"
       height="9.260417"
       x="41.98732"
       y="225.85553" />
    <g
       id="g826"
       transform="matrix(0.65862346,0,0,0.65862346,-10.49578,151.54068)">
      <path
         style="fill:#f6d5a3;stroke-width:0.26458332"
         d="m 89.444077,219.29591 c -6.415938,-0.73692 -13.132696,-2.09522 -18.526896,-5.77433 -0.443014,-7.34966 3.024782,-15.05423 8.22524,-20.25019 7.366355,-6.79285 18.713222,-6.40753 27.401469,-2.6137 -3.40508,-9.92291 -5.78868,-20.3164 -5.81111,-30.86305 -5.879099,5.79127 -13.746491,6.3109 -21.048959,9.10734 -5.259919,2.63998 -17.047948,-1.16033 -9.591302,-6.69432 -0.455739,-8.31142 8.850832,-14.58651 12.754905,-21.75618 2.290102,-4.2512 13.762217,-11.26413 2.885491,-10.67076 -5.616275,-0.79834 -9.942008,-6.43369 -6.655587,-10.85695 -3.421325,-3.70753 -5.850852,-7.40161 -11.44734,-5.01419 5.032184,-2.6811 -8.769176,-2.53315 -1.040754,-3.50556 7.445602,1.21549 2.009022,-1.90371 -1.104888,-4.10161 2.445753,-0.68193 11.260084,5.27894 4.742831,-0.34628 -5.131447,-5.22784 0.141907,-12.354548 5.039914,-15.406195 -2.44091,-1.013942 -6.010143,-5.885625 0.230159,-3.916999 10.345703,3.531697 8.28701,-7.770973 5.676008,-13.817538 0.88411,-6.64504 9.297622,-8.843362 15.13826,-8.796953 7.684062,-2.838795 14.069102,3.70895 15.888622,10.694183 5.66771,14.124235 4.44465,30.458642 12.89834,43.527872 -3.97523,5.27502 -15.99093,-10.21627 -10.05775,0.10571 3.03042,3.6155 1.48231,18.04252 6.00701,8.28636 6.43627,-7.87018 13.73157,3.94035 11.86223,10.61686 0.97512,8.76086 -7.95709,11.46577 -12.34033,17.02783 -6.57557,2.27135 -9.47511,7.2654 -9.23712,14.20555 5.68651,3.0391 13.85151,0.38702 17.48164,7.25073 7.27786,9.24249 13.70044,22.82036 6.8291,33.98456 -3.66374,7.33681 -12.52962,12.27302 -20.49899,8.78929 -4.7924,-4.65874 -10.53914,1.2724 -16.19261,0.64512 -3.161017,0.35795 -6.339627,0.53486 -9.507583,0.1434 z M 75.807853,167.02466 c 1.800825,-3.45915 10.476135,-3.99357 3.600702,-0.73747 0.953565,0.62793 9.134579,-2.52465 12.872844,-3.11595 6.637479,-1.04695 -3.020192,-9.72105 -4.789412,-4.05857 -4.367911,4.48246 -14.513538,4.23318 -17.781662,7.53057 1.767545,1.12245 4.244287,1.57042 6.097528,0.38142 z m 0.110843,-4.46078 c 3.392324,-2.56678 12.70044,-2.36307 10.754782,-8.21721 -4.225532,5.25495 -10.832555,4.89399 -14.971393,8.68028 1.324868,0.51228 2.898965,-0.23668 4.216611,-0.46307 z m -3.107256,-3.27791 c 2.996842,-1.01446 8.484677,-2.44393 2.061711,-1.92932 -1.327192,-0.44181 -5.66815,3.5087 -2.061711,1.92932 z m 26.230511,-0.87606 c 0.0032,-0.5968 -8.111375,-0.59842 -4.87871,-5.43872 -2.484186,-4.52344 -1.960496,10.88027 4.87871,5.43872 z m -15.301325,-4.21604 c 3.620849,-5.68809 6.937648,5.16795 7.83818,-2.71776 -1.302822,-3.49515 -4.903102,-9.69982 -6.766224,-2.0812 -1.171014,2.00961 -5.836102,9.82835 -1.071956,4.79896 z m 14.855476,-14.0013 c 3.340348,-2.74494 2.534008,-7.18268 1.768678,-10.68126 -4.050863,3.40401 -14.048353,13.35259 -2.593312,10.87547 z m -4.150371,-13.98791 c -0.824538,-3.51254 -5.806901,1.38352 0,0 z m 2.98748,-1.67184 c 3.712579,-2.03037 2.150426,-6.97076 -0.617894,-2.19099 -3.072492,0.8966 -1.971887,4.39773 0.617894,2.19099 z m -12.87274,-5.33697 c -3.67983,-2.14866 -1.979894,0.51322 0.45582,0.46375 l -0.45582,-0.46379 z m 11.249169,-6.80897 c 1.208444,-4.43286 -0.947071,-11.06834 -3.575564,-13.646027 2.107707,2.777497 4.158688,15.799967 -0.945263,8.529287 -1.236982,-3.37129 -3.424004,-6.8561 -2.758891,-0.73181 -0.119949,2.68008 6.096937,12.60519 7.279718,5.84855 z m -18.258026,1.96557 c -2.142639,-3.51674 -0.156102,1.4341 0,0 z M 96.043751,89.680056 c -0.675995,-0.949179 -0.675995,0.949179 0,0 z m -1.234733,-1.161505 c 1.934636,-2.089349 -2.355737,-11.773081 -3.525285,-4.185767 -2.630082,2.760066 1.213533,5.230011 3.525285,4.185767 z M 100.54167,61.36964 c -15.518364,30.335001 -31.036727,60.67 -46.555092,91.005 15.518363,-30.335 31.036728,-60.669999 46.555092,-91.005 z"
         id="path844"
         inkscape:connector-curvature="0" />
      <path
         style="fill:#d4b098;stroke-width:0.26458332"
         d="m 118.79792,219.42443 c -7.64545,-5.4782 -15.54089,0.18837 -23.914315,-0.14651 -7.909414,0.21098 -15.955563,-1.55088 -23.019624,-5.10543 -2.484224,-7.57542 2.829177,-16.78802 8.724684,-21.88372 7.43981,-5.74275 18.030615,-4.90843 26.248065,-1.39475 -3.71087,-9.97919 -5.77398,-20.53858 -5.99245,-31.18279 -5.034816,4.17639 -12.268079,6.95841 -19.157824,8.37311 -4.488149,3.68046 -19.699762,0.46177 -11.46565,-5.54731 -1.249979,-7.16674 7.232554,-12.33082 10.098205,-18.64576 2.900387,-4.61565 8.983258,-9.61134 10.663344,-13.40276 -5.477075,0.28961 -17.430029,-4.62275 -11.298353,-11.23786 -3.735719,-3.96975 -6.427915,-7.49655 -12.172422,-5.55796 6.114863,-2.45226 -8.879407,-2.28339 -0.795797,-3.10688 6.159536,0.79802 3.909003,-1.40063 -0.131318,-3.48563 -2.579196,-3.52409 10.44538,5.24274 4.855995,-0.26043 -6.747794,-4.94709 -1.113008,-13.312663 4.3132,-16.527876 -4.73136,-1.26843 -4.967333,-5.863584 0.79378,-3.405098 12.556695,2.776172 3.430074,-11.342112 5.590937,-16.984148 5.358173,-6.407388 14.974038,-6.643356 22.501283,-5.52333 7.00388,4.721398 8.74692,14.000017 10.73807,21.67119 2.37765,10.851578 3.2335,22.373882 9.41565,31.950542 -3.2705,5.39632 -15.69354,-9.88299 -10.16288,-0.41379 2.53756,3.62692 2.51203,10.96333 3.98079,13.10344 1.74727,-7.61485 12.26439,-8.78862 13.55753,-0.28165 1.86552,7.21947 0.1999,16.98356 -7.8813,19.4703 -3.98111,6.72266 -14.38699,7.19698 -12.86064,16.89091 2.41122,6.47639 15.21888,1.1475 17.96528,9.89326 7.13155,9.18337 12.78638,22.74256 5.79282,33.5695 -3.37928,5.68469 -9.49598,10.18325 -16.38706,9.17143 z m 7.03177,-3.53286 c 3.45583,-1.63016 8.74964,-5.64162 1.97978,-6.84752 -3.80878,-1.18793 -5.72881,-15.03067 -2.43475,-6.5529 1.88818,8.61539 11.42251,7.53129 10.6577,-1.27956 0.87154,-8.00992 -3.21644,-15.65584 -7.64652,-21.98896 2.74635,5.36226 6.28705,17.79701 -3.70915,16.99468 -5.59557,-0.57989 -17.82733,-3.35308 -17.50539,5.28088 -1.24617,3.64512 4.11331,13.95369 5.09227,11.88023 -2.63448,-2.68811 -2.10106,-14.99155 0.0233,-12.78131 -0.78823,6.76986 0.88358,18.65449 10.34578,16.38256 1.13679,-0.10151 2.18649,-0.59812 3.19697,-1.0881 z m -27.801564,0.66055 c 3.776124,-1.11922 15.260834,0.18551 8.942894,-5.97527 -2.99212,-6.50592 -0.14053,-14.90295 -6.95203,-19.56749 -9.553306,-2.935 -21.068892,1.71015 -24.518633,11.45372 -2.164228,2.19032 -3.017948,14.97967 -0.675899,6.19164 1.572394,-5.83717 6.291048,-14.5389 11.824168,-14.69764 -5.682271,4.79885 -10.501393,12.12387 -10.664413,19.51381 5.516949,2.95482 12.41213,4.52877 12.613457,-3.78805 1.852172,-5.28878 7.732617,-12.82894 12.17603,-12.88359 -5.689363,4.27768 -13.245766,13.9624 -11.21224,19.90535 2.814101,0.35915 5.65691,0.12051 8.466666,-0.15248 z M 76.332293,166.78457 c 1.751498,-2.95513 9.225686,-3.51894 3.061424,-0.64237 -1.74036,3.02383 6.812492,-2.90394 9.474761,-1.73973 5.731938,-0.89064 7.747406,-3.61409 2.607364,-7.18164 -3.454206,-1.34795 -7.799853,6.64056 -12.894591,5.75951 -3.168346,1.8738 -15.095506,2.41759 -5.296027,4.92147 l 1.545156,-0.31385 z m -1.984375,-3.65993 c 4.081188,-2.68803 14.033921,-2.32996 12.586484,-8.88764 -4.562635,4.99554 -10.840973,4.83714 -15.290771,8.55896 -0.46689,1.43132 2.284783,0.25028 2.704287,0.32868 z m -1.41348,-3.72083 c 3.464753,-0.8118 9.23173,-2.75671 2.11485,-2.23561 -1.506987,-0.68223 -6.302381,4.1784 -2.11485,2.23561 z m 26.052546,-0.56491 c 1.703436,-2.57371 -8.33816,0.1311 -4.776853,-5.69504 -0.564092,-5.09978 -4.04444,6.65778 1.671142,6.05797 0.998529,0.3161 2.266332,0.40505 3.105711,-0.36293 z m -15.83925,-3.96701 c 2.719691,-4.92703 5.747121,-0.40813 7.401366,-0.2007 3.399843,-4.76167 -4.642101,-14.00437 -6.202469,-4.74227 -0.893133,1.54041 -5.593036,9.73484 -1.198897,4.94297 z m 43.898116,-8.24027 c 5.58346,-4.92104 6.17605,-17.2605 -1.08773,-20.63247 -3.69331,-0.0179 -7.78966,8.09493 -2.51523,2.27224 8.36075,0.84949 6.67724,14.25488 2.08554,19.0549 l 0.30828,0.0113 z m -28.154015,-6.47319 c 3.190695,-1.61969 2.936985,-14.70668 -0.76006,-8.70032 -3.60677,3.48197 -10.761725,11.01895 -0.944495,9.07345 l 1.704582,-0.37313 z m -1.672693,-12.38166 c 10.528518,-0.0457 3.045038,-13.80791 10.029458,-17.82982 7.56057,4.55961 4.04549,-9.70692 2.68308,-13.87545 -7.16285,-7.407879 -11.641018,5.93533 -11.550988,11.94843 0.620343,4.16153 -5.973784,12.57488 -3.653708,14.03373 4.103032,-1.60414 8.107626,-14.43805 4.69335,-13.8676 -1.958953,-3.91423 10.490616,-12.02713 7.680406,-7.91235 -2.99877,1.91366 -5.82738,4.26069 -5.00197,8.11426 -2.05,6.25279 1.63388,15.48143 -5.859216,18.47212 -4.479417,1.94403 -13.10728,-2.0338 -15.041043,-4.16335 1.861016,-2.25174 7.504234,3.49197 6.643157,1.33271 -1.963487,-3.14919 -10.742408,-5.74333 -7.231688,0.73316 4.474141,4.12762 10.992457,4.27432 16.609162,3.01416 z m -3.172214,-1.3621 c 1.317612,-3.731 -6.199829,0.57095 5e-6,0 z m 3.450442,-1.80852 c 3.98186,-2.183 1.8229,-7.43726 -1.265656,-1.95438 -3.214139,0.70787 -0.668736,4.16267 1.265656,1.95438 z m -12.568912,-5.16344 c -9.436707,-5.90165 0.95722,2.52688 0,0 z m -7.434924,-5.38705 c -3.721205,-4.78215 2.549517,4.94391 0,0 z m 18.228405,-0.82769 c 1.73841,-4.28042 -1.215695,-13.516419 -3.544453,-14.24969 2.348158,2.98597 4.027077,16.13563 -1.128738,7.69434 -3.70319,-10.073599 -3.515443,5.7054 1.683947,7.28161 1.201662,1.43077 2.760571,1.3365 2.989244,-0.72626 z M 81.635225,108.53171 C 80.501981,104.40291 76.69166,97.094018 80.0895,94.204756 c -0.235733,4.412314 1.080289,6.655044 1.265321,1.020602 -0.253068,-4.348879 6.374402,-9.409249 -1.715236,-6.737173 -4.332131,-0.08983 3.003361,1.440303 -2.228018,2.834466 -6.720809,3.046579 -10.780856,13.672219 -1.372623,16.080179 -5.960514,-9.908975 3.184721,3.17411 5.596281,1.12888 z M 96.304284,90.010785 c -0.595705,-2.226808 -1.193391,0.961903 0,0 z M 94.90222,88.575603 c 2.125388,-4.603835 -3.512542,-11.250997 -4.15013,-2.864297 -1.984953,1.705735 3.129574,4.273181 4.15013,2.864297 z"
         id="path842"
         inkscape:connector-curvature="0" />
      <path
         style="fill:#eeb052;stroke-width:0.26458332"
         d="m 118.53333,219.07507 c -7.4181,-5.31631 -15.19005,0.15134 -23.323426,-0.0876 -8.325143,0.34807 -16.658541,-1.60306 -24.036986,-5.4456 -0.149527,-11.52282 7.903174,-24.87378 20.537931,-24.97472 4.94247,-1.46334 12.070611,2.35634 15.310881,1.95631 -3.98497,-10.18725 -5.56592,-21.05924 -6.00613,-31.93073 -5.862463,6.50303 -14.162617,7.39799 -21.896762,10.00725 -5.852623,2.38255 -15.514633,-1.44731 -8.604417,-7.05291 -0.84514,-6.13049 6.659826,-10.9494 9.334244,-16.52461 3.24489,-5.19724 9.532426,-10.37018 11.668338,-14.74493 -6.649514,0.43497 -16.723681,-4.89552 -12.253997,-11.58299 -3.117524,-3.9594 -6.073621,-7.39768 -11.265049,-5.1801 8.815828,-2.4621 -9.607674,-2.05617 0.211667,-2.66772 7.586036,0.94739 -0.820054,-2.79914 -1.017402,-4.19255 3.093459,2.02879 9.224978,3.71134 3.463221,-0.86692 -6.852903,-5.70916 3.657548,-12.773157 4.392468,-16.094489 -8.461984,-5.529746 6.254811,-0.660115 8.428171,-3.494201 2.137395,-6.372611 -5.653569,-14.41328 1.552236,-18.66731 6.096135,-3.456084 15.104272,-5.069338 21.413212,-1.66624 8.6493,10.03224 8.80011,24.150011 11.91865,36.42611 -0.62486,5.60923 6.82446,12.92664 4.87785,16.49024 -4.04945,1.36212 -9.15047,-6.50051 -10.78965,-4.70712 3.939,4.79309 4.38919,13.13105 6.02694,17.51713 1.49581,-8.21265 12.84265,-9.46017 13.60665,-0.20123 2.01485,7.90326 -1.30674,16.21759 -8.83288,19.47154 -1.79313,5.68308 -10.77582,4.27106 -11.11784,10.17762 -4.30642,8.06507 3.43135,10.44751 10.21437,10.15917 7.39067,3.36301 10.81144,11.69415 14.0903,18.60595 4.5467,10.58873 -0.18074,24.44434 -11.1515,28.77054 -2.18337,0.60266 -4.5028,0.78242 -6.75109,0.50008 z m 6.33447,-2.36477 c 4.22037,-1.65346 10.71028,-6.66543 2.69217,-8.27577 -2.95893,-1.58231 -4.80172,-11.60128 -1.52745,-3.90336 4.01552,9.43862 11.97239,1.78312 10.34095,-5.5782 0.008,-7.54138 -3.87703,-14.66634 -8.2389,-20.53735 2.62381,5.58094 6.93164,18.44989 -3.45891,17.80153 -5.77397,-0.71968 -18.62707,-3.25951 -17.70983,5.89587 -1.19182,3.83466 4.48215,14.31219 5.7325,11.62884 -2.66788,-2.122 -2.06454,-14.81713 -0.76069,-11.99184 -0.78189,6.52596 1.61217,17.68741 10.43929,15.49026 l 0.94461,-0.13696 z m -26.446725,0.0939 c 5.275545,-0.6115 14.495525,-0.68824 8.365035,-7.48516 -1.8752,-6.52663 -0.78935,-14.32688 -7.21242,-18.7522 -9.705757,-2.63703 -21.147662,2.25635 -24.493185,12.09779 -2.140053,2.77188 -2.87954,15.24194 -0.05338,6.23549 0.118485,-4.92122 8.905895,-15.93329 9.579593,-13.43873 -4.894142,4.65105 -8.937971,11.51806 -8.932128,18.22609 6.517102,3.86901 13.006876,3.64296 13.689659,-5.04197 1.210297,-3.75235 6.986643,-10.53696 8.793581,-10.25885 -4.331974,4.70176 -10.862374,12.96905 -9.199179,18.5751 3.140785,0.38256 6.323837,0.1356 9.462428,-0.15756 z m -23.14527,-49.0361 c 1.838567,-1.91291 9.142451,-5.35935 3.305446,-1.29411 -1.423233,3.36796 7.876683,-3.02098 10.685785,-1.8449 4.103246,-0.72318 9.143119,-3.82392 3.213363,-6.33975 -3.206328,-5.20938 -7.81424,5.49151 -13.237696,4.09436 -2.913525,2.08917 -15.569469,2.41341 -6.881677,5.76188 0.979796,0.18268 2.012939,0.044 2.914779,-0.37748 z m -0.33848,-4.52804 c 3.799355,-1.89357 15.742208,-4.08083 11.51252,-9.15089 -3.443949,5.55924 -13.714989,3.95696 -14.796074,9.61578 1.113841,0.15268 2.210187,-0.26239 3.283554,-0.46489 z m -1.545179,-3.73488 c 2.660828,-0.65939 9.337888,-2.62105 2.452401,-2.73201 -2.603184,-1.03096 -8.028142,5.3945 -2.452401,2.73201 z m 25.137839,-0.0789 c 4.954745,-4.37938 -7.907179,0.2899 -4.04341,-6.25801 -0.280029,-6.11879 -5.113177,6.15728 0.936779,6.24049 l 1.637609,0.3545 1.469022,-0.337 z m -15.078129,-4.37167 c 3.46511,-6.44037 6.977467,4.7292 8.274028,-2.72549 -0.161017,-3.54831 -5.025423,-11.43202 -6.788109,-3.93036 -0.449401,1.20903 -8.2145,13.36634 -1.485919,6.65585 z m 43.026334,-7.69908 c 6.53446,-4.65238 6.96409,-16.82317 0.3252,-21.44873 -3.88244,-1.77451 -9.17714,8.36357 -3.35487,2.36169 8.19511,0.79593 6.98879,14.39261 1.84065,18.87676 -1.11912,0.82454 1.36234,1.05541 1.18902,0.21028 z m -27.53972,-6.95649 c 3.94699,-2.32667 2.43845,-11.15395 0.833409,-11.0504 -2.367214,3.26316 -14.400403,12.30065 -4.201769,11.36601 1.124367,-0.0186 2.276704,0.004 3.36836,-0.31561 z m -3.51926,-11.95576 c 9.25595,0.53575 8.24056,-8.06442 9.36317,-14.5847 0.19811,-7.59769 8.22868,1.28292 7.04377,-5.0331 0.46964,-5.80032 0.12255,-18.24359 -8.74626,-14.517277 -5.601361,5.419516 -3.737148,14.407007 -7.031293,21.053087 -2.127774,2.96673 -4.292826,11.53677 1.073497,4.81982 4.350686,-4.20073 3.607566,-12.34483 3.482566,-15.14931 1.68474,-3.78428 9.84479,-7.685195 2.9821,-2.26128 -4.076182,6.22269 0.2924,16.54976 -7.201705,19.37191 -3.174313,1.76286 -8.771492,5.4282 -1.617278,4.22332 3.804478,-0.0206 7.346463,-9.67833 5.019259,-2.50316 -4.737176,6.15751 -13.105991,1.7061 -17.873433,-0.74528 2.082448,-2.16721 5.194101,3.94731 7.832174,1.10152 -3.330735,-0.35421 -7.16935,-6.57088 -10.226828,-2.6087 0.375963,6.80099 10.36335,7.86263 15.900231,6.83315 z m -10.058633,-8.99957 c -3.744391,0.21807 -7.910523,-7.36027 -9.369667,-6.12011 0.904296,2.24005 9.978912,9.05265 9.369667,6.12011 z m 10.624024,-6.08339 C 97.549716,108.74514 95.240952,99.672437 91.707,98.552555 c 2.288338,2.380095 4.496696,16.060685 -0.357583,8.200305 -1.213581,-3.94385 -3.61919,-7.21902 -3.203372,-0.88356 -0.453192,2.85661 5.570932,13.20286 7.838556,7.49102 z m -14.970652,-7.59864 c -2.461895,-3.09561 -1.961904,-15.70889 -0.618143,-5.882912 0.318554,-2.014756 3.522745,-11.708891 4.322242,-12.285721 -3.237522,0.971729 -13.996856,-0.237093 -5.60763,2.224401 -4.984214,2.86809 -13.711222,10.560962 -6.441392,15.926552 2.039979,2.07097 6.693716,3.79042 2.781392,-0.20224 2.1097,1.63704 8.803256,7.53269 5.563531,0.21992 z M 96.572918,90.455608 c -0.219974,-4.048454 -3.873201,-15.031075 -5.719901,-5.535485 -3.157007,4.706073 5.403829,3.954827 5.719901,5.535485 z"
         id="path840"
         inkscape:connector-curvature="0" />
      <path
         style="fill:#5fadaa;stroke-width:0.26458332"
         d="m 118.53333,219.07507 c -7.4181,-5.31631 -15.19005,0.15134 -23.323426,-0.0876 -8.325143,0.34807 -16.658541,-1.60306 -24.036986,-5.4456 -0.149527,-11.52282 7.903174,-24.87378 20.537931,-24.97472 4.94247,-1.46334 12.070611,2.35634 15.310881,1.95631 -3.98497,-10.18725 -5.56592,-21.05924 -6.00613,-31.93073 -5.862463,6.50303 -14.162617,7.39799 -21.896762,10.00725 -5.852623,2.38255 -15.514633,-1.44731 -8.604417,-7.05291 -0.84514,-6.13049 6.659826,-10.9494 9.334244,-16.52461 3.24489,-5.19724 9.532426,-10.37018 11.668338,-14.74493 -6.649514,0.43497 -16.723681,-4.89552 -12.253997,-11.58299 -3.117524,-3.9594 -6.073621,-7.39768 -11.265049,-5.1801 8.815828,-2.4621 -9.607674,-2.05617 0.211667,-2.66772 7.586036,0.94739 -0.820054,-2.79914 -1.017402,-4.19255 3.093459,2.02879 9.224978,3.71134 3.463221,-0.86692 -6.852903,-5.70916 3.657548,-12.773157 4.392468,-16.094489 -8.461984,-5.529746 6.254811,-0.660115 8.428171,-3.494201 2.137395,-6.372611 -5.653569,-14.41328 1.552236,-18.66731 6.096135,-3.456084 15.104272,-5.069338 21.413212,-1.66624 8.6493,10.03224 8.80011,24.150011 11.91865,36.42611 -0.62486,5.60923 6.82446,12.92664 4.87785,16.49024 -4.04945,1.36212 -9.15047,-6.50051 -10.78965,-4.70712 3.939,4.79309 4.38919,13.13105 6.02694,17.51713 1.49581,-8.21265 12.84265,-9.46017 13.60665,-0.20123 2.01485,7.90326 -1.30674,16.21759 -8.83288,19.47154 -1.79313,5.68308 -10.77582,4.27106 -11.11784,10.17762 -4.30642,8.06507 3.43135,10.44751 10.21437,10.15917 7.39067,3.36301 10.81144,11.69415 14.0903,18.60595 4.5467,10.58873 -0.18074,24.44434 -11.1515,28.77054 -2.18337,0.60266 -4.5028,0.78242 -6.75109,0.50008 z m 7.43666,-2.85876 c 4.58572,-1.98989 8.5147,-6.26678 1.66157,-7.81171 -2.7261,-1.37841 -4.99532,-11.13644 -1.61041,-3.86989 2.80595,7.642 10.77891,4.46752 10.26177,-2.7257 1.1182,-10.31927 -4.7809,-19.98821 -11.29007,-27.46952 -4.3413,-5.0407 -17.61023,0.83825 -14.87534,-9.32202 2.93763,-4.03275 -1.8126,-9.95044 -3.69199,-4.95827 -1.44136,7.14384 -1.05686,16.8005 8.40094,16.92281 -4.97172,4.73928 -5.46185,13.45365 -7.58905,20.09768 -1.18238,6.40883 0.0373,14.69225 6.16397,18.2059 -2.19123,-4.04187 -3.66145,-11.19479 -1.5044,-14.28117 -1.19579,7.25191 2.05816,19.48178 11.79881,16.13637 l 0.99367,-0.33516 1.28053,-0.58934 z m -27.280405,0.61338 c 5.304295,-0.60871 14.205565,-0.80927 8.127635,-7.4254 -4.69808,-5.62227 3.90543,-16.45528 -4.32627,-18.19381 -9.401261,-3.23711 -21.655147,-0.64554 -26.247196,8.94877 -1.579219,2.47938 -5.472631,13.41699 -1.898973,11.42757 0.893295,-6.23122 6.722584,-16.49817 10.651766,-16.62345 -5.144161,4.78459 -8.571412,11.23749 -9.748047,18.14991 5.815238,4.59938 13.603402,4.69086 13.99852,-4.08558 1.386044,-3.85992 6.29033,-10.20455 8.408246,-10.32504 -4.687847,4.93084 -8.168685,11.09553 -9.777788,17.70701 2.834012,1.63491 7.494067,0.38572 10.812107,0.42002 z m 10.290645,-31.98965 c 2.16221,-4.58841 3.73633,-8.30791 -2.32378,-9.64062 -4.12011,-4.93488 -0.92194,-12.38088 -1.68943,-17.58076 -5.334266,-1.74946 -1.02564,9.71596 -1.47262,13.38165 1.03149,4.33872 2.04206,15.4104 4.82977,15.74944 l 0.31342,-0.87974 z M 75.275805,167.76805 c 1.838567,-1.91291 9.142451,-5.35935 3.305446,-1.29411 -1.423233,3.36796 7.876683,-3.02098 10.685785,-1.8449 4.103246,-0.72318 9.143119,-3.82392 3.213363,-6.33975 -3.206328,-5.20938 -7.81424,5.49151 -13.237696,4.09436 -2.913525,2.08917 -15.569469,2.41341 -6.881677,5.76188 0.979796,0.18268 2.012939,0.044 2.914779,-0.37748 z m -0.33848,-4.52804 c 3.799355,-1.89357 15.742208,-4.08083 11.51252,-9.15089 -3.443949,5.55924 -13.714989,3.95696 -14.796074,9.61578 1.113841,0.15268 2.210187,-0.26239 3.283554,-0.46489 z m -1.545179,-3.73488 c 2.660828,-0.65939 9.337888,-2.62105 2.452401,-2.73201 -2.603184,-1.03096 -8.028142,5.3945 -2.452401,2.73201 z m 25.137839,-0.0789 c 4.954745,-4.37938 -7.907179,0.2899 -4.04341,-6.25801 -0.280029,-6.11879 -5.113177,6.15728 0.936779,6.24049 l 1.637609,0.3545 1.469022,-0.337 z m -15.078129,-4.37167 c 3.46511,-6.44037 6.977467,4.7292 8.274028,-2.72549 -0.161017,-3.54831 -5.025423,-11.43202 -6.788109,-3.93036 -0.449401,1.20903 -8.2145,13.36634 -1.485919,6.65585 z m 14.299051,1.5227 c 5.629203,-8.79981 8.686533,-19.14755 11.343583,-29.22383 0.6006,-3.82384 1.75789,-9.05269 2.02034,-2.02437 6.29285,-2.1739 -1.14191,-17.50592 -4.88497,-11.80882 -1.84274,9.52435 -1.8473,19.47419 -5.93167,28.49128 0.13006,3.58048 -9.690867,14.83308 -2.547283,14.56574 z m -17.003851,-2.97074 c 3.977988,-5.85057 5.345029,-12.96237 10.954377,-16.85643 3.016192,-2.98065 9.180157,-10.5244 1.409209,-5.359 -7.278635,7.25585 -13.63067,15.48693 -18.754665,24.39295 2.246617,-0.42708 5.801183,1.25137 6.298174,-1.99224 l 0.09291,-0.18521 z m 46.156594,-6.47249 c 6.11082,-4.90347 6.44478,-16.89197 -0.20125,-21.36808 -6.64231,0.49555 -12.25911,12.80677 -6.91242,17.48504 3.13691,1.46057 7.90196,-0.72793 5.47095,4.62784 l 0.56468,-0.0643 z m -27.96518,-6.73504 c 3.94699,-2.32667 2.43845,-11.15395 0.833409,-11.0504 -2.367214,3.26316 -14.400403,12.30065 -4.201769,11.36601 1.124367,-0.0186 2.276704,0.004 3.36836,-0.31561 z m -1.369816,-12.34865 c 9.812436,-0.38696 3.882306,-12.39251 9.028476,-17.42888 3.17482,-0.46004 6.27599,3.4 5.25422,-2.71947 1.60552,-6.30601 -2.23704,-19.486638 -10.15585,-12.32357 -4.171102,7.05904 -2.844705,15.96581 -7.163905,23.03554 -3.933335,9.5903 7.135335,-1.68711 6.060275,-5.94455 -1.414964,-5.20797 1.76764,-12.21404 5.15746,-12.0348 -3.32542,2.2085 -4.63378,5.17142 -3.98206,9.11687 0.048,7.93085 -2.660755,12.35638 -10.162288,15.06538 -1.698385,6.07026 10.505808,-3.21822 8.920028,-3.38679 -1.678714,8.33786 -12.349116,5.43528 -17.098606,2.3151 -2.694763,-3.66914 4.27949,3.56859 6.796214,0.58816 -2.914484,-1.29275 -11.965835,-7.75901 -10.487416,-0.1518 4.336932,5.13627 11.804516,5.20805 17.833452,3.86881 z m -5.632244,-5.46115 c 1.1561,-2.01166 -2.272847,1.65003 0,0 z m -2.106449,-0.65782 c 6.134366,-3.01944 3.748227,-6.76804 -0.437227,-9.86634 -4.837382,-6.49555 -2.113273,-14.652885 -4.196895,-21.825635 -2.951383,2.15009 -4.370865,12.265575 -2.394413,17.141765 4.1551,7.03137 -10.473294,-0.43901 -3.115378,5.45242 3.306314,2.11726 6.358423,9.10863 10.796705,5.95312 5.315741,-1.51695 -8.423315,5.24929 -0.652792,3.14467 z m -4.469384,-2.48771 c -3.744391,0.21807 -7.910523,-7.36027 -9.369667,-6.12011 0.904296,2.24005 9.978912,9.05265 9.369667,6.12011 z m 37.406093,-2.10001 c -9.276,-15.28963 -6.03538,-35.164467 -16.62455,-49.81614 -5.19497,-4.943354 -17.281749,-1.462652 -18.303881,5.733261 0.50852,2.83827 -2.386614,10.55658 2.791593,8.674205 2.429283,-4.542344 11.562768,-16.062968 14.915998,-6.855342 6.47145,11.450961 7.08456,25.074566 12.88859,36.745916 5.33537,8.11303 -9.75737,-7.8615 -4.01696,1.07597 2.13848,2.1724 5.21591,4.52556 8.34921,4.44213 z M 95.984601,113.36027 C 97.549716,108.74509 95.240952,99.672387 91.707,98.552505 c 2.288338,2.380095 4.496696,16.060685 -0.357583,8.200305 -1.213581,-3.94385 -3.61919,-7.21902 -3.203372,-0.88356 -0.453192,2.85661 5.570932,13.20286 7.838556,7.49102 z m -20.758645,-3.74029 c -1.845294,-1.52381 0.95441,2.18003 0,0 z M 115.01049,107.605 c -3.27425,-6.59418 2.01908,6.98368 0,0 z m -32.992324,1.45579 c -0.984762,-3.20834 -4.105854,-12.288955 -2.245029,-12.083222 2.21144,8.318082 0.82597,-8.564555 5.730834,-9.397629 -2.761386,0.367749 -15.563036,0.06052 -6.429258,2.187778 -6.592448,2.999338 -14.241109,13.442643 -4.214657,17.609003 4.855867,2.8547 -1.166602,-3.53786 3.369295,0.45769 0.747202,0.0618 3.285946,2.72925 3.788815,1.22638 z m 15.738035,-5.35781 c 0.02848,-5.141812 6.672019,-11.009042 -1.91904,-11.77066 -4.705921,1.707781 0.118201,12.57533 1.723266,12.98458 l 0.195734,-1.21392 z M 92.783362,92.986321 c 2.410494,-4.131817 -6.057699,-5.56167 -2.009353,-0.01576 0.516147,2.211166 1.440613,2.562567 2.009353,0.01576 z m -4.310874,-1.388036 c -0.623075,-7.398771 -4.335125,0.496763 -0.02912,2.490117 0.319311,-0.791182 -0.07388,-1.687071 0.02912,-2.490117 z m 21.180222,-2.788068 c -2.61398,-4.357806 -3.44375,-17.207208 -9.44558,-15.118501 3.45307,5.441403 2.63961,14.346148 7.57683,18.116939 3.65924,1.012446 2.80569,0.249945 1.86875,-2.998438 z m -7.52354,3.440356 C 99.993944,88.246342 99.444182,77.36078 95.898641,77.72085 c 2.707477,4.386167 2.617526,11.190834 6.230529,14.529723 z m 2.76314,-0.165018 c -1.70961,-4.188426 -4.02078,-17.49632 -6.691178,-16.270453 2.984648,4.879953 2.959908,12.844951 6.691178,16.270453 z m -5.50159,-0.751853 c -1.567022,-3.083861 -2.849533,-12.121845 -5.219585,-11.99744 2.51554,2.751025 2.365742,11.686774 5.219585,11.99744 z m -2.817802,-0.878094 c -0.219974,-4.048454 -3.873201,-15.031075 -5.719901,-5.535485 -3.157007,4.706073 5.403829,3.954827 5.719901,5.535485 z M 86.160412,81.804651 c -0.344802,-5.019952 1.226679,-13.839362 3.319024,-15.119686 -8.42787,1.288848 -7.554341,11.816837 -3.319024,15.119686 z"
         id="path838"
         inkscape:connector-curvature="0" />
      <path
         style="fill:#a66953;stroke-width:0.26458332"
         d="m 118.53333,219.07507 c -7.4181,-5.31631 -15.19005,0.15134 -23.323426,-0.0876 -8.325143,0.34807 -16.658541,-1.60306 -24.036986,-5.4456 -0.149527,-11.52282 7.903174,-24.87378 20.537931,-24.97472 4.94247,-1.46334 12.070611,2.35634 15.310881,1.95631 -3.98497,-10.18725 -5.56592,-21.05924 -6.00613,-31.93073 -5.862463,6.50303 -14.162617,7.39799 -21.896762,10.00725 -5.852623,2.38255 -15.514633,-1.44731 -8.604417,-7.05291 -0.84514,-6.13049 6.659826,-10.9494 9.334244,-16.52461 3.24489,-5.19724 9.532426,-10.37018 11.668338,-14.74493 -7.751646,0.72728 -15.834646,-5.66133 -12.578934,-11.96038 -2.757448,-3.51114 -5.646591,-6.8987 -9.948121,-5.11496 6.34188,-2.16758 -9.569568,-1.89483 -0.361401,-2.35547 9.308006,1.63171 -6.389199,-6.02192 1.292498,-2.94683 8.905301,4.29677 -6.034666,-6.12919 -0.61085,-10.392565 2.647657,-4.818856 9.36632,-6.865055 2.767383,-10.7174 7.831738,2.365975 14.892194,-0.751446 10.823571,-9.529485 -4.760514,-7.805246 5.347655,-13.093132 12.049999,-12.823785 8.288942,-2.800829 15.227542,3.01254 17.091392,10.902985 5.32918,13.746275 4.23579,29.57804 12.31295,42.28464 -2.27632,5.89873 -15.61446,-10.35115 -10.39594,-0.75112 2.78961,4.16068 2.66338,12.42922 4.45749,14.82619 1.46663,-8.24092 12.87201,-9.65771 13.66493,-0.30921 1.93329,7.79119 -1.13048,16.42528 -8.96405,19.23965 -4.20852,5.96414 -13.48222,6.43161 -11.97589,15.77943 1.58917,7.52565 15.62808,1.49347 18.25392,10.70974 6.5938,8.88718 12.15413,21.32084 6.18814,31.92693 -3.33036,6.17853 -9.6536,11.32574 -17.05076,10.02915 z m 7.43666,-2.85876 c 4.58572,-1.98989 8.5147,-6.26678 1.66157,-7.81171 -2.7261,-1.37841 -4.99532,-11.13644 -1.61041,-3.86989 2.80595,7.642 10.77891,4.46752 10.26177,-2.7257 1.1182,-10.31927 -4.7809,-19.98821 -11.29007,-27.46952 -4.3413,-5.0407 -17.61023,0.83825 -14.87534,-9.32202 2.93763,-4.03275 -1.8126,-9.95044 -3.69199,-4.95827 -1.44136,7.14384 -1.05686,16.8005 8.40094,16.92281 -4.97172,4.73928 -5.46185,13.45365 -7.58905,20.09768 -1.18238,6.40883 0.0373,14.69225 6.16397,18.2059 -2.19123,-4.04187 -3.66145,-11.19479 -1.5044,-14.28117 -1.19579,7.25191 2.05816,19.48178 11.79881,16.13637 l 0.99367,-0.33516 1.28053,-0.58934 z m -27.280405,0.61338 c 5.304295,-0.60871 14.205565,-0.80927 8.127635,-7.4254 -4.69808,-5.62227 3.90543,-16.45528 -4.32627,-18.19381 -9.401261,-3.23711 -21.655147,-0.64554 -26.247196,8.94877 -1.579219,2.47938 -5.472631,13.41699 -1.898973,11.42757 0.893295,-6.23122 6.722584,-16.49817 10.651766,-16.62345 -5.144161,4.78459 -8.571412,11.23749 -9.748047,18.14991 5.815238,4.59938 13.603402,4.69086 13.99852,-4.08558 1.386044,-3.85992 6.29033,-10.20455 8.408246,-10.32504 -4.687847,4.93084 -8.168685,11.09553 -9.777788,17.70701 2.834012,1.63491 7.494067,0.38572 10.812107,0.42002 z m 10.290645,-31.98965 c 2.16221,-4.58841 3.73633,-8.30791 -2.32378,-9.64062 -4.12011,-4.93488 -0.92194,-12.38088 -1.68943,-17.58076 -5.334266,-1.74946 -1.02564,9.71596 -1.47262,13.38165 1.03149,4.33872 2.04206,15.4104 4.82977,15.74944 l 0.31342,-0.87974 z M 75.275805,167.76805 c 1.838567,-1.91291 9.142451,-5.35935 3.305446,-1.29411 -1.423233,3.36796 7.876683,-3.02098 10.685785,-1.8449 4.103246,-0.72318 9.143119,-3.82392 3.213363,-6.33975 -3.206328,-5.20938 -7.81424,5.49151 -13.237696,4.09436 -2.913525,2.08917 -15.569469,2.41341 -6.881677,5.76188 0.979796,0.18268 2.012939,0.044 2.914779,-0.37748 z m -0.33848,-4.52804 c 3.799355,-1.89357 15.742208,-4.08083 11.51252,-9.15089 -3.443949,5.55924 -13.714989,3.95696 -14.796074,9.61578 1.113841,0.15268 2.210187,-0.26239 3.283554,-0.46489 z m -1.545179,-3.73488 c 2.660828,-0.65939 9.337888,-2.62105 2.452401,-2.73201 -2.603184,-1.03096 -8.028142,5.3945 -2.452401,2.73201 z m 25.137839,-0.0789 c 4.954745,-4.37938 -7.907179,0.2899 -4.04341,-6.25801 -0.280029,-6.11879 -5.113177,6.15728 0.936779,6.24049 l 1.637609,0.3545 1.469022,-0.337 z m -15.078129,-4.37167 c 2.505004,-3.97051 5.053554,-1.20618 6.583854,0.34116 5.400946,-4.24096 -3.996059,-16.40855 -5.800319,-5.78312 -1.220013,1.92987 -6.180707,11.2605 -0.783535,5.44196 z m 14.299051,1.5227 c 5.629203,-8.79981 8.686533,-19.14755 11.343583,-29.22383 0.6006,-3.82384 1.75789,-9.05269 2.02034,-2.02437 6.29285,-2.1739 -1.14191,-17.50592 -4.88497,-11.80882 -1.84274,9.52435 -1.8473,19.47419 -5.93167,28.49128 0.13006,3.58048 -9.690867,14.83308 -2.547283,14.56574 z m 15.623053,-0.6034 c 4.25814,0.13413 12.08584,-8.70272 9.72824,-9.89401 -3.45562,6.75609 -11.69517,11.29939 -18.99639,7.8054 -7.024727,-3.56845 2.05916,5.43538 9.26815,2.08861 z m -32.626904,-2.36734 c 3.977988,-5.85057 5.345029,-12.96237 10.954377,-16.85643 3.016192,-2.98065 9.180157,-10.5244 1.409209,-5.359 -7.278635,7.25585 -13.63067,15.48693 -18.754665,24.39295 2.246617,-0.42708 5.801183,1.25137 6.298174,-1.99224 l 0.09291,-0.18521 z M 96.784929,147.566 c -0.460744,-4.11878 -8.187116,-8.33299 -2.949825,-2.16035 0.512246,0.37585 2.359576,3.87533 2.949825,2.16035 z m 30.118721,-0.43197 c 6.11082,-4.90347 6.44478,-16.89197 -0.20125,-21.36808 -6.64231,0.49555 -12.25911,12.80677 -6.91242,17.48504 3.13691,1.46057 7.90196,-0.72793 5.47095,4.62784 l 0.56468,-0.0643 z m -13.00052,-6.11965 c 4.6749,-2.54975 1.47463,-4.61459 -2.22507,-1.93896 -9.51744,-2.4768 -2.70345,5.09126 2.22507,1.93896 z m -14.961651,-0.49056 c 4.179611,-3.35266 3.019611,-17.28509 -2.176253,-8.05456 -2.376503,2.83121 -9.995266,9.60479 -1.511097,8.51296 1.231946,-0.0389 2.536396,0.12748 3.68735,-0.4584 z m -1.372825,-12.47348 c 9.812436,-0.38696 3.882306,-12.39251 9.028476,-17.42888 3.17482,-0.46004 6.27599,3.4 5.25422,-2.71947 1.60552,-6.30601 -2.23704,-19.486638 -10.15585,-12.32357 -4.171102,7.05904 -2.844705,15.96581 -7.163905,23.03554 -3.933335,9.5903 7.135335,-1.68711 6.060275,-5.94455 -1.414964,-5.20797 1.76764,-12.21404 5.15746,-12.0348 -3.32542,2.2085 -4.63378,5.17142 -3.98206,9.11687 0.048,7.93085 -2.660755,12.35638 -10.162288,15.06538 -1.942712,5.33786 10.213348,-1.58884 8.920058,-3.38679 -1.678714,8.33786 -12.349116,5.43528 -17.098606,2.3151 -2.694763,-3.66914 4.27949,3.56859 6.796214,0.58816 -2.914484,-1.29275 -11.965835,-7.75901 -10.487416,-0.1518 4.336923,5.13626 11.804496,5.20806 17.833422,3.86881 z m -5.632244,-5.46115 c 1.1561,-2.01166 -2.272847,1.65003 0,0 z m -2.106449,-0.65782 c 6.134366,-3.01944 3.748227,-6.76804 -0.437227,-9.86634 -4.837382,-6.49555 -2.113273,-14.652885 -4.196895,-21.825635 -2.951383,2.15009 -4.370865,12.265575 -2.394413,17.141765 4.1551,7.03137 -10.473294,-0.43901 -3.115378,5.45242 3.306314,2.11726 6.358423,9.10863 10.796705,5.95312 5.315741,-1.51695 -8.423315,5.24929 -0.652792,3.14467 z m -3.046626,-1.41878 c -4.02596,-1.86009 -8.14926,-5.91787 -11.1125,-7.7622 2.222752,3.79592 6.794522,7.41 11.1125,7.7622 z m 35.983335,-3.16894 c -9.276,-15.28963 -6.03538,-35.164467 -16.62455,-49.81614 -5.19497,-4.943354 -17.281749,-1.462652 -18.303881,5.733261 0.50852,2.83827 -2.386614,10.55658 2.791593,8.674205 2.429283,-4.542344 11.562768,-16.062968 14.915998,-6.855342 6.47145,11.450961 7.08456,25.074566 12.88859,36.745916 5.33537,8.11303 -9.75737,-7.8615 -4.01696,1.07597 2.13848,2.1724 5.21591,4.52556 8.34921,4.44213 z m -26.821661,-3.85108 c 1.49396,-4.60906 -0.273688,-14.054259 -4.399174,-15.115272 2.102403,2.490632 4.895464,15.993032 -0.24526,8.176542 -1.272527,-3.95104 -3.425218,-7.364837 -3.252402,-0.86648 -0.457389,2.87454 5.487765,13.26716 7.896836,7.80521 z m -20.719053,-3.87259 c -1.845294,-1.52381 0.95441,2.18003 0,0 z M 115.01049,107.605 c -3.27425,-6.59418 2.01908,6.98368 0,0 z m -32.992324,1.45579 c -0.984762,-3.20834 -4.105854,-12.288955 -2.245029,-12.083222 2.21144,8.318082 0.82597,-8.564555 5.730834,-9.397629 -2.761386,0.367749 -15.563036,0.06052 -6.429258,2.187778 -6.592448,2.999338 -14.241109,13.442643 -4.214657,17.609003 4.855867,2.8547 -1.166602,-3.53786 3.369295,0.45769 0.747202,0.0618 3.285946,2.72925 3.788815,1.22638 z m 15.738035,-5.35781 c 0.02848,-5.141812 6.672019,-11.009042 -1.91904,-11.770661 -4.705921,1.707782 0.118201,12.575331 1.723266,12.984581 l 0.195734,-1.21392 z M 92.783362,92.986321 c 2.410494,-4.131817 -6.057699,-5.56167 -2.009353,-0.01576 0.516147,2.211166 1.440613,2.562567 2.009353,0.01576 z m -4.310874,-1.388036 c -0.623075,-7.398771 -4.335125,0.496763 -0.02912,2.490117 0.319311,-0.791182 -0.07388,-1.687071 0.02912,-2.490117 z m 21.180222,-2.788068 c -2.61398,-4.357806 -3.44375,-17.207208 -9.44558,-15.118501 3.45307,5.441403 2.63961,14.346148 7.57683,18.116939 3.65924,1.012446 2.80569,0.249945 1.86875,-2.998438 z m -7.52354,3.440356 C 99.993944,88.246342 99.444182,77.36078 95.898641,77.72085 c 2.707477,4.386167 2.617526,11.190834 6.230529,14.529723 z m 2.76314,-0.165018 c -1.70961,-4.188426 -4.02078,-17.49632 -6.691178,-16.270453 2.984648,4.879953 2.959908,12.844951 6.691178,16.270453 z m -5.50159,-0.751853 c -1.567022,-3.083861 -2.849533,-12.121845 -5.219585,-11.99744 2.51554,2.751025 2.365742,11.686774 5.219585,11.99744 z m -2.817802,-0.878094 c -0.347635,-4.435184 -3.698244,-14.801446 -6.103413,-5.391366 -2.3792,4.244805 5.26544,3.88135 6.103413,5.391366 z M 86.160412,81.804651 c -0.344802,-5.019952 1.226679,-13.839362 3.319024,-15.119686 -8.42787,1.288848 -7.554341,11.816837 -3.319024,15.119686 z M 100.54167,61.898807 53.986578,152.70227 Z"
         id="path836"
         inkscape:connector-curvature="0"
         sodipodi:nodetypes="ccccccccccccccccccccccccccccccccccccccccccccccccccccccccccccccccccccccccccccccccccccccccccccccccccccccccccccccccccccccccccccccccccccccccccccccccccccccccccccccccccccccccccccccccccccccccccccccacaccccccccc" />
      <path
         style="fill:#a2532a;stroke-width:0.26458332"
         d="m 118.39837,218.79237 c -7.58888,-5.51823 -15.57675,0.58994 -23.945467,-0.0403 -7.891415,0.1202 -15.950084,-1.53032 -22.88311,-5.37934 -0.460091,-11.69189 8.325589,-25.06599 21.077872,-24.59498 4.792465,-1.65452 11.388415,3.1071 14.654255,1.8431 -3.92867,-10.29255 -5.69782,-21.23383 -6.07267,-32.18949 -3.876813,2.02962 -11.008691,9.77344 -16.430295,7.02695 4.117474,0.0248 15.874425,-3.17875 8.027113,-7.12852 -1.24035,-6.93149 -9.530866,4.81097 -9.217738,2.26982 4.819035,-0.55908 5.848729,-10.57428 0.264583,-5.04468 -5.018463,3.60159 5.898394,-7.09082 5.544474,0.41948 3.555712,-6.19881 4.053212,9.09077 10.204955,2.91502 2.447598,-4.41838 -8.391577,0.71292 -4.781821,-5.82647 1.470695,-3.96903 -4.377355,0.37832 -4.420748,-4.71432 -1.633169,-3.6195 -3.16958,-6.29312 -5.062136,-1.15417 -2.958072,3.39391 -5.101166,13.37135 -6.941083,11.27718 4.897328,-4.09657 -12.444381,-0.79936 -6.199044,1.86922 3.907426,-1.93362 5.514948,-1.77766 0.820542,0.24508 -4.821048,2.80972 2.943445,4.26545 -4.0659,4.41716 0.985297,5.82145 9.060781,1.99118 12.906898,1.82902 4.794763,-1.02119 -5.577065,2.86144 -7.970808,2.11546 -5.133517,0.51157 -7.830222,-3.98747 -3.161876,-6.4718 -1.094989,-7.18409 7.534,-12.49522 10.466737,-18.90184 1.879571,-4.53062 12.284877,-11.03118 9.540655,-13.6773 -5.934541,0.36004 -16.163354,-4.77825 -10.804511,-11.1125 -3.801441,-2.11916 -4.855716,-8.63611 -10.293688,-5.66249 6.69483,-1.79226 -5.343257,-2.05673 1.41668,-1.99853 4.261527,-0.34404 -6.447544,-5.34737 0.08523,-2.36303 7.098904,1.7986 -6.396753,-6.31046 -1.890631,-10.387432 2.689926,-5.395952 9.789843,-7.966968 3.290378,-11.57168 5.975917,1.851243 14.429246,1.182651 11.128452,-7.049153 -4.431653,-7.212584 0.708354,-14.323669 8.588075,-14.802799 7.363571,-1.775643 16.409627,-1.009482 18.467417,7.91787 6.63306,14.49999 4.81522,31.710534 13.613,45.356544 -4.21132,3.35929 -14.4094,-10.28547 -11.05033,-2.03563 3.34349,6.22908 5.25171,14.60935 4.44789,20.02611 -3.84474,6.89867 5.74751,7.75633 7.78865,8.80094 -0.8223,8.33357 9.4579,-6.58825 6.08526,-11.09064 0.68386,-10.77633 -11.63329,-8.50391 -12.56401,-2.61979 2.05427,-10.04161 14.7014,-6.61684 13.13199,3.06324 2.34605,9.51077 -6.53664,13.42963 -11.50726,19.13547 -6.91201,2.57833 -10.59155,7.6676 -9.95324,15.29532 6.33939,3.28858 15.63879,1.032 19.04647,9.28774 5.93651,8.14253 10.5698,18.98995 6.55751,28.95061 -3.0549,6.81638 -9.86904,13.42645 -17.93872,11.75552 z m 5.28335,-1.45911 c 4.93372,-1.36206 12.88789,-7.28146 3.97962,-9.25933 -3.06577,-3.37335 -2.4738,-4.39425 0.39107,-0.31586 8.20418,6.78801 9.97401,-9.24194 7.97229,-14.4759 -2.66595,-7.66713 -6.23593,-16.10878 -13.31557,-20.65031 -7.31336,-0.16864 -16.21321,-1.69549 -12.11579,-11.158 2.15213,-6.33794 -7.49973,-3.36911 -4.56888,2.148 -1.56553,6.3841 1.28875,13.28475 8.29103,13.5261 -4.60528,5.02553 -5.06474,13.04679 -7.10286,19.50061 -2.45531,6.08653 1.61556,18.38857 6.39427,18.26378 -2.30856,-1.60017 -2.88248,-13.58342 -2.21152,-9.84957 0.45854,6.79039 3.64275,15.28013 12.28634,12.27048 z m -25.086541,-0.24848 c 5.131421,-0.6303 15.304091,-0.75012 8.487251,-7.66916 -4.58977,-5.87096 4.01626,-17.18027 -5.14408,-18.55753 -9.093204,-3.01154 -20.61151,-0.52319 -25.412684,8.41055 -1.694807,3.25397 -6.41273,12.2169 -2.258247,13.3788 1.099511,-5.65696 5.204584,-14.89277 8.826463,-16.30599 -2.980322,4.44464 -12.755745,16.07376 -4.401214,18.84701 5.587314,3.11242 9.955923,1.28667 10.422737,-5.26158 0.518271,-3.31606 9.456495,-13.76821 3.85092,-5.75482 -3.109892,4.70707 -9.417016,15.98589 1.428522,13.21193 1.402837,-0.0543 2.804147,-0.15178 4.200332,-0.29921 z m 10.553701,-32.39802 c 2.10702,-4.61166 3.7465,-8.10314 -2.21344,-9.40791 -5.96723,-4.84723 2.34939,-16.18404 -4.29439,-18.77772 -0.66143,10.59184 1.35986,21.49046 5.05498,31.4277 0.92932,-0.25861 0.91027,-2.48672 1.45285,-3.24207 z M 98.516079,156.02433 c 5.790541,-10.59479 9.333191,-22.28682 11.988361,-33.98933 0.10371,9.84476 6.74452,-4.6123 0.79768,-7.28127 -6.4918,-9.41423 -6.38235,7.85196 -7.04338,12.13674 -1.32927,9.93036 -5.701149,19.06138 -9.537895,28.19259 0.194551,1.64462 2.902771,2.58757 3.795234,0.94127 z m 14.857881,-0.0505 c 4.25814,0.13413 12.08584,-8.70272 9.72824,-9.89401 -3.7678,7.74861 -14.1657,12.10493 -21.48015,6.36018 0.0377,4.13719 8.39573,4.71761 11.75191,3.53383 z m -33.765545,-0.26099 c 4.223959,-5.58014 5.724083,-13.41238 11.0772,-17.53971 2.931355,-3.41958 11.347245,-11.92528 2.767761,-7.4249 -7.281334,7.51773 -13.975335,15.71609 -19.105582,24.86176 1.578525,0.68377 3.579693,0.2157 5.260621,0.10285 z m 17.49367,-7.92591 c -0.362333,-3.40641 -8.396876,-9.08599 -3.550804,-2.78374 0.667167,0.51207 2.768819,4.53734 3.550804,2.78374 z m 16.801045,-6.77258 c 4.74173,-2.64578 1.37756,-4.53374 -2.33652,-1.9376 -2.89853,-1.80674 -7.58346,0.002 -2.61426,2.2981 1.62476,0.48199 3.40502,0.30561 4.95078,-0.3605 z m -14.184163,-0.64041 c 2.768983,-3.11935 1.869493,-11.32215 0.671283,-11.87755 -2.402621,3.32305 -11.092929,9.00375 -8.532624,12.23356 2.569236,0.1302 5.416524,0.61866 7.861341,-0.35601 z m -3.542924,-11.77675 c 11.261107,0.44504 5.622457,-12.12834 10.686097,-17.81838 2.86529,-0.33284 6.19297,3.87031 5.22994,-2.17627 1.34521,-6.49915 -1.5252,-20.415643 -10.40799,-13.453932 -3.446686,2.984014 -2.994285,14.131922 -4.838138,14.053972 -0.19787,-3.34482 -2.247387,-12.13298 -5.378744,-10.692129 2.044579,2.573539 4.592611,15.979489 -0.16575,7.605689 -1.155494,-3.64089 -3.446285,-7.558857 -3.483647,-1.21578 0.648902,5.95797 -0.260597,3.12994 -1.278642,-1.11946 -0.478724,-4.237068 -0.182356,-10.152916 -0.711751,-13.387554 1.593816,5.186207 3.949546,4.033121 2.576944,-0.697497 -1.584443,-4.770577 -10.076963,-1.198059 -14.256549,-1.542173 10.334762,1.998816 -7.168368,6.762997 -4.656954,13.455074 -0.102913,4.92537 15.22313,12.22464 11.86423,4.31288 -0.634964,-2.50504 -3.245785,-7.965732 -0.110567,-5.79294 0.876245,-3.651589 0.37152,-10.852433 4.580365,-11.478533 -4.012245,4.580016 -5.02288,12.856903 -3.161387,18.707813 4.270514,7.13291 -10.497672,-0.81316 -3.998825,4.75543 3.506641,3.21872 7.773379,9.68068 12.465634,6.99189 -3.835794,0.91253 -4.930288,5.82867 -0.174875,2.23503 7.094383,-4.36347 -0.596714,-7.06854 -2.579614,-11.68424 2.320673,5.32843 9.824794,5.31008 4.966594,11.42846 0.18902,8.77112 -9.769061,-4.17011 -13.568991,-0.15054 -2.392938,6.76389 9.284652,8.83193 14.395034,7.99429 l 1.00177,-0.14289 z m -6.796484,-3.37914 c 1.479163,-0.2284 -0.454925,0.45366 0,0 z m 7.904411,-4.63948 c 2.283009,-1.93674 4.94371,-11.51389 2.77877,-3.6799 0.2332,0.83816 -4.677234,6.36177 -2.77877,3.6799 z m 3.65005,-15.03085 c 0.77942,-4.22371 1.34816,0.6104 0,0 z M 79.416778,98.411306 c 0.231539,-1.192583 0.231539,1.192583 0,0 z m 12.703536,24.432954 c 2.290789,-3.86545 -3.621432,2.0455 0,0 z m -4.879429,-2.12503 c -3.822018,-2.59324 -8.617257,-5.65382 -11.715757,-8.2633 1.778751,4.13323 7.375029,8.44448 11.715757,8.2633 z m 35.597025,-3.15278 c -8.0857,-14.10787 -6.70832,-31.310721 -13.75871,-45.818121 -3.05097,-9.627068 -16.441444,-7.707767 -21.018347,-0.703087 0.124155,3.342157 -1.609436,8.661059 0.282434,11.182621 5.085625,0.331393 9.139273,-14.300733 15.709563,-9.568002 7.34995,11.718033 8.2182,25.945543 13.74876,38.380029 5.12829,7.65883 -2.97681,-1.19873 -4.73945,-1.51602 -0.40538,4.24973 6.27342,7.72038 9.77575,8.04258 z m -6.58036,-7.56169 c -1.19778,-3.64339 -3.8418,-10.155572 -2.28064,-2.20075 0.12695,0.52342 3.65207,5.52229 2.28064,2.20075 z m -40.322132,0.41979 c -1.518281,-4.45707 -2.698572,0.72572 0,0 z m 22.295006,-8.22337 c 0.683963,-4.808594 5.546566,-9.294218 -1.97887,-10.277168 -5.647791,1.233656 -0.813575,11.255738 1.113075,14.261178 0.415047,-1.29859 0.590262,-2.65378 0.865795,-3.98401 z M 87.837617,99.910612 c -1.096671,-2.55818 -0.561691,4.046518 0,0 z M 92.92442,93.23036 c 2.699407,-4.680846 -6.96982,-6.24274 -2.218455,0.07655 0.51299,2.33881 1.654755,2.272143 2.218455,-0.07655 z m 16.59807,-5.516128 c -2.46143,-4.413381 -3.30193,-16.443894 -9.18655,-14.531848 1.65683,5.5737 3.07695,13.924424 6.8149,18.804556 5.99418,2.408853 3.24877,-0.09127 2.37165,-4.272708 z m -7.12874,4.617013 c -2.442995,-4.535191 -2.06704,-13.91298 -6.623311,-15.334881 1.831771,4.570353 2.750752,12.943887 6.623311,15.334881 z m 2.64583,-0.410729 c -2.5272,-5.049029 -2.62779,-15.049737 -7.230116,-16.988827 3.132706,4.773909 3.003996,14.679817 7.230116,16.988824 z m -5.291662,-0.07818 C 97.541609,88.172162 97.52624,80.134706 93.946994,79.00586 c 2.985023,3.439862 1.801798,11.238533 5.800924,12.836476 z m -2.910417,-1.251718 c -0.05107,-4.281808 -4.176657,-15.833323 -6.252339,-5.810421 -3.126205,3.803937 4.37988,5.438348 6.252339,5.810421 z M 86.783335,76.167429 c -1.894053,-3.932666 3.127928,-8.995412 3.609702,-9.75683 -9.092787,0.945355 -8.170107,10.257071 -5.224257,15.933567 2.914842,-0.159093 0.961742,-4.293082 1.614555,-6.176737 z m -8.73125,90.141901 c 1.790164,-2.087 0.393129,0.28087 0,0 z m 0.967839,-4.54383 c 1.404628,-1.38658 0.580805,0.92094 0,0 z m 12.790494,-9.08338 c 0.436555,-1.23527 0.918284,0.45609 0,0 z"
         id="path834"
         inkscape:connector-curvature="0" />
      <path
         style="fill:#14706f;stroke-width:0.26458332"
         d="m 88.238543,218.40521 c -5.858008,-0.67434 -11.605859,-2.36357 -16.801042,-5.17139 0.186626,-11.27609 7.823478,-23.89281 20.097704,-24.41542 5.397463,-1.49988 11.825995,2.71095 15.984125,2.06075 -4.17272,-10.42614 -5.67604,-21.65884 -6.30068,-32.75476 -5.180126,-4.30329 4.91472,-12.73529 4.90327,-18.98781 2.68632,-5.82676 1.77485,-12.88667 7.33993,-15.58817 3.32092,-5.20706 -7.24493,-18.85386 -8.19951,-7.58643 -0.61018,3.33712 -1.58397,13.77985 -1.11011,4.66985 0.006,-5.11166 2.0822,-12.76935 7.60534,-8.34046 0.83381,-6.38693 2.3429,-20.592823 -7.66081,-18.901163 -5.263964,0.146506 -12.743787,-4.529896 -10.366633,5.377305 -6.212182,-4.647195 4.570738,13.197778 -1.15004,9.419728 -1.984664,-2.48512 -4.235548,-11.36541 -4.742498,-3.44406 -1.335079,4.08314 -1.85556,-7.118772 -1.259229,-8.787476 -0.686966,-3.748166 -1.174752,-6.972418 1.019609,-1.739314 2.844703,-0.08456 1.22819,-9.407775 -3.609977,-7.418938 -2.46687,-8.04 10.977569,-4.500277 5.514621,1.887244 -0.167895,4.055493 3.362702,10.071753 4.221433,2.483835 -0.325924,-3.464674 4.67984,2.87969 3.027192,-2.282226 0.838906,5.34726 9.592222,5.182303 4.689142,-1.194116 -1.460329,-4.379044 -0.89369,-5.142834 0.38949,-0.108131 0.20226,7.583724 10.14286,2.680799 11.07102,10.585069 0.29301,4.338853 0.52706,8.826553 -0.13517,13.065713 -1.47885,4.50856 5.08624,11.49325 4.60683,18.12778 1.55658,5.64916 -3.26369,16.58841 7.1237,14.95781 2.86011,2.64578 -2.34377,8.49314 -5.93619,10.8158 -6.32926,0.48228 -7.31196,7.62636 -8.16727,11.23383 0.35684,-4.06501 2.97054,-11.14273 -4.00972,-7.93691 -0.71691,6.09913 -3.13635,15.40226 4.32474,18.23456 -11.134123,-1.84482 -0.91042,-16.50611 -7.55007,-20.34989 -2.63431,5.04536 0.19459,14.85234 1.17607,21.48323 0.73173,4.01228 3.51016,15.89414 5.49906,5.78202 0.83702,-4.36032 4.68439,-10.29351 1.59147,-2.56025 -3.02653,9.72503 -8.14555,21.10571 -2.32217,30.77391 3.61083,4.92841 10.361,7.48918 16.34127,5.17594 6.03105,-2.96139 10.38902,-9.10913 11.28622,-15.74303 0.83602,-9.98535 -4.80238,-19.1705 -10.8253,-26.63426 -2.6915,-4.49785 -14.6666,-2.68911 -14.31615,-5.05008 7.36442,1.34173 15.95938,2.01592 19.22326,10.30881 6.14324,8.69088 10.20337,21.19611 3.44455,30.68605 -3.6971,6.38945 -11.59434,10.25905 -18.72825,7.3212 -3.90633,-4.03704 -8.273,-0.64221 -12.83909,-0.0327 -4.76579,0.85943 -9.631776,1.24903 -14.450137,0.57656 z m 10.980208,-1.20073 c 6.370479,-0.26829 14.223069,-1.54076 7.821719,-8.58838 -4.10596,-5.93007 4.31086,-17.05217 -5.39536,-18.12102 -9.918801,-3.20883 -22.45305,0.68218 -26.488498,10.89649 -2.898207,5.32411 -3.861963,11.76139 0.843367,12.96373 6.057774,2.58116 12.526067,3.19159 18.986292,3.15757 1.413115,-0.0674 2.824386,-0.17264 4.23248,-0.30839 z m -10.310645,-6.21297 c 0.215541,-1.47795 0.92718,-0.35971 0,0 z m -13.74555,-0.55121 c 0.170217,-1.0197 0.268372,1.20425 0,0 z m 14.270335,-0.79375 c 1.782724,-4.08776 3.321345,-5.60219 0.608186,-0.734 l -0.505848,0.86629 z m -13.739409,-1.16858 c 0.512661,-2.18241 0.503062,0.37514 0,0 z m 0.524426,-1.53162 c 0.430809,-3.19018 7.223065,-12.54543 2.587912,-5.01575 -1.004164,1.58768 -1.531517,3.49582 -2.587912,5.01575 z m 37.156052,-50.9725 c 4.25814,0.13413 12.08584,-8.70272 9.72824,-9.89401 -3.58428,7.1471 -12.9369,11.86526 -20.19582,7.0896 -6.764595,-1.36034 7.20436,6.00626 10.46758,2.80441 z m 0.52917,-14.95948 c 4.74591,-2.6517 1.37135,-4.52947 -2.34363,-1.93668 -2.98201,-1.66596 -7.59872,-0.0502 -2.60715,2.29715 1.62477,0.48201 3.40506,0.30557 4.95078,-0.36047 z M 87.705921,101.52016 c 0.853875,-5.508015 -1.898734,0.84397 0,0 z m 1.458664,-5.342197 c -0.617458,-0.908788 -0.762057,0.504184 0,0 z M 72.429689,168.59907 c 3.817914,-0.3756 0.756563,0.37849 0,0 z m -2.050521,-0.3691 c -2.724041,-1.40377 -2.718023,-5.20153 -1.019688,-0.98182 0.16589,0.23312 3.485475,1.88793 1.019688,0.98182 z m 4.7625,0.17042 c 2.144252,-2.47613 3.10136,1.14326 0,0 z m 3.042708,-0.13515 c 5.682479,-2.09914 3.459643,-0.0883 0,0 z m 8.73125,-2.92546 c 3.352282,0.50818 13.151374,-5.9293 5.660932,-0.86444 -1.004416,1.29694 -11.426504,1.2569 -5.660932,0.86444 z m -16.679449,-1.1915 c 3.557435,-0.93569 -1.157149,1.58306 0,0 z m 0.672158,-2.6676 c 1.371614,-2.66949 0.8119,1.82115 0,0 z m 25.4,-0.50237 c -8.176532,-3.57159 5.406085,-0.41639 0,0 z m -25.887391,-1.71284 c 0.231541,-1.19259 0.231541,1.19259 0,0 z m 7.763432,-0.52917 c 2.016627,-1.04278 0.656798,1.04069 0,0 z m 1.719792,-0.94977 c -1.506848,-4.25846 7.359388,-10.59552 7.517562,-16.5297 2.06383,-1.18041 8.834994,-9.10851 4.205808,-3.30452 -4.32092,7.21675 13.002482,-1.15157 8.238876,3.97246 -0.961494,4.71624 -3.202008,7.04238 -5.369545,1.63698 -6.90645,-4.72526 3.151689,4.52513 1.990964,6.54682 -4.49015,6.68991 -7.385006,-10.1719 -10.600887,-4.01851 -2.56657,3.13142 -5.312293,10.37717 -5.982778,11.69647 z m 7.664209,-0.63773 c 3.405797,-6.13403 -7.284529,-0.7852 -0.490263,-4.14818 3.46303,0.50294 1.442316,7.1182 0.490263,4.14818 z m -14.24197,-1.91822 c 5.37507,-9.09299 12.472298,-16.99501 19.229781,-24.9957 -4.567891,-0.97676 -14.774081,-1.79435 -13.790913,-8.42454 1.456216,7.96868 12.959425,8.31027 19.371437,6.53531 3.711838,-0.54113 7.444038,-5.34667 5.390658,1.06251 0.30648,5.81784 -3.49432,5.08632 -2.47285,-0.009 0.98416,-2.84761 -8.958487,0.70602 -10.227073,3.69505 -6.450491,6.97913 -12.6948,14.53006 -16.914602,23.06255 -1.281,1.77509 -2.923809,1.96616 -0.586438,-0.92635 z m 17.720662,0.35511 c -0.595943,-1.75007 2.497041,0.49601 0,0 z m 40.488041,-14.97334 c 0.84712,-4.01699 0.13375,1.87371 0,0 z m -30.69167,-1.98438 c 0.1889,-1.9169 0.82892,-0.94047 0.06,0.15274 z m 31.25932,-2.77812 c 0.2332,-2.19433 0.1639,2.52578 0,0 z m -30.48011,0.26458 c 0.0777,-1.78057 1.02974,-0.61806 0,0 z m 29.92988,-3.70417 c -0.0616,-6.80395 -8.49462,-9.89768 -11.40672,-2.97115 3.83529,-9.51046 12.52261,-2.08625 11.40672,2.97115 z M 86.400688,121.45308 c -6.956394,0.21706 -12.587456,-11.28024 -15.630544,-8.87025 3.928905,-1.63564 -6.423728,-1.28411 0.302104,-1.45963 4.261527,-0.34404 -6.447544,-5.34737 0.08523,-2.36303 6.896971,2.06337 -6.537596,-6.89356 -1.579464,-10.914974 1.077162,-3.867624 12.723323,-12.129605 4.965864,-5.229092 -7.697942,4.243837 -5.673517,14.879206 2.910366,16.299046 3.023003,1.96853 7.595574,-1.39626 4.403435,1.46202 -3.376955,-0.99363 -7.780742,-1.89003 -2.99764,2.09088 2.863234,2.20904 7.362037,8.43231 0.869136,3.55296 -1.619305,-3.22946 -6.629207,-5.44477 -2.199117,-0.40084 1.586847,2.66623 9.382747,5.50046 8.870628,5.83291 z M 76.275461,110.68307 c -1.949828,-5.61927 -3.813303,0.70977 0,0 z m 11.03704,9.82925 c 0.786475,-1.00434 0.91972,1.25978 0,0 z m 34.395829,-2.28147 c -3.40212,0.15852 -11.4843,-8.15565 -4.79825,-2.63146 3.34549,3.01195 9.17897,3.1559 4.35291,-2.16955 -6.99318,-14.444846 -4.95532,-32.081875 -14.29702,-45.565906 -5.04335,-5.957788 -16.209547,-2.573278 -19.390404,3.699474 -2.463411,2.133385 3.148333,-5.158625 4.300998,-5.957294 -3.889306,-1.559855 -13.767918,11.276575 -7.904245,3.247956 6.366034,-4.336762 17.992481,-7.314789 23.814531,-0.925699 10.06944,14.93121 6.52785,34.745909 16.21901,49.814999 0.92962,1.41962 -1.95999,0.40314 -2.29753,0.48748 z m -22.320677,-0.37267 c 0.628017,-1.38825 0.228957,1.39756 0,0 z m -4.79911,-1.71979 c 0.265045,-0.93155 1.105406,0.91532 0,0 z m 2.447396,-6.50308 c -1.291545,-3.87141 1.725428,-1.58226 0,0 z m -16.287887,-6.15558 c -0.858191,-8.187407 1.814819,4.69866 0,0 z m 1.065877,-5.068424 c 0.723333,-5.316239 0.171855,2.223874 0,0 z m 18.727741,-2.38125 c 1.27955,-1.91394 -0.680246,1.880692 0,0 z M 72.628126,87.563389 c -0.703073,-2.069906 2.426452,1.559218 0,0 z m 23.566816,-0.415773 c -0.415675,-2.782234 1.011759,2.152006 0,0 z m -0.548066,-2.23006 c -0.425649,-3.238943 1.014819,2.602982 0,0 z m -1.065371,-2.991572 c -6.609521,-2.074498 8.187695,-12.281085 2.99424,-6.348002 1.994284,3.721359 3.314125,9.116652 0.440515,2.007521 -2.94084,-4.033725 -6.000435,3.555251 -2.541739,5.872812 l -0.306176,-0.40627 z"
         id="path832"
         inkscape:connector-curvature="0" />
      <path
         style="fill:#8a3317;stroke-width:0.26458332"
         d="m 88.238543,218.40521 c -5.858008,-0.67434 -11.605859,-2.36357 -16.801042,-5.17139 0.186626,-11.27609 7.823478,-23.89281 20.097704,-24.41542 5.397463,-1.49988 11.825995,2.71095 15.984125,2.06075 -4.17272,-10.42614 -5.67604,-21.65884 -6.30068,-32.75476 -5.180126,-4.30329 4.91472,-12.73529 4.90327,-18.98781 1.76487,-3.28062 2.75566,-12.17946 4.22392,-12.70419 -1.60096,8.74846 -4.73913,17.02841 -8.21668,25.15934 -2.06547,6.5935 10.78826,6.50086 14.85894,3.45415 3.62068,-1.10746 11.8189,-11.38002 3.91759,-10.18483 -5.144,-0.64799 -4.93331,-10.16099 -2.77581,-2.1874 3.14601,2.92294 9.51855,-0.37799 6.74654,5.52701 -0.88007,4.36611 -10.52043,7.11484 -12.79878,11.60997 -0.50484,2.865 -2.3059,10.57044 -1.39464,3.12363 4.61397,-6.4138 -7.15508,-6.98089 -4.93315,-0.36805 -0.28349,5.11234 -1.28527,12.14219 4.95798,14.10155 -11.134123,-1.84482 -0.91042,-16.50611 -7.55007,-20.34988 -2.63431,5.04536 0.19459,14.85234 1.17607,21.48323 0.73173,4.01228 3.51016,15.89414 5.49906,5.78202 0.83702,-4.36032 4.68439,-10.29351 1.59147,-2.56025 -3.02653,9.72503 -8.14555,21.10571 -2.32217,30.77391 3.61083,4.92841 10.361,7.48918 16.34127,5.17594 6.03105,-2.96139 10.38902,-9.10913 11.28622,-15.74303 0.83602,-9.98535 -4.80238,-19.1705 -10.8253,-26.63426 -2.6915,-4.49785 -14.6666,-2.68911 -14.31615,-5.05008 7.36442,1.34173 15.95938,2.01592 19.22326,10.30881 6.14324,8.69088 10.20337,21.19611 3.44455,30.68605 -3.6971,6.38945 -11.59434,10.25905 -18.72825,7.3212 -3.90633,-4.03704 -8.273,-0.64221 -12.83909,-0.0327 -4.765792,0.8594 -9.631807,1.2491 -14.450157,0.5765 z m 10.980208,-1.20073 c 6.370479,-0.26829 14.223069,-1.54076 7.821719,-8.58838 -4.10596,-5.93007 4.31086,-17.05217 -5.39536,-18.12102 -9.918801,-3.20883 -22.45305,0.68218 -26.488498,10.89649 -2.898207,5.32411 -3.861963,11.76139 0.843367,12.96373 6.057774,2.58116 12.526067,3.19159 18.986292,3.15757 1.413115,-0.0674 2.824386,-0.17264 4.23248,-0.30839 z m -10.310645,-6.21297 c 0.215541,-1.47795 0.92718,-0.35971 0,0 z m -13.74555,-0.55121 c 0.170217,-1.0197 0.268372,1.20425 0,0 z m 14.270335,-0.79375 c 1.782724,-4.08776 3.321345,-5.60219 0.608186,-0.734 l -0.505848,0.86629 z m -13.739409,-1.16858 c 0.512661,-2.18241 0.503062,0.37514 0,0 z m 0.524426,-1.53162 c 0.430809,-3.19018 7.223065,-12.54543 2.587912,-5.01575 -1.004164,1.58768 -1.531517,3.49582 -2.587912,5.01575 z m 25.068942,-51.73618 c -0.98883,-2.60119 -0.75631,2.61519 0,0 z m -28.857161,13.3889 c 3.817914,-0.3756 0.756563,0.37849 0,0 z m -2.050521,-0.3691 c -2.724041,-1.40377 -2.718023,-5.20153 -1.019688,-0.98182 0.16589,0.23312 3.485475,1.88793 1.019688,0.98182 z m 4.7625,0.17042 c 2.144252,-2.47613 3.10136,1.14326 0,0 z m 3.042708,-0.13515 c 5.682479,-2.09914 3.459643,-0.0883 0,0 z m 8.73125,-2.92546 c 3.352282,0.50818 13.151374,-5.9293 5.660932,-0.86444 -1.004416,1.29694 -11.426504,1.2569 -5.660932,0.86444 z m -16.679449,-1.1915 c 3.557435,-0.93569 -1.157149,1.58306 0,0 z m 0.672158,-2.6676 c 1.371614,-2.66949 0.8119,1.82115 0,0 z m 25.4,-0.50237 c -8.176532,-3.57159 5.406085,-0.41639 0,0 z m -25.887391,-1.71284 c 0.231541,-1.19259 0.231541,1.19259 0,0 z m 7.763432,-0.52917 c 2.016627,-1.04278 0.656798,1.04069 0,0 z m 1.719792,-0.94977 c -1.506848,-4.25846 7.359388,-10.59552 7.517562,-16.5297 2.930938,-2.01707 9.0116,-9.40102 3.394728,-2.17349 -0.01742,2.56825 0.872086,4.15209 -2.436479,1.86025 -0.451533,4.49238 5.248775,12.21049 8.631929,7.71185 -3.080038,8.78136 -7.174886,-5.18824 -10.277671,-3.82157 -2.893318,3.44771 -6.116689,11.28858 -6.830069,12.95266 z m 7.664209,-0.63773 c 3.405797,-6.13403 -7.284529,-0.7852 -0.490263,-4.14818 3.46303,0.50294 1.442316,7.1182 0.490263,4.14818 z m -14.24197,-1.91822 c 5.37507,-9.09299 12.472298,-16.99501 19.229781,-24.9957 -4.567891,-0.97676 -14.774081,-1.79435 -13.790913,-8.42454 1.456216,7.96868 12.959425,8.31027 19.371437,6.53531 4.456048,-1.42612 7.335938,-4.7806 5.230938,1.90395 0.0581,5.86956 -2.72553,3.66522 -2.01966,-0.57993 -0.0134,-3.49545 -10.027932,1.00513 -11.647899,4.60446 -5.955504,6.69664 -11.854429,13.8103 -15.787246,21.8828 -1.281,1.77509 -2.923809,1.96616 -0.586438,-0.92635 z M 102.65808,130.1625 c 0.18012,-6.36543 -2.13977,5.9529 0,0 z m -11.611011,25.42319 c -0.595943,-1.75007 2.497041,0.49601 0,0 z m 6.055016,-8.45339 c 0.710231,-3.0498 4.810805,-11.72325 2.283873,-3.89911 -0.271966,0.18634 -1.767812,5.59297 -2.283873,3.89911 z m -3.556675,-5.41779 c 3.188927,-1.18856 5.098523,0.77245 -9e-6,0 z m 37.9897,-1.10216 c 0.84712,-4.01699 0.13375,1.87371 0,0 z m -30.69167,-1.98438 c 0.1889,-1.9169 0.82892,-0.94047 0.06,0.15274 z m 16.24412,-0.78645 c -0.4429,-7.38883 -1.16396,-14.90357 -4.51732,-21.59738 -1.75769,-6.1432 -8.16915,-6.27438 -7.4956,0.82478 -0.50905,3.62613 -1.39346,12.01933 -0.9224,3.56291 0.006,-5.11166 2.0822,-12.76935 7.60534,-8.34046 0.83381,-6.38693 2.3429,-20.592823 -7.66081,-18.901163 -5.283064,0.118933 -12.761531,-4.5022 -10.362473,5.417974 -6.421814,-4.446923 3.949726,10.746909 -0.792723,9.766119 -2.245901,-2.372 -4.31785,-12.836784 -5.220529,-3.90098 -0.925122,4.43821 -1.915041,-7.082473 -1.142681,-8.717616 -0.686966,-3.748166 -1.174752,-6.972418 1.019609,-1.739314 3.083222,-0.266364 0.782463,-9.334016 -3.516372,-7.512896 8.056725,-3.913844 4.125524,7.235011 8.264799,8.255545 0.649805,-4.718401 2.063973,-4.886637 4.564632,-4.612208 -1.285043,-2.391805 3.730588,4.843553 5.921898,2.024277 -1.19651,-3.381769 -3.719042,-13.526281 -1.003,-4.787049 0.20226,7.583724 10.14286,2.680799 11.07102,10.585069 0.29301,4.338852 0.52706,8.826562 -0.13517,13.065712 -1.26495,4.40593 4.65591,11.63179 4.32216,18.13272 0.42282,3.20488 1.79631,5.46471 -3.8e-4,8.47396 z M 87.705921,101.52016 c 0.853875,-5.508015 -1.898734,0.84397 0,0 z m 1.458664,-5.342197 c -0.617458,-0.908788 -0.762057,0.504184 0,0 z m 42.938175,39.671887 c 0.2332,-2.19433 0.1639,2.52578 0,0 z m -30.48011,0.26458 c 0.0777,-1.78057 1.02974,-0.61806 0,0 z m 29.92988,-3.70417 c -0.0616,-6.80395 -8.49462,-9.89768 -11.40672,-2.97115 3.83529,-9.51046 12.52261,-2.08625 11.40672,2.97115 z M 86.400688,121.45308 c -5.819973,-0.15916 -9.11508,-5.46993 -12.299732,-9.03144 -6.411321,2.30359 3.663773,-5.17001 -2.874007,-6.5621 -6.185038,-5.43714 1.24682,-12.16369 5.162951,-15.834541 3.517449,-0.389726 -7.789668,5.853828 -7.055436,10.060851 -1.0136,5.88921 10.702863,12.07636 13.183607,8.11285 2.532704,5.41008 -10.64849,-2.1295 -4.021275,3.86476 3.083949,2.69375 7.94828,8.47993 1.304076,3.91708 -1.766151,-4.49382 -6.750123,-4.38585 -2.17965,-0.15058 1.355529,2.56774 9.686625,5.49574 8.779466,5.62312 z M 76.275461,110.68307 c -1.949828,-5.61927 -3.813303,0.70977 0,0 z m 11.03704,9.82925 c 0.786475,-1.00434 0.91972,1.25978 0,0 z m 34.395829,-2.28147 c -3.40212,0.15852 -11.4843,-8.15565 -4.79825,-2.63146 3.34549,3.01195 9.17897,3.1559 4.35291,-2.16955 -6.99318,-14.444846 -4.95532,-32.081875 -14.29702,-45.565906 -5.04335,-5.957788 -16.209547,-2.573278 -19.390404,3.699474 -2.463411,2.133385 3.148333,-5.158625 4.300998,-5.957294 -3.889306,-1.559855 -13.767918,11.276575 -7.904245,3.247956 6.366034,-4.336762 17.992481,-7.314789 23.814531,-0.925699 10.06944,14.93121 6.52785,34.745909 16.21901,49.814999 0.92962,1.41962 -1.95999,0.40314 -2.29753,0.48748 z m -22.320677,-0.37267 c 0.628017,-1.38825 0.228957,1.39756 0,0 z m -4.79911,-1.71979 c 0.265045,-0.93155 1.105406,0.91532 0,0 z m 2.447396,-6.50308 c -1.291545,-3.87141 1.725428,-1.58226 0,0 z m -16.287887,-6.15558 c -0.858191,-8.187407 1.814819,4.69866 0,0 z m 1.065877,-5.068424 c 0.723333,-5.316239 0.171855,2.223874 0,0 z m 18.727741,-2.38125 c 1.27955,-1.91394 -0.680246,1.880692 0,0 z M 72.628126,87.563389 c -0.703073,-2.069906 2.426452,1.559218 0,0 z m 23.566816,-0.415773 c -0.415675,-2.782234 1.011759,2.152006 0,0 z m -0.548066,-2.23006 c -0.425649,-3.238943 1.014819,2.602982 0,0 z m -6.482291,-1.514402 c -3.09916,-0.407355 -7.258101,-0.591689 -1.674379,-1.434549 1.013981,0.172927 4.834705,2.578942 1.674379,1.434549 z m 5.41692,-1.47717 c -6.609521,-2.074498 8.187695,-12.281085 2.99424,-6.348002 1.994284,3.721359 3.314125,9.116652 0.440515,2.007521 -2.94084,-4.033725 -6.000435,3.555251 -2.541739,5.872812 l -0.306176,-0.406271 z"
         id="path830"
         inkscape:connector-curvature="0" />
      <path
         style="fill:#0e1311;stroke-width:0.26458332"
         d="m 107.68542,157.733 c -3.69668,0.51395 -10.116614,-6.10965 -3.56247,-1.72844 7.97987,3.37638 19.08788,-2.05597 20.27771,-10.78588 2.14032,1.55351 -5.4198,11.95293 -11.29128,12.15488 -1.71718,0.66806 -3.62641,0.38781 -5.42396,0.35944 z m -16.91161,-9.52187 c -4.901689,-2.30288 -2.25547,-12.32223 0.09015,-5.7631 -9.093956,-7.45605 7.348741,15.71629 -0.09015,5.7631 z m 5.17426,0.86788 c 0.228988,-1.39755 0.627991,1.38828 0,0 z m 25.49568,-4.08248 c -4.1064,0.29511 -6.37679,-9.07848 -3.41478,-2.42373 0.12367,1.76571 8.4133,2.62922 3.41478,2.42373 z m -15.74271,-2.39981 c 0.65254,-0.94251 0.31999,0.96735 0,0 z m -12.15563,-0.88221 c 3.188927,-1.18856 5.098523,0.77245 -9e-6,0 z m 5.144175,-0.4124 c 1.044037,-1.48342 1.042114,1.0152 0,0 z m 18.179475,-4.39393 c 0.3222,-6.46026 -1.66673,-12.59115 -2.81165,-18.78542 2.73005,6.10473 4.1329,13.22313 2.96971,19.84375 -0.0527,-0.35278 -0.10537,-0.70555 -0.15806,-1.05833 z m -15.46936,-4.87195 c -0.77369,-3.97476 2.78801,-6.19738 0.13518,-1.03848 0.29342,0.61681 0.86587,3.0459 -0.13518,1.03848 z M 82.333366,119.99421 c -4.446624,-1.31338 -7.438717,-9.04844 -10.529669,-7.61261 1.178205,-7.12378 13.816609,5.83262 9.757582,4.83821 -1.93939,-1.3679 -8.108554,-8.54115 -4.776322,-2.26547 0.02076,1.58013 10.998945,7.159 5.548409,5.03987 z M 92.80382,108.39797 c -2.198113,-5.23741 -5.618214,-9.107384 -6.03933,-10.52734 0.648298,-2.861227 -1.838338,-7.217585 1.578746,-2.956303 1.657311,-2.041804 -0.572611,-13.246725 1.108001,-5.216049 0.0546,6.397773 4.345819,6.532631 5.005014,0.246361 -0.09152,6.414472 -5.238081,8.672076 -0.916036,14.806041 0.210497,0.962 1.614726,6.38216 -0.736395,3.64729 z M 89.342184,96.410394 c -0.46623,-2.839996 -1.802739,1.629814 0,0 z m -2.10309,9.056876 c -0.871686,-4.72229 1.734862,-1.11334 0,0 z m 1.929848,-22.058107 c -3.264326,-0.533442 -6.969387,-0.287281 -1.274115,-1.023789 0.691191,-0.262032 4.433234,2.486001 1.274115,1.023789 z"
         id="path828"
         inkscape:connector-curvature="0" />
    </g>
  </g>
</svg>
