<?xml version="1.0" encoding="UTF-8" standalone="no"?>
<!-- Created with Inkscape (http://www.inkscape.org/) -->

<svg
   xmlns:dc="http://purl.org/dc/elements/1.1/"
   xmlns:cc="http://creativecommons.org/ns#"
   xmlns:rdf="http://www.w3.org/1999/02/22-rdf-syntax-ns#"
   xmlns:svg="http://www.w3.org/2000/svg"
   xmlns="http://www.w3.org/2000/svg"
   xmlns:sodipodi="http://sodipodi.sourceforge.net/DTD/sodipodi-0.dtd"
   xmlns:inkscape="http://www.inkscape.org/namespaces/inkscape"
   width="400"
   height="400"
   viewBox="0 0 105.83333 105.83334"
   version="1.1"
   id="svg8"
   inkscape:version="0.92.4 (5da689c313, 2019-01-14)"
   sodipodi:docname="Porky.svg">
  <defs
     id="defs2" />
  <sodipodi:namedview
     id="base"
     pagecolor="#ffffff"
     bordercolor="#666666"
     borderopacity="1.0"
     inkscape:pageopacity="0.0"
     inkscape:pageshadow="2"
     inkscape:zoom="1.4"
     inkscape:cx="107.56607"
     inkscape:cy="213.67656"
     inkscape:document-units="mm"
     inkscape:current-layer="layer1"
     showgrid="false"
     units="px"
     inkscape:window-width="1920"
     inkscape:window-height="986"
     inkscape:window-x="-11"
     inkscape:window-y="-11"
     inkscape:window-maximized="1" />
  <metadata
     id="metadata5">
    <rdf:RDF>
      <cc:Work
         rdf:about="">
        <dc:format>image/svg+xml</dc:format>
        <dc:type
           rdf:resource="http://purl.org/dc/dcmitype/StillImage" />
        <dc:title />
      </cc:Work>
    </rdf:RDF>
  </metadata>
  <g
     inkscape:label="Layer 1"
     inkscape:groupmode="layer"
     id="layer1"
     transform="translate(0,-191.16665)">
    <rect
       style="opacity:1;fill:#ffffff;fill-opacity:1;stroke:none;stroke-width:1.81947255;stroke-miterlimit:4;stroke-dasharray:none;stroke-opacity:1;paint-order:normal"
       id="rect2261"
       width="18.07888"
       height="19.412359"
       x="46.964298"
       y="216.40697" />
    <rect
       style="opacity:1;fill:#ffffff;fill-opacity:1;stroke:none;stroke-width:2;stroke-miterlimit:4;stroke-dasharray:none;stroke-opacity:1;paint-order:normal"
       id="rect2265"
       width="6.5839028"
       height="15.868356"
       x="51.1842"
       y="231.60098" />
    <g
       id="g999"
       transform="matrix(1.0229973,0,0,1.0229973,2.9863257,-5.4662723)">
      <path
         style="fill:#fce2cb;stroke-width:0.23208763"
         d="m 55.383089,293.04456 c -3.468847,0.60774 -1.398179,-4.57917 -1.63608,-4.36946 -2.04456,2.36274 -4.878576,4.53031 -8.201487,3.79753 -4.85246,-0.24986 -1.570204,-5.15569 0.50888,-6.97939 -2.565427,-2.28741 -4.420223,-5.28724 -4.763809,-8.77902 -1.385593,-3.41325 -0.749825,-8.88575 -4.425203,-10.55707 -4.129844,-3.05722 1.509961,-7.93134 3.121306,-11.06094 3.717714,-3.03906 -2.170124,-5.62408 -3.975593,-7.98733 -2.209631,-1.95451 -5.587567,-3.39497 -4.812433,-6.95119 -0.452728,-2.33036 -3.667758,-2.78119 -5.029516,-4.49399 -3.070447,-3.23328 0.01686,-7.76015 -1.73766,-11.44376 -0.506034,-1.80051 0.175737,-4.02042 -0.633889,-5.64588 -4.772956,-4.35423 -6.854735,-12.52791 -2.290488,-17.74908 2.879707,-3.80517 7.529931,-6.74309 12.426683,-6.3009 3.980377,1.94067 3.657351,7.28145 3.379899,11.03821 0.371416,4.34357 -4.171646,8.47004 -1.544617,12.45686 1.77959,3.29356 -0.939127,7.1629 0.975822,10.17467 0.739423,4.12894 2.004899,8.06417 5.801917,10.46011 1.097232,1.20922 4.912438,2.5107 2.10207,-0.009 -3.668803,-3.3192 -7.740236,-7.40591 -7.208362,-12.79733 -0.553099,-2.51896 2.484035,-4.89926 1.024663,-7.11615 -1.952891,-2.82453 0.888668,-4.33889 3.287337,-3.21516 3.718249,-3.16453 7.930348,-6.78684 13.171385,-6.47813 3.602403,0.66861 6.658578,-1.00163 9.542322,-2.52731 2.197594,2.82277 1.796555,7.66793 4.950364,10.3732 3.077432,4.99142 3.05961,11.55159 0.301589,16.66941 -0.645076,3.37367 -1.177448,7.02895 -3.99332,9.38202 -0.248954,2.07059 3.013098,4.67344 3.340373,7.28076 2.0808,4.53406 2.636458,10.38369 -0.902709,14.36628 -3.248564,1.72777 2.025482,4.34955 -2.364331,5.39241 -0.127449,1.91939 -0.664956,6.28432 1.938343,4.10522 -0.11562,3.31547 -7.162308,3.87718 -4.327791,7.92493 4.473831,2.25913 1.711948,7.61796 -1.483157,9.61016 -1.829362,1.47964 -4.30747,1.52241 -6.542508,1.42944 z m -0.146854,-6.2905 c 1.814333,-1.52162 -1.771412,-2.27324 -0.785774,0.33153 -0.638724,1.70619 0.45082,0.0884 0.785774,-0.33153 z m -2.247518,-3.8331 c -0.943329,-0.31612 0.605506,1.00448 0,0 z M 35.843286,241.36954 c 1.297331,-1.34541 2.158875,-4.1064 0.137288,-1.22128 -1.621315,0.62849 -2.129798,3.47188 -0.137288,1.22128 z m 12.328032,-4.24488 c 1.427187,-2.52502 -2.141452,-6.92632 -3.994963,-6.87351 -0.361165,1.93543 3.268991,8.61401 3.994963,6.87351 z m 8.935434,-1.82694 c -0.875579,-2.00695 -0.625058,-3.96103 0.658939,-5.10235 -0.102637,-2.07511 -2.862866,-8.75686 -3.705274,-3.65732 -0.311548,2.54295 0.156209,8.67557 3.046335,8.75967 z"
         id="path1021"
         inkscape:connector-curvature="0" />
      <path
         style="fill:#e2cbb6;stroke-width:0.23208763"
         d="m 54.338694,292.79857 c -3.017218,-1.78198 0.9423,-5.30769 1.536278,-6.9934 -2.275971,-1.85717 -1.414912,4.30242 -4.134989,4.86518 -2.110869,2.6476 -10.9703,2.7939 -8.115114,-1.94156 1.463257,-1.9521 3.32395,-3.69011 0.46995,-5.30889 -2.88215,-3.25316 -2.399956,-7.77492 -4.016615,-11.51372 -1.050198,-1.46156 -0.276384,-4.09059 -1.761683,-5.06703 -4.542241,-1.11249 -2.663478,-5.76679 -0.555593,-8.36039 1.726027,-2.90727 5.828133,-6.00521 1.308351,-8.49312 -2.003874,-3.51534 -7.93865,-4.46939 -7.704292,-8.95991 0.464561,-2.06969 -1.89704,-3.21425 -3.426815,-4.00232 -4.276214,-2.04762 -2.895748,-6.84608 -2.875891,-10.51678 -1.050768,-2.48872 -0.582188,-5.36565 -1.116705,-7.87282 -4.561352,-4.11059 -6.631897,-11.42457 -3.11938,-16.83058 2.874242,-4.49028 8.306498,-7.98757 13.73945,-7.03273 3.658956,2.83598 2.836877,8.13859 2.485023,12.19215 0.143621,3.60996 -3.465702,6.96872 -1.662817,10.40753 2.254184,3.63946 -0.799776,8.0042 1.523434,11.41099 0.437756,3.80855 1.85292,7.34368 5.16818,9.5881 1.058302,1.50138 5.435153,2.78903 2.532531,0.0941 -4.157068,-3.37115 -8.283257,-8.40408 -6.952126,-14.13442 1.748202,-2.94769 0.483663,-5.77697 0.532352,-8.68306 3.002084,0.17115 5.422273,-0.98734 7.559847,-3.35551 3.689416,-2.96426 8.562143,-3.59187 13.139743,-3.26448 2.565223,0.17892 6.618035,-5.26922 6.749013,0.0954 0.362644,4.61252 4.416716,7.51298 5.523963,11.87071 0.868938,4.11419 0.767377,8.71589 -1.580549,12.35539 -0.494018,3.15787 -0.787875,6.7273 -3.42826,9.00021 -2.114487,1.35314 1.463246,3.21793 1.569519,5.02563 2.570787,4.85126 4.491569,11.07949 1.252896,16.10441 -1.147383,1.73276 -3.843012,3.00031 -1.028023,4.54813 -0.951267,1.54382 -3.447638,1.78654 -2.312312,4.2072 -0.09819,1.83133 0.205803,3.23692 2.042891,1.90516 -0.304181,3.10176 -6.500703,3.81662 -4.725708,7.56206 2.491358,1.56371 3.920197,4.49978 1.632244,7.01766 -1.961842,3.6008 -6.087813,4.71886 -9.912154,4.13025 l -0.336618,-0.0496 z m 7.385974,-2.6937 c 2.70299,-1.52588 4.287088,-6.55871 0.131568,-7.02538 -1.751383,-3.64217 1.786492,-6.31695 2.278347,-9.72477 0.166506,-1.59697 0.832274,-3.75627 -1.547321,-3.04785 -4.159997,0.0145 -9.608076,-0.86175 -11.226786,-5.26628 -1.051006,-4.80921 -0.04597,-9.88627 1.84368,-14.31075 -2.922768,-1.22755 -5.166706,2.38106 -7.380521,3.41289 -2.131954,2.60947 -2.109659,6.87641 -5.089856,8.61451 -1.334472,1.4187 -0.208518,4.61774 -0.168713,6.59241 0.133147,3.08166 3.752472,6.09094 3.830667,8.26181 -3.824519,-3.34988 -0.6543,3.3706 0.432264,4.80182 0.734642,2.19077 8.350965,3.28083 2.662372,3.74917 -2.322785,0.93145 -4.286279,5.00248 0.0065,4.30508 3.458318,1.06864 8.392541,-5.01334 3.921503,-6.22905 0.314811,-2.47255 0.337698,-4.01075 -2.545569,-4.25422 -1.721438,-2.35953 3.176916,0.59346 3.283304,-1.69956 1.145554,3.89399 3.894436,6.69627 7.643954,7.66223 -2.547882,-0.37707 -7.013524,4.2756 -2.398904,4.85018 1.434475,-0.043 3.08907,0.21896 4.323553,-0.69224 z m -8.58864,-7.01758 c -0.897915,-1.52477 -0.662366,0.46697 0.169874,0.58022 z m 0.97293,-37.42465 c 0.913246,-3.24608 -2.911861,-2.91408 -4.741602,-2.39883 0.670605,-4.39893 -4.921846,-5.80503 -5.662964,-9.91648 -1.114493,-2.01776 -1.226634,-7.24048 2.144252,-3.93987 2.916195,1.49675 3.184896,7.03163 5.799593,7.4493 2.497486,-1.52098 3.570615,3.52886 4.40931,3.64889 0.718311,-2.52932 4.50179,-2.31992 6.404215,-2.20344 -2.115132,1.75929 -3.410411,5.9339 -5.405713,6.7914 2.749853,-0.63648 4.82669,-3.39231 7.719823,-3.03519 2.678402,-2.24422 3.310845,-5.73816 3.379828,-9.05072 3.762383,-4.92652 2.827076,-12.44639 -1.02034,-17.07283 -2.373735,1.73572 -0.96688,-4.49455 -2.681505,-5.70646 0.327043,-3.45735 -1.178172,-1.94404 -2.792603,-0.59685 -1.632439,0.29312 -5.243737,5.67817 -3.409974,1.19237 -1.372431,-1.86226 -7.196665,-0.16069 -9.578217,1.09344 -5.803692,3.28554 -11.041581,9.90038 -9.698373,16.92717 0.928608,4.7601 5.548655,7.22612 8.323623,10.80037 -1.089099,2.34639 -1.329563,6.49009 2.662058,6.3887 1.353554,0.15212 2.939492,0.41581 4.148589,-0.37097 z m 1.776988,-8.1032 c -1.646776,-3.5579 -4.080291,-7.50138 -2.819214,-11.71934 0.169326,-3.87125 3.447947,-3.40591 4.361822,-0.13689 1.933321,1.87516 0.66808,6.90015 2.480944,7.68238 2.675715,-0.31005 -3.703216,4.4217 -4.023552,4.17385 z m 1.237907,-2.05024 c 0.279238,-1.46936 -1.956545,-4.32178 0.659976,-4.69602 0.367417,-2.35185 -3.092137,-9.75714 -3.781376,-4.05316 -0.338513,2.61529 0.346379,8.67979 3.1214,8.74918 z M 40.413698,225.41401 c -1.096176,-2.7335 3.512221,-2.65324 0.886232,-0.31665 0.09783,0.58572 -0.655456,1.04491 -0.886232,0.31665 z m 13.174121,-7.31796 c -1.113974,-2.1848 -3.411615,2.15284 -2.48097,-1.27534 1.222939,-3.23516 6.024258,3.76401 2.48097,1.27534 z m -0.93176,-2.68089 c -1.353619,-2.73648 3.111905,0.866 0,0 z m 10.60952,-1.08382 c 0.117333,-2.96658 -1.894192,2.60307 -1.648126,-0.97752 0.244817,-2.5885 2.959238,-3.76287 2.561839,-0.32486 0.3849,0.61128 -0.460143,3.57269 -0.913713,1.30238 z m -27.332259,27.0382 c 1.285534,-1.51465 2.382137,-4.72885 0.205967,-1.48893 -1.508229,0.73731 -3.10805,3.96567 -0.205967,1.48893 z m 14.539973,-0.30011 c -0.525922,-1.03638 0.119818,1.23566 0,0 z m 2.102426,0.21854 c 0.273004,-1.45288 -0.08077,-4.8645 -1.797734,-2.00655 1.584911,0.0669 0.446014,2.69689 1.797734,2.00655 z M 33.450806,240.7313 c -0.555841,-0.9272 -0.370116,0.86312 0,0 z m 21.074224,-0.75722 c -1.539419,-4.12321 -0.708589,2.68113 0,0 z m -19.056208,-0.81405 c 2.683928,-3.12482 1.044116,-7.91154 -0.157642,-11.37141 -2.950618,-3.361 -6.833577,3.71055 -4.66914,5.87867 0.767583,-0.95642 3.017658,-5.42809 3.750421,-3.80915 -2.575192,1.81346 -0.869185,5.33301 -0.87829,6.89757 -1.205948,-2.73807 -4.708269,2.01388 -1.074229,1.81234 1.430495,-0.0972 1.716737,2.80973 3.02888,0.59198 z m 12.817493,-1.86221 c 1.342735,-2.48592 -2.170993,-7.46312 -4.152973,-6.99144 0.150731,3.10065 1.909452,5.92977 4.325129,7.79527 z m -17.837391,-1.21643 c 1.599112,-1.8662 -3.72398,-0.3724 -3.587269,-1.17773 0.837199,1.07306 2.251562,1.81803 3.587269,1.17773 z m -1.506947,-2.83491 c -0.122651,-1.68596 -4.168395,-6.48744 -2.645041,-2.03442 -0.10169,0.96925 3.128641,5.15285 2.645041,2.03442 z m 11.34113,-15.38658 c 0.487707,-2.29374 -2.796971,-1.32063 -0.470623,0.59099 z"
         id="path1019"
         inkscape:connector-curvature="0" />
      <path
         style="fill:#cab5a3;stroke-width:0.23208763"
         d="m 54.435528,292.71613 c -3.313452,-1.88221 1.726133,-5.51525 1.347999,-7.15698 -2.306039,-1.99105 -0.946568,3.47713 -3.351262,4.28767 -1.727711,3.00109 -10.407279,4.23523 -8.996078,-0.56948 1.77143,-2.41833 3.841892,-4.30247 0.462438,-6.33546 -2.757547,-3.35734 -2.133186,-7.97363 -3.969276,-11.71382 0.08308,-3.44422 -2.155916,-4.80625 -4.461547,-6.65992 0.160086,-4.45915 4.051645,-7.99069 6.338156,-11.64582 -2.736468,-3.60905 -6.254057,-6.56839 -9.809826,-9.28596 -0.287114,-3.54365 -1.783184,-6.24233 -5.234015,-7.68307 -3.518462,-2.92103 -0.499346,-7.59545 -2.074823,-11.22909 0.298301,-4.57735 -1.809519,-7.80385 -4.37969,-11.32481 -1.966766,-4.27833 -1.507602,-9.76672 1.91776,-13.20249 2.947298,-3.45346 8.098924,-6.82903 12.67626,-4.9807 3.239733,3.28201 2.537519,8.54086 1.906652,12.6988 0.03449,2.80234 -2.548826,5.5114 -2.152846,8.07934 1.861513,3.17678 1.855541,7.03428 0.997109,10.51191 2.175617,3.45508 1.250653,8.09827 4.968817,10.65022 0.861926,1.59059 7.228638,5.1701 4.004423,1.27157 -3.276738,-3.28274 -7.433349,-6.83541 -6.991885,-11.97017 -0.818333,-2.67511 2.401048,-5.26254 1.105594,-7.54972 -2.081014,-2.3071 0.376927,-4.90013 2.85917,-3.01026 3.351251,-2.88182 6.843503,-6.06612 11.449236,-6.62362 4.045212,-0.28482 8.021656,0.26333 11.252479,-2.62835 2.178425,2.42883 1.509199,7.24847 4.560924,9.66924 3.475728,5.0618 3.696027,12.11799 0.516581,17.36822 -0.158201,3.202 -1.044824,6.50083 -3.441531,8.79829 -0.722207,3.0474 3.562524,6.64698 3.897201,10.3367 1.545286,4.497 0.733315,9.90132 -3.059859,13.0508 -0.84819,1.29064 2.997163,2.77611 -0.390154,3.53561 -1.973271,0.75552 -0.265733,3.98384 -0.481937,5.62475 3.62149,-2.21692 0.03655,2.71372 -1.914323,2.42019 -4.310081,3.78207 3.405848,5.91843 1.300282,9.79829 -1.591348,3.76708 -5.5979,6.30102 -9.719533,5.60263 l -0.686217,-0.0542 -0.446279,-0.0803 z m 6.81517,-2.22027 c 3.304775,-1.34356 4.970177,-6.73362 0.740739,-7.76024 -1.596257,-4.09019 2.872188,-7.09652 2.501741,-11.18954 0.853071,-2.03983 -1.468519,-1.17135 -2.666457,-1.35011 -3.945181,-0.14757 -9.095899,-1.2263 -10.407608,-5.49925 -0.684593,-4.77125 0.0089,-9.66642 1.959871,-14.06548 -3.07945,-1.62632 -5.032163,2.35691 -7.480656,3.04817 -1.93764,3.49289 -3.424043,7.47651 -5.785097,10.27607 -0.563951,4.52389 1.046143,8.99798 3.870544,12.50161 1.365921,2.7266 -2.790687,-2.27796 -1.486939,0.82149 0.04419,4.11812 4.303021,7.23319 6.549216,8.52473 -3.324482,-0.63368 -6.631569,5.66099 -1.38041,4.82996 3.231541,0.77807 8.52383,-4.8765 4.081053,-6.407 -0.07564,-2.15853 0.539003,-4.31707 -2.445088,-4.27522 -1.822605,-1.70548 2.789668,0.56591 2.766682,-1.18055 1.204392,3.58469 4.041704,6.29933 7.345513,7.25154 -3.978903,-0.73116 -6.250736,6.0261 -0.769592,5.07596 0.896035,-0.0284 1.796803,-0.20481 2.606488,-0.60214 z m -7.654394,-6.77032 c -1.278059,-3.3616 -1.532602,0.2786 0,0 z m 0.573632,-37.88831 c 3.219344,-0.0908 5.651065,-1.65472 8.132129,-3.42798 2.131733,0.77741 3.405575,-0.81032 4.43407,-2.49892 2.028557,-2.97005 0.88781,-6.82044 3.178684,-9.64833 1.614593,-4.86956 0.658468,-10.70663 -2.762085,-14.57411 -2.182859,1.57044 -0.924299,-4.51445 -2.541353,-5.66512 0.424706,-4.81916 -3.998877,0.30265 -5.623846,1.4724 -2.604503,2.43014 1.255168,-2.79811 -2.28218,-1.50916 -8.223334,-0.48532 -15.667398,6.08034 -17.803111,13.74141 -1.268423,4.56567 0.959831,9.29782 4.522737,12.16841 2.593006,2.02054 4.74022,4.27122 2.845656,7.47752 0.496867,3.31945 5.485282,3.31143 7.899299,2.46388 z m 0.690955,-0.8791 c -0.849807,-2.22689 -3.091461,-2.79294 -5.055484,-1.84228 0.238725,-3.62658 -3.648497,-5.05509 -5.097309,-8.02958 -1.391514,-1.62059 -2.81951,-8.89142 0.941469,-5.53848 3.453902,1.30516 3.093259,8.47398 6.774406,7.38314 1.782566,-0.10001 3.286063,3.23237 3.241126,4.0874 0.920076,-2.43516 4.999402,-2.92847 6.457394,-2.44618 -2.712382,1.76061 -2.752493,7.12306 -7.261602,6.38598 z m -4.168164,-4.19674 c 0.349491,-3.00658 1.092221,2.82134 3.037312,0.26047 3.200714,-2.11249 -4.487361,-4.94988 -3.574058,-0.43816 -0.259783,0.86299 0.900263,1.77589 0.536746,0.17769 z m 1.930141,-0.3972 c -0.791914,-3.84619 2.407397,1.30861 0,0 z m -3.978314,-2.35992 c 0.656492,-3.2024 -1.293319,-6.14786 -3.933833,-8.28197 -1.940638,2.03089 1.437456,6.92531 3.787452,8.60948 l 0.217824,0.0228 -0.07136,-0.35035 z m 7.318754,-1.1004 c -2.55303,-3.5728 -4.042667,-8.40543 -2.173777,-12.63616 2.295152,-3.47707 4.519032,3.65566 4.92973,5.92722 0.500758,1.62459 -0.480508,4.15522 1.594463,3.61437 -1.199059,0.78088 -3.162951,3.70425 -4.350416,3.09457 z m 1.360191,-1.44456 c -0.954043,-2.1897 -0.866033,-4.10268 0.559334,-5.28799 0.06106,-3.0609 -3.826424,-9.15838 -4.081945,-2.90804 -0.171157,2.44022 0.599,8.69022 3.522611,8.19603 z m -16.79402,-10.50996 c 0.427748,-4.34652 2.370585,0.77432 0,0 z m 13.1167,-7.07469 c -1.074541,-1.63227 -3.872534,1.08065 -1.773338,-1.60735 0.908693,-0.99708 4.239842,3.5303 1.773338,1.60735 z m -0.930158,-2.66688 c -0.54093,-1.6715 2.098443,0.8847 0,0 z m 10.684828,-1.59086 c -0.142172,-2.76636 -2.029633,2.78664 -1.476586,-0.5966 0.6704,-3.89404 3.237339,-0.19333 1.725736,1.27535 z m -27.623571,28.11695 c 1.264377,-1.03979 3.138525,-6.43281 0.748033,-2.54997 -0.991161,0.62665 -4.306836,4.8427 -0.748033,2.54997 z m -2.147572,-1.04608 c -0.773338,-1.17185 -0.636864,0.99104 0,0 z m 2.126422,-1.64957 c 2.482724,-2.81491 0.99202,-6.89232 0.2861,-10.18662 -1.930463,-5.86365 -8.477909,1.84431 -5.501636,4.80103 1.060954,-1.12702 4.532703,-5.99412 2.434929,-1.88115 -1.069655,1.83882 1.096421,5.15309 -0.915054,3.31557 -0.522824,1.64114 -3.109367,2.96783 0.126768,3.55543 1.652254,0.1384 2.1573,3.09934 3.568893,0.39574 z m -5.142015,-2.84578 c 1.524472,-2.75039 -4.105092,0.38158 -4.689437,-2.95027 0.214833,1.77902 2.766069,4.15329 4.689437,2.95027 z m -1.464172,-2.94596 c -0.232123,-1.32162 -2.530276,-4.68561 -3.320092,-4.19041 -0.896736,1.4422 3.153093,8.2386 3.320092,4.19041 z m 11.247692,-15.23757 c 1.547817,-2.31405 -3.23562,-2.003 -0.871672,0.50544 0.332483,0.45013 0.726414,-0.40172 0.871672,-0.50544 z"
         id="path1017"
         inkscape:connector-curvature="0" />
      <path
         style="fill:#a79f98;stroke-width:0.23208763"
         d="m 54.862321,292.73993 c -4.933468,-1.87913 4.325253,-6.83218 -0.525182,-8.38488 -0.918484,-2.17667 -2.908578,-2.47864 -0.9117,-0.2615 2.701449,2.80387 -1.403193,6.77742 -4.130682,7.82238 -2.796473,1.43139 -8.560445,-0.23304 -5.052361,-3.84139 4.463867,-3.27848 -2.562801,-5.71941 -2.423157,-9.80846 -0.140419,-3.53291 -1.930878,-6.56375 -2.505975,-10.00951 0.06408,-2.32168 -3.616457,-1.87728 -4.005757,-4.20163 1.079642,-4.28091 4.306533,-7.55923 6.498454,-11.27675 -2.877535,-3.55183 -6.415786,-6.57921 -10.025399,-9.345 -0.82266,-1.61788 0.465988,-3.94707 -1.312873,-5.05461 -2.649405,-1.78521 -6.567185,-4.01414 -5.274774,-7.95323 0.615616,-3.481 -1.011219,-6.79804 -0.802698,-10.29089 0.252931,-2.36989 -2.739064,-3.34388 -3.363292,-5.49156 -2.892509,-4.57252 -2.403471,-10.94861 1.541822,-14.74741 2.751681,-3.19782 6.901801,-5.40111 11.163749,-5.21843 4.30865,2.04113 3.50479,7.7659 3.241019,11.70056 0.08622,4.20474 -4.152244,8.14829 -1.350682,12.08296 1.015672,2.63226 0.50687,5.46996 -0.105066,8.12809 1.682383,2.41849 1.362542,5.60077 2.748855,8.00638 1.74065,1.85677 5.599441,7.04491 7.646005,5.21274 -2.179006,-3.08132 -5.940317,-5.02793 -7.302047,-8.777 -2.270861,-3.77468 0.03404,-7.96432 0.429825,-11.6769 -2.258971,-2.61083 -0.02871,-5.0101 2.784741,-3.57255 3.029945,-2.41469 5.957267,-5.34549 9.924814,-6.18003 3.651729,-1.20948 8.266058,0.99273 11.143804,-2.31882 3.922005,-1.80084 2.17418,5.51412 4.584414,7.38014 4.39731,4.85756 5.384888,12.56309 2.159323,18.29592 -0.877895,3.35346 -0.942184,7.24341 -3.976372,9.57395 -1.529908,1.6977 2.489922,3.82148 2.461541,6.00111 2.132588,4.61315 3.75837,10.34818 0.632963,14.92327 -0.932902,1.72444 -3.972553,2.81843 -1.200674,4.34078 -0.486136,1.58469 -3.256145,2.69953 -2.03175,5.3164 -0.319157,2.1137 0.743723,2.00019 2.044473,1.41662 -1.393441,2.62441 -5.524231,2.90053 -5.099307,6.73565 1.033893,1.65147 4.131655,2.80616 2.99358,5.25499 -1.442686,4.40589 -6.000415,7.19166 -10.599634,6.21861 z m 6.439002,-2.12204 c 3.349853,-1.59088 5.129103,-6.81844 0.699776,-8.16703 -1.372948,-4.03138 3.172202,-6.95632 2.528838,-11.06172 0.763983,-2.23327 -2.18941,-0.97766 -3.438299,-1.36318 -4.060698,-0.0994 -9.653063,-1.81689 -9.757809,-6.72615 -0.459432,-4.36436 0.527688,-8.7854 2.167206,-12.77408 -3.097363,-1.91342 -5.107497,2.58201 -7.603392,2.9226 -2.085746,2.71016 -2.387628,6.72327 -4.946003,8.90959 -1.945063,0.41919 -0.577229,3.02836 -0.956943,4.426 -0.377804,3.72201 2.755204,7.41531 3.615724,10.08581 -2.93921,-3.2748 -0.381866,4.05672 0.578249,5.05502 0.644859,2.0898 4.191826,2.91488 4.725177,3.77224 -3.225108,-0.51285 -6.766555,5.7427 -1.402126,5.11351 4.249385,0.61359 8.160516,-5.01058 4.196058,-7.39328 0.602864,-2.34832 -0.391764,-3.26012 -2.618967,-3.73593 2.353874,0.51104 3.262305,-1.90474 3.989373,1.136 0.536242,3.00824 4.256144,4.34058 5.895753,5.17999 -3.876435,-0.50309 -5.854807,6.04811 -0.607585,5.19276 0.999162,-8.1e-4 2.027092,-0.12938 2.93497,-0.57215 z m 3.713403,-14.37718 c -0.346492,-0.73345 -0.523785,0.79711 0,0 z M 54.32074,245.96952 c 3.716023,0.3026 5.812651,-3.11816 9.129453,-3.46924 4.60514,-0.55082 4.380936,-6.58301 5.406013,-9.94644 3.2866,-5.16372 2.228286,-12.51551 -1.687782,-17.02734 -2.008706,0.42929 -1.398671,-4.63109 -2.598199,-6.29752 0.297112,-3.83223 -3.486219,1.02141 -4.914412,1.44698 -1.310744,1.50561 -1.678382,1.3771 -1.002672,-0.51929 -5.27555,-0.89639 -10.892025,0.8178 -14.524518,4.81291 -4.358966,4.09485 -7.581841,10.92587 -4.43508,16.65042 1.751151,3.3313 5.659922,5.47348 7.343262,8.52019 -3.040073,4.43012 2.519984,7.49379 6.463899,6.15019 z m 0.296459,-1.33914 c -0.565966,-3.99994 -5.437662,0.32217 -5.152345,-3.80966 -2.189195,-3.28732 -6.373471,-6.10831 -6.034279,-10.7899 0.916096,-3.57726 5.151356,3.03114 5.931923,4.74782 0.414756,2.49036 1.787909,2.8426 3.815758,2.5198 1.06816,1.24271 3.014406,2.67978 1.64218,4.12826 1.64631,-1.83881 4.905324,-3.34749 6.891918,-2.90339 -2.218712,2.12171 -2.798931,7.49849 -7.095155,6.10707 z m 2.883685,-1.29325 c 2.035559,-1.93151 1.039741,-1.88786 -0.567886,-0.63113 -0.565271,0.67396 -0.172166,1.51984 0.567886,0.63113 z m -3.732299,-2.08496 c 3.65237,-2.9607 -5.381264,-5.26896 -3.759086,0.0134 0.699065,0.93072 2.778566,0.19551 3.759086,-0.0134 z M 50.85738,240.4708 c 0.687872,-2.01897 0.741022,2.31594 0,0 z m 1.949294,-0.56261 c -0.07923,-2.34524 1.141781,1.91911 3e-6,0 z m -3.805996,-1.39324 c -0.235404,-3.00298 -0.619641,-6.06325 -3.560199,-8.3143 -3.194632,-1.77417 -0.489813,4.82349 0.666941,5.84109 0.764787,0.74098 1.841151,2.55727 2.893258,2.47321 z m 6.334877,-2.97247 c -2.28697,-3.44087 -3.059997,-8.23001 -1.029357,-11.94048 3.394927,-0.20043 4.0697,5.86936 4.552451,8.77886 0.594994,1.83117 1.443854,1.85528 -0.755773,3.22055 -1.120537,1.49699 -1.826629,1.79141 -2.767321,-0.0589 z m 1.910921,0.0755 c 0.267152,-1.66255 -1.509923,-4.28713 0.799528,-4.89255 0.228617,-2.1795 -2.934217,-9.73927 -4.174891,-4.61016 -0.49541,3.42337 0.02693,7.5979 2.785641,9.93984 l 0.255619,-0.10479 0.334105,-0.33238 z M 40.695947,224.37111 c 2.120666,-3.1495 -0.506792,2.40309 0,0 z m 12.612016,-6.97199 c -1.397379,-0.23188 -3.072818,-0.0782 -0.722069,-1.00487 0.658301,-0.15141 2.226959,2.09064 0.722069,1.00487 z m -0.477839,-2.42954 c -0.01948,-0.88921 1.061402,0.93654 0,0 z m 9.270231,-1.84457 c 0.357495,-4.08759 2.531715,0.55256 1.433942,0.15701 -0.295655,-2.60384 -1.648451,1.89449 -1.433942,-0.15701 z m -25.882588,28.15616 c 1.179699,-0.97121 2.759955,-6.51797 0.636886,-2.72451 -0.8671,0.88873 -4.515203,4.46391 -1.280342,3.55325 l 0.294409,-0.35681 z m -2.767915,-0.89915 c -1.404301,-0.6147 0.516028,1.70474 0,0 z m 2.020272,-0.75313 c 3.008131,-2.83916 1.514496,-7.20388 0.78722,-10.7066 -1.270478,-4.84969 -6.50551,-1.20698 -6.412785,2.24262 -0.860122,3.31079 1.835314,3.25363 2.608523,0.33296 1.838365,-3.16295 -0.42178,2.68393 -0.169946,2.793 -0.509965,-0.95186 -0.998007,2.95048 -2.031062,3.37154 1.627496,0.60501 3.935726,3.87936 5.21805,1.96648 z m -4.532534,-3.45927 c 1.288203,-3.09124 -4.375078,0.44195 -4.860778,-3.1897 -1.45151,-0.24535 1.91213,5.13169 4.295636,3.44992 l 0.565145,-0.26024 z M 29.336011,234.404 c 0.517431,-2.21897 -2.63399,-5.59687 -3.731163,-5.60865 -0.07305,2.03669 1.193761,6.43563 3.731163,5.60865 z m 11.162626,-16.41231 c 2.0453,-2.0315 -3.592196,-2.40814 -1.182881,0.26744 0.378176,1.13495 0.808235,0.38736 1.182881,-0.26744 z"
         id="path1015"
         inkscape:connector-curvature="0" />
      <path
         style="fill:#998679;stroke-width:0.23208763"
         d="m 54.291297,292.46734 c -2.118016,-1.99783 0.910012,-4.75794 2.107676,-6.6995 -1.675998,-0.65591 -5.114433,-5.97209 -3.442933,-1.99769 3.304166,2.8014 -0.870077,6.85145 -3.651323,8.09855 -3.340289,1.43538 -8.379186,-0.68721 -4.568782,-4.32399 3.998972,-2.99672 -3.301876,-5.4783 -2.812859,-9.45988 -0.360641,-3.86076 -2.259478,-7.31774 -2.735295,-11.15666 -3.14739,-0.72557 -4.704058,-3.9154 -2.250737,-6.52256 1.259774,-3.58089 7.830791,-7.45134 2.442538,-10.51529 -2.099086,-3.10282 -6.805604,-4.37578 -7.714711,-7.9682 -1.038533,-1.58279 0.989049,-4.61272 1.338215,-2.03387 -0.347104,1.05508 1.861676,4.26651 2.791896,2.03128 2.663254,-2.50254 2.31965,-5.2191 1.543292,-7.91361 2.450987,1.80241 5.688325,7.42738 8.645265,6.0889 -1.94111,-3.44285 -6.022751,-5.40483 -7.378835,-9.31682 -1.193213,-1.78245 -0.383499,-4.03847 -0.605753,-6.04129 -0.507759,-2.02224 2.092107,-3.82999 1.082446,-5.61353 -2.120364,-2.49422 -0.01132,-4.57711 2.690095,-3.26724 3.236304,-2.39963 6.260303,-5.53763 10.443928,-6.248 3.690417,-0.8512 8.224186,0.7931 11.084835,-2.40897 3.135636,-0.90927 1.740908,5.05661 3.641038,6.79128 4.391617,4.93255 6.091876,12.59121 2.735972,18.53335 -1.130739,2.97381 -0.685622,6.60706 -3.18633,9.0374 -3.3179,2.72257 2.422166,6.06315 2.558789,9.48526 1.968978,4.65218 2.003501,10.82244 -2.111497,14.36049 -2.012904,1.44349 2.884034,3.22511 -0.918392,3.98764 -1.631086,0.50978 -0.322394,2.90245 -0.659055,4.22533 -1.173755,3.43397 3.509736,-0.33014 1.104551,2.36568 -1.240506,1.38121 -1.175288,-0.97419 -2.314823,1.04979 -1.316927,1.19208 -2.720142,4.2507 -0.768831,5.43946 3.324829,1.76597 1.909393,5.76916 -0.417336,7.75644 -2.185102,2.58231 -5.574712,2.69691 -8.673044,2.23625 z m 7.316331,-1.91646 c 3.468072,-1.72519 4.587942,-6.85461 0.366232,-8.3448 -0.96621,-3.93217 3.241626,-6.73357 2.641377,-10.73041 0.732647,-1.98354 -1.399653,-1.33491 -2.632051,-1.51306 -3.76825,-0.0918 -8.661125,-0.88576 -10.214913,-4.85404 -0.674798,-4.66024 -0.473627,-9.66216 1.703729,-13.93428 -1.181083,-3.44313 -4.607084,0.92008 -6.497396,1.5233 -2.673244,1.51801 -3.305555,5.67032 -4.825738,8.39064 -1.490977,1.21304 -2.75263,2.00629 -2.199604,4.16341 -0.298671,3.8734 1.030785,7.64079 3.371941,10.6968 1.143486,1.95682 -2.248103,-2.05589 -1.125827,0.82987 0.27921,3.9314 3.347577,7.59294 6.354103,8.92692 -3.308569,-0.33915 -6.142417,5.74735 -1.087507,5.1492 3.74943,0.82443 8.857478,-4.92707 4.289436,-7.21768 0.380333,-2.12749 0.234255,-3.6098 -2.170509,-3.91883 3.901067,-1.38539 3.542488,3.60439 6.446353,5.11164 1.869984,0.65128 3.645909,1.00697 0.804995,1.60521 -4.275587,2.39871 -0.211545,6.10641 3.21569,4.6899 l 0.828061,-0.23431 0.731632,-0.33948 z M 54.507004,246.0113 c 3.312698,0.15515 5.549483,-2.23705 8.252653,-3.3829 2.042099,0.86054 3.081142,-1.32569 4.157884,-2.66922 2.002925,-3.03366 1.030835,-6.8583 3.243073,-9.73586 1.470915,-5.00707 0.62114,-10.99348 -3.059488,-14.83213 -1.817331,0.16551 -1.113345,-4.44574 -2.424262,-5.9334 0.316118,-4.64859 -4.221626,1.13695 -6.049805,1.79554 -0.310047,-2.88098 -5.875042,-1.13115 -8.147703,-0.52365 -6.637094,2.5624 -12.140138,9.15698 -12.129129,16.45601 0.09542,5.4334 4.964671,8.56906 8.255538,12.16196 -0.663119,2.89299 -0.819922,7.33222 3.655523,7.06133 1.389282,0.0802 2.972764,0.29363 4.245716,-0.39768 z m 0.1964,-1.46713 c 0.09703,-2.96994 -4.417386,-1.29943 -4.218847,-2.55596 2.940888,-0.0546 5.755335,-0.61693 7.552371,-2.87741 1.572054,0.0273 4.581462,-1.39996 2.335862,0.75922 -0.614126,2.29667 -2.928542,5.90625 -5.669386,4.67415 z m 2.79748,-1.20704 c 2.035559,-1.93151 1.039741,-1.88786 -0.567886,-0.63113 -0.565271,0.67396 -0.172166,1.51984 0.567886,0.63113 z m -6.393094,-2.74121 c 0.214419,-0.86863 0.09921,1.00838 0,0 z m -3.433557,-2.36873 c -1.205068,-0.92725 -3.726812,-4.39617 -1.277409,-1.49699 1.251926,1.69006 4.100238,3.58204 2.10888,0.14854 0.315533,-2.97622 2.469932,0.16664 2.128294,1.50357 -0.461935,1.81317 -1.212574,2.08087 -2.314639,0.4674 -0.215042,-0.20751 -0.430084,-0.41501 -0.645126,-0.62252 z m 4.633694,-0.43464 c -0.917816,-1.49153 2.304738,0.43294 0,0 z m 3.555917,-1.76326 c -0.913403,-0.47189 3.562819,0.31061 1.295463,-2.10687 -2.175692,-2.61756 2.249786,-3.82437 1.655007,-0.69014 1.574447,0.75853 -2.291923,5.01792 -2.926373,2.83512 z m -8.749472,-4.29138 c -0.658461,-1.03432 1.319956,1.32718 0,0 z m -1.129167,-1.33279 c -1.141845,-0.71162 -3.759408,-1.72381 -1.055049,-1.0925 0.793609,0.31955 2.902594,2.96775 1.055049,1.0925 z m 9.55059,-6.32275 c -2.616306,0.34857 0.01558,-2.14674 0.589959,0.3461 z m -14.658184,-0.0614 c 0.555843,-0.9272 0.370115,0.86312 0,0 z M 52.88153,217.0268 c -3.594759,-0.41921 1.627159,-0.58084 0,0 z m 9.459295,-4.26206 c 0.574388,-2.76272 2.350294,-0.0421 0,0 z m -21.652927,5.17282 c 1.836951,-2.10625 -3.805262,-2.58402 -1.545033,0.29277 0.292642,1.13694 1.322911,0.42041 1.545033,-0.29277 z m -6.772916,22.90979 c 1.158513,-1.33386 0.619458,1.00418 0,0 z m -4.411787,-3.71596 c -0.100332,-1.25074 1.484213,0.74207 0,0 z m 0.0021,-3.04121 c 0.634679,-1.64519 0.693015,1.63764 0,0 z m 1.392526,0.36732 c -0.713515,-1.23009 1.519653,0.0354 0,0 z m 0.696263,-1.22469 c 0.375249,-2.34854 1.337544,0.45178 0.102264,0.21455 z M 27.91796,230.6384 c -3.387077,-3.05784 -3.338555,-7.85432 -3.583012,-12.07146 -4.687608,-4.11979 -6.973208,-11.76302 -2.949454,-17.0856 2.871999,-3.92038 7.688047,-7.22058 12.728171,-6.56126 4.051498,2.6188 2.847809,8.20377 2.623477,12.27076 0.0061,3.00783 -2.26078,5.86846 -2.424583,8.58394 1.978531,3.26984 2.139302,7.39857 0.911965,10.9595 -4.07989,-2.38489 -4.793659,4.72175 -6.402815,4.80421 l -0.4032,-0.3801 z m -2.707569,1.03941 c -0.281526,-2.32832 1.442102,0.54969 1.2e-5,0 z"
         id="path1013"
         inkscape:connector-curvature="0" />
      <path
         style="fill:#b44e4b;stroke-width:0.23208763"
         d="m 54.572639,292.52634 c -3.753707,-2.6652 5.048483,-6.56271 -0.144623,-8.44056 -0.720999,-1.88664 -3.138273,-3.35494 -1.705047,-0.33215 3.671661,2.93951 -1.356713,7.86934 -4.703587,8.37684 -2.967859,0.91917 -6.725821,-1.3146 -3.445726,-4.16617 4.387386,-3.36066 -2.845869,-5.63408 -2.489215,-9.82611 -0.681746,-3.84615 -1.874939,-7.73495 -3.110318,-11.33523 -5.419619,-1.239 -2.47989,-6.44855 -0.177151,-9.30005 2.756111,-2.76254 4.123119,-5.86119 0.102022,-8.13543 -2.054347,-2.97849 -6.720745,-4.16215 -7.268618,-7.88828 -0.790003,-2.78488 1.683789,-3.20311 1.502142,-0.19286 2.54033,4.15545 6.850052,-4.26061 4.094766,-6.40526 2.351251,-0.0806 4.801203,5.83163 8.6006,5.7815 0.358582,-3.00674 -4.735088,-5.06353 -6.093159,-7.95025 -2.549648,-3.73755 -2.142362,-8.59221 -0.315399,-12.53515 -1.774261,-2.96318 -1.104751,-5.46332 2.696726,-4.24899 3.559166,-3.30515 7.734121,-6.61848 12.886201,-6.48455 3.256404,0.35562 6.559699,-0.0104 8.930173,-2.48852 2.370095,0.59626 1.146325,5.92852 3.281769,7.69516 4.37828,4.9011 5.379845,12.46797 2.243191,18.27161 -0.970548,3.39856 -1.139213,7.31358 -4.139274,9.725 -1.122728,1.65278 2.421454,3.7071 2.54928,5.79098 2.584457,5.02362 3.998765,11.97725 -0.461908,16.41343 -1.792199,2.09919 0.887103,3.86097 -2.136255,5.30915 -0.252264,2.78716 0.66258,5.52124 -1.792108,7.40957 -4.198112,4.0101 4.40599,6.30493 1.158921,10.26567 -1.883245,3.91436 -5.9466,5.45646 -10.063403,4.69065 z m 7.327726,-2.02086 c 3.293543,-1.90889 4.677047,-6.75288 0.353955,-8.34502 -1.425185,-3.78866 3.276626,-6.58315 2.391251,-10.51006 0.631337,-1.99072 -0.926389,-1.86997 -2.440851,-1.79095 -4.069153,0.021 -9.777725,-1.13013 -10.59555,-5.8957 -0.505103,-4.43119 0.158048,-8.95801 2.024161,-13.01472 -1.29347,-3.24894 -4.774785,0.7502 -6.613932,1.61163 -2.687501,1.2135 -3.31607,5.78585 -5.020938,8.36875 -3.314981,1.99619 -2.343736,6.3245 -1.653879,9.67558 0.244911,2.45008 3.442246,4.51916 1.619488,5.6547 0.436898,3.71958 2.348146,7.63287 5.965166,9.156 -1.845988,0.55943 -5.734032,4.42466 -2.143318,5.28429 3.751539,2.21047 11.177971,-3.93867 6.347814,-6.69132 -0.465749,-1.92434 -0.581523,-6.60631 1.152959,-2.31743 -0.03041,3.12398 6.486036,3.1365 2.539057,5.56158 -3.990909,4.185 3.827355,4.92086 6.074617,3.25267 z m -7.479672,-44.27647 c 3.50394,0.0756 5.604686,-2.55829 8.520282,-3.56886 2.240923,0.93314 3.336233,-1.71259 4.49159,-3.13378 0.775345,-4.23006 2.273511,-7.98945 3.452837,-12.10444 0.569433,-4.32469 -0.627967,-9.09471 -3.786842,-12.19789 -2.104388,-1.65573 -1.340866,-6.10866 -3.047163,-7.91335 -2.749816,2.69796 -5.459225,3.0703 -9.075676,2.36016 -8.008827,0.37655 -14.766813,7.21312 -16.634034,14.75224 -0.928371,4.38135 1.276564,8.71864 4.647646,11.43833 1.327328,1.3076 2.657826,2.61197 3.986529,3.91817 -2.120693,2.85211 -0.427441,6.95021 3.314028,6.8357 1.374482,0.0867 2.826656,0.12516 4.130803,-0.38628 z m 0.128885,-2.19046 c -0.318053,-1.98757 -5.186925,-2.00236 -1.023191,-2.19767 2.688872,0.65191 5.030401,-4.96209 6.761883,-2.1168 -0.582653,2.10288 -3.298512,6.50988 -5.738692,4.31447 z m 3.194601,-0.61034 c 1.780196,-1.5143 1.881322,-3.42607 -0.502968,-1.39778 -0.911406,0.725 -1.04386,2.95701 0.502968,1.39778 z m -7.118887,-1.07958 c 0.681352,-0.77583 1.0755,0.44135 0,0 z m -1.108555,-2.8103 c -1.207454,-0.99096 -0.922052,-5.28454 0.519445,-2.7838 0.99557,0.61701 -2.67e-4,3.47726 -0.519445,2.7838 z m 6.910746,-2.9846 c 0.555805,-0.92723 0.370158,0.8631 0,0 z m 0.99632,-2.26286 c -2.076133,-2.00788 1.061036,-4.44527 1.337938,-1.21813 0.519554,1.17841 -0.333598,3.19262 -1.337938,1.21813 z M 43.89475,229.12692 c 0.624902,-0.93532 0.54695,0.90362 0,0 z m 10.908119,-5.5701 c 0.624902,-0.93532 0.54695,0.90362 0,0 z m -14.158801,-5.37284 c 2.445952,-2.18993 -3.9874,-3.34226 -1.658517,-0.0526 0.35855,1.28743 1.128612,1.12993 1.658517,0.0526 z m 25.448691,57.64698 c 0.400963,-1.72629 1.923535,-0.53236 0,0 z M 31.826193,232.95637 c 0.558247,-1.29461 0.254403,1.22984 0,0 z M 28.43112,231.0354 c -3.497082,-2.97462 -3.968478,-7.81189 -3.799644,-12.11108 -4.087696,-3.91979 -6.964935,-10.21529 -4.205669,-15.67695 2.500387,-4.84454 7.797167,-8.63217 13.366154,-8.35896 4.081219,2.21569 3.372637,7.8894 2.960908,11.80799 -0.430838,3.02345 -1.482659,5.9003 -2.64311,8.70886 1.908856,3.36755 2.559146,7.52664 1.021557,11.1687 -4.464663,-2.70199 -4.53555,5.7036 -6.700196,4.46144 z"
         id="path1011"
         inkscape:connector-curvature="0" />
      <path
         style="fill:#037bc0;stroke-width:0.23208763"
         d="m 54.572639,292.52634 c -3.753707,-2.6652 5.048483,-6.56271 -0.144623,-8.44056 -0.720999,-1.88664 -3.138273,-3.35494 -1.705047,-0.33215 3.671661,2.93951 -1.356713,7.86934 -4.703587,8.37684 -2.967859,0.91917 -6.725821,-1.3146 -3.445726,-4.16617 4.387386,-3.36066 -2.845869,-5.63408 -2.489215,-9.82611 -0.681746,-3.84615 -1.874939,-7.73495 -3.110318,-11.33523 -5.419619,-1.239 -2.47989,-6.44855 -0.177151,-9.30005 2.756111,-2.76254 4.123119,-5.86119 0.102022,-8.13543 -2.054347,-2.97849 -6.720745,-4.16215 -7.268618,-7.88828 -0.790003,-2.78488 1.683789,-3.20311 1.502142,-0.19286 2.54033,4.15545 6.850052,-4.26061 4.094766,-6.40526 2.351251,-0.0806 4.801203,5.83163 8.6006,5.7815 0.358582,-3.00674 -4.735088,-5.06353 -6.093159,-7.95025 -2.549648,-3.73755 -2.142362,-8.59221 -0.315399,-12.53515 -1.774261,-2.96318 -1.104751,-5.46332 2.696726,-4.24899 3.559166,-3.30515 7.734121,-6.61848 12.886201,-6.48455 3.256404,0.35562 6.559699,-0.0104 8.930173,-2.48852 2.370095,0.59626 1.146325,5.92852 3.281769,7.69516 4.37828,4.9011 5.379845,12.46797 2.243191,18.27161 -0.970548,3.39856 -1.139213,7.31358 -4.139274,9.725 -1.122728,1.65278 2.421454,3.7071 2.54928,5.79098 2.584457,5.02362 3.998765,11.97725 -0.461908,16.41343 -1.792199,2.09919 0.887103,3.86097 -2.136255,5.30915 -0.252264,2.78716 0.66258,5.52124 -1.792108,7.40957 -4.198112,4.0101 4.40599,6.30493 1.158921,10.26567 -1.883245,3.91436 -5.9466,5.45646 -10.063403,4.69065 z m 7.327726,-2.02086 c 3.293543,-1.90889 4.677047,-6.75288 0.353955,-8.34502 -1.425185,-3.78866 3.276626,-6.58315 2.391251,-10.51006 0.631337,-1.99072 -0.926389,-1.86997 -2.440851,-1.79095 -3.973501,0.035 -9.245243,-1.04166 -10.510307,-5.38587 -0.715775,-4.72361 -0.123863,-9.90144 2.447951,-13.99463 1.214702,1.5174 2.988596,4.99656 3.431391,1.08769 1.668975,-3.76489 -0.422098,-7.14262 -4.023488,-4.3171 -3.634824,-1.06796 -7.645376,-1.42836 -6.651387,3.79747 -1.184171,3.12062 -3.456899,5.9735 -4.563366,9.26321 -3.061956,2.34304 -3.053577,6.12224 -2.116386,9.7941 0.0638,2.59931 3.625835,4.96391 1.744942,6.15537 0.436898,3.71958 2.348146,7.63287 5.965166,9.156 -1.845988,0.55943 -5.734032,4.42466 -2.143318,5.28429 3.751539,2.21047 11.177971,-3.93867 6.347814,-6.69132 -0.465749,-1.92434 -0.581523,-6.60631 1.152959,-2.31743 -0.03041,3.12398 6.486036,3.1365 2.539057,5.56158 -3.990909,4.185 3.827355,4.92086 6.074617,3.25267 z m -7.479672,-44.27647 c 3.50394,0.0756 5.604686,-2.55829 8.520282,-3.56886 2.240923,0.93314 3.336233,-1.71259 4.49159,-3.13378 0.775345,-4.23006 2.273511,-7.98945 3.452837,-12.10444 0.569433,-4.32469 -0.627967,-9.09471 -3.786842,-12.19789 -2.104388,-1.65573 -1.340866,-6.10866 -3.047163,-7.91335 -2.749816,2.69796 -5.459225,3.0703 -9.075676,2.36016 -8.008827,0.37655 -14.766813,7.21312 -16.634034,14.75224 -0.928371,4.38135 1.276564,8.71864 4.647646,11.43833 1.327328,1.3076 2.657826,2.61197 3.986529,3.91817 -2.120693,2.85211 -0.427441,6.95021 3.314028,6.8357 1.374482,0.0867 2.826656,0.12516 4.130803,-0.38628 z m 0.128885,-2.19046 c -0.318053,-1.98757 -5.186925,-2.00236 -1.023191,-2.19767 2.927517,0.58225 4.291898,-4.45981 6.886395,-2.47711 -0.460061,2.13543 -1.224247,1.17761 -0.947822,0.0665 -1.954897,0.0496 -4.02868,2.40064 -5.121444,3.50827 0.394872,1.83159 4.228894,1.33739 0.54913,1.61286 l -0.343066,-0.51287 z m 3.110244,-0.32834 c 1.904867,-2.23162 1.442609,-0.83776 -0.187945,0.31225 l -0.144826,0.01 z m -7.03453,-1.36158 c 0.681352,-0.77583 1.0755,0.44135 0,0 z m 6.266366,-0.86869 c 1.256553,-1.69614 3.71289,-0.63995 0,0 z m -7.374921,-1.94161 c -1.207454,-0.99096 -0.922052,-5.28454 0.519445,-2.7838 0.99557,0.61701 -2.67e-4,3.47726 -0.519445,2.7838 z m 6.910746,-2.9846 c 0.555805,-0.92723 0.370158,0.8631 0,0 z m 0.99632,-2.26286 c -2.076133,-2.00788 1.061036,-4.44527 1.337938,-1.21813 0.519554,1.17841 -0.333598,3.19262 -1.337938,1.21813 z M 43.89475,229.12692 c 0.624902,-0.93532 0.54695,0.90362 0,0 z m 10.908119,-5.5701 c 0.624902,-0.93532 0.54695,0.90362 0,0 z m -14.158801,-5.37284 c 2.445952,-2.18993 -3.9874,-3.34226 -1.658517,-0.0526 0.35855,1.28743 1.128612,1.12993 1.658517,0.0526 z m 25.448691,57.64698 c 0.400963,-1.72629 1.923535,-0.53236 0,0 z M 31.826193,232.95637 c 0.558247,-1.29461 0.254403,1.22984 0,0 z M 28.43112,231.0354 c -3.497082,-2.97462 -3.968478,-7.81189 -3.799644,-12.11108 -4.087696,-3.91979 -6.964935,-10.21529 -4.205669,-15.67695 2.500387,-4.84454 7.797167,-8.63217 13.366154,-8.35896 4.081219,2.21569 3.372637,7.8894 2.960908,11.80799 -0.430838,3.02345 -1.482659,5.9003 -2.64311,8.70886 1.908856,3.36755 2.559146,7.52664 1.021557,11.1687 -4.464663,-2.70199 -4.53555,5.7036 -6.700196,4.46144 z"
         id="path1009"
         inkscape:connector-curvature="0" />
      <path
         style="fill:#696867;stroke-width:0.23208763"
         d="m 54.572639,292.52634 c -3.753707,-2.6652 5.048483,-6.56271 -0.144623,-8.44056 -0.720999,-1.88664 -3.138273,-3.35494 -1.705047,-0.33215 3.671661,2.93951 -1.356713,7.86934 -4.703587,8.37684 -2.967859,0.91917 -6.725821,-1.3146 -3.445726,-4.16617 4.387386,-3.36066 -2.845869,-5.63408 -2.489215,-9.82611 -0.681746,-3.84615 -1.874939,-7.73495 -3.110318,-11.33523 -5.419619,-1.239 -2.47989,-6.44855 -0.177151,-9.30005 2.756111,-2.76254 4.123119,-5.86119 0.102022,-8.13543 -2.054347,-2.97849 -6.720745,-4.16215 -7.268618,-7.88828 -0.790003,-2.78488 1.683789,-3.20311 1.502142,-0.19286 2.54033,4.15545 6.850052,-4.26061 4.094766,-6.40526 2.351251,-0.0806 4.801203,5.83163 8.6006,5.7815 0.358582,-3.00674 -4.735088,-5.06353 -6.093159,-7.95025 -2.549648,-3.73755 -2.142362,-8.59221 -0.315399,-12.53515 -1.774261,-2.96318 -1.104751,-5.46332 2.696726,-4.24899 3.559166,-3.30515 7.734121,-6.61848 12.886201,-6.48455 3.256404,0.35562 6.559699,-0.0104 8.930173,-2.48852 2.370095,0.59626 1.146325,5.92852 3.281769,7.69516 4.37828,4.9011 5.379845,12.46797 2.243191,18.27161 -0.970548,3.39856 -1.139213,7.31358 -4.139274,9.725 -1.122728,1.65278 2.421454,3.7071 2.54928,5.79098 2.584457,5.02362 3.998765,11.97725 -0.461908,16.41343 -1.792199,2.09919 0.887103,3.86097 -2.136255,5.30915 -0.252264,2.78716 0.66258,5.52124 -1.792108,7.40957 -4.198112,4.0101 4.40599,6.30493 1.158921,10.26567 -1.883245,3.91436 -5.9466,5.45646 -10.063403,4.69065 z m 7.327726,-2.02086 c 3.293543,-1.90889 4.677047,-6.75288 0.353955,-8.34502 -1.425185,-3.78866 3.276626,-6.58315 2.391251,-10.51006 0.631337,-1.99072 -0.926389,-1.86997 -2.440851,-1.79095 -3.973501,0.035 -9.245243,-1.04166 -10.510307,-5.38587 -0.715775,-4.72361 -0.123863,-9.90144 2.447951,-13.99463 1.214702,1.5174 2.988596,4.99656 3.431391,1.08769 1.668975,-3.76489 -0.422098,-7.14262 -4.023488,-4.3171 -3.634824,-1.06796 -7.645376,-1.42836 -6.651387,3.79747 -1.184171,3.12062 -3.456899,5.9735 -4.563366,9.26321 -3.061956,2.34304 -3.053577,6.12224 -2.116386,9.7941 0.0638,2.59931 3.625835,4.96391 1.744942,6.15537 0.436898,3.71958 2.348146,7.63287 5.965166,9.156 -1.845988,0.55943 -5.734032,4.42466 -2.143318,5.28429 3.751539,2.21047 11.177971,-3.93867 6.347814,-6.69132 -0.465749,-1.92434 -0.581523,-6.60631 1.152959,-2.31743 -0.03041,3.12398 6.486036,3.1365 2.539057,5.56158 -3.990909,4.185 3.827355,4.92086 6.074617,3.25267 z m 3.752602,-21.92633 c 1.769471,-1.53329 -3.688859,-1.99636 -2.883285,-4.75731 -0.404548,-2.98198 -1.128107,-7.44556 0.0062,-9.68446 0.785808,3.73197 0.198501,7.91871 2.05357,11.32497 4.071674,-1.47049 5.321307,-7.06147 4.24635,-11.03519 -0.97247,-3.66891 -2.313574,-7.48996 -4.930765,-10.31182 -4.224611,-1.74205 -5.298469,4.954 -5.955793,7.93386 -0.285073,3.3202 -3.15948,2.21404 -3.869631,-0.17769 -2.066719,3.95791 -2.294828,8.69371 -1.649396,13.04333 2.460945,4.18192 8.0871,4.40318 12.404224,3.8105 z m -26.864145,-4.17491 c 0.33224,-2.74457 -4.263115,0.52923 -0.769755,1.00496 0.709486,0.66819 0.917086,-0.66108 0.769755,-1.00496 z m 2.212116,-3.29976 c 1.534336,-3.4451 3.172907,-6.86281 5.041215,-10.13873 1.784098,-3.55015 -1.112613,-6.00311 -1.001674,-9.38362 -2.835819,-0.38161 -6.09492,-6.78426 -6.881803,-1.53888 -0.652118,2.5492 -5.570831,4.17942 -1.416861,6.00989 2.005785,1.86821 3.906975,3.84366 5.777925,5.84564 0.806794,-1.13127 4.742877,-3.46282 2.297525,-0.61393 -2.865177,3.30604 -5.777118,6.73785 -7.652613,10.70858 1.258188,0.16881 2.691887,-0.35528 3.836286,-0.88895 z m 13.419755,-14.87547 c 3.50394,0.0756 5.604686,-2.55829 8.520282,-3.56886 2.240923,0.93314 3.336233,-1.71259 4.49159,-3.13378 0.775345,-4.23006 2.273511,-7.98945 3.452837,-12.10444 0.569433,-4.32469 -0.627967,-9.09471 -3.786842,-12.19789 -2.104388,-1.65573 -1.340866,-6.10866 -3.047163,-7.91335 -2.749816,2.69796 -5.459225,3.0703 -9.075676,2.36016 -8.008827,0.37655 -14.766813,7.21312 -16.634034,14.75224 -0.928371,4.38135 1.276564,8.71864 4.647646,11.43833 1.327328,1.3076 2.657826,2.61197 3.986529,3.91817 -2.120693,2.85211 -0.427441,6.95021 3.314028,6.8357 1.374482,0.0867 2.826656,0.12516 4.130803,-0.38628 z m 0.128885,-2.19046 c -0.318053,-1.98757 -5.186925,-2.00236 -1.023191,-2.19767 2.927517,0.58225 4.291898,-4.45981 6.886395,-2.47711 -0.460061,2.13543 -1.224247,1.17761 -0.947822,0.0665 -1.954897,0.0496 -4.02868,2.40064 -5.121444,3.50827 0.394872,1.83159 4.228894,1.33739 0.54913,1.61286 l -0.343066,-0.51287 z m 3.110244,-0.32834 c 1.904867,-2.23162 1.442609,-0.83776 -0.187945,0.31225 l -0.144826,0.01 z m -7.03453,-1.36158 c 0.681352,-0.77583 1.0755,0.44135 0,0 z m 6.266366,-0.86869 c 1.256553,-1.69614 3.71289,-0.63995 0,0 z m -7.374921,-1.94161 c -1.207454,-0.99096 -0.922052,-5.28454 0.519445,-2.7838 0.99557,0.61701 -2.67e-4,3.47726 -0.519445,2.7838 z m 6.910746,-2.9846 c 0.555805,-0.92723 0.370158,0.8631 0,0 z m 0.99632,-2.26286 c -2.076133,-2.00788 1.061036,-4.44527 1.337938,-1.21813 0.519554,1.17841 -0.333598,3.19262 -1.337938,1.21813 z M 43.89475,229.12692 c 0.624902,-0.93532 0.54695,0.90362 0,0 z m 10.908119,-5.5701 c 0.624902,-0.93532 0.54695,0.90362 0,0 z M 33.914982,243.0956 c -1.868422,-3.5748 -2.010156,1.02573 0,0 z m 6.729086,-24.91162 c 2.445952,-2.18993 -3.9874,-3.34226 -1.658517,-0.0526 0.35855,1.28743 1.128612,1.12993 1.658517,0.0526 z m 25.448691,57.64698 c 0.400963,-1.72629 1.923535,-0.53236 0,0 z M 31.826193,232.95637 c 0.558247,-1.29461 0.254403,1.22984 0,0 z M 28.43112,231.0354 c -3.497082,-2.97462 -3.968478,-7.81189 -3.799644,-12.11108 -4.087696,-3.91979 -6.964935,-10.21529 -4.205669,-15.67695 2.500387,-4.84454 7.797167,-8.63217 13.366154,-8.35896 4.081219,2.21569 3.372637,7.8894 2.960908,11.80799 -0.430838,3.02345 -1.482659,5.9003 -2.64311,8.70886 1.908856,3.36755 2.559146,7.52664 1.021557,11.1687 -4.464663,-2.70199 -4.53555,5.7036 -6.700196,4.46144 z m 1.282525,-2.24352 c 0.992848,-3.75802 6.715067,-2.10867 5.36048,-6.80897 0.136741,-2.55783 -1.035169,-7.0956 -3.105748,-2.87055 -1.38507,3.42269 -5.920359,1.05574 -6.685864,0.83025 0.08751,3.72078 0.850743,7.65953 3.631356,10.34475 0.308708,-0.47507 0.541937,-0.99268 0.799776,-1.49548 z M 29.45882,219.5139 c 1.978745,-1.13315 3.576818,-3.10039 0.382057,-3.70777 -1.795491,0.19248 -4.711043,-5.65481 -4.519566,-3.08417 0.173673,2.49728 0.241877,8.1932 4.137509,6.79194 z m -5.402775,-4.69563 c 0.292507,-2.11864 -5.359353,-5.80975 -2.570242,-1.54994 0.536487,1.41536 3.471848,5.80647 2.570242,1.54994 z m 9.512859,-0.48693 c 2.230635,-4.3528 2.65051,-9.28913 2.550906,-14.09933 -3.22978,-0.0142 -7.516597,0.0272 -9.103489,3.32375 -1.973212,3.88211 -1.626272,8.72191 2.739315,10.81503 1.3141,0.71942 3.187887,2.39526 3.813268,-0.0394 z m -9.16816,-5.74417 c 0.37123,-3.20431 1.767623,-6.15831 2.744513,-9.16746 -3.507292,1.28749 -7.797755,4.51448 -6.693012,8.76943 0.795216,1.26417 3.91961,5.93907 3.704059,1.94731 l 0.123185,-0.76443 z m 7.193361,-9.34352 c 2.019736,-0.26284 5.948412,-0.27426 2.938891,-3.00878 -2.465168,-2.51234 -9.709173,6.76851 -2.938891,3.00878 z m -2.689926,-2.09101 c 1.118716,-2.08601 -5.96671,2.77951 -2.868715,1.41353 0.996869,-0.36768 2.089018,-0.656 2.868715,-1.41353 z"
         id="path1007"
         inkscape:connector-curvature="0" />
      <path
         style="fill:#026ca9;stroke-width:0.23208763"
         d="m 54.428999,292.27425 c -1.497908,-1.22467 -0.241722,-4.0846 0.997827,-1.54255 1.233459,1.68296 8.270754,-0.0594 3.718979,1.49911 -1.55346,0.16995 -3.174345,0.38098 -4.716806,0.0434 z m -9.95403,-0.60641 c -2.368828,-0.79721 -0.180796,-3.02228 1.212339,-0.75818 1.477831,0.30031 6.825435,-0.19681 2.533474,0.98153 -1.240255,0.18422 -2.546353,0.17869 -3.745813,-0.22335 z m 7.89098,-10.55329 c 0.06125,-0.85115 0.696643,0.78186 0,0 z M 41.689918,274.6161 c 0.06124,-0.85114 0.696646,0.78183 0,0 z m 17.612481,-5.09735 c -3.598013,-0.44777 -8.04688,-2.67211 -7.593152,-6.93854 -0.157682,-4.05849 0.230433,-8.4434 2.575733,-11.86914 0.843899,2.01823 3.188126,4.75015 3.493664,0.80516 1.436204,-2.59434 -1.965828,-6.1693 1.950414,-6.61118 2.53424,-4.27359 6.734764,-0.62115 7.60675,2.82559 2.509133,4.97877 4.50655,11.71415 0.432916,16.4594 -1.644095,1.19155 -2.297257,2.70051 -0.433122,4.03872 -2.110086,2.02849 -5.388965,1.40571 -8.033203,1.28999 z m 6.350568,-0.9396 c 1.769471,-1.53329 -3.688859,-1.99636 -2.883285,-4.75731 -0.404548,-2.98198 -1.128107,-7.44556 0.0062,-9.68446 0.785808,3.73197 0.198501,7.91871 2.05357,11.32497 4.071674,-1.47049 5.321307,-7.06147 4.24635,-11.03519 -0.97247,-3.66891 -2.313574,-7.48996 -4.930765,-10.31181 -4.224611,-1.74206 -5.298469,4.95399 -5.955794,7.93385 -0.285072,3.3202 -3.159479,2.21404 -3.86963,-0.17769 -2.066719,3.95791 -2.294828,8.69371 -1.649396,13.04333 2.460945,4.18192 8.0871,4.40318 12.404224,3.8105 z m -27.557233,-2.47372 c -5.206193,-2.10385 0.760475,-7.67443 2.293872,-10.56358 4.51085,-3.77044 -2.962442,-6.91413 -5.113039,-9.85204 -2.390532,-0.66536 -5.049936,-5.02444 -2.656027,-6.20999 -0.291014,3.79439 4.099055,4.26909 4.778331,0.44937 1.584557,-1.72486 0.722148,-3.97729 0.208328,-5.46425 2.370018,2.65897 4.826655,5.56663 8.361941,6.67747 -0.866666,2.08097 0.704155,4.38027 1.647957,5.39108 -0.706694,3.4973 -1.447302,6.79277 -3.701062,9.78979 -0.623574,3.77701 -4.611351,5.57482 -4.505137,9.25426 0.09801,1.57761 -0.190171,0.94931 -1.315164,0.52789 z m 0.693088,-1.70119 c 0.33224,-2.74457 -4.263115,0.52923 -0.769755,1.00496 0.709486,0.66819 0.917086,-0.66108 0.769755,-1.00496 z m 2.212116,-3.29976 c 1.534336,-3.4451 3.172907,-6.86281 5.041215,-10.13873 1.784098,-3.55015 -1.112613,-6.00311 -1.001674,-9.38362 -2.835819,-0.38161 -6.09492,-6.78426 -6.881803,-1.53888 -0.652118,2.5492 -5.570831,4.17942 -1.416861,6.0099 2.005785,1.8682 3.906975,3.84365 5.777925,5.84563 0.806794,-1.13127 4.742877,-3.46282 2.297525,-0.61393 -2.865177,3.30604 -5.777118,6.73785 -7.652613,10.70858 1.258188,0.16881 2.691887,-0.35528 3.836286,-0.88895 z M 33.914982,243.0956 c -1.868422,-3.5748 -2.010156,1.02573 0,0 z m 19.650087,4.21152 c -0.06792,-1.32696 5.053646,-1.56424 1.401677,-0.61638 -0.482081,-0.0151 -0.915282,1.13937 -1.401677,0.61638 z M 59.59278,239.919 c 0.660604,-1.12436 0.0469,1.16148 0,0 z m -10.357851,-1.78166 c -1.442498,-4.89095 2.791849,1.97492 -1e-5,0 z m 8.360609,-3.94549 c -1.823569,-1.55812 0.448856,-4.17635 0.959416,-1.11409 0.07274,0.74018 0.24878,2.91834 -0.959416,1.11409 z m -29.411432,-3.74049 c -3.256803,-3.06526 -3.459215,-7.70784 -3.623134,-11.88442 -4.423389,-4.01711 -6.860207,-11.15613 -3.290117,-16.47823 2.786059,-4.32121 8.083701,-7.90796 13.363619,-6.64138 3.128924,3.26113 2.315821,8.39639 1.711366,12.47948 -0.422442,2.61218 -1.481993,5.04591 -2.447385,7.48976 1.844327,3.18521 2.53482,7.22306 1.180545,10.70807 -3.697373,-1.43066 -4.912541,3.99458 -6.287558,4.90235 z m 1.529539,-1.65948 c 0.992848,-3.75802 6.715067,-2.10867 5.36048,-6.80897 0.136741,-2.55783 -1.035169,-7.0956 -3.105748,-2.87055 -1.38507,3.42269 -5.920359,1.05574 -6.685864,0.83025 0.08751,3.72078 0.850743,7.65953 3.631356,10.34475 0.308708,-0.47507 0.541937,-0.99268 0.799776,-1.49548 z M 29.45882,219.5139 c 1.978745,-1.13315 3.576818,-3.10039 0.382057,-3.70777 -1.795491,0.19248 -4.711043,-5.65481 -4.519566,-3.08417 0.173673,2.49728 0.241877,8.1932 4.137509,6.79194 z m -5.402775,-4.69563 c 0.292507,-2.11864 -5.359353,-5.80975 -2.570242,-1.54994 0.536487,1.41536 3.471848,5.80647 2.570242,1.54994 z m 9.512859,-0.48693 c 2.230635,-4.3528 2.65051,-9.28913 2.550906,-14.09933 -3.22978,-0.0142 -7.516597,0.0272 -9.103489,3.32375 -1.973212,3.88211 -1.626272,8.72191 2.739315,10.81503 1.3141,0.71942 3.187887,2.39526 3.813268,-0.0394 z m -9.16816,-5.74417 c 0.37123,-3.20431 1.767623,-6.15831 2.744513,-9.16746 -3.507292,1.28749 -7.797755,4.51448 -6.693012,8.76943 0.795216,1.26417 3.91961,5.93907 3.704059,1.94731 l 0.123185,-0.76443 z m 7.193361,-9.34352 c 2.019736,-0.26284 5.948412,-0.27426 2.938891,-3.00878 -2.465168,-2.51234 -9.709173,6.76851 -2.938891,3.00878 z m -2.689926,-2.09101 c 1.118716,-2.08601 -5.96671,2.77951 -2.868715,1.41353 0.996869,-0.36768 2.089018,-0.656 2.868715,-1.41353 z"
         id="path1005"
         inkscape:connector-curvature="0" />
      <path
         style="fill:#154c6c;stroke-width:0.23208763"
         d="m 54.428999,292.27425 c -1.497908,-1.22467 -0.241722,-4.0846 0.997827,-1.54255 1.233459,1.68296 8.270754,-0.0594 3.718979,1.49911 -1.55346,0.16995 -3.174345,0.38098 -4.716806,0.0434 z m -9.95403,-0.60641 c -2.368828,-0.79721 -0.180796,-3.02228 1.212339,-0.75818 1.477831,0.30031 6.825435,-0.19681 2.533474,0.98153 -1.240255,0.18422 -2.546353,0.17869 -3.745813,-0.22335 z m 7.89098,-10.55329 c 0.06125,-0.85115 0.696643,0.78186 0,0 z M 41.689918,274.6161 c 0.06124,-0.85114 0.696646,0.78183 0,0 z m 17.612481,-5.09735 c -3.598013,-0.44777 -8.04688,-2.67211 -7.593152,-6.93854 -0.157682,-4.05849 0.230433,-8.4434 2.575733,-11.86914 0.843899,2.01823 3.188126,4.75015 3.493664,0.80516 1.436204,-2.59434 -1.965828,-6.1693 1.950414,-6.61118 2.53424,-4.27359 6.734764,-0.62115 7.60675,2.82559 2.509133,4.97877 4.50655,11.71415 0.432916,16.4594 -1.644095,1.19155 -2.297257,2.70051 -0.433122,4.03872 -2.110086,2.02849 -5.388965,1.40571 -8.033203,1.28999 z m 6.582655,-0.69865 c 2.01402,-1.83929 -3.821842,-2.46687 -2.852291,-5.32761 -0.16377,-0.60902 -0.533359,-5.74513 -0.149418,-3.66619 0.673913,1.91895 0.436992,7.16071 3.346393,5.33223 4.803195,-3.74138 3.95996,-10.74297 1.520439,-15.5933 -0.917117,-3.52895 -5.328716,-9.40066 -7.954879,-3.70941 -1.988884,2.05235 -0.724125,7.94815 -3.766666,7.8991 -2.334557,-5.36588 -3.555026,2.35179 -3.84576,4.749 -0.528712,3.67235 -0.365211,8.6484 4.022664,9.80345 3.07731,1.09849 6.497066,1.08961 9.679518,0.51273 z m -7.136695,-22.41635 c -0.64599,-1.16975 -0.439911,1.4917 0,0 z m -20.652625,19.70168 c -5.206193,-2.10385 0.760475,-7.67443 2.293872,-10.56358 4.51085,-3.77044 -2.962442,-6.91413 -5.113039,-9.85204 -2.359451,-0.7329 -5.109748,-4.91397 -2.617833,-6.26611 -1.185163,2.73452 0.503691,5.5868 3.011233,3.04878 2.144232,-2.15025 3.456962,-5.62731 1.937232,-8.00754 2.370018,2.65897 4.826655,5.56663 8.361941,6.67747 -0.866666,2.08097 0.704155,4.38027 1.647957,5.39108 -0.706694,3.4973 -1.447302,6.79277 -3.701062,9.78979 -0.623574,3.77701 -4.611351,5.57482 -4.505137,9.25426 0.09801,1.57761 -0.190171,0.94931 -1.315164,0.52789 z m 1.012209,-0.80185 c 2.14865,-4.18403 -5.615879,-1.37558 -1.42905,0.22024 0.448091,0.28575 1.518718,0.85885 1.42905,-0.22024 z m -0.0097,-3.23599 c 4.030662,-0.9037 3.734473,-6.38563 6.227807,-9.18864 2.2377,-3.21764 1.733409,-6.83418 0.06321,-9.90293 0.916977,-2.40327 -2.782146,-2.2602 -3.797324,-3.8906 -1.477009,-1.70114 -3.191255,-2.73562 -3.423712,0.30173 -0.316597,2.07233 -4.021542,3.84833 -3.299334,5.37959 2.757691,2.25518 5.052096,5.01427 7.739547,7.33688 1.569999,-1.46111 3.065284,-2.21484 0.890839,0.23206 -2.643188,3.02942 -5.072521,6.31891 -6.799289,9.95677 0.348622,0.68553 1.807938,-0.28698 2.398255,-0.22486 z m 14.466784,-14.76047 c -0.06792,-1.32696 5.053645,-1.56424 1.401676,-0.61638 -0.48208,-0.0151 -0.915282,1.13937 -1.401676,0.61638 z m -20.484448,-5.70549 c -1.148139,-1.11293 0.646115,0.20394 0.522197,0.5222 z M 59.59278,239.919 c 0.660604,-1.12436 0.0469,1.16148 0,0 z m -10.357851,-1.78166 c -1.442498,-4.89095 2.791849,1.97492 -1e-5,0 z m 8.360609,-3.94549 c -1.823569,-1.55812 0.448856,-4.17635 0.959416,-1.11409 0.07274,0.74018 0.24878,2.91834 -0.959416,1.11409 z m -29.411432,-3.74049 c -3.256803,-3.06526 -3.459215,-7.70784 -3.623134,-11.88442 -4.423389,-4.01711 -6.860207,-11.15613 -3.290117,-16.47823 2.786059,-4.32121 8.083701,-7.90796 13.363619,-6.64138 3.128924,3.26113 2.315821,8.39639 1.711366,12.47948 -0.422442,2.61218 -1.481993,5.04591 -2.447385,7.48976 1.846125,3.18421 2.526641,7.21281 1.189181,10.7019 -2.074507,0.53869 1.55868,-2.8514 0.25839,-4.6958 -0.01662,-2.18195 -1.274537,-7.2527 -3.077282,-3.04275 -1.543974,3.57587 -6.075273,1.88711 -7.155114,1.07307 -0.296787,4.00231 0.872344,8.2784 3.769717,11.14033 1.680099,0.21805 -0.197248,1.32976 -0.699241,-0.14196 z m 1.51884,-10.70617 c 2.651585,-1.31808 3.131425,-3.85392 -0.21727,-4.53165 -2.112687,-0.78432 -5.155862,-6.6463 -4.321836,-1.268 0.05853,2.54555 0.787454,7.43114 4.539106,5.79965 z m -5.233811,-2.53382 c 0.820349,-3.36126 -1.739068,-5.25114 -3.971298,-7.14109 -0.91974,0.8048 1.818771,5.94419 3.497454,7.3329 l 0.286869,0.0711 0.186971,-0.26294 z m 9.439021,-2.99608 c 1.981695,-4.42248 3.072188,-9.47945 2.281286,-14.28499 -3.406915,-0.63091 -8.736221,0.42762 -9.699782,4.36771 -1.641901,3.48972 -1.349487,7.72896 2.336775,9.81702 1.770609,1.02058 4.278358,3.54899 5.081721,0.10026 z m -9.652558,-2.55296 c 0.329619,-4.4219 1.731776,-8.64155 3.519057,-12.65812 -4.135123,0.869 -8.756984,4.74588 -7.555243,9.4144 0.572019,0.90326 3.441129,5.23966 4.036186,3.24372 z m 6.294113,-11.72771 c 2.293811,-0.85066 7.912587,-0.109 4.155457,-3.88036 -2.498806,-3.14595 -9.12655,5.94225 -4.818312,4.11559 z m -6.029389,-0.28585 c 1.564192,-0.69211 5.964263,-2.32904 5.069019,-3.62627 -0.967417,-0.40616 -8.366709,5.07481 -5.069019,3.62627 z"
         id="path1003"
         inkscape:connector-curvature="0" />
      <path
         style="fill:#151819;stroke-width:0.23208763"
         d="m 54.628295,292.32299 c -1.79073,-0.92116 -0.487409,-4.28347 0.799344,-1.59021 1.197997,1.66308 8.38583,-0.0247 3.501314,1.52798 -1.418211,0.22198 -2.878971,0.30202 -4.300658,0.0622 z m -9.745743,-0.52656 c -2.626085,-0.66217 -0.925045,-3.3024 0.803153,-0.88742 2.030178,0.20738 6.603177,0.0301 2.270388,0.97917 -1.018027,0.15148 -2.068362,0.14056 -3.073541,-0.0917 z m -9.110869,-28.14107 c 0.570188,-1.59833 0.782979,0.65871 0,0 z m 3.481314,-1.10782 c 0.555824,-0.92724 0.370136,0.86313 0,0 z m 3.01714,-9.74768 c 0.555822,-0.92724 0.370136,0.86313 0,0 z m 4.181131,-0.85663 c 0.587818,-1.93402 0.661832,0.37731 0,0 z m 7.113801,-4.63611 c -0.06792,-1.32696 5.053646,-1.56424 1.401677,-0.61639 -0.482081,-0.0151 -0.915282,1.13938 -1.401677,0.61639 z m 3.906808,-1.2378 c 0.351972,-0.88395 0.708697,0.73487 0,0 z m 1.50857,-0.46418 c 1.087105,-1.01999 0.44899,0.9421 0,0 z M 59.59278,239.919 c 0.660604,-1.12436 0.0469,1.16148 0,0 z m -10.351037,-1.84218 c -1.431418,-4.85245 2.785523,2.16977 -1.6e-5,0 z m -10.776221,-1.89021 c -0.144278,-1.58515 1.118886,1.22386 0,0 z m 19.150036,-1.96411 c -1.768684,-1.70092 0.377903,-4.10388 0.939396,-1.1234 0.07565,0.71411 0.243744,2.86882 -0.939396,1.1234 z m -33.0604,-15.95581 c 0.303513,-3.08518 1.606604,0.28337 0,0 z m 9.011692,-2.60085 c 0.711688,-0.74621 0.07333,0.79972 0,0 z m -8.666642,-5.5701 c 0.174011,-1.28313 0.174048,1.28315 0,0 z m -5.219935,-1.31517 c -0.671757,-1.15397 0.902255,0.20246 0,0 z m 1.62285,-6.57581 c 1.017428,-1.552 0.427518,0.31009 -0.297931,0.69626 z m 5.649229,-0.43678 c 0.681219,-1.34399 0.49975,0.61871 0,0 z m 1.392526,-3.01714 c 0.681215,-1.34372 0.49967,0.61833 0,0 z m 2.669008,-3.27662 c 1.121679,-0.84288 1.340187,0.52003 0,0 z"
         id="path1001"
         inkscape:connector-curvature="0" />
    </g>
  </g>
</svg>
