<?xml version="1.0" encoding="UTF-8" standalone="no"?>
<!-- Created with Inkscape (http://www.inkscape.org/) -->

<svg
   xmlns:dc="http://purl.org/dc/elements/1.1/"
   xmlns:cc="http://creativecommons.org/ns#"
   xmlns:rdf="http://www.w3.org/1999/02/22-rdf-syntax-ns#"
   xmlns:svg="http://www.w3.org/2000/svg"
   xmlns="http://www.w3.org/2000/svg"
   xmlns:sodipodi="http://sodipodi.sourceforge.net/DTD/sodipodi-0.dtd"
   xmlns:inkscape="http://www.inkscape.org/namespaces/inkscape"
   width="400"
   height="400"
   viewBox="0 0 105.83333 105.83334"
   version="1.1"
   id="svg8"
   inkscape:version="0.92.4 (5da689c313, 2019-01-14)"
   sodipodi:docname="RoadRunner.svg">
  <defs
     id="defs2" />
  <sodipodi:namedview
     id="base"
     pagecolor="#ffffff"
     bordercolor="#666666"
     borderopacity="1.0"
     inkscape:pageopacity="0.0"
     inkscape:pageshadow="2"
     inkscape:zoom="3.959798"
     inkscape:cx="107.56607"
     inkscape:cy="217.14285"
     inkscape:document-units="mm"
     inkscape:current-layer="layer1"
     showgrid="false"
     units="px"
     inkscape:window-width="1920"
     inkscape:window-height="986"
     inkscape:window-x="-11"
     inkscape:window-y="-11"
     inkscape:window-maximized="1" />
  <metadata
     id="metadata5">
    <rdf:RDF>
      <cc:Work
         rdf:about="">
        <dc:format>image/svg+xml</dc:format>
        <dc:type
           rdf:resource="http://purl.org/dc/dcmitype/StillImage" />
        <dc:title />
      </cc:Work>
    </rdf:RDF>
  </metadata>
  <g
     inkscape:label="Layer 1"
     inkscape:groupmode="layer"
     id="layer1"
     transform="translate(0,-191.16665)">
    <rect
       style="opacity:1;fill:#ffffff;fill-opacity:1;stroke:none;stroke-width:2.18989944;stroke-miterlimit:4;stroke-dasharray:none;stroke-opacity:1;paint-order:normal"
       id="rect1699"
       width="5.7436786"
       height="6.846355"
       x="51.612774"
       y="222.30455" />
    <g
       id="g1056"
       transform="matrix(0.88699817,0,0,1.1704879,4.3307899,-44.137495)">
      <path
         style="fill:#82acc6;stroke-width:0.20492396"
         d="m 27.254485,284.58556 c -3.464035,-1.95163 -8.635855,0.15484 -11.208287,-3.66657 -2.352479,-3.35401 0.432849,-3.37441 0.651816,-3.44022 -0.235992,-3.277 3.247677,0.28734 5.011491,0.0219 2.360084,2.60775 2.767562,-3.90471 6.301261,-2.77273 3.415899,-1.01939 6.074862,1.74757 5.195992,5.06043 4.281511,-0.61455 8.033255,-3.10456 12.003199,-4.69368 2.959544,-1.48144 4.776219,-5.55522 8.443089,-3.64276 2.445188,-2.84099 -3.902894,-3.85012 -5.7745,-2.0082 -2.536806,-0.0675 -6.976434,4.17449 -8.241391,2.01418 0.580277,-1.74313 3.939325,-2.68243 0.204309,-2.92583 -5.735387,-1.87512 -11.775968,-6.24459 -12.175257,-12.76722 2.161602,-1.96423 -0.614475,-4.25137 -1.69732,-6.28746 -3.174927,-2.57612 -1.739401,-7.65124 -6.444187,-8.37839 -3.94154,-1.31919 -6.751632,3.32875 -9.115169,4.89738 -0.267346,2.17848 -2.699076,9.24918 -3.683278,3.62802 -0.5730284,-5.33712 -1.7741365,-11.24785 0.7047347,-16.27197 1.661695,-2.51887 4.5324323,-2.88886 5.1714443,-4.55435 2.769621,-0.63445 -6.0251814,-2.44419 -1.245184,-2.95005 3.540984,-0.60053 8.668498,2.91636 10.48766,2.62103 0.155774,-2.58979 5.135285,1.71645 6.560134,2.59648 3.862856,3.07548 6.862069,7.55371 7.236008,12.57902 2.103577,7.00585 5.444399,13.89861 10.732844,19.06466 2.418195,3.31281 4.21268,-0.78004 7.612947,-0.24339 4.086587,0.12601 7.081666,-3.47483 11.567747,-2.89799 2.711762,-0.58789 -0.273338,-5.21392 -1.113126,-6.87856 -2.573911,-4.4573 -7.123549,-7.58043 -8.629516,-12.68273 -1.036881,-1.22223 -5.570259,3.79144 -4.231349,-0.84748 1.293664,-3.71493 -5.564613,-5.69768 -1.202678,-9.08622 0.74469,1.95502 2.239855,3.5026 2.049625,0.14926 0.332166,-2.96024 2.313819,-4.96149 5.013812,-4.70134 0.48594,-4.38995 -4.579966,-4.78678 -6.210755,-7.2581 1.119212,-2.78513 -4.975117,-1.19458 -5.261683,-4.07545 -1.259807,-0.48107 -6.440425,1.2417 -4.084544,-1.6174 1.167223,-2.95364 6.458372,-0.58395 6.349342,-3.0535 3.04552,-1.99305 6.083592,2.65878 8.654551,0.33707 4.370679,0.6708 7.421859,5.28489 7.02871,9.61403 -0.330556,4.35045 -3.476142,8.021 -2.822716,12.5593 0.496315,2.21143 1.885255,5.40249 -1.579996,5.92675 0.175385,5.62009 5.634429,8.471 8.668535,12.51968 3.467205,3.23235 1.628972,9.08639 5.659332,11.52024 0.808812,2.67513 -0.480921,7.08058 -0.603984,8.43762 5.176358,-2.2572 10.707252,-3.57927 15.943384,-5.65605 4.262679,1.8095 6.685317,6.28068 9.728735,9.57982 2.481223,3.25824 1.260923,9.16184 -2.505998,10.80165 -3.118228,1.51386 0.298342,-2.66862 -2.860872,-0.82577 -5.153561,1.24965 0.0977,-5.01141 -0.751097,-7.61336 -0.0339,-2.99778 -3.88861,-9.62396 -5.429389,-3.51184 -1.450345,3.0356 3.940904,6.88713 1.906175,9.39594 -3.702025,-0.93318 -7.388559,-4.38869 -7.013915,-8.48668 1.097827,-1.56595 5.045836,-5.99951 0.542151,-3.69422 -4.007204,1.26971 -7.143987,4.13653 -10.238717,6.82967 -3.320829,-1.02591 -4.202075,-6.43726 -8.81142,-5.14873 -3.495909,-0.25139 -4.962267,4.79178 -9.137957,3.62461 -4.100647,0.89769 -8.360263,1.37031 -12.034985,3.61814 -3.906576,1.62231 -8.017123,2.95455 -11.195221,5.87661 -1.369662,0.54704 -2.919732,0.0969 -4.124537,-0.63522 z m 2.733193,-4.15158 c 2.146359,-2.69602 -9.389268,-2.52003 -4.11643,-0.50538 1.247298,0.83401 2.694556,0.97884 4.11643,0.50538 z M 55.12414,232.40652 c 0.912743,-1.153 2.92325,-2.154 1.669646,-4.23705 -1.623573,-0.21526 -3.346445,6.2025 -1.669646,4.23705 z m -1.240319,-2.21456 c 1.003923,-3.35535 -1.005974,-0.93846 -0.408707,0.76847 l 0.200614,-0.22574 0.20809,-0.54273 z"
         id="path1078"
         inkscape:connector-curvature="0" />
      <path
         style="fill:#7dadc7;stroke-width:0.20492396"
         d="m 27.254485,284.58556 c -3.464035,-1.95163 -8.635855,0.15484 -11.208287,-3.66657 -2.352479,-3.35401 0.432849,-3.37441 0.651816,-3.44022 -0.235992,-3.277 3.247677,0.28734 5.011491,0.0219 2.360084,2.60775 2.767562,-3.90471 6.301261,-2.77273 3.415899,-1.01939 6.074862,1.74757 5.195992,5.06043 4.281511,-0.61455 8.033255,-3.10456 12.003199,-4.69368 2.959544,-1.48144 4.776219,-5.55522 8.443089,-3.64276 2.445188,-2.84099 -3.902894,-3.85012 -5.7745,-2.0082 -2.536806,-0.0675 -6.976434,4.17449 -8.241391,2.01418 0.580277,-1.74313 3.939325,-2.68243 0.204309,-2.92583 -5.735387,-1.87512 -11.775968,-6.24459 -12.175257,-12.76722 2.161602,-1.96423 -0.614475,-4.25137 -1.69732,-6.28746 -3.174927,-2.57612 -1.739401,-7.65124 -6.444187,-8.37839 -3.94154,-1.31919 -6.751632,3.32875 -9.115169,4.89738 -0.267346,2.17848 -2.699076,9.24918 -3.683278,3.62802 -0.5730284,-5.33712 -1.7741365,-11.24785 0.7047347,-16.27197 1.661695,-2.51887 4.5324323,-2.88886 5.1714443,-4.55435 2.769621,-0.63445 -6.0251814,-2.44419 -1.245184,-2.95005 3.540984,-0.60053 8.668498,2.91636 10.48766,2.62103 0.155774,-2.58979 5.135285,1.71645 6.560134,2.59648 3.862856,3.07548 6.862069,7.55371 7.236008,12.57902 2.103577,7.00585 5.444399,13.89861 10.732844,19.06466 2.418195,3.31281 4.21268,-0.78004 7.612947,-0.24339 4.086587,0.12601 7.081666,-3.47483 11.567747,-2.89799 2.711762,-0.58789 -0.273338,-5.21392 -1.113126,-6.87856 -2.573911,-4.4573 -7.123549,-7.58043 -8.629516,-12.68273 -1.036881,-1.22223 -5.570259,3.79144 -4.231349,-0.84748 1.293664,-3.71493 -5.564613,-5.69768 -1.202678,-9.08622 0.74469,1.95502 2.239855,3.5026 2.049625,0.14926 0.332166,-2.96024 2.313819,-4.96149 5.013812,-4.70134 0.48594,-4.38995 -4.579966,-4.78678 -6.210755,-7.2581 1.119212,-2.78513 -4.975117,-1.19458 -5.261683,-4.07545 -1.259807,-0.48107 -6.440425,1.2417 -4.084544,-1.6174 1.167223,-2.95364 6.458372,-0.58395 6.349342,-3.0535 3.04552,-1.99305 6.083592,2.65878 8.654551,0.33707 4.370679,0.6708 7.421859,5.28489 7.02871,9.61403 -0.330556,4.35045 -3.476142,8.021 -2.822716,12.5593 0.496315,2.21143 1.885255,5.40249 -1.579996,5.92675 0.175385,5.62009 5.634429,8.471 8.668535,12.51968 3.467205,3.23235 1.628972,9.08639 5.659332,11.52024 0.808812,2.67513 -0.480921,7.08058 -0.603984,8.43762 5.176358,-2.2572 10.707252,-3.57927 15.943384,-5.65605 4.262679,1.8095 6.685317,6.28068 9.728735,9.57982 2.481223,3.25824 1.260923,9.16184 -2.505998,10.80165 -3.118228,1.51386 0.298342,-2.66862 -2.860872,-0.82577 -5.153561,1.24965 0.0977,-5.01141 -0.751097,-7.61336 -0.0339,-2.99778 -3.88861,-9.62396 -5.429389,-3.51184 -1.450345,3.0356 3.940904,6.88713 1.906175,9.39594 -3.702025,-0.93318 -7.388559,-4.38869 -7.013915,-8.48668 1.097827,-1.56595 5.045836,-5.99951 0.542151,-3.69422 -4.007204,1.26971 -7.143987,4.13653 -10.238717,6.82967 -3.320829,-1.02591 -4.202075,-6.43726 -8.81142,-5.14873 -3.479857,-0.21649 -5.017456,4.71313 -9.166301,3.62751 -4.3302,0.86714 -8.734135,1.56762 -12.60243,3.88608 -4.076128,1.31939 -7.79419,3.45115 -11.270579,5.80248 -1.225912,0.17712 -2.413158,-0.20063 -3.45339,-0.83193 z m 2.733193,-4.15158 c 2.146359,-2.69602 -9.389268,-2.52003 -4.11643,-0.50538 1.247298,0.83401 2.694556,0.97884 4.11643,0.50538 z m 24.52169,-5.87733 c -1.460475,-3.19463 3.500786,-1.47372 0.52359,-0.0333 3.606202,0.73525 5.961774,-1.99461 1.603511,-3.02297 -1.582934,-1.22516 -5.209638,2.68866 -2.127102,3.05622 z m 2.664011,-0.86957 c -0.312546,-2.39681 3.295691,0.7236 0,0 z m 13.631264,-2.31775 c 1.496822,-2.11259 -4.320043,2.0688 -0.800403,0.60461 l 0.36525,-0.26603 0.435151,-0.33858 z m -2.693674,-0.26403 c 3.441978,-1.51436 4.055705,-5.79892 4.258409,-9.15028 -2.52474,-0.82168 -1.968862,-6.59526 -3.539807,-1.75771 -0.264236,2.81342 -2.549992,0.79402 -0.730568,-0.88124 0.197734,-3.06635 -0.834405,-1.9057 -0.526201,0.39286 -1.410177,1.91543 -8.027629,-0.34972 -5.060346,3.79411 0.509447,2.46498 0.199228,5.01553 0.296332,7.52004 1.744414,0.3066 3.552153,0.38365 5.302181,0.0822 z m -4.535856,-0.46388 c -0.64065,-1.72952 0.129257,-9.60214 0.736153,-4.29692 -0.550585,2.26182 0.381425,3.30358 2.083728,4.29192 -0.825196,0.41276 -1.974899,0.3325 -2.819881,0.005 z m 6.098626,-2.79468 c 1.331362,-1.3216 -0.776707,-7.69471 1.054073,-5.83397 -0.149667,1.3796 1.493244,7.32882 -1.054073,5.83397 z m -5.155054,-3.86035 c -1.235139,-2.82519 2.751519,-3.81868 0.936984,-0.7518 0.09472,0.52895 -0.649887,2.69775 -0.936984,0.7518 z m -1.709897,-2.49229 c 0.62839,-0.65886 0.06475,0.70611 0,0 z m -17.828383,7.91839 c 1.240259,-1.17825 6.698011,-0.9986 5.421394,-2.73449 -3.150404,-2.1183 -6.475608,-4.27721 -8.527565,-7.61774 -3.819649,-5.64204 -6.904712,-11.96976 -7.862925,-18.77055 -1.780208,-4.7649 -5.463846,-8.67472 -9.962961,-10.96867 1.051952,1.55329 2.124405,4.20472 -0.78988,1.8369 -0.853635,-1.41006 -6.016342,-3.21327 -4.894624,-0.63392 1.115156,-0.15698 2.754906,-1.82543 3.05751,0.83461 2.837522,2.1023 -2.758175,-1.48443 -4.021009,0.6632 -1.684938,0.0891 0.448419,-4.46858 0.25276,-3.97144 -1.459256,-0.66771 -6.182095,-1.74744 -2.491756,0.21776 3.416212,2.11401 -3.564173,0.72106 0.736131,2.72221 0.658063,1.7087 -4.86334,-0.99725 -2.724452,1.7588 2.327165,-0.64506 1.410242,1.75996 1.581057,3.18647 -3.683998,0.77485 -2.760313,-2.31675 -3.856119,-4.54206 -4.1302141,2.23336 -4.0485299,7.50176 -3.8660894,11.58448 1.0755687,-0.8597 2.4436621,5.51369 0.8636409,5.37165 0.088397,-2.36737 -1.1177282,-4.85313 -0.5854655,-0.93793 -0.00552,3.55677 1.4131017,2.48904 1.7786274,-0.24788 1.4510816,-2.96701 0.7268427,-8.43062 2.8992586,-10.08282 -0.292807,2.39416 -1.184507,9.27987 0.716913,5.09076 -0.142111,-1.58912 1.419079,-3.26221 0.566076,-5.74165 2.243182,0.88714 -1.653904,7.89969 2.238386,3.95125 4.261363,-1.43088 8.896378,1.50473 10.912394,5.17979 0.02129,1.97643 -3.239091,-3.02087 -1.865988,0.26824 2.774924,3.65737 5.58151,7.57053 6.336297,12.18824 -1.196411,0.96148 -2.699014,-4.04683 -1.894562,-0.1868 1.579948,5.46346 7.002757,8.27513 11.922069,10.11943 1.61666,-0.14204 7.248482,0.0614 3.357691,1.3482 -1.673035,0.58779 -3.227706,1.7074 -0.348095,0.50498 l 0.495333,-0.18307 0.555913,-0.20794 z m 0.666003,-1.90605 c -1.835738,-1.69648 7.243573,-1.52975 2.395936,0.28475 -0.803828,0.0666 -1.641017,0.0271 -2.395936,-0.28475 z M 39.82122,266.99 c -3.804047,-2.83914 5.9112,1.02137 1.440105,0.59526 l -0.688303,-0.20415 z m -4.258564,-1.99803 c 0.05666,-1.32576 0.984989,0.89735 0,0 z m -1.494451,-1.17699 c -1.458668,-3.15754 3.724586,1.43383 0,0 z m -2.068422,-1.60813 c -2.25768,-0.72586 -0.04329,-4.50134 0.135062,-1.19883 1.48532,0.0614 1.124407,2.46704 -0.135062,1.19883 z m 9.914607,-0.82312 c -3.219197,-0.0993 -0.475227,-4.69333 0.520886,-0.63253 0.715657,0.56305 0.151135,1.09332 -0.520886,0.63253 z m -5.735206,-4.17603 c 0.104841,-1.73881 0.131822,-7.9394 1.884147,-3.25911 -1.304899,2.16931 4.14482,3.68813 0.257049,3.03718 -0.737205,-1.18833 -0.910246,1.28924 -2.141196,0.22193 z m -4.621297,-0.33648 c 0.457711,-0.81517 0.228535,0.99558 0,0 z m -0.932746,-1.59654 c -0.166401,-3.33357 1.365102,1.36086 0,0 z m -0.700379,-2.5806 c -0.214604,-4.90982 1.961015,1.74118 0,0 z m -1.850582,-3.3462 c -1.225564,-0.85526 2.153101,0.38007 0,0 z m 3.773074,-0.86529 c -0.117428,-3.52444 1.397067,-1.96165 0.384194,0.45869 l -0.215403,-0.10108 z m 2.598204,-0.15485 c 0.179815,-1.76224 1.380968,1.59813 0,0 z m -7.428927,-2.9714 c -0.219092,-7.37543 2.065264,4.49063 0,0 z m 6.731481,0.22627 c -0.609204,-1.6431 1.615996,0.22874 0,0 z m -1.882739,-1.0972 c 0.841766,-2.03356 0.919015,-3.67747 0.27225,-5.61369 2.096695,0.15173 2.462793,7.5221 -0.27225,5.61369 z M 8.866555,242.31264 c -1.1555396,-2.64261 2.875918,-4.29505 1.0714382,-0.99505 0.012048,0.22456 -0.9010237,1.54288 -1.0714382,0.99505 z m 14.340682,-1.03681 c -0.840424,-1.81036 4.117468,0.21744 0.566047,0.10373 z m -15.6671151,-1.8348 c -0.5287886,-1.94871 2.5402181,-8.68274 2.289887,-3.4842 -0.1748182,2.37289 0.2808381,2.22763 -1.4285265,3.04323 0.2273462,0.92828 -0.5398419,1.97455 -0.8613605,0.44097 z m 8.3900521,-0.0826 c -3.607426,-1.7425 6.626219,-1.26432 2.307657,-0.0982 -0.782014,-0.12373 -1.531421,0.32628 -2.307657,0.0982 z m 0.617035,-2.81021 c 2.758668,-0.13843 1.711279,0.22941 -0.200722,0.0305 z m 12.690105,-0.29289 c -1.997574,-4.96982 4.565785,1.13098 0,0 z m -18.786592,-0.58877 c 0.521772,-1.82124 1.351864,1.27254 0,0 z m 17.350227,-2.58861 c -0.245066,-1.46884 1.29425,0.64136 0,0 z m -14.376764,-0.68643 c 0.808578,-0.45916 0.419806,0.76183 0,0 z m 12.445126,-0.40372 c -1.200455,-2.41808 2.259209,0.52302 0.248466,0.28419 l -0.248471,-0.28423 z m 43.394581,25.03711 c -0.630326,-2.08098 -1.702964,0.91099 0,0 z m 0.293547,-1.94138 c -1.600183,-5.34684 -6.878409,-8.02884 -9.866969,-12.44246 0.823879,4.22321 -4.590566,-7.14741 -2.039141,-1.01456 1.07265,2.89968 3.178255,5.07527 5.243957,5.44509 1.166456,1.61141 7.490824,6.513 3.499666,6.3729 -0.412704,-2.40845 -3.53028,-5.76729 -4.391538,-5.8821 2.237307,2.79303 4.166064,5.83224 5.599286,9.11596 -0.337005,-1.83489 0.495639,-4.70304 1.598972,-1.22932 0.751991,2.83173 0.724202,1.23207 0.355767,-0.36551 z m -8.859368,-9.61451 c -0.967919,-2.10339 1.616746,0.86844 0,0 z m -1.728234,-5.2682 c 0.736581,-2.53848 -3.455168,-2.11154 -1.8589,-1.4354 0.997151,0.29237 3.260895,6.19749 1.8589,1.4354 z m -3.845697,-7.79433 c 0.912743,-1.153 2.92325,-2.154 1.669646,-4.23705 -1.623573,-0.21526 -3.346445,6.2025 -1.669646,4.23705 z m -1.240319,-2.21456 c 1.003923,-3.35535 -1.005974,-0.93846 -0.408707,0.76847 l 0.200614,-0.22574 0.20809,-0.54273 z"
         id="path1076"
         inkscape:connector-curvature="0" />
      <path
         style="fill:#98a2a8;stroke-width:0.20492396"
         d="m 27.254485,284.58556 c -3.464035,-1.95163 -8.635855,0.15484 -11.208287,-3.66657 -2.352479,-3.35401 0.432849,-3.37441 0.651816,-3.44022 -0.235992,-3.277 3.247677,0.28734 5.011491,0.0219 2.360084,2.60775 2.767562,-3.90471 6.301261,-2.77273 3.415899,-1.01939 6.074862,1.74757 5.195992,5.06043 4.281511,-0.61455 8.033255,-3.10456 12.003199,-4.69368 2.959544,-1.48144 4.776219,-5.55522 8.443089,-3.64276 2.445188,-2.84099 -3.902894,-3.85012 -5.7745,-2.0082 -2.536806,-0.0675 -6.976434,4.17449 -8.241391,2.01418 0.580277,-1.74313 3.939325,-2.68243 0.204309,-2.92583 -5.735387,-1.87512 -11.775968,-6.24459 -12.175257,-12.76722 2.161602,-1.96423 -0.614475,-4.25137 -1.69732,-6.28746 -3.174927,-2.57612 -1.739401,-7.65124 -6.444187,-8.37839 -3.94154,-1.31919 -6.751632,3.32875 -9.115169,4.89738 -0.267346,2.17848 -2.699076,9.24918 -3.683278,3.62802 -0.5730284,-5.33712 -1.7741365,-11.24785 0.7047347,-16.27197 1.661695,-2.51887 4.5324323,-2.88886 5.1714443,-4.55435 2.769621,-0.63445 -6.0251814,-2.44419 -1.245184,-2.95005 3.540984,-0.60053 8.668498,2.91636 10.48766,2.62103 0.155774,-2.58979 5.135285,1.71645 6.560134,2.59648 3.862856,3.07548 6.862069,7.55371 7.236008,12.57902 2.103577,7.00585 5.444399,13.89861 10.732844,19.06466 2.418195,3.31281 4.21268,-0.78004 7.612947,-0.24339 4.086587,0.12601 7.081666,-3.47483 11.567747,-2.89799 2.711762,-0.58789 -0.273338,-5.21392 -1.113126,-6.87856 -2.573911,-4.4573 -7.123549,-7.58043 -8.629516,-12.68273 -1.036881,-1.22223 -5.570259,3.79144 -4.231349,-0.84748 1.293664,-3.71493 -5.564613,-5.69768 -1.202678,-9.08622 0.74469,1.95502 2.239855,3.5026 2.049625,0.14926 0.332166,-2.96024 2.313819,-4.96149 5.013812,-4.70134 0.48594,-4.38995 -4.579966,-4.78678 -6.210755,-7.2581 1.119212,-2.78513 -4.975117,-1.19458 -5.261683,-4.07545 -1.259807,-0.48107 -6.440425,1.2417 -4.084544,-1.6174 1.167223,-2.95364 6.458372,-0.58395 6.349342,-3.0535 3.04552,-1.99305 6.083592,2.65878 8.654551,0.33707 4.370679,0.6708 7.421859,5.28489 7.02871,9.61403 -0.330556,4.35045 -3.476142,8.021 -2.822716,12.5593 0.496315,2.21143 1.885255,5.40249 -1.579996,5.92675 0.175385,5.62009 5.634429,8.471 8.668535,12.51968 3.467205,3.23235 1.628972,9.08639 5.659332,11.52024 0.808812,2.67513 -0.480921,7.08058 -0.603984,8.43762 5.176358,-2.2572 10.707252,-3.57927 15.943384,-5.65605 4.262679,1.8095 6.685317,6.28068 9.728735,9.57982 2.481223,3.25824 1.260923,9.16184 -2.505998,10.80165 -3.118228,1.51386 0.298342,-2.66862 -2.860872,-0.82577 -5.153561,1.24965 0.0977,-5.01141 -0.751097,-7.61336 -0.0339,-2.99778 -3.88861,-9.62396 -5.429389,-3.51184 -1.450345,3.0356 3.940904,6.88713 1.906175,9.39594 -3.702025,-0.93318 -7.388559,-4.38869 -7.013915,-8.48668 1.097827,-1.56595 5.045836,-5.99951 0.542151,-3.69422 -4.007204,1.26971 -7.143987,4.13653 -10.238717,6.82967 -3.320829,-1.02591 -4.202075,-6.43726 -8.81142,-5.14873 -3.479857,-0.21649 -5.017456,4.71313 -9.166301,3.62751 -4.3302,0.86714 -8.734135,1.56762 -12.60243,3.88608 -4.076128,1.31939 -7.79419,3.45115 -11.270579,5.80248 -1.225912,0.17712 -2.413158,-0.20063 -3.45339,-0.83193 z m 2.733193,-4.15158 c 2.146359,-2.69602 -9.389268,-2.52003 -4.11643,-0.50538 1.247298,0.83401 2.694556,0.97884 4.11643,0.50538 z m 27.185701,-5.9572 c 4.875795,-0.2266 -0.163718,-3.8547 -1.95989,-2.97309 -3.93373,1.70746 -1.257675,4.1595 1.95989,2.97309 z m 13.631264,-3.10745 c 1.48462,-2.16139 -4.097564,2.1829 -0.761279,0.57276 z m -2.771658,-0.24344 c 3.267936,-1.50868 6.191366,-7.93611 2.752574,-10.50637 -1.202325,-2.26853 -0.523509,-5.66522 -2.308567,-7.96734 -2.630113,-4.81998 -8.619371,-7.33744 -9.716721,-13.10044 0.0066,-2.87814 -3.987743,-0.67139 -1.508007,1.25684 2.135355,5.58487 7.82272,8.86844 9.71071,14.62512 1.793864,3.24491 0.218834,6.06767 -3.550589,5.31914 -3.611387,0.11322 0.678946,4.94132 -0.614211,7.5142 -0.537006,2.40831 0.493809,3.65552 3.16482,3.02216 0.692272,-0.008 1.389074,-0.0189 2.069991,-0.16331 z m -23.05258,-1.7134 c 1.240259,-1.17825 6.698011,-0.9986 5.421394,-2.73449 -3.150404,-2.1183 -6.475608,-4.27721 -8.527565,-7.61774 -3.819649,-5.64204 -6.904712,-11.96976 -7.862925,-18.77055 -1.780208,-4.7649 -5.463846,-8.67472 -9.962961,-10.96867 1.052082,1.52917 1.875166,4.09446 -0.78988,1.83871 -2.736226,-1.79675 -7.043222,-4.25255 -9.61543,-3.84381 2.545947,0.98129 2.732859,2.51194 0.886834,2.68461 4.629606,3.62189 -4.262139,-0.7795 -5.2347597,2.6089 -3.2361612,3.62718 -2.1484754,8.84483 -2.1431235,13.28446 -0.1212175,1.94304 0.9330058,6.4111 1.7173654,1.9727 1.5374698,-3.22973 1.0688066,-8.7414 3.1145248,-10.80531 0.520272,1.74117 -2.3615308,9.11202 1.103633,5.38906 2.475827,-3.73917 7.747168,-2.68542 10.672508,-0.1031 2.196314,0.82987 3.655549,5.9283 0.692772,2.20821 0.115985,2.94732 4.144516,5.56953 4.948975,8.8484 1.130552,1.39124 2.171264,7.1908 -0.227742,3.04302 -1.06156,2.77915 3.702752,8.15707 7.253461,9.48961 2.079836,0.90566 4.044272,2.41933 6.431679,2.07435 2.32436,-0.43174 4.100179,1.07015 0.868265,1.51541 -3.446654,1.537 -0.158669,0.4634 1.252975,-0.11377 z M 55.12414,232.40652 c 0.912743,-1.153 2.92325,-2.154 1.669646,-4.23705 -1.623573,-0.21526 -3.346445,6.2025 -1.669646,4.23705 z m -1.240319,-2.21456 c 1.003923,-3.35535 -1.005974,-0.93846 -0.408707,0.76847 l 0.200614,-0.22574 0.20809,-0.54273 z"
         id="path1074"
         inkscape:connector-curvature="0" />
      <path
         style="fill:#c49e4f;stroke-width:0.20492396"
         d="m 27.459408,284.39788 c -2.357298,-1.82989 -5.608285,-0.33751 -8.220522,-1.57107 -2.91354,0.31826 -5.706608,-7.05064 -2.049945,-4.67141 -1.439803,-3.74481 3.629535,-0.26812 5.404822,0.20995 1.771578,1.43976 7.77413,4.48542 7.845586,0.81213 -1.717352,-2.02607 -9.707071,0.97954 -5.437128,-3.08266 3.25898,-2.52368 9.368566,-1.20241 8.140592,3.62118 3.676603,0.52728 7.40468,-2.74747 10.98395,-3.88699 3.660421,-0.92106 5.315638,-6.03088 9.394588,-4.06728 3.644539,-2.71859 -3.622808,-4.90931 -5.710525,-2.56587 -2.583667,0.35021 -5.898058,2.97444 -7.956468,2.48386 0.300553,-1.92363 5.0519,-3.15114 0.669383,-3.18667 -5.911962,-1.88536 -12.35313,-6.14687 -12.639353,-12.96688 2.601753,-3.27979 -3.56157,-7.03293 -4.470124,-10.59043 0.956982,-3.15138 -3.780934,-4.28744 -6.0978,-4.24964 -2.92398,0.539 -4.804178,3.67542 -7.085866,4.86136 -0.2683213,2.00123 -2.3443066,9.30762 -3.2724221,3.98014 -0.6074965,-5.40622 -1.8089109,-11.386 0.9053846,-16.4058 0.7932325,-2.64566 5.9288455,-2.10238 4.4210275,-3.96896 5.792959,-0.35135 -6.7238548,-3.39273 0.233678,-3.05497 3.635285,0.0169 7.540641,2.82682 10.28822,3.29531 -2.575768,-3.74589 3.970504,0.64639 5.033711,1.52333 4.003437,3.01136 7.162613,7.54743 7.511222,12.651 2.287825,7.31508 5.600557,14.75742 11.529304,19.83565 2.347593,2.90364 3.251287,-1.05416 6.227737,-0.66062 4.480806,0.59967 7.21237,-3.43829 11.886455,-2.85089 4.734882,-1.08922 -0.505369,-7.38837 -2.141617,-9.91494 -2.545777,-3.13165 -5.495261,-6.01916 -6.812422,-9.94519 -0.876771,-2.55637 -5.174564,3.72866 -4.201883,-0.72147 1.800887,-3.73461 -5.447014,-5.97441 -1.309222,-8.89035 0.293505,2.90398 2.771403,2.96022 2.244766,-0.19475 0.163274,-2.96563 1.994176,-4.75159 4.697092,-4.30526 1.204,-4.35938 -4.14208,-5.4858 -6.027997,-7.7047 2.199727,-2.77984 -5.395077,-1.29851 -5.168821,-4.28823 -1.945591,0.067 -7.09086,0.51009 -3.283624,-1.89296 1.810624,-2.56078 6.548876,0.3806 5.743465,-2.60965 3.098151,-1.16416 5.813554,3.08384 8.156587,0.63405 4.397164,0.73682 7.331282,5.45799 6.801118,9.79062 -0.746554,4.73257 -4.137855,9.09596 -2.509443,14.09843 2.243193,3.42117 -4.399177,3.55446 -1.155542,7.09363 2.021549,5.44671 8.58971,7.68316 10.066306,13.50732 0.447689,3.22778 1.274188,5.84715 3.562027,7.72817 0.841643,2.80204 -0.709799,7.05836 -0.910892,8.53585 5.223132,-2.05552 10.619094,-3.63995 15.891177,-5.55166 4.082514,0.2151 5.838008,5.0477 8.683388,7.43904 3.281352,2.86967 3.328682,7.98672 0.660012,11.27462 -1.473035,1.23835 -3.755618,2.00778 -2.614963,-0.30081 -3.551954,1.67754 -4.9322,0.21068 -3.022716,-3.2184 1.765333,-3.01711 -0.171197,-10.8331 -3.881892,-9.69981 -3.726999,3.55448 0.284897,6.77284 0.886611,10.5141 0.795551,2.74812 -4.893485,-1.06434 -5.431999,-2.63224 -3.544281,-3.10264 0.456048,-6.55678 1.512827,-9.11606 -4.513573,0.66558 -8.534153,3.45476 -11.84812,6.52592 -3.115617,3.09468 -3.841137,-3.83741 -6.830027,-4.06214 -3.176546,-0.47174 -6.124944,-0.0573 -8.023688,2.81902 -4.840783,1.21621 -10.089763,1.12882 -14.608461,3.50236 -4.005521,2.17521 -8.766615,2.95585 -12.137655,6.22613 -1.29871,1.10607 -3.218059,0.78297 -4.519899,-0.13441 z m 30.329743,-10.00841 c 4.780009,-0.92863 -1.328803,-3.70574 -2.746575,-2.9163 -4.398768,2.50171 -0.05005,4.04565 2.746575,2.9163 z m 12.498887,-2.56593 c 3.179587,-2.10439 -2.722413,-0.40996 -1.217451,0.73646 l 0.436973,-0.21634 z m -1.749042,-0.87844 c 2.839996,-1.95047 5.598716,-7.87806 2.277371,-10.33706 -1.232366,-1.73949 -0.374059,-4.7259 -1.719655,-6.70836 -2.108648,-5.66471 -9.022288,-7.93795 -10.26399,-14.09825 -0.011,-3.07249 -4.108645,-1.34648 -1.601406,1.03914 1.976691,5.40247 7.472675,8.50275 9.426168,13.95772 1.760636,2.84878 1.300752,6.90254 -2.845468,5.84967 -4.277081,0.095 0.397799,5.43222 -1.034792,8.22371 -1.523435,3.77047 3.757827,2.23944 5.761772,2.07343 z m -24.54213,-1.15931 c 2.074156,-1.2633 10.288866,-1.717 4.534995,-4.43282 -5.365664,-3.10165 -8.56303,-8.75753 -11.121234,-14.19537 -2.392759,-4.08141 -2.561249,-8.91882 -4.366865,-13.13512 -2.104207,-3.77579 -5.341199,-7.03996 -9.272984,-8.77656 1.40707,1.38538 2.309429,4.20522 -0.473661,1.87149 -3.102906,-2.09997 -6.690202,-3.82814 -10.378807,-4.282 3.689384,1.52354 2.897196,3.00581 1.284874,2.97255 2.30364,0.94183 2.427809,2.82072 -0.42835,1.4567 -5.3297831,-1.0542 -7.230903,5.27643 -6.7602388,9.44992 0.1984911,2.82433 -0.3051836,7.54931 1.1481555,9.26284 1.6343845,-4.16852 2.1439933,-8.76866 3.2483603,-12.99951 2.102211,0.5523 -2.3191877,9.86921 1.629946,5.56047 2.649868,-4.01115 8.206894,-2.61653 11.203984,0.17377 1.948968,0.89501 2.885987,5.43617 0.420428,1.91388 -1.676082,0.51717 3.107837,4.88274 3.664494,6.78673 0.631897,1.64653 3.662334,5.92012 1.813053,6.50968 -0.704909,-1.17843 -2.166612,-3.92335 -1.305456,-0.719 1.367038,5.81649 7.170208,9.32122 12.585807,10.76231 1.770094,-0.23235 6.793135,0.40511 2.395479,1.44575 -2.616824,0.94961 -3.51261,2.15866 0.17802,0.37429 z m 11.335335,-37.03228 c 0.737448,-1.30248 3.183021,-2.56157 1.469225,-4.84354 -1.975987,-0.1526 -3.869373,7.02499 -1.469225,4.84354 z m -1.20727,-2.27901 c 1.051583,-3.08143 -0.98205,-2.71747 -1.177753,-0.0689 -0.465122,1.40198 1.045906,0.81829 1.177753,0.0689 z"
         id="path1072"
         inkscape:connector-curvature="0" />
      <path
         style="fill:#758f9f;stroke-width:0.20492396"
         d="m 27.459408,284.39788 c -2.357298,-1.82989 -5.608285,-0.33751 -8.220522,-1.57107 -2.91354,0.31826 -5.706608,-7.05064 -2.049945,-4.67141 -1.439803,-3.74481 3.629535,-0.26812 5.404822,0.20995 1.771578,1.43976 7.77413,4.48542 7.845586,0.81213 -1.717352,-2.02607 -9.707071,0.97954 -5.437128,-3.08266 3.25898,-2.52368 9.368566,-1.20241 8.140592,3.62118 3.676603,0.52728 7.40468,-2.74747 10.98395,-3.88699 3.660421,-0.92106 5.315638,-6.03088 9.394588,-4.06728 3.644539,-2.71859 -3.622808,-4.90931 -5.710525,-2.56587 -2.583667,0.35021 -5.898058,2.97444 -7.956468,2.48386 0.300553,-1.92363 5.0519,-3.15114 0.669383,-3.18667 -5.911962,-1.88536 -12.35313,-6.14687 -12.639353,-12.96688 2.601753,-3.27979 -3.56157,-7.03293 -4.470124,-10.59043 0.956982,-3.15138 -3.780934,-4.28744 -6.0978,-4.24964 -2.92398,0.539 -4.804178,3.67542 -7.085866,4.86136 -0.2683213,2.00123 -2.3443066,9.30762 -3.2724221,3.98014 -0.6074965,-5.40622 -1.8089109,-11.386 0.9053846,-16.4058 0.7932325,-2.64566 5.9288455,-2.10238 4.4210275,-3.96896 5.792959,-0.35135 -6.7238548,-3.39273 0.233678,-3.05497 3.635285,0.0169 7.540641,2.82682 10.28822,3.29531 -2.575768,-3.74589 3.970504,0.64639 5.033711,1.52333 4.003437,3.01136 7.162613,7.54743 7.511222,12.651 2.287825,7.31508 5.600557,14.75742 11.529304,19.83565 2.347593,2.90364 3.251287,-1.05416 6.227737,-0.66062 4.480806,0.59967 7.21237,-3.43829 11.886455,-2.85089 4.734882,-1.08922 -0.505369,-7.38837 -2.141617,-9.91494 -2.545777,-3.13165 -5.495261,-6.01916 -6.812422,-9.94519 -0.876771,-2.55637 -5.174564,3.72866 -4.201883,-0.72147 1.800887,-3.73461 -5.447014,-5.97441 -1.309222,-8.89035 0.293505,2.90398 2.771403,2.96022 2.244766,-0.19475 0.163274,-2.96563 1.994176,-4.75159 4.697092,-4.30526 1.204,-4.35938 -4.14208,-5.4858 -6.027997,-7.7047 2.199727,-2.77984 -5.395077,-1.29851 -5.168821,-4.28823 -1.945591,0.067 -7.09086,0.51009 -3.283624,-1.89296 1.810624,-2.56078 6.548876,0.3806 5.743465,-2.60965 3.098151,-1.16416 5.813554,3.08384 8.156587,0.63405 4.397164,0.73682 7.331282,5.45799 6.801118,9.79062 -0.746554,4.73257 -4.137855,9.09596 -2.509443,14.09843 2.243193,3.42117 -4.399177,3.55446 -1.155542,7.09363 2.021549,5.44671 8.58971,7.68316 10.066306,13.50732 0.447689,3.22778 1.274188,5.84715 3.562027,7.72817 0.841643,2.80204 -0.709799,7.05836 -0.910892,8.53585 5.223132,-2.05552 10.619094,-3.63995 15.891177,-5.55166 4.082514,0.2151 5.838008,5.0477 8.683388,7.43904 3.281352,2.86967 3.328682,7.98672 0.660012,11.27462 -1.473035,1.23835 -3.755618,2.00778 -2.614963,-0.30081 -3.551954,1.67754 -4.9322,0.21068 -3.022716,-3.2184 1.765333,-3.01711 -0.171197,-10.8331 -3.881892,-9.69981 -3.726999,3.55448 0.284897,6.77284 0.886611,10.5141 0.795551,2.74812 -4.893485,-1.06434 -5.431999,-2.63224 -3.544281,-3.10264 0.456048,-6.55678 1.512827,-9.11606 -4.513573,0.66558 -8.534153,3.45476 -11.84812,6.52592 -3.115617,3.09468 -3.841137,-3.83741 -6.830027,-4.06214 -3.176546,-0.47174 -6.124944,-0.0573 -8.023688,2.81902 -4.840783,1.21621 -10.089763,1.12882 -14.608461,3.50236 -4.005521,2.17521 -8.766615,2.95585 -12.137655,6.22613 -1.29871,1.10607 -3.218059,0.78297 -4.519899,-0.13441 z m 30.329743,-10.00841 c 4.780009,-0.92863 -1.328803,-3.70574 -2.746575,-2.9163 -4.398768,2.50171 -0.05005,4.04565 2.746575,2.9163 z m 12.498887,-2.56593 c 3.179587,-2.10439 -2.722413,-0.40996 -1.217451,0.73646 l 0.436973,-0.21634 z m -1.749042,-0.87844 c 2.839996,-1.95047 5.598716,-7.87806 2.277371,-10.33706 -1.232366,-1.73949 -0.374059,-4.7259 -1.719655,-6.70836 -2.108648,-5.66471 -9.022288,-7.93795 -10.26399,-14.09825 -0.011,-3.07249 -4.108645,-1.34648 -1.601406,1.03914 1.976691,5.40247 7.472675,8.50275 9.426168,13.95772 1.760636,2.84878 1.300752,6.90254 -2.845468,5.84967 -4.277081,0.095 0.397799,5.43222 -1.034792,8.22371 -1.523435,3.77047 3.757827,2.23944 5.761772,2.07343 z m -24.54213,-1.15931 c 2.074156,-1.2633 10.288866,-1.717 4.534995,-4.43282 -5.365664,-3.10165 -8.56303,-8.75753 -11.121234,-14.19537 -2.392759,-4.08141 -2.561249,-8.91882 -4.366865,-13.13512 -2.104207,-3.77579 -5.341199,-7.03996 -9.272984,-8.77656 1.40707,1.38538 2.309429,4.20522 -0.473661,1.87149 -3.102906,-2.09997 -6.690202,-3.82814 -10.378807,-4.282 3.689384,1.52354 2.897196,3.00581 1.284874,2.97255 2.30364,0.94183 2.427809,2.82072 -0.42835,1.4567 -5.3297831,-1.0542 -7.230903,5.27643 -6.7602388,9.44992 0.1984911,2.82433 -0.3051836,7.54931 1.1481555,9.26284 1.6343845,-4.16852 2.1439933,-8.76866 3.2483603,-12.99951 2.102211,0.5523 -2.3191877,9.86921 1.629946,5.56047 2.649868,-4.01115 8.206894,-2.61653 11.203984,0.17377 1.948968,0.89501 2.885987,5.43617 0.420428,1.91388 -1.676082,0.51717 3.107837,4.88274 3.664494,6.78673 0.631897,1.64653 3.662334,5.92012 1.813053,6.50968 -0.704909,-1.17843 -2.166612,-3.92335 -1.305456,-0.719 1.367038,5.81649 7.170208,9.32122 12.585807,10.76231 1.770094,-0.23235 6.793135,0.40511 2.395479,1.44575 -2.616824,0.94961 -3.51261,2.15866 0.17802,0.37429 z m 9.05547,-29.67906 c 0.17397,-3.19458 -1.923454,1.08484 0,0 z m 2.584114,-2.04827 c 2.262368,-0.80721 8.217205,-1.31725 4.144578,-4.57599 -2.761403,-0.0879 -6.938058,-0.002 -8.86332,-0.12051 1.113365,3.13055 5.536741,2.92586 7.051948,0.95518 4.553075,0.12742 -3.507685,1.48188 -3.658231,4.05277 -1.794457,2.39427 0.661526,0.17341 1.325025,-0.31145 z m -5.225561,-4.21945 c -0.62957,-2.76638 -1.259616,0.34828 0,0 z m 4.921312,-1.0855 c 0.737448,-1.30248 3.183021,-2.56157 1.469225,-4.84354 -1.975987,-0.1526 -3.869373,7.02499 -1.469225,4.84354 z m -1.20727,-2.27901 c 1.051583,-3.08143 -0.98205,-2.71747 -1.177753,-0.0689 -0.465122,1.40198 1.045906,0.81829 1.177753,0.0689 z"
         id="path1070"
         inkscape:connector-curvature="0" />
      <path
         style="fill:#8a7460;stroke-width:0.20492396"
         d="m 27.459408,284.3879 c -2.362217,-1.80205 -5.596034,-0.34322 -8.202085,-1.57088 -2.791361,0.26897 -5.695287,-6.57357 -2.044111,-4.71074 -1.405895,-3.5522 3.715041,-0.32729 5.380552,0.25907 1.796896,1.53534 8.177494,4.54986 7.715927,0.56442 -1.958243,-1.36042 -9.526642,0.81649 -5.10298,-2.96546 3.179494,-2.24694 9.200037,-1.17112 7.901953,3.71544 4.114138,0.48017 8.525026,-3.20938 12.646352,-4.61005 2.6545,-1.64837 4.450846,-5.11373 7.906473,-3.21238 3.617943,-2.77748 -3.611639,-5.11184 -5.774008,-2.83636 -1.673416,0.4915 -8.983045,3.28531 -3.817465,1.02697 2.333142,-1.24212 10.178231,-1.819 4.840808,-4.77776 -5.486512,-3.10293 -8.787677,-8.8197 -11.326553,-14.37343 -1.902507,-3.72553 -2.828538,-7.75987 -3.684189,-11.80461 -1.874879,-4.21249 -5.30661,-7.33998 -9.030409,-9.91266 5.566839,2.85163 10.064212,8.51707 10.46885,14.92461 2.461201,7.26276 5.791643,14.73118 11.816467,19.74045 2.133817,2.11999 3.280145,-1.40728 6.148526,-1.02169 4.174372,0.9162 6.235813,-3.14672 10.529889,-2.5104 -4.916804,-0.16456 0.182702,4.85975 -1.175558,7.66107 -2.111141,5.34305 7.194899,4.49571 8.423404,0.60947 2.123571,-3.35229 1.5025,-6.87871 -0.494289,-9.61545 -0.311759,-4.97559 -3.17711,-9.35239 -7.061352,-12.34906 -3.934646,-1.55322 -2.97775,-8.39562 -6.870977,-8.5937 -0.795762,3.46496 3.041499,7.708 5.599987,10.41322 1.983955,2.02047 5.275601,7.6245 4.671546,8.85797 -1.382737,-5.32461 -5.662867,-9.09711 -8.829288,-13.35854 -1.192451,-2.16444 -2.1669,-6.67861 -5.041937,-3.34539 -3.433889,1.70312 1.071,-5.73846 -3.052467,-6.00547 -2.132404,-1.70816 0.591324,-6.0655 1.47507,-2.04959 1.369162,1.2322 2.761473,-3.79929 2.690344,0.35672 1.73353,1.64867 0.707862,-2.09622 2.720014,-1.25927 1.855306,-3.95615 -1.375974,-4.38984 -2.624994,-0.98141 0.161651,-1.02292 0.581585,-4.01194 -0.957292,-2.04924 0.0076,-3.30039 2.854242,-1.86002 4.448972,-3.02668 0.607584,-4.4424 -4.766516,-5.1068 -6.23357,-7.63477 2.350135,-2.37074 -5.349623,-1.12908 -5.361384,-4.08804 -1.847704,-0.089 -7.031956,0.47568 -3.056465,-1.84654 1.909363,-2.23126 6.699223,0.32578 5.775622,-2.51245 2.405298,-1.10849 5.219541,2.31654 6.833741,1.16955 3.323153,-1.59313 7.357839,3.02529 7.715921,6.32862 1.477697,4.84125 -2.974408,8.78672 -2.690743,13.55716 0.02953,2.99619 2.159232,6.52078 -1.645102,7.71702 0.64661,7.39291 9.520807,9.8658 11.049683,16.83309 0.307376,2.99397 1.055067,5.45158 3.409717,6.96461 0.866461,2.98106 -0.380362,6.96497 -1.105548,8.8553 5.327118,-2.07153 10.811959,-3.73042 16.189536,-5.66006 4.079783,0.22045 5.819388,5.05049 8.696188,7.41472 1.15426,1.57355 2.848876,3.07377 2.361646,5.20649 1.25726,2.7376 -2.909763,8.83534 -4.372127,6.5882 0.547694,-2.36862 -5.524292,1.83045 -3.516048,-1.95847 1.63159,-3.97632 1.691278,-8.74166 -1.617267,-11.9729 -3.122486,-0.65738 -4.770062,5.60411 -1.751099,7.4039 0.395705,1.75214 2.437889,6.14633 -1.018169,3.60861 -3.412991,-1.42758 -7.08802,-6.55537 -3.309833,-9.60473 4.056147,-4.47667 -3.441676,-1.11665 -5.284686,0.0452 -3.167711,1.50291 -7.234824,8.20705 -9.391608,2.07502 -2.525235,-3.77526 -8.474228,-2.8951 -10.816468,0.59425 -5.462381,1.45055 4.731059,-1.68068 -0.130264,-2.44482 -2.326371,-3.81954 -8.512079,2.02832 -3.426784,2.8319 2.390328,-0.16382 -4.06645,1.32611 -4.9972,1.30454 -4.818948,0.78987 -8.911032,3.70489 -13.521808,5.17386 -3.140838,0.96644 -5.533999,5.6448 -9.081061,2.86154 z M 70.50055,271.90692 c 3.557164,-3.40939 -5.12172,0.98549 -0.807789,0.55372 l 0.352507,-0.23512 0.455239,-0.3186 z M 53.052336,240.10673 c 0.17397,-3.19458 -1.923454,1.08484 0,0 z m 2.584114,-2.04827 c 2.262368,-0.80721 8.217205,-1.31725 4.144578,-4.57599 -2.761403,-0.0879 -6.938058,-0.002 -8.86332,-0.12051 1.113365,3.13055 5.536741,2.92586 7.051948,0.95518 4.553075,0.12742 -3.507685,1.48188 -3.658231,4.05277 -1.794457,2.39427 0.661526,0.17341 1.325025,-0.31145 z m -5.225561,-4.21945 c -0.62957,-2.76638 -1.259616,0.34828 0,0 z m -10.45112,37.84442 c 0.788194,-1.6176 4.35456,-4.36162 5.098047,-2.96538 -2.147526,0.44694 -4.947747,2.34753 -4.133759,2.90361 0.0015,0.8832 -1.230338,0.62768 -0.964288,0.0618 z m 0.973388,-3.35763 c 1.275218,-0.2033 0.01587,0.35457 0,0 z m -1.793084,-0.42111 c -5.197725,-2.08525 -10.934062,-6.01909 -11.025328,-12.22255 2.43325,-3.43447 -3.550027,-7.1762 -4.612198,-10.81029 1.402761,-2.0853 -4.441065,-4.79481 -0.442234,-2.67698 1.804969,0.51781 4.598657,5.85715 1.605446,2.10492 -2.471362,-0.0642 2.133118,4.62121 2.789505,6.10397 0.987302,1.71133 3.90035,6.7722 2.61466,7.04053 -0.86167,-2.32894 -2.557823,-2.58292 -1.371139,0.34089 1.413839,5.40289 6.607955,8.20866 11.346155,10.2291 0.851596,0.61208 -0.99446,-0.15091 -0.904867,-0.10959 z m 25.717954,-7.84506 c 3.341247,-0.67859 -0.873723,0.81751 0,0 z m 1.676731,0.0715 c 0.55432,-1.60826 1.39699,0.43882 0,0 z M 7.6101026,251.50574 C 6.2361532,245.79749 5.62923,239.53738 7.463291,233.86037 c 0.9370906,-2.37256 4.37945,-3.03272 5.68511,-3.7426 -3.1608996,-1.3887 3.823882,-0.77961 0.05849,-2.32069 -1.801245,-0.36431 -4.3300017,-2.50539 -1.059981,-1.14994 1.363757,1.21269 5.874173,3.1375 1.310185,2.84343 1.318396,1.03725 3.796937,2.63826 0.27927,1.55104 -4.4699229,-1.00061 -7.1753285,3.85791 -7.0180104,7.72586 0.099824,3.81277 -0.3658315,8.68406 1.3606503,11.84219 2.0846331,-4.12211 2.2270611,-8.92458 3.5554781,-13.248 0.373683,1.77431 -2.1625094,9.50599 1.643338,5.34232 0.478353,-2.36242 7.567581,-2.93889 3.023426,-1.92279 -3.078894,2.40223 -7.0061078,3.89879 -7.2241697,8.40904 -0.3536204,0.26739 -0.6810181,3.35612 -1.4669717,2.31551 z M 19.979685,240.79678 c -1.867041,-1.19833 2.857146,1.21053 0,0 z m 4.18261,-9.37635 c -2.323991,-2.30306 -8.747879,-4.2102 -9.776037,-4.91274 2.84118,0.14508 6.90991,3.55511 8.580963,2.86011 -2.239031,-1.87416 -0.02115,-2.00506 1.13775,-0.51757 -3.569187,-1.6866 3.391747,4.29315 0.05732,2.5702 z m -11.303717,-5.10405 c 1.275229,-0.20332 0.01585,0.3546 0,0 z"
         id="path1068"
         inkscape:connector-curvature="0" />
      <path
         style="fill:#595e85;stroke-width:0.20492396"
         d="m 95.084308,284.97982 c 2.399395,-3.32719 -5.793344,1.30152 -3.07386,-2.50167 1.540961,-3.54238 1.73339,-7.7711 -0.816376,-10.97449 -3.033798,-4.5658 -6.778178,4.71861 -2.887969,6.58744 0.388339,1.79679 2.587896,5.88242 -0.82363,3.29217 -3.921483,-1.4884 -6.927831,-7.15831 -2.60094,-10.09523 2.797077,-4.46213 -5.957452,0.3019 -7.518721,1.40988 -2.574729,2.06431 -6.256935,6.67643 -7.96745,1.08206 -0.998586,-1.68873 -2.744366,-1.97962 -4.526153,-1.96757 -3.383292,-1.76812 -5.624307,3.99292 -7.972518,3.10704 2.974576,-0.36539 3.996397,-2.80903 0.571754,-3.19508 -2.665669,-3.1997 -7.119532,3.89461 -1.924088,3.33771 -0.116646,0.35172 -5.888937,1.04331 -7.699056,1.58717 -4.171784,1.57709 -8.223423,3.47384 -12.345214,5.17384 -2.926036,2.75833 -6.431673,4.31182 -9.948433,1.5084 -3.798166,-0.0749 -9.365102,-0.0133 -10.062726,-4.88254 -0.469663,-2.3563 2.660273,1.86046 1.568536,-1.21426 -0.06674,-1.75949 3.226996,0.72741 4.726039,0.8685 2.341249,1.47248 7.858551,5.22286 9.022849,1.24977 -1.332073,-2.78691 -10.222502,0.61847 -5.413047,-3.32587 3.433356,-2.06323 8.76162,-0.72223 7.63087,3.96686 4.290536,0.19789 8.239821,-3.09335 12.332238,-4.50038 2.991602,-1.5798 4.622081,-5.11309 8.362724,-3.66609 3.477885,-2.81226 -3.685407,-5.04742 -5.831647,-2.80655 -1.673417,0.4915 -8.983046,3.28531 -3.817465,1.02696 2.333143,-1.24211 10.17823,-1.81899 4.840808,-4.77775 -5.486506,-3.10293 -8.787682,-8.81969 -11.326553,-14.37342 -1.895117,-3.72085 -2.833276,-7.74453 -3.674974,-11.78665 -1.854169,-4.08713 -5.10057,-7.26282 -8.810013,-9.70027 2.53125,0.95196 6.976845,5.01318 8.565399,8.5202 1.768573,4.0716 1.87003,8.6489 4.117535,12.60062 2.505666,5.37812 5.657216,10.95832 10.784841,14.2284 1.735179,-2.64264 7.248199,-1.00329 9.537741,-3.00189 1.364066,-1.59769 8.680182,-1.87382 3.340446,-0.88797 1.964977,2.96424 0.125536,8.31852 1.863677,10.49479 5.179296,1.81407 9.160162,-2.74732 9.18471,-7.665 -0.331067,-2.90999 -2.810784,-4.89742 -2.606753,-8.24826 -1.328729,-6.72849 -9.381637,-9.06903 -10.8279,-15.71328 -0.121368,-2.34278 -3.394172,-1.96326 0.0052,-2.3411 -0.03883,5.24566 4.438969,8.64443 7.81339,11.98733 4.465353,2.97095 2.012187,10.05391 6.549052,12.20791 1.029108,3.16092 -0.140682,7.18891 -1.016534,9.43601 5.262691,-1.93249 10.781932,-3.49888 16.021836,-5.6238 4.127136,0.26801 6.257083,5.249 9.131131,7.87342 3.632746,3.25857 2.617876,10.55673 -2.250499,11.98805 l -0.161205,-0.0839 -0.06705,-0.2016 z M 70.50055,271.90692 c 3.557164,-3.40939 -5.12172,0.98549 -0.807789,0.55372 l 0.352507,-0.23512 0.455239,-0.3186 z m -30.540781,-0.0508 c 0.603117,-1.78302 4.355873,-4.5196 5.098047,-3.13805 -2.147526,0.44694 -4.947747,2.34753 -4.133759,2.90361 0.516701,0.18382 -1.204522,0.86932 -0.964288,0.23444 z m 0.973388,-3.5303 c 1.275218,-0.2033 0.01587,0.35457 0,0 z m -1.793084,-0.42111 c -5.197725,-2.08525 -10.934062,-6.01909 -11.025328,-12.22255 2.43325,-3.43447 -3.550027,-7.1762 -4.612198,-10.81029 1.402761,-2.0853 -4.441065,-4.79481 -0.442234,-2.67698 1.804969,0.51781 4.598657,5.85715 1.605446,2.10492 -2.471362,-0.0642 2.133118,4.62121 2.789505,6.10397 0.987302,1.71133 3.90035,6.7722 2.61466,7.04053 -0.86167,-2.32894 -2.557823,-2.58292 -1.371139,0.34089 1.413839,5.40289 6.607955,8.20866 11.346155,10.2291 0.851596,0.61208 -0.99446,-0.15091 -0.904867,-0.10959 z m 25.717954,-7.84506 c 3.341247,-0.67859 -0.873723,0.81751 0,0 z m 1.676731,0.0715 c 0.55432,-1.60826 1.39699,0.43882 0,0 z m 0.440986,-2.63305 c -1.331595,-5.34016 -5.535691,-9.20733 -8.808248,-13.40386 -0.232209,-1.76139 -4.438786,-6.20212 -2.000203,-5.79119 0.730183,3.94129 3.27888,7.38775 6.12467,10.17663 2.010472,2.37474 4.950364,6.68588 4.683781,9.01842 z M 7.6101026,251.50574 C 6.2361532,245.79749 5.62923,239.53738 7.463291,233.86037 c 0.9370906,-2.37256 4.37945,-3.03272 5.68511,-3.7426 -3.1683972,-1.3892 3.790492,-0.76846 0.08943,-2.30447 -1.615537,-0.44819 -4.4117534,-2.26448 -1.097186,-1.19011 1.335837,1.24166 5.897552,3.15407 1.316448,2.86738 1.318396,1.03725 3.796937,2.63826 0.27927,1.55104 -4.4699229,-1.00061 -7.1753285,3.85791 -7.0180104,7.72586 0.099824,3.81277 -0.3658315,8.68406 1.3606503,11.84219 2.0846331,-4.12211 2.2270611,-8.92458 3.5554781,-13.248 0.373683,1.77431 -2.1625094,9.50599 1.643338,5.34232 0.478353,-2.36242 7.567581,-2.93889 3.023426,-1.92279 -3.078894,2.40223 -7.0061078,3.89879 -7.2241697,8.40904 -0.3536204,0.26739 -0.6810181,3.35612 -1.4669727,2.31551 z M 19.979685,240.79678 c -1.867041,-1.19833 2.857146,1.21053 0,0 z m 31.700026,-0.0154 c 0.872276,-0.83096 0.530092,0.89154 0,0 z m 1.152652,-2.62011 c -0.211453,-2.04654 -3.661313,-5.13339 0.21817,-2.68847 2.535105,2.02637 5.12295,-2.79757 6.502086,-0.66273 -2.41316,-0.12701 -4.724782,2.45664 -5.995336,3.57791 0.341155,1.46769 -1.09427,0.97773 -0.72492,-0.22671 z m 7.267666,-4.57022 c -1.560699,-1.81772 -6.23581,1.91802 -4.221059,-1.912 2.907971,0.27186 1.102896,-6.68794 -0.866221,-2.23421 -0.767385,1.78907 -1.960089,-4.77901 0.931089,-3.30015 4.390325,-0.18877 -0.536661,-7.0878 -3.539531,-6.76923 -2.515162,-1.00809 1.874819,-3.20952 -1.782285,-2.87941 -3.576454,-0.30373 -4.565919,-4.01228 -8.482839,-2.65671 -1.551704,-1.62873 4.506547,-3.79946 6.482306,-2.85926 0.685291,-0.11107 -0.984793,-2.29491 1.552711,-1.51855 2.466813,-0.51052 4.663171,3.13322 6.357171,0.63622 3.830884,0.48471 7.020482,4.239 7.111938,8.14135 0.558561,4.74658 -3.695468,8.56674 -2.854492,13.38735 -0.258234,0.30447 0.534569,3.5708 -0.688788,1.9646 z m -9.573503,-0.11149 c -0.135839,-0.85914 0.572134,0.88174 0,0 z m 2.205416,-0.80272 c 2.069853,-4.94899 1.462629,3.27264 0,0 z m -2.67967,-0.79343 c -0.870729,-3.75064 2.097609,1.40929 0,0 z M 24.162295,231.4204 c -2.324772,-2.30312 -8.745812,-4.20976 -9.77657,-4.91279 2.673453,-0.0137 7.468396,3.94026 8.510754,2.76148 -3.05102,-2.88957 3.192756,0.10462 0.15811,-0.57951 0.04158,0.69877 3.656499,4.02772 1.107706,2.73082 z m -11.303717,-5.10405 c 1.275229,-0.20332 0.01585,0.3546 0,0 z"
         id="path1066"
         inkscape:connector-curvature="0" />
      <path
         style="fill:#636469;stroke-width:0.20492396"
         d="m 95.084308,284.97982 c 2.399395,-3.32719 -5.793344,1.30152 -3.07386,-2.50167 1.540961,-3.54238 1.73339,-7.7711 -0.816376,-10.97449 -3.033798,-4.5658 -6.778178,4.71861 -2.887969,6.58744 0.388339,1.79679 2.587896,5.88242 -0.82363,3.29217 -3.921483,-1.4884 -6.927831,-7.15831 -2.60094,-10.09523 2.797077,-4.46213 -5.957452,0.3019 -7.518721,1.40988 -2.525122,1.96123 -6.231388,6.73097 -7.868484,1.14979 -2.556317,-1.58888 4.541897,-2.3835 1.103356,-4.20537 1.690668,-2.61661 3.485671,-6.99362 0.612985,-9.44448 3.811504,0.94576 2.582691,6.02896 1.992767,8.85358 -3.291716,4.21448 4.681146,-0.46141 6.511576,-0.54495 4.091048,-0.38386 8.773116,-5.39357 12.216914,-1.50673 2.640129,2.84908 5.55773,5.62507 7.439511,9.03995 1.158523,3.11572 -0.576692,9.28062 -4.287129,8.94011 z m -67.790232,-0.86427 c -3.411651,-2.04727 -9.262921,0.47821 -11.193556,-4.03592 -1.15506,-2.09488 -0.59802,-3.07985 1.052191,-1.63347 -1.074711,-3.68242 2.503819,-0.69974 4.630792,-0.34296 2.341249,1.47248 7.858551,5.22286 9.022849,1.24977 -1.332073,-2.78691 -10.222502,0.61847 -5.413047,-3.32587 3.433356,-2.06323 8.76162,-0.72223 7.63087,3.96686 4.290536,0.19789 8.239821,-3.09335 12.332238,-4.50038 2.98516,-1.13205 4.341844,-5.48981 8.038049,-3.56763 4.737848,-1.69364 -2.855879,-4.54063 -2.375364,-4.07652 1.534648,-1.38662 -4.142725,-2.82942 -0.764888,-4.43147 3.604771,-0.66354 7.078648,-0.20979 9.830175,-2.58574 1.717273,-0.56017 2.133658,3.20742 2.221284,4.83001 -0.02694,1.84922 -0.05387,3.69844 -0.0808,5.54766 3.09741,0.52965 -2.415707,0.64984 -2.364022,2.40415 0.07935,-1.5975 -4.51277,-4.44099 -5.848916,-1.7692 -2.922075,1.25085 2.309153,4.61681 -2.334074,4.13994 -5.39177,0.26195 -9.884571,3.66226 -14.918817,5.2304 -3.333796,0.95786 -5.700099,5.87362 -9.46496,2.90037 z m 40.20692,-12.06791 c -0.619443,-1.18733 1.830743,0.67249 0,0 z M 39.959769,271.8561 c 0.208865,-1.64491 2.823406,-2.82797 0.709332,-0.65072 0.281495,0.25253 -0.601797,1.50423 -0.709332,0.65072 z m 25.00072,-0.1158 c 0.624865,-0.48426 3.526325,0.53084 0.487975,0.13424 l -0.487975,-0.13427 z m -18.336014,-2.43902 c 1.649012,-0.90714 1.22539,0.0657 0,-2e-5 z m -3.385923,-0.53238 c 1.464132,-1.20009 1.245469,1.0882 0,0 z m 5.73787,-0.30738 c 2.382837,-0.77672 -0.259665,0.63365 0,0 z m -11.750013,-1.35625 c -1.910236,-1.47521 2.963182,1.28157 0,0 z m -1.889493,-0.99386 c -0.711412,-1.19966 1.850665,1.04645 0,0 z m -2.344561,-1.61775 c -1.72616,-1.32117 -2.441949,-2.53395 -0.29448,-0.48181 1.059122,0.83145 2.346703,2.10369 0.29448,0.48181 z m 11.651239,-2.64094 c -1.346562,-1.18913 -3.054114,-3.96046 -0.833452,-1.22987 1.409435,1.37719 4.089982,4.53205 0.833452,1.22987 z m -15.499313,-1.83354 c -1.460436,-2.91388 0.505881,-0.62287 0.36834,0.53571 l -0.368338,-0.53571 z m 41.681856,-0.0699 c -0.265739,-3.64131 0.171276,-1.1954 0,0 z M 41.19595,257.32577 c -2.50723,-4.00476 2.197282,2.31631 0.328908,0.425 l -0.328908,-0.42496 z m -11.419694,-0.49369 c -0.964023,-3.4067 -2.216752,1.59211 -1.526842,-1.8222 2.384558,-0.53971 -2.829829,-6.94501 0.06046,-2.92326 0.156555,0.39532 3.151061,6.16231 1.466383,4.74546 z m 36.839803,-0.59801 c -0.599123,-1.59823 0.420171,-0.36597 0,0 z m -27.153753,-1.61102 c -1.034916,-3.03048 1.300326,1.93142 0,0 z m 26.245606,-0.3631 c -0.598158,-1.16195 -3.310834,-5.69333 -0.984602,-2.27887 0.343285,0.12349 2.323405,4.4309 0.984602,2.27887 z m 3.969289,-0.0406 c -1.389128,-3.46689 -4.260021,-5.98344 -6.868413,-8.54221 3.002768,2.46494 6.199682,5.21391 7.222025,9.10835 l -0.139018,-0.0617 z m -31.122338,-1.4857 c -0.510328,-1.50436 1.02111,1.81675 0,0 z M 7.6302965,251.52606 c -0.6845028,-1.95362 -0.8311224,-3.19501 0.2442337,-0.722 1.1935566,-1.19374 2.3038068,-5.20068 1.0408193,-1.14917 -0.3573892,0.23613 -0.5763177,2.8215 -1.285053,1.87117 z m 29.9263225,-0.94447 c -0.918993,-1.37962 -3.561153,-9.47124 -1.661725,-4.66731 0.321476,1.12574 2.39667,4.94084 1.661725,4.66731 z m 25.121782,-1.12677 c -1.394944,-1.51332 -2.609019,-3.46603 -0.37251,-0.83281 0.313255,0.32831 1.768934,2.35705 0.37251,0.83281 z m -36.6796,-0.61477 c -0.664642,-0.94303 1.143396,1.07773 0,0 z m -0.625135,-0.8197 c -2.401286,-3.40018 -0.200394,-0.96907 0,0 z m -18.7606851,-2.3054 c 0.104667,-1.79744 0.1046669,1.79745 0,0 z m 53.1982691,0.46108 c -0.707337,-1.00681 1.258518,1.22391 0,0 z m -49.754198,-0.99046 c 0.189337,-0.76701 0.08755,0.89045 0,0 z m 13.429156,-0.13662 c -0.281237,-2.66405 1.715498,-1.79867 0.238923,-0.30735 l -0.08427,0.65601 -0.154652,-0.34863 z m 35.18268,-0.11496 c -1.293202,-1.6749 -2.153851,-4.7635 -0.446599,-1.23545 0.104026,0.32298 1.753429,2.89853 0.446599,1.23545 z m 2.974423,-0.39609 c -1.593858,-1.98607 1.450102,0.91344 0,0 z m -51.393456,-0.35988 c -0.03193,-2.35629 2.585174,1.69731 0.150068,0.33667 z m 2.384778,-0.62016 c 2.123967,-2.60378 1.599876,-1.12289 -0.209874,0.50981 l -0.185619,0.045 z m -6.2860702,-0.8143 c -0.2341901,-2.25886 0.3830201,-7.28082 0.268111,-2.3343 -0.021066,0.43156 -0.1242304,4.71231 -0.268111,2.3343 z m 54.1830262,0.19853 c -1.014774,-2.05402 1.37341,1.83098 0,0 z m -3.768058,-1.60798 c -1.618512,-3.08321 0.428159,-0.89409 0,0 z M 15.25437,240.89643 c 2.407042,-0.93183 -0.307897,0.71385 0,0 z m 19.30053,-0.33019 c -0.306288,-2.47861 0.700238,2.08298 0,0 z m 17.124811,0.21517 c 0.872276,-0.83096 0.530092,0.89154 0,0 z m 7.478053,-1.0876 c -0.529914,-2.1745 0.712403,0.82704 0,0 z m -6.325401,-1.53251 c -0.211453,-2.04654 -3.661313,-5.13339 0.21817,-2.68847 2.535105,2.02637 5.12295,-2.79757 6.502086,-0.66273 -2.41316,-0.12701 -4.724782,2.45664 -5.995336,3.57791 0.341155,1.46769 -1.09427,0.97773 -0.72492,-0.22671 z m 2.507291,0.70146 c 0.721419,-2.05604 1.466406,0.23319 0,0 z m -21.944128,-0.98615 c -1.347911,-1.79427 -2.35298,-4.25871 -0.392189,-1.08553 0.6279,0.74597 1.676019,3.28957 0.392189,1.08553 z m 24.290163,0.0512 c -1.919427,-0.28882 3.208209,-0.90791 0.761766,0.10873 z M 6.9715154,235.24312 c 0.5245083,-2.22797 2.6227836,-3.56217 0.5264419,-0.71723 l -0.373656,0.6248 z m 24.0545926,-1.05514 c -1.305866,-1.47455 1.672999,1.52383 0,0 z m 29.073921,-0.5969 c -1.560815,-1.82215 -6.228549,1.92252 -4.225574,-1.91198 3.060238,0.0187 1.218117,-6.8024 -0.884362,-2.21843 -1.315439,0.94082 -1.516057,-5.22204 2.137487,-3.31595 2.49569,-1.10565 -1.710024,-6.87426 -4.372163,-6.66003 -2.973325,-0.6719 1.721766,-3.70937 -2.566215,-3.15252 -3.385537,-0.93628 -5.009084,-3.54687 -8.794969,-2.63197 1.270068,-1.4271 3.330862,-3.17779 5.448588,-2.77394 2.170395,0.40035 2.06579,-0.0597 1.864858,-1.4002 2.571112,-1.59065 5.502677,3.01111 7.192979,0.9185 2.322558,-1.12352 5.44834,2.10811 6.733138,4.07274 2.048658,4.00494 0.702026,8.55057 -1.54157,12.12254 -0.824695,1.60456 0.557122,7.36 -0.992197,6.95124 z m -9.573503,-0.11149 c -0.135839,-0.85914 0.572134,0.88174 0,0 z m 2.205416,-0.80272 c 2.069853,-4.94899 1.462629,3.27264 0,0 z m -24.401607,-0.8945 c -2.143476,-1.87017 2.374959,1.26036 0,0 z m 21.721937,0.10107 c -0.870729,-3.75064 2.097609,1.40929 0,0 z M 23.37218,230.7639 c -2.715714,-1.39179 1.44913,-0.371 -1.308414,-2.57725 0.45292,-1.75988 4.406342,5.76511 1.308414,2.57725 z m -8.872221,0.2839 c -1.614011,-0.52143 -2.892877,-0.005 -1.329082,-0.9153 -2.213415,-1.14098 0.615052,-1.34554 0.534956,0.008 0.252157,-0.39492 2.111315,1.36179 0.794126,0.90707 z m 11.566643,-0.99499 c -1.856218,-1.24036 0.293929,-0.39815 0.755025,0.46094 z m -4.664514,-0.64062 c -1.007871,-0.90239 1.491917,0.93798 0,0 z m -6.750426,-0.24798 c -1.091062,-1.93847 1.820617,0.35615 0,2e-5 z m 5.225561,-0.45794 c -0.699684,-0.71386 1.653557,0.76386 0,0 z m -8.553296,-1.73107 c -3.0178623,-1.46963 2.585217,-0.23892 0.685673,0.23921 l -0.685673,-0.23923 z m 1.534651,-0.65882 c 1.275229,-0.20332 0.01585,0.3546 0,0 z"
         id="path1064"
         inkscape:connector-curvature="0" />
      <path
         style="fill:#a0611b;stroke-width:0.20492396"
         d="m 27.294076,284.11555 c -3.460788,-1.99586 -9.312711,0.38174 -11.241583,-4.22067 -0.931806,-2.40047 -0.447074,-1.8081 1.240646,-1.47523 -0.76249,-3.40402 5.01673,-0.0281 6.909344,1.13469 1.450714,2.34837 9.198306,1.84491 5.589476,-1.08877 -2.067955,-0.42364 -8.543056,0.20825 -3.982614,-2.6267 3.539547,-1.86796 8.230164,-0.31847 7.216079,4.15395 3.883326,0.37616 7.47075,-2.7556 11.183835,-3.93257 3.063533,-0.30575 7.098614,-8.04472 8.57502,-2.33892 1.777826,3.87581 -5.688523,1.71246 -7.658571,3.87732 -3.627632,1.99031 -7.678137,3.04695 -11.264206,5.12017 -1.754262,1.87663 -4.181848,3.24623 -6.567426,1.39673 z m 68.148848,0.72906 c 1.108673,-3.69239 -5.882837,1.74324 -3.329215,-3.22299 2.332051,-3.33218 0.776373,-11.61618 -3.494283,-11.26174 -3.916369,3.15207 -0.856407,6.39752 0.185772,9.76133 1.58499,4.24652 -4.826993,-0.51179 -5.443181,-2.67674 -3.747213,-2.85992 4.918868,-7.47098 1.257271,-8.06722 -4.509857,1.16187 -8.34458,3.87314 -11.749359,6.95668 -2.018418,1.40032 -5.410984,-4.12312 -1.617812,-4.6263 5.583356,-2.59448 11.644268,-4.04223 17.390807,-6.24741 4.320547,0.57287 6.284472,5.52011 9.245833,8.28158 2.923893,2.9471 2.189963,9.40548 -1.791997,11.03038 0.108962,-0.14667 -1.205579,0.61629 -0.653836,0.0724 z M 59.325081,272.27224 c -3.605571,-1.85653 -8.400387,-4.15918 -9.675728,-8.1377 3.06544,-2.03385 7.558173,-0.0198 10.076563,-3.03313 3.606419,1.05406 3.218808,8.11627 1.485541,10.86401 -0.554998,0.58955 -1.188053,0.69884 -1.886376,0.30682 z m 11.783126,-2.03638 c -0.443355,-2.03409 2.800275,-6.28436 1.535978,-9.15161 1.323802,1.7729 1.920161,8.9312 -1.535978,9.15161 z m -27.562269,-1.56942 c 1.068293,-0.74954 0.572507,0.74347 0,0 z M 29.536831,256.01238 c -1.257692,-3.00458 1.651148,2.31309 0,0 z m -5.561129,-12.55159 c 0.523593,-0.73515 0.523542,0.73517 0,0 z m 28.893131,-4.96941 c 0.409814,-2.2263 -3.949326,-5.5695 0.1817,-3.01855 2.535105,2.02637 5.12295,-2.79757 6.502086,-0.66273 -2.413929,-0.10439 -4.825749,2.52154 -6.002994,3.50214 0.545207,1.06767 -1.014453,1.49941 -0.680792,0.17914 z m 2.357769,0.0512 c 0.94229,-0.72875 0.01327,0.69997 0,0 z m 3.073859,-1.02462 c 0.268437,-0.53762 1.469551,0.0238 0.269942,0.19083 z m 1.799568,-3.92692 c -1.677683,-2.01246 -5.518683,2.00347 -4.463575,-1.70849 2.334293,1.01878 2.327127,-3.13764 1.304239,-4.15613 -1.826051,0.40785 -2.48263,3.14959 -2.540405,-0.1247 -1.041705,-2.86226 5.120673,0.50241 3.397878,-3.21578 0.393911,-4.19592 -5.695468,-3.90768 -5.878437,-6.62079 2.019419,-2.17475 -5.48359,-1.133 -5.455344,-3.92561 -2.400353,-0.074 -6.857765,0.12516 -2.725198,-2.00786 1.666879,-1.7476 7.214887,0.69119 5.178793,-2.14452 3.528765,-0.29184 5.98131,2.34886 8.999621,0.80251 3.877508,1.5717 6.193531,5.82127 5.479696,9.93042 -1.181266,4.40067 -3.848996,8.5979 -2.608315,13.35512 0.06525,0.58726 -0.707666,-0.156 -0.688953,-0.18417 z m -9.573503,-0.11149 c -0.135839,-0.85914 0.572134,0.88174 0,0 z m 2.138527,-0.23991 c 0.568519,-1.78964 1.830884,-2.35643 0.905398,0.0554 -0.104196,-0.0488 -0.81161,0.32615 -0.905398,-0.0554 z M 23.907394,231.0287 c -0.431446,-1.36897 1.13264,0.8142 0,0 z m -9.768041,-0.27324 c -0.736467,-1.01622 1.285493,0.36617 0,0 z"
         id="path1062"
         inkscape:connector-curvature="0" />
      <path
         style="fill:#724f2c;stroke-width:0.20492396"
         d="m 27.294076,284.11555 c -3.460788,-1.99586 -9.312711,0.38174 -11.241583,-4.22067 -0.931806,-2.40047 -0.447074,-1.8081 1.240646,-1.47523 -0.76249,-3.40402 5.01673,-0.0281 6.909344,1.13469 1.450714,2.34837 9.198306,1.84491 5.589476,-1.08877 -2.067955,-0.42364 -8.543056,0.20825 -3.982614,-2.6267 3.539547,-1.86796 8.230164,-0.31847 7.216079,4.15395 3.883326,0.37616 7.47075,-2.7556 11.183835,-3.93257 3.063533,-0.30575 7.098614,-8.04472 8.57502,-2.33892 1.777826,3.87581 -5.688523,1.71246 -7.658571,3.87732 -3.627632,1.99031 -7.678137,3.04695 -11.264206,5.12017 -1.754262,1.87663 -4.181848,3.24623 -6.567426,1.39673 z m 3.956425,0.14667 c 3.722225,-3.55208 8.947098,-4.45601 13.367511,-6.83523 2.616641,-2.236 10.458461,-0.2397 7.067645,-5.3281 -3.628544,0.72353 -6.542631,5.11861 -10.82711,5.86285 -2.806329,1.29491 -8.737251,4.8897 -8.820915,0.028 -0.318815,4.29816 -5.309446,4.24473 -8.230485,1.81266 -1.105437,-1.97654 -8.261455,-2.86759 -3.697094,-0.43959 1.456886,0.46363 7.978289,2.60013 3.173702,1.91801 -2.446977,-1.76025 -10.142236,-2.75841 -4.500842,0.4225 1.255577,-1.03774 1.635302,1.88898 3.39662,0.13267 1.721088,1.51293 5.784529,1.8188 8.361312,2.72992 z m 0.173587,-6.85965 c 2.190809,-2.25399 -4.220407,-2.44262 -5.456154,-1.17629 -3.103127,2.33806 5.101405,1.90014 5.456154,1.17629 z m 64.018836,7.44204 c 1.108673,-3.69239 -5.882837,1.74324 -3.329215,-3.22299 2.332051,-3.33218 0.776373,-11.61618 -3.494283,-11.26174 -3.916369,3.15207 -0.856407,6.39752 0.185772,9.76133 1.58499,4.24652 -4.826993,-0.51179 -5.443181,-2.67674 -3.747213,-2.85992 4.918868,-7.47098 1.257271,-8.06722 -4.509857,1.16187 -8.34458,3.87314 -11.749359,6.95668 -2.018418,1.40032 -5.410984,-4.12312 -1.617812,-4.6263 5.583356,-2.59448 11.644268,-4.04223 17.390807,-6.24741 4.320547,0.57287 6.284472,5.52011 9.245833,8.28158 2.923893,2.9471 2.189963,9.40548 -1.791997,11.03038 0.108962,-0.14667 -1.205579,0.61629 -0.653836,0.0724 z m 2.177924,-1.4751 c 1.341976,-1.52901 2.958032,-6.43776 -0.690791,-4.88787 -0.06727,1.01929 -2.322642,7.16242 0.690791,4.88787 z m -2.795784,-0.62108 c 2.270441,-1.91253 0.674275,-7.03693 -1.461122,-3.41168 -0.866816,1.53907 -1.737466,5.55577 1.461122,3.41168 z m -6.728484,-1.97458 c 0.177181,-3.31928 -3.948272,-6.43287 -0.562846,-9.81335 3.240571,-5.22465 4.9874,5.17208 6.908977,3.6554 -1.335006,-2.18598 -0.946304,-4.28866 0.461336,-1.06023 1.117104,2.86739 4.36822,0.29648 1.297481,-1.222 -2.631993,-2.09145 -4.426366,-7.34025 -8.462864,-6.23185 -5.758778,2.71912 -12.477723,3.32436 -17.723937,7.09198 0.861553,5.6159 5.010483,0.85022 7.363019,-1.00426 3.114305,-2.42169 7.1946,-2.68684 10.509804,-4.51274 0.101415,2.44118 -7.306346,6.06029 -3.925901,9.90466 0.879448,1.18562 2.353129,3.75075 4.134931,3.19239 z m 10.644069,-3.3635 c 1.555571,-3.8518 -4.407517,-0.34594 -1.103561,0.16074 l 0.597008,-0.16122 z m -2.734184,-0.54419 c -1.611958,-2.94882 -3.851564,1.87587 -0.165865,0.44068 l 0.137358,-0.161 z m -36.681384,-4.59392 c -3.605571,-1.85653 -8.400387,-4.15918 -9.675728,-8.1377 3.06544,-2.03385 7.558173,-0.0198 10.076563,-3.03313 3.606419,1.05406 3.218808,8.11627 1.485541,10.86401 -0.554998,0.58955 -1.188053,0.69884 -1.886376,0.30682 z m 11.783126,-2.03638 c -0.443355,-2.03409 2.800275,-6.28436 1.535978,-9.15161 1.323802,1.7729 1.920161,8.9312 -1.535978,9.15161 z m -27.562269,-1.56942 c 1.068293,-0.74954 0.572507,0.74347 0,0 z M 29.536831,256.01238 c -1.257692,-3.00458 1.651148,2.31309 0,0 z m -5.561129,-12.55159 c 0.523593,-0.73515 0.523542,0.73517 0,0 z m 28.893131,-4.96941 c 0.593728,-1.98031 -3.973741,-5.68411 -0.05184,-2.98888 1.950707,0.36685 4.309009,0.82402 1.492557,2.02375 -1.122413,-0.76496 -0.740953,3.56139 -1.440714,0.96513 z m 2.357769,0.0512 c 0.94229,-0.72875 0.01327,0.69997 0,0 z m 3.073859,-1.02462 c 0.268437,-0.53762 1.469551,0.0238 0.269942,0.19083 z m -0.922158,-2.86894 c 0.595222,-0.85929 0.777021,0.79122 0,0 z m 2.721726,-1.05798 c -1.473512,-1.39078 -5.709342,1.022 -4.221713,-1.69003 2.153922,0.96025 2.339174,-4.17979 0.600804,-4.15497 -1.554593,1.31438 -1.975061,2.51915 -2.078831,-0.14432 -1.041703,-2.86226 5.120672,0.50241 3.397878,-3.21578 0.393911,-4.19592 -5.695469,-3.90768 -5.878436,-6.62079 2.019419,-2.17475 -5.483591,-1.133 -5.455345,-3.92561 -2.400352,-0.074 -6.857781,0.12516 -2.725208,-2.00786 1.666879,-1.7476 7.214887,0.69119 5.178793,-2.14452 3.528765,-0.29184 5.98131,2.34886 8.999621,0.80251 3.877508,1.5717 6.193531,5.82127 5.479696,9.93042 -1.181266,4.40067 -3.848996,8.5979 -2.608315,13.35512 0.06526,0.58726 -0.707671,-0.156 -0.688944,-0.18417 z m -7.434976,-0.32947 c 0.54664,-1.70843 1.729587,-2.39172 0.938918,-0.047 -0.165574,-0.31702 -0.773,0.44505 -0.938918,0.047 z M 23.907394,231.0287 c -0.431446,-1.36897 1.13264,0.8142 0,0 z m -9.768041,-0.27324 c -0.736467,-1.01622 1.285493,0.36617 0,0 z"
         id="path1060"
         inkscape:connector-curvature="0" />
      <path
         style="fill:#321d6e;stroke-width:0.20492396"
         d="m 59.325081,272.27224 c -3.605571,-1.85653 -8.400387,-4.15918 -9.675728,-8.1377 3.06544,-2.03385 7.558173,-0.0198 10.076563,-3.03313 3.606419,1.05406 3.218808,8.11627 1.485541,10.86401 -0.554998,0.58955 -1.188053,0.69884 -1.886376,0.30682 z m 11.783126,-2.03638 c -0.443355,-2.03409 2.800275,-6.28436 1.535978,-9.15161 1.323802,1.7729 1.920161,8.9312 -1.535978,9.15161 z m -27.562269,-1.56942 c 1.068293,-0.74954 0.572507,0.74347 0,0 z M 29.536831,256.01238 c -1.257692,-3.00458 1.651148,2.31309 0,0 z m -5.561129,-12.55159 c 0.523593,-0.73515 0.523542,0.73517 0,0 z m 31.755539,-10.56283 c 0.106618,-1.38311 2.518361,-0.80278 1.819664,-3.46606 0.217041,-4.32252 -3.649512,2.16726 -3.150157,-1.8296 -1.043617,-2.86286 5.120523,0.50206 3.397415,-3.21624 0.393911,-4.19592 -5.695468,-3.90768 -5.878437,-6.62079 2.019419,-2.17475 -5.48359,-1.133 -5.455344,-3.92561 -2.400353,-0.074 -6.857765,0.12516 -2.725198,-2.00786 1.666879,-1.7476 7.214887,0.69119 5.178793,-2.14452 3.528765,-0.29184 5.98131,2.34886 8.999621,0.80251 3.877508,1.5717 6.193531,5.82127 5.479696,9.93042 -1.303659,4.19972 -3.277365,8.23401 -3.013271,12.71651 -1.515453,-0.56035 -3.207963,0.006 -4.652782,-0.23876 z m -2.372326,-0.38761 c -0.521444,-2.60379 1.42296,0.87139 0,0 z m -29.451521,-1.48161 c -0.431446,-1.36897 1.13264,0.8142 0,0 z m -9.768041,-0.27324 c -0.736467,-1.01622 1.285493,0.36617 0,0 z"
         id="path1058"
         inkscape:connector-curvature="0" />
    </g>
  </g>
</svg>
