<?xml version="1.0" encoding="UTF-8" standalone="no"?>
<!-- Created with Inkscape (http://www.inkscape.org/) -->

<svg
   xmlns:dc="http://purl.org/dc/elements/1.1/"
   xmlns:cc="http://creativecommons.org/ns#"
   xmlns:rdf="http://www.w3.org/1999/02/22-rdf-syntax-ns#"
   xmlns:svg="http://www.w3.org/2000/svg"
   xmlns="http://www.w3.org/2000/svg"
   xmlns:sodipodi="http://sodipodi.sourceforge.net/DTD/sodipodi-0.dtd"
   xmlns:inkscape="http://www.inkscape.org/namespaces/inkscape"
   width="400"
   height="400"
   viewBox="0 0 105.83333 105.83334"
   version="1.1"
   id="svg8"
   inkscape:version="0.92.4 (5da689c313, 2019-01-14)"
   sodipodi:docname="Yosemite.svg">
  <defs
     id="defs2" />
  <sodipodi:namedview
     id="base"
     pagecolor="#ffffff"
     bordercolor="#666666"
     borderopacity="1.0"
     inkscape:pageopacity="0.0"
     inkscape:pageshadow="2"
     inkscape:zoom="1.4"
     inkscape:cx="251.85178"
     inkscape:cy="156.5337"
     inkscape:document-units="mm"
     inkscape:current-layer="layer1"
     showgrid="false"
     units="px"
     inkscape:window-width="1920"
     inkscape:window-height="986"
     inkscape:window-x="-11"
     inkscape:window-y="-11"
     inkscape:window-maximized="1" />
  <metadata
     id="metadata5">
    <rdf:RDF>
      <cc:Work
         rdf:about="">
        <dc:format>image/svg+xml</dc:format>
        <dc:type
           rdf:resource="http://purl.org/dc/dcmitype/StillImage" />
        <dc:title></dc:title>
      </cc:Work>
    </rdf:RDF>
  </metadata>
  <g
     inkscape:label="Layer 1"
     inkscape:groupmode="layer"
     id="layer1"
     transform="translate(0,-191.16665)">
    <rect
       style="opacity:1;fill:#ffffff;fill-opacity:1;stroke:none;stroke-width:2;stroke-miterlimit:4;stroke-dasharray:none;stroke-opacity:1;paint-order:normal"
       id="rect1137"
       width="34.192734"
       height="32.631683"
       x="37.986607"
       y="226.12944" />
    <g
       id="g1102"
       transform="matrix(1.0637001,0,0,1.0637001,-3.1019705,-14.027269)">
      <path
         style="fill:#fce7d3;stroke-width:0.21199162"
         d="m 43.040438,288.43102 c -3.422183,-1.10359 1.241692,-1.87677 1.338584,-2.93638 -2.449967,-1.05392 -2.911197,-7.19747 -5.188395,-2.84149 -2.148882,3.19619 -2.712101,1.69967 -2.604649,0.40449 -0.146546,-2.23871 1.639595,-6.72456 0.942971,-9.96599 0.0167,-5.55069 -3.334478,1.63915 -5.611342,2.14887 -2.652613,-0.23468 -8.3228,4.04848 -8.612064,-0.24903 0.804946,-4.07962 5.436777,-5.83435 6.810609,-9.59438 -2.811022,-2.73655 -1.901722,-8.59667 2.530203,-8.39857 1.309808,1.79675 -0.225237,8.52821 3.334102,4.36601 1.628739,-3.71594 -3.520889,-6.33647 -4.611332,-9.69652 -4.868865,-7.60004 -5.288873,-17.1778 -3.109438,-25.73777 2.483581,-9.00411 6.092851,-18.43494 13.667276,-24.39902 3.790294,-3.05732 8.484027,-5.49249 13.49607,-4.90767 6.814172,-0.40272 12.380929,4.94237 15.789479,10.30637 6.11575,10.50082 9.340224,22.84803 8.669453,35.00917 -0.890454,6.17582 -4.856585,11.15273 -8.219013,16.16812 -0.370109,1.28478 -2.940716,6.77314 -0.305176,3.6242 -0.1998,-2.75505 2.614979,-6.18799 4.479459,-2.39714 2.031206,3.29246 -3.664732,6.13917 0.124924,9.0267 2.06945,2.12729 7.965548,6.73427 3.542836,9.07115 -3.039629,-1.70525 -7.059159,-1.6986 -9.533307,-4.42517 -1.105484,-1.87258 -1.860074,-3.3352 -4.103894,-3.23034 -2.13739,2.05796 -1.620907,6.06372 -1.129909,8.84525 -1.374471,1.46802 4.206667,7.18335 -0.27558,4.32818 -1.293553,-1.49723 -2.634635,-3.08876 -2.621264,-0.0348 -0.392256,0.98005 -4.096787,2.79752 -1.281095,2.62274 4.254508,0.97268 -1.580714,3.46346 -3.352244,1.77546 -4.875551,1.63378 -0.584984,-4.1534 -1.20609,-5.73323 -2.444931,-0.009 -7.711355,-0.72305 -8.406399,1.44947 1.976724,1.92182 2.169995,6.21017 -1.383153,5.03382 -0.998978,0.39 -2.108978,0.55481 -3.171622,0.36753 z m 17.692086,-11.73346 c -0.278112,-1.52213 -0.734787,-5.57822 -1.293177,-1.74816 -0.317768,0.80974 2.287098,4.40989 1.293177,1.74816 z m -16.6042,-0.54381 c 1.556068,-1.60183 -0.461235,-6.76693 -0.39741,-2.25308 0.133079,0.76867 -1.434632,5.17788 0.39741,2.25308 z m 10.291821,-31.29781 c -0.948898,-2.40148 1.002734,-5.1405 -1.022326,-7.7578 -1.46732,-4.33329 -3.261683,2.13484 -2.006049,3.77497 0.0062,1.0538 3.295723,5.98256 3.028375,3.98283 z m 3.959296,-0.21481 c 1.79923,-2.7742 2.992572,-7.70228 0.492375,-10.20278 -2.491814,3.02559 -1.432091,7.08557 -1.667913,10.18345 -1.127546,0.62178 1.083761,0.29972 1.175538,0.0193 z"
         id="path1124"
         inkscape:connector-curvature="0" />
      <path
         style="fill:#ead7b0;stroke-width:0.21199162"
         d="m 42.413542,288.13665 c -2.326899,-1.86678 4.950821,-1.66625 1.185824,-3.60468 -2.06614,-1.22735 -2.260392,-6.29147 -4.418825,-2.03682 -1.080865,1.92195 -3.824288,3.17832 -1.878388,0.25062 -2.390337,0.27022 1.487597,-4.61243 0.316955,-6.48903 0.146492,-1.91708 0.424481,-8.05905 -2.376981,-4.18086 -2.215619,3.90022 -7.14836,3.75889 -10.896368,4.80967 -2.871374,-2.94711 2.369936,-6.38312 4.152256,-8.75799 4.523458,-2.85976 -3.183183,-7.19716 1.664294,-10.25401 4.70678,-3.68669 1.665354,5.27762 4.239967,4.99193 4.289014,-2.26679 0.575846,-6.23351 -1.368491,-8.7175 -3.716115,-5.42109 -6.340224,-11.83909 -5.766764,-18.5238 -0.310492,-8.52007 3.002896,-16.66838 6.614453,-24.21685 3.817576,-6.84325 10.100881,-12.9829 17.944236,-14.69926 4.178001,-0.41132 8.629703,-0.0634 12.067068,2.61286 7.980195,5.49738 11.437422,15.12075 13.968284,24.05418 1.419083,6.58837 2.867633,13.51138 1.577785,20.23312 -1.213264,5.33463 -4.599674,9.72696 -7.68879,14.0937 -0.365564,1.47265 -3.387863,7.1419 -0.339775,4.17599 -0.0825,-2.63681 2.475392,-6.11691 4.305372,-2.48761 2.040237,3.35757 -3.911821,6.44539 0.429638,9.28831 2.089083,1.92653 7.403436,6.78 3.242324,8.64267 -3.507715,-2.0615 -8.813109,-1.8985 -10.589011,-6.25336 -1.390374,-2.22413 -4.9439,-1.55129 -4.304669,1.6444 -0.160877,3.45668 -0.692963,7.00108 1.362366,9.95505 1.01385,3.42728 -3.269983,-2.85439 -3.73876,-1.38307 0.149508,2.26897 -4.970824,4.65337 -0.327267,4.58786 0.597614,3.17765 -5.192276,1.18977 -6.932798,1.32972 -0.648406,-1.95929 3.51164,-5.88213 0.202817,-6.01697 -2.587893,0.24324 -5.524011,-0.061 -7.739606,1.37945 1.770685,2.18036 2.614543,6.53967 -1.24891,5.44713 -1.131471,0.47166 -2.499692,0.54346 -3.658236,0.12515 z m 18.532712,-11.01511 c -0.24824,-1.76909 -1.057095,-6.59865 -1.548251,-2.00643 -0.287871,0.72092 2.530507,4.77833 1.548251,2.00643 z m -16.402569,-1.4912 c 1.017139,-1.56846 -0.83949,-6.37919 -0.864156,-2.05966 -0.180917,1.72613 -1.454227,6.08559 0.654333,2.42133 z m 35.565747,0.0585 c 0.03813,-2.12523 -1.811484,2.64198 3e-6,0 z m -54.657097,0.21373 c 0.09504,-1.02156 -2.573943,-0.6264 -0.482035,0.20648 l 0.482036,-0.20644 z m 53.086434,-0.91498 c 1.669515,-2.55187 -7.375599,-2.49185 -4.138864,-3.61594 3.400695,1.59111 -1.951855,-2.92199 1.248905,-1.08685 2.203899,0.949 -2.7554,-3.08185 -2.022254,-4.8643 0.624419,-2.05144 3.348117,-5.91378 -0.321057,-6.85856 -0.238893,3.84448 -3.205028,6.05776 -5.244238,8.88536 0.797048,3.62452 4.090116,7.31912 8.162004,7.54467 0.75012,0.0457 1.627875,0.52436 2.315504,-0.004 z m -6.84285,-7.01524 c -0.484624,-1.08731 -3.721125,-2.64903 -0.657687,-2.18823 1.597526,-0.051 2.54796,5.62309 0.657687,2.18823 z m -39.823246,6.16611 c 2.487036,-2.02497 7.301618,-6.32715 3.107109,-9.12835 -3.476575,-0.83479 -1.995536,-5.61012 -3.418097,-7.01031 -5.547047,2.29396 2.064882,7.07238 -1.830209,10.08497 -1.274864,1.64714 -1.498485,1.51659 -5.47e-4,1.22787 -0.908947,1.72818 -3.755693,3.29226 -0.282013,2.57022 2.42208,1.12092 -6.87364,1.49428 -3.066201,2.91787 1.816645,-0.075 3.825259,0.21531 5.489958,-0.66227 z m -1.120548,-3.6032 c -0.732411,-2.03294 4.045052,-6.08663 1.723034,-2.38716 -0.346251,0.32643 -1.200561,4.05849 -1.723034,2.38716 z m 29.208627,-17.9521 c 4.981826,-1.74019 2.320171,-8.60748 -2.540181,-6.58768 -4.572851,-0.79314 -8.255934,5.86227 -2.48228,7.00857 1.662839,0.31508 3.442242,0.20289 5.022461,-0.42089 z m -5.041582,-7.19775 c -2.309611,-2.00374 0.768603,-3.68111 -0.664264,-5.9885 -0.03514,-3.12523 -3.099696,-5.52191 -3.316624,-1.10299 -0.0071,2.39827 1.568319,6.85969 3.980888,7.09149 z m 3.02909,-0.41659 c 2.50806,-2.47362 3.3068,-7.20195 1.427134,-10.28245 -2.378267,0.48617 -3.162457,6.22468 -1.70033,8.43243 0.238465,0.89414 -1.876613,2.65801 0.273196,1.85002 z m -14.637599,-2.54369 c 0.921401,-0.61145 4.170251,1.01245 1.970298,-1.18498 -1.692235,-3.46724 -5.760199,4.00984 -1.970298,1.18498 z M 66.212105,242.159 c 2.536675,-1.10448 -3.01053,-1.3632 -2.250849,0.4671 0.756986,-0.11656 1.531816,-0.18429 2.250849,-0.4671 z"
         id="path1122"
         inkscape:connector-curvature="0" />
      <path
         style="fill:#fbdd45;stroke-width:0.21199162"
         d="m 42.699256,288.1911 c -2.956487,-1.70026 4.738702,-1.53762 0.945489,-3.70285 -2.009685,-1.27722 -2.124376,-6.3298 -4.403233,-2.20498 -0.721121,1.44104 -3.728427,3.58971 -1.844669,0.44449 -0.369799,-0.25031 -1.677113,0.074 -0.346919,-1.81989 0.358758,-3.08927 2.099846,-8.49663 -0.576402,-10.4349 -2.261933,4.09669 -6.46984,5.19973 -10.700807,6.12525 -5.149491,0.0248 0.263416,-6.30804 2.272949,-7.79475 3.170867,-2.08322 1.74757,-4.91632 0.494145,-7.58952 -0.386201,-3.17164 5.50656,-6.20362 4.49544,-1.31673 -0.962827,3.55504 2.412235,3.87026 3.485922,0.79022 0.74577,-1.57904 -0.46727,-2.65623 -1.361795,-3.79854 -4.954202,-6.24955 -8.615043,-13.98522 -7.938678,-22.14701 0.340634,-8.9721 3.567295,-17.67417 8.010739,-25.39478 3.971098,-6.14725 10.118267,-11.48354 17.503835,-12.71168 3.577913,-0.14482 7.32545,0.0846 10.325122,2.28052 7.656575,4.73412 11.291399,13.40503 13.90501,21.62548 2.182808,7.31474 3.455927,15.09086 2.505208,22.70729 -1.247676,5.70705 -5.015248,10.28543 -8.151978,15.02203 0.03515,2.085 -1.778028,3.86425 -2.168102,3.67991 3.52425,4.09186 2.04055,-7.25891 5.922737,-3.28518 2.410647,1.49292 0.06654,6.41484 -1.254781,6.02825 2.260724,-1.33483 2.180504,-7.21917 -0.880266,-5.91763 -0.03989,3.80473 -3.208285,5.76074 -5.041372,8.58916 0.594413,3.47554 3.848005,7.58871 7.911621,7.77109 2.22599,1.11288 4.813479,-1.15307 1.532523,-2.27282 -1.924655,-0.23478 -4.705705,-1.56331 -1.205096,-1.015 1.355179,0.37162 -2.166783,-2.17489 0.590276,-0.73004 2.816569,1.20224 -2.400483,-2.67556 -2.555953,-4.20303 -0.132781,-1.79832 2.303649,3.17526 3.393942,3.52471 3.077377,0.71927 5.027166,8.71944 0.254276,6.02252 -3.667351,-1.32007 -8.043786,-2.20661 -9.55195,-6.37623 -4.723199,-2.2514 -4.430454,4.94331 -3.736076,8.05919 -1.575735,1.66644 3.966306,7.5369 -0.276308,4.34303 -1.575418,-2.48797 -2.612746,-1.64712 -2.833245,0.76007 -2.686022,1.59579 -2.060117,2.61649 0.656048,3.0345 -1.183344,2.12418 -5.420223,1.12323 -7.281564,0.66354 -0.116149,-1.808 3.58249,-5.94759 0.184785,-5.63429 -2.619732,0.0799 -5.501239,-0.20405 -7.837757,1.08148 1.098068,1.4138 3.486187,6.77158 -0.417506,5.22211 -1.220373,0.67726 -2.664153,0.88792 -4.02561,0.57501 z m 18.48211,-10.56865 c -0.45011,-1.94696 -1.069506,-7.57215 -1.923432,-2.71921 -0.661737,0.48254 2.785206,5.19056 1.923432,2.71921 z m -16.829699,-1.49638 c 1.595645,-1.65894 -0.786289,-7.85141 -0.737059,-2.76493 -0.09015,1.82413 -1.916408,6.92399 0.737059,2.76493 z m 35.752106,0.37009 c 1.679863,-4.73864 -3.868501,1.52516 0,0 z m -54.492444,-0.30321 c 1.335485,-1.46454 -3.611995,-1.22353 -0.923613,0.12542 l 0.445527,-0.0302 0.478091,-0.095 z m 6.258804,-1.84134 c 2.095543,-1.93863 6.755211,-5.2953 4.281808,-8.40701 -3.341372,-1.6867 -3.692491,-5.08048 -4.255841,-8.27904 -4.535674,1.27415 -1.80729,5.73988 -1.108318,8.399 -0.437275,1.75742 -5.281703,5.52704 -3.957502,5.30537 1.18758,-1.11513 3.351784,-2.20883 1.006961,-0.12485 -2.883618,1.80628 1.391804,0.3862 0.976207,1.3393 -2.019627,-0.1156 -5.660841,2.36471 -1.6994,2.40564 1.567888,-0.0956 3.336635,0.1757 4.756085,-0.63841 z m -0.598352,-5.12676 c 0.342627,-2.28708 2.221426,-2.76931 0.563671,-0.26748 -0.144507,0.41345 -0.940884,1.63292 -0.563671,0.26748 z m 4.992126,-14.06353 c -0.03804,-3.8042 1.899977,-7.32018 4.599777,-9.89152 -0.925807,-2.79924 1.624003,-7.69799 4.752006,-4.97921 1.753757,3.43076 3.028675,-0.28863 1.868015,-2.3345 -0.73929,-3.33622 -0.179638,-7.80259 3.699627,-8.68208 3.256182,0.32739 3.467355,5.98927 4.743675,6.70836 0.507662,-2.70332 0.129054,-8.10588 3.579315,-8.09588 3.431737,0.12386 3.824636,3.68732 4.303288,6.52933 0.928175,2.23508 -1.483879,5.36127 -0.40108,6.89439 2.250233,-3.51156 6.180068,1.36003 5.290094,3.00563 0.107474,2.33697 4.406537,5.68727 3.982088,9.32763 0.184,2.25124 1.989589,-2.23562 2.625361,-2.71017 2.733028,-4.41195 4.322632,-9.58434 3.638963,-14.80103 -0.762202,-10.6322 -3.697301,-21.3569 -9.630701,-30.29195 -3.962551,-5.71889 -11.125066,-9.96629 -18.211016,-8.08111 -8.523652,2.59226 -14.918959,9.75331 -18.208248,17.83855 -4.438518,9.87463 -7.046873,21.7159 -2.503985,32.0143 1.492625,3.22291 3.361415,6.321 5.694904,8.99929 0.208811,-0.45583 0.149508,-0.96674 0.177917,-1.45003 z m 35.547414,0.13833 c -0.373497,-0.4021 0.1337,1.22328 0,0 z m -12.978799,-2.19286 c 4.253651,-0.0697 5.954343,-7.38875 0.85124,-7.4373 -3.521039,-0.53171 -10.473224,1.94752 -7.198591,6.42522 1.733538,1.40591 4.258418,1.49624 6.347351,1.01208 z m -3.701361,-7.8227 c -2.523595,-2.036 0.92018,-4.94628 -1.337617,-7.62562 -0.64293,-4.22853 -3.696072,-0.90721 -2.793116,1.67951 0.203056,1.93464 1.759155,6.72802 4.130733,5.94611 z m 3.689642,-0.93996 c 1.546362,-2.71778 2.928171,-8.37451 -0.145922,-10.02996 -1.063674,2.15603 -2.363602,5.22787 -1.791795,7.49449 2.046237,1.44631 -2.143214,5.17454 1.937717,2.53547 z m -15.826162,-1.3332 c 0.635716,-1.67739 4.771697,1.1742 2.672132,-1.56916 -1.70926,-4.19143 -6.541283,3.14102 -2.672132,1.56916 z m 22.892534,-0.51377 c 3.367626,1.37959 -0.313349,-3.7751 -1.666149,-0.76123 -1.766563,1.63547 0.847008,0.84256 1.666149,0.76123 z m 6.203315,25.55616 c -1.073389,-0.97611 -2.459099,-3.21286 -0.199465,-1.3581 0.180558,0.11026 1.081497,2.25206 0.199465,1.3581 z"
         id="path1120"
         inkscape:connector-curvature="0" />
      <path
         style="fill:#aaa39a;stroke-width:0.21199162"
         d="m 42.699256,288.1911 c -2.956487,-1.70026 4.738702,-1.53762 0.945489,-3.70285 -2.009685,-1.27722 -2.124376,-6.3298 -4.403233,-2.20498 -0.721121,1.44104 -3.728427,3.58971 -1.844669,0.44449 -0.369799,-0.25031 -1.677113,0.074 -0.346919,-1.81989 0.358758,-3.08927 2.099846,-8.49663 -0.576402,-10.4349 -2.261933,4.09669 -6.46984,5.19973 -10.700807,6.12525 -5.149491,0.0248 0.263416,-6.30804 2.272949,-7.79475 3.170867,-2.08322 1.74757,-4.91632 0.494145,-7.58952 -0.386201,-3.17164 5.50656,-6.20362 4.49544,-1.31673 -0.962827,3.55504 2.412235,3.87026 3.485922,0.79022 0.74577,-1.57904 -0.46727,-2.65623 -1.361795,-3.79854 -4.954202,-6.24955 -8.615043,-13.98522 -7.938678,-22.14701 0.340634,-8.9721 3.567295,-17.67417 8.010739,-25.39478 3.971098,-6.14725 10.118267,-11.48354 17.503835,-12.71168 3.577913,-0.14482 7.32545,0.0846 10.325122,2.28052 7.656575,4.73412 11.291399,13.40503 13.90501,21.62548 2.182808,7.31474 3.455927,15.09086 2.505208,22.70729 -1.247676,5.70705 -5.015248,10.28543 -8.151978,15.02203 0.03515,2.085 -1.778028,3.86425 -2.168102,3.67991 3.52425,4.09186 2.04055,-7.25891 5.922737,-3.28518 2.410647,1.49292 0.06654,6.41484 -1.254781,6.02825 2.260724,-1.33483 2.180504,-7.21917 -0.880266,-5.91763 -0.03989,3.80473 -3.208285,5.76074 -5.041372,8.58916 0.594413,3.47554 3.848005,7.58871 7.911621,7.77109 2.22599,1.11288 4.813479,-1.15307 1.532523,-2.27282 -1.924655,-0.23478 -4.705705,-1.56331 -1.205096,-1.015 1.355179,0.37162 -2.166783,-2.17489 0.590276,-0.73004 2.816569,1.20224 -2.400483,-2.67556 -2.555953,-4.20303 -0.132781,-1.79832 2.303649,3.17526 3.393942,3.52471 3.077377,0.71927 5.027166,8.71944 0.254276,6.02252 -3.667351,-1.32007 -8.043786,-2.20661 -9.55195,-6.37623 -4.723199,-2.2514 -4.430454,4.94331 -3.736076,8.05919 -1.575735,1.66644 3.966306,7.5369 -0.276308,4.34303 -1.575418,-2.48797 -2.612746,-1.64712 -2.833245,0.76007 -2.686022,1.59579 -2.060117,2.61649 0.656048,3.0345 -1.183344,2.12418 -5.420223,1.12323 -7.281564,0.66354 -0.116149,-1.808 3.58249,-5.94759 0.184785,-5.63429 -2.619732,0.0799 -5.501239,-0.20405 -7.837757,1.08148 1.098068,1.4138 3.486187,6.77158 -0.417506,5.22211 -1.220373,0.67726 -2.664153,0.88792 -4.02561,0.57501 z m 12.146179,-10.216 c 1.007821,-1.90114 1.349425,-4.59838 -1.462875,-3.67631 -2.480538,-0.24026 -5.08108,-0.0965 -3.431097,3.07179 0.530564,1.66008 3.591194,0.95341 4.893972,0.60452 z m 6.335931,-0.35265 c -0.45011,-1.94696 -1.069506,-7.57215 -1.923432,-2.71921 -0.661737,0.48254 2.785206,5.19056 1.923432,2.71921 z m -16.829699,-1.49638 c 1.595645,-1.65894 -0.786289,-7.85141 -0.737059,-2.76493 -0.09015,1.82413 -1.916408,6.92399 0.737059,2.76493 z m 35.752106,0.37009 c 1.679863,-4.73864 -3.868501,1.52516 0,0 z m -54.492444,-0.30321 c 1.335485,-1.46454 -3.611995,-1.22353 -0.923613,0.12542 l 0.445527,-0.0302 0.478091,-0.095 z m 6.258804,-1.84134 c 2.095543,-1.93863 6.755211,-5.2953 4.281808,-8.40701 -3.341372,-1.6867 -3.692491,-5.08048 -4.255841,-8.27904 -4.535674,1.27415 -1.80729,5.73988 -1.108318,8.399 -0.437275,1.75742 -5.281703,5.52704 -3.957502,5.30537 1.18758,-1.11513 3.351784,-2.20883 1.006961,-0.12485 -2.883618,1.80628 1.391804,0.3862 0.976207,1.3393 -2.019627,-0.1156 -5.660841,2.36471 -1.6994,2.40564 1.567888,-0.0956 3.336635,0.1757 4.756085,-0.63841 z m -0.598352,-5.12676 c 0.342627,-2.28708 2.221426,-2.76931 0.563671,-0.26748 -0.144507,0.41345 -0.940884,1.63292 -0.563671,0.26748 z m 17.862737,-0.15899 c 1.633586,-2.68229 2.794585,-6.57882 2.708718,-9.39892 -1.825834,0.73548 -2.577824,8.59387 -3.01636,3.60369 0.09787,-0.9065 4.855154,-4.68809 2.451728,-5.98213 -4.189235,0.0349 -4.712482,5.09708 -3.749139,8.21883 0.453873,0.72079 0.419682,4.83964 1.605053,3.55853 z m 10.522617,-1.07009 c 1.199661,-3.06617 2.379833,-8.03671 -0.656456,-10.32461 -3.236334,-1.45078 -3.537352,2.47489 -0.485643,2.6005 2.416295,0.28454 1.82457,6.19669 0.768627,1.80538 -0.351718,-2.50502 -5.250137,-2.70671 -2.152375,-0.11203 1.189546,1.81628 0.245948,6.75307 1.969597,6.97366 l 0.258578,-0.42451 0.297674,-0.51839 z m -4.798587,-7.25332 c 3.354897,-2.66379 -2.229673,-5.23069 -2.082198,-1.86874 -0.455368,1.76122 0.130079,3.67 2.082198,1.86874 z m -18.594641,-5.58113 c -0.03804,-3.8042 1.899977,-7.32018 4.599777,-9.89152 -0.925807,-2.79924 1.624003,-7.69799 4.752006,-4.97921 1.753757,3.43076 3.028675,-0.28863 1.868015,-2.3345 -0.73929,-3.33622 -0.179638,-7.80259 3.699627,-8.68208 3.256182,0.32739 3.467355,5.98927 4.743675,6.70836 0.507662,-2.70332 0.129054,-8.10588 3.579315,-8.09588 3.431737,0.12386 3.824636,3.68732 4.303288,6.52933 0.928175,2.23508 -1.483879,5.36127 -0.40108,6.89439 2.250233,-3.51156 6.180068,1.36003 5.290094,3.00563 0.107474,2.33697 4.406537,5.68727 3.982088,9.32763 0.184,2.25124 1.989589,-2.23562 2.625361,-2.71017 2.733028,-4.41195 4.322632,-9.58434 3.638963,-14.80103 -0.762202,-10.6322 -3.697301,-21.3569 -9.630701,-30.29195 -3.962551,-5.71889 -11.125066,-9.96629 -18.211016,-8.08111 -8.523652,2.59226 -14.918959,9.75331 -18.208248,17.83855 -4.438518,9.87463 -7.046873,21.7159 -2.503985,32.0143 1.492625,3.22291 3.361415,6.321 5.694904,8.99929 0.208811,-0.45583 0.149508,-0.96674 0.177917,-1.45003 z m 35.547414,0.13833 c -0.373497,-0.4021 0.1337,1.22328 0,0 z m -12.978799,-2.19286 c 4.253651,-0.0697 5.954343,-7.38875 0.85124,-7.4373 -3.521039,-0.53171 -10.473224,1.94752 -7.198591,6.42522 1.733538,1.40591 4.258418,1.49624 6.347351,1.01208 z m -3.701361,-7.8227 c -2.523595,-2.036 0.92018,-4.94628 -1.337617,-7.62562 -0.64293,-4.22853 -3.696072,-0.90721 -2.793116,1.67951 0.203056,1.93464 1.759155,6.72802 4.130733,5.94611 z m 3.689642,-0.93996 c 1.546362,-2.71778 2.928171,-8.37451 -0.145922,-10.02996 -1.063674,2.15603 -2.363602,5.22787 -1.791795,7.49449 2.046237,1.44631 -2.143214,5.17454 1.937717,2.53547 z m -15.826162,-1.3332 c 0.635716,-1.67739 4.771697,1.1742 2.672132,-1.56916 -1.70926,-4.19143 -6.541283,3.14102 -2.672132,1.56916 z m 22.892534,-0.51377 c 3.367626,1.37959 -0.313349,-3.7751 -1.666149,-0.76123 -1.766563,1.63547 0.847008,0.84256 1.666149,0.76123 z m 6.203315,25.55616 c -1.073389,-0.97611 -2.459099,-3.21286 -0.199465,-1.3581 0.180558,0.11026 1.081497,2.25206 0.199465,1.3581 z"
         id="path1118"
         inkscape:connector-curvature="0" />
      <path
         style="fill:#968a76;stroke-width:0.21199162"
         d="m 42.448924,287.97368 c -1.37906,-1.29017 4.89271,-1.54392 1.382995,-3.47712 -2.343997,-0.95029 -1.581057,-6.80574 -4.104573,-3.07031 -0.734737,1.47282 -4.068918,4.45184 -1.977039,0.8846 -1.954313,0.38565 0.821584,-4.44067 0.191884,-6.79881 0.578918,-2.36731 -0.422005,-4.70974 -1.492673,-6.00082 3.752042,-3.50863 -6.297731,-5.50681 -0.905354,-7.26464 3.558375,-3.26146 -1.867291,-6.60536 -3.157798,-9.61273 -3.747397,-5.64738 -5.577807,-12.47352 -4.898093,-19.24219 0.635133,-8.59859 3.795975,-16.91006 8.10917,-24.31418 4.069273,-5.81614 9.93997,-11.084 17.147964,-12.28079 6.929014,-1.05705 13.25673,3.37976 17.142183,8.7579 4.903905,7.32725 7.658306,15.96001 9.067705,24.61619 0.703778,5.88426 1.511903,12.21709 -1.310496,17.70247 -1.565652,4.04018 -4.879298,7.08488 -6.620429,10.9915 -0.150347,1.65335 -1.382061,3.47155 -1.80251,2.07995 -1.106226,1.99382 3.714396,2.71719 0.130031,4.11038 -1.977891,1.21056 -1.264673,3.32237 -1.530236,4.68997 -4.384914,-1.74561 -3.740033,4.59069 -3.607297,7.51753 -1.278631,1.72152 2.181524,5.5237 0.934504,5.80928 -1.635327,-0.89966 -3.163813,-4.85897 -3.736187,-0.91727 -0.274315,1.67841 -4.327452,3.9765 -0.220877,3.76158 1.978979,2.35777 -4.057487,1.14819 -5.424661,1.26932 -2.437123,-1.10462 4.039605,-7.0698 -1.510951,-6.17399 -2.194986,0.26732 -9.390791,-0.28847 -6.22525,3.46938 1.599794,1.59829 0.615648,4.31466 -1.526718,3.06788 -1.241551,0.60469 -2.717115,0.83518 -4.055294,0.42492 z m 18.932344,-10.3084 c -0.605234,-1.67915 -0.976285,-8.01841 -2.204098,-3.22245 -1.047433,1.01777 3.451743,6.60118 2.204098,3.22245 z m -16.698213,-1.74457 c 1.242085,-1.57155 -0.336174,-3.77376 -0.622928,-5.43557 -0.568556,2.06411 -1.471728,6.63573 -1.252542,7.79289 0.703309,-0.71844 1.336869,-1.50808 1.87547,-2.35732 z m 10.16238,2.05439 c 1.007821,-1.90114 1.349425,-4.59838 -1.462875,-3.67631 -2.480538,-0.24026 -5.08108,-0.0965 -3.431097,3.07179 0.530564,1.66008 3.591194,0.95341 4.893972,0.60452 z m -5.710917,-8.90924 c 1.633586,-2.68229 2.794585,-6.57882 2.708718,-9.39892 -1.825834,0.73548 -2.577824,8.59387 -3.01636,3.60369 0.09787,-0.9065 4.855154,-4.68809 2.451728,-5.98213 -4.189235,0.0349 -4.712482,5.09708 -3.749139,8.21883 0.453934,0.72094 0.419564,4.83935 1.605053,3.55853 z m 10.522617,-1.07009 c 1.199661,-3.06617 2.379833,-8.03671 -0.656456,-10.32461 -3.236334,-1.45078 -3.537352,2.47489 -0.485643,2.6005 2.416295,0.28454 1.82457,6.19669 0.768627,1.80537 -0.351718,-2.50501 -5.250137,-2.7067 -2.152375,-0.11202 1.189546,1.81628 0.245948,6.75307 1.969597,6.97366 l 0.258578,-0.42451 0.297674,-0.51839 z m -4.798587,-7.25332 c 3.354897,-2.66379 -2.229673,-5.23069 -2.082198,-1.86874 -0.455368,1.76122 0.130079,3.67 2.082198,1.86874 z m -17.958666,-3.58767 c -1.476247,-2.86225 0.250861,-6.63776 1.836701,-9.22651 3.437722,-1.91203 0.905144,-7.01794 4.858037,-8.27264 1.913481,0.15796 4.403312,4.72447 4.389903,0.30383 -0.58528,-3.38241 -1.665093,-8.84419 2.573557,-10.07584 3.62811,-1.11872 4.026725,5.20584 5.300035,6.86126 0.890115,-2.53713 0.09934,-8.69745 3.418549,-8.37948 4.028181,-0.44449 4.000275,4.31157 4.442274,7.62115 0.270895,1.68878 -2.33097,7.66872 1.23058,4.46801 2.348213,-0.75472 4.621896,3.3651 3.156626,4.49963 2.520173,2.56142 4.484468,5.87671 4.477996,9.56852 2.922474,-2.31481 4.752843,-6.65539 5.968686,-10.36233 1.191904,-4.6367 0.390632,-9.52575 -0.07444,-14.21879 -1.610148,-8.70482 -4.226224,-17.5437 -9.439229,-24.8079 -3.898589,-4.9791 -10.038288,-8.95504 -16.602414,-7.77875 -9.460921,1.88645 -16.379219,9.9333 -19.881241,18.53912 -4.235444,9.69292 -6.841436,21.26 -2.496186,31.3759 1.653594,3.27413 4.130685,8.62403 6.840564,9.88482 z m 35.10745,-1.90585 c -1.1387,-1.7502 -0.136006,2.5768 0,0 z m -12.530343,-2.17377 c 4.229997,-0.40245 4.930142,-7.83567 0.08833,-7.48272 -2.492122,-0.34245 1.814025,-4.17916 0.989598,-6.25907 0.984542,-2.07807 -1.513411,-7.62988 -2.869807,-3.3496 -1.307293,2.73723 -1.123956,5.42095 -0.344207,7.75594 -0.540162,1.87499 -2.138351,3.14143 -2.552195,1.06357 -1.432386,-2.15243 1.267115,-4.76173 -0.871252,-7.20164 -0.769466,-4.28185 -4.171118,-0.95781 -3.172772,1.92341 -0.201854,2.72439 3.221558,5.41236 3.588365,6.7992 -4.259067,1.02203 -3.238374,7.30691 1.105184,7.12845 1.351256,0.2113 2.744459,0.048 4.038756,-0.37754 z m 7.949686,-8.75932 c -0.570787,-0.85431 -0.499593,0.82536 0,0 z m -23.628933,-1.5015 c 2.584595,0.85216 3.541512,-0.60065 1.268459,-2.31421 -2.368615,-2.65998 -6.479351,5.42845 -1.268459,2.31421 z m 23.001096,0.0718 c 2.51521,-0.84329 -2.302209,-4.02672 -3.096851,-0.79224 -1.353349,1.67306 2.599323,0.12306 3.096851,0.79224 z m 10.856432,33.29999 c -0.269076,-0.8335 3.388256,-1.67118 0.471239,-3.20042 -2.231386,-2.49807 4.286864,0.42718 1.169966,2.07227 -0.454796,0.3047 -0.944172,1.56471 -1.641205,1.12815 z m -51.778952,-0.74055 c -1.335488,-0.95187 3.886455,0.39093 0.606824,0.29487 z m -1.828109,-1.47905 c -0.359635,-2.77128 5.350271,-1.36895 1.679319,-0.61678 -0.249632,0.15341 -1.944177,2.25844 -1.679319,0.61678 z m 8.187858,0.58403 c 1.277572,-1.52793 0.407666,0.14213 0,0 z m 37.947283,-1.93305 c -1.602285,-2.09908 1.887166,1.81491 0,0 z m 1.166346,-5.8293 c -0.68881,-1.41722 1.324775,1.14368 0,0 z m -38.656175,-8.26898 c 0.158956,-1.17195 0.158948,1.17197 0,0 z"
         id="path1116"
         inkscape:connector-curvature="0" />
      <path
         style="fill:#e3511e;stroke-width:0.21199162"
         d="m 42.464662,287.84571 c -0.327193,-0.87858 4.828523,-1.75102 1.465072,-3.51483 -4.716084,-3.05139 0.570978,-6.67196 1.411782,-9.95515 -0.01457,-1.93262 -1.886633,-6.62881 -1.960734,-2.10889 -0.01906,3.98313 -1.564546,7.43847 -4.522133,9.95477 -2.064354,2.65709 -1.140735,0.8259 -0.771267,-0.92012 -1.846413,0.62855 0.961176,-5.37802 0.08285,-7.39472 1.006164,-2.9402 -2.860079,-3.7203 -0.741191,-6.26518 0.421761,-2.21681 -5.01791,-3.52204 -2.483145,-4.65507 2.677728,-1.54385 2.297743,-5.56349 1.563005,-7.58821 0.143084,-4.18441 2.281978,-8.31405 5.675974,-10.69369 -2.123684,-2.41786 5.183477,-0.34417 5.722313,-2.99725 0.637651,-3.44035 -1.454659,-8.13787 1.142473,-10.93833 4.070322,-3.08521 5.625544,3.2453 6.373115,6.14164 2.513542,-1.13532 -0.242757,-7.62096 3.560934,-8.33032 2.033526,-0.18906 3.124495,0.29664 3.08787,1.97211 2.525771,3.0795 1.071031,7.1681 0.727614,10.65513 -0.493821,3.49155 5.511562,0.73291 5.245642,2.7438 -3.290862,0.2311 2.292251,2.53834 2.474895,4.36343 0.933234,1.07048 2.588583,6.54734 1.370714,6.01759 -1.597251,-0.65663 0.458596,3.43559 -1.073246,4.51072 -0.588495,2.06105 -0.73917,2.82548 -1.537478,1.37321 -2.329865,2.25016 3.309642,3.44889 -0.104968,4.78029 -2.173966,1.16557 -1.035659,3.67813 -1.823324,4.67684 -4.001463,-1.78098 -3.329424,4.5237 -3.455136,7.04872 -1.306581,2.1386 3.283737,8.46366 -0.41499,4.47639 -2.744844,-1.90125 -1.777864,-8.33722 -3.645858,-8.8726 -3.442994,3.55538 3.325721,6.24347 1.444449,9.51091 -0.489567,1.95885 -4.350264,4.45931 0.01677,4.39682 0.400274,2.16047 -4.6298,0.25705 -6.165527,0.73354 0.301942,-2.41134 3.803237,-6.31997 -0.781054,-6.19321 -2.826431,0.0966 -10.152189,0.0417 -6.202228,4.33185 1.891037,3.61769 -2.789238,2.09371 -4.918034,2.8762 l -0.765181,-0.13646 z m 12.380896,-9.45255 c 1.426382,-2.03284 1.146041,-5.53467 -2.31256,-4.22257 -4.674077,-1.88639 -3.650134,6.07519 0.438628,4.56249 0.632059,-0.0436 1.281613,-0.0931 1.873932,-0.33992 z m -5.268283,-9.85728 c 1.465547,-3.02995 2.55268,-6.78471 2.532723,-9.81357 -0.198957,-3.91081 -6.371655,0.70868 -5.014147,3.6283 0.468728,1.9174 0.219635,6.63621 1.943859,6.89643 l 0.266456,-0.32019 0.271099,-0.39098 z m -0.724449,-3.75047 c -0.18923,-3.1222 1.3694,1.14826 0,0 z m 11.023435,2.96283 c 1.393966,-1.88229 0.689675,-4.313 0.958605,-6.48251 1.043802,-3.72386 -5.572031,-5.8618 -4.839995,-1.17548 1.983908,2.38675 1.427479,6.45986 2.909053,9.2406 0.418314,-0.46509 0.672268,-1.04231 0.972337,-1.58261 z m -0.364755,-5.28607 c -0.810138,-1.91732 -2.657076,-3.3035 -0.04139,-1.31359 1.172551,0.51603 0.722713,3.94828 0.04139,1.31359 z m -4.652958,-1.71972 c 3.354897,-2.66379 -2.229673,-5.23069 -2.082198,-1.86874 -0.455368,1.76122 0.130079,3.67 2.082198,1.86874 z m 4.863762,-7.56052 c 4.624849,-0.6991 4.607079,-8.46865 -0.51571,-7.83916 0.386105,-2.77198 2.922447,-7.10949 0.896123,-10.44824 -2.923435,-2.53966 -3.691004,4.76258 -3.600657,6.79123 2.281587,2.45811 -1.918449,5.7615 -2.218872,1.56929 1.706012,-2.27134 0.03412,-5.86779 -1.557223,-8.11049 -3.558815,0.73768 -2.200583,6.40224 -0.460299,8.69687 0.871433,1.60125 3.503956,2.53819 0.355594,3.28096 -3.466728,2.73409 0.513347,7.37459 4.118452,6.59599 1.014609,-0.0101 2.02944,-0.18655 2.982592,-0.53645 z m -35.329933,20.50726 c 0.723838,-1.63486 0.571327,1.03766 0,0 z"
         id="path1114"
         inkscape:connector-curvature="0" />
      <path
         style="fill:#0372b0;stroke-width:0.21199162"
         d="m 42.464662,287.84571 c -0.327193,-0.87858 4.828523,-1.75102 1.465072,-3.51483 -4.716084,-3.05139 0.570978,-6.67196 1.411782,-9.95515 -0.01457,-1.93262 -1.886633,-6.62881 -1.960734,-2.10889 -0.01906,3.98313 -1.564546,7.43847 -4.522133,9.95477 -2.064354,2.65709 -1.140735,0.8259 -0.771267,-0.92012 -1.846413,0.62855 0.961176,-5.37802 0.08285,-7.39472 1.006164,-2.9402 -2.860079,-3.7203 -0.741191,-6.26518 0.421761,-2.21681 -5.01791,-3.52204 -2.483145,-4.65507 2.677728,-1.54385 2.297743,-5.56349 1.563005,-7.58821 0.143084,-4.18441 2.281978,-8.31405 5.675974,-10.69369 -2.123684,-2.41786 5.183477,-0.34417 5.722313,-2.99725 0.637651,-3.44035 -1.454659,-8.13787 1.142473,-10.93833 4.070322,-3.08521 5.625544,3.2453 6.373115,6.14164 2.513542,-1.13532 -0.242757,-7.62096 3.560934,-8.33032 2.033526,-0.18906 3.124495,0.29664 3.08787,1.97211 2.525771,3.0795 1.071031,7.1681 0.727614,10.65513 -0.493821,3.49155 5.511562,0.73291 5.245642,2.7438 -3.290862,0.2311 2.292251,2.53834 2.474895,4.36343 0.933234,1.07048 2.588583,6.54734 1.370714,6.01759 -1.597251,-0.65663 0.458596,3.43559 -1.073246,4.51072 -0.588495,2.06105 -0.73917,2.82548 -1.537478,1.37321 -2.329865,2.25016 3.309642,3.44889 -0.104968,4.78029 -2.173966,1.16557 -1.035659,3.67813 -1.823324,4.67684 -4.001463,-1.78098 -3.329424,4.5237 -3.455136,7.04872 -1.306581,2.1386 3.283737,8.46366 -0.41499,4.47639 -2.744844,-1.90125 -1.777864,-8.33722 -3.645858,-8.8726 -3.442994,3.55538 3.325721,6.24347 1.444449,9.51091 -0.489567,1.95885 -4.350264,4.45931 0.01677,4.39682 0.400274,2.16047 -4.6298,0.25705 -6.165527,0.73354 0.301942,-2.41134 3.803237,-6.31997 -0.781054,-6.19321 -2.826431,0.0966 -10.152189,0.0417 -6.202228,4.33185 1.891037,3.61769 -2.789238,2.09371 -4.918034,2.8762 l -0.765181,-0.13646 z m -2.607221,-7.82715 c 1.796453,-3.38695 3.442483,-6.24682 3.410067,-10.26288 0.639641,-4.83642 1.809575,-10.46371 6.368016,-13.13346 -1.926816,-3.08892 5.717565,2.07715 1.760867,-1.29134 -4.034393,-1.00524 -1.047892,-7.0206 -4.115761,-7.59346 -1.70263,0.45195 -4.068389,0.28848 -1.160363,-0.67312 2.849432,-0.65144 4.189152,0.20626 3.58423,2.95029 0.2367,3.4126 2.366646,5.52879 5.776363,5.91138 2.245509,0.55726 4.8663,-2.86474 0.999779,-1.87217 -4.434165,0.81584 -7.89739,-5.31977 -3.469394,-7.80036 -2.673508,-0.97068 -6.206544,-3.71216 -8.852284,-1.7105 -3.66238,1.36379 -6.187376,5.02991 -6.778924,8.80334 0.809952,-1.61743 2.558276,-2.60426 1.3215,-0.12603 -0.682573,2.59049 -1.68948,6.02986 -1.078108,8.3921 1.785892,-3.01829 0.605024,3.37558 0.908072,4.48121 0.07972,3.77115 -0.268163,10.35979 0.128033,12.52157 0.172971,-1.94568 1.355151,-4.07514 0.949709,-0.75154 0.160413,0.84166 -1.343571,4.76921 0.248198,2.15497 z m 23.299615,-1.27885 c -1.090418,-3.56543 -0.489763,-7.0875 1.577036,-10.03734 1.816014,-4.0663 4.364747,-7.95783 4.769806,-12.49652 1.06246,-1.61142 0.482506,4.68946 1.113856,1.19231 0.405808,-2.45693 -0.736254,-5.30239 -0.511184,-7.43867 2.259673,2.1595 -1.166156,-3.67014 -2.259752,-3.99818 -1.243453,-1.59564 -4.095274,-1.21252 -4.384666,-2.21603 -3.042488,0.37429 -2.738926,2.05995 0.08153,2.69368 1.227764,0.30906 -0.378823,3.72984 -0.98129,5.2253 -2.320997,1.51592 -4.10319,3.61841 -1.604208,5.92086 1.871913,6.2722 -1.122731,12.91308 0.842523,19.21914 0.191596,1.31956 2.522612,5.72636 1.356347,1.93545 z m -8.311498,-0.34655 c 1.426382,-2.03284 1.146041,-5.53467 -2.31256,-4.22257 -4.674077,-1.88639 -3.650134,6.07519 0.438628,4.56249 0.632059,-0.0436 1.281613,-0.0931 1.873932,-0.33992 z m -5.268283,-9.85728 c 1.465547,-3.02995 2.55268,-6.78471 2.532723,-9.81357 -0.198957,-3.91081 -6.371655,0.70868 -5.014147,3.6283 0.468728,1.9174 0.219635,6.63621 1.943859,6.89643 l 0.266456,-0.32019 0.271099,-0.39098 z m -0.724449,-3.75047 c -0.18923,-3.1222 1.3694,1.14826 0,0 z m 11.023435,2.96283 c 1.393966,-1.88229 0.689675,-4.313 0.958605,-6.48251 1.043802,-3.72386 -5.572031,-5.8618 -4.839995,-1.17548 1.983908,2.38675 1.427479,6.45986 2.909053,9.2406 0.418314,-0.46509 0.672268,-1.04231 0.972337,-1.58261 z m -0.364755,-5.28607 c -0.810138,-1.91732 -2.657076,-3.3035 -0.04139,-1.31359 1.172551,0.51603 0.722713,3.94828 0.04139,1.31359 z m -4.686817,-1.62181 c 2.257495,-1.94568 0.143532,-5.03562 -1.941053,-3.02762 -0.100429,1.57998 -0.991844,5.17403 1.941053,3.02762 z m 4.897621,-7.65843 c 4.624849,-0.6991 4.607079,-8.46865 -0.51571,-7.83916 0.386105,-2.77198 2.922447,-7.10949 0.896123,-10.44824 -2.923435,-2.53966 -3.691004,4.76258 -3.600657,6.79123 2.281587,2.45811 -1.918449,5.7615 -2.218872,1.56929 1.706012,-2.27134 0.03412,-5.86779 -1.557223,-8.11049 -3.558815,0.73768 -2.200583,6.40224 -0.460299,8.69687 0.871433,1.60125 3.503956,2.53819 0.355594,3.28096 -3.466728,2.73409 0.513347,7.37459 4.118452,6.59599 1.014609,-0.0101 2.02944,-0.18655 2.982592,-0.53645 z m -7.87895,-9.34307 c -2.539538,-3.06135 -1.665599,-6.97303 -0.208562,-10.0084 2.810355,1.11667 3.484173,6.15077 4.112388,8.16881 0.228961,-1.99205 1.610409,-6.1865 -0.242412,-3.55086 -1.376457,-2.38936 -1.348665,-9.00065 -5.244519,-7.39494 -2.845672,2.71436 -2.332276,7.94255 -0.412993,11.14132 0.184487,0.55725 3.334515,4.14538 1.996098,1.64407 z m 9.410549,-1.41612 c 1.403097,-3.37448 2.129157,-7.1313 0.809781,-10.54572 0.0069,-4.13442 -5.935993,-2.63914 -5.010366,1.23825 -0.197088,2.40943 0.0227,3.08892 1.144854,0.58389 1.629485,-2.76615 2.912143,2.98459 2.988749,4.51009 0.295485,2.07148 -1.206243,4.83252 -1.421459,6.25064 0.601393,-0.59264 1.077919,-1.30315 1.488441,-2.03715 z m -36.861532,31.26645 c 0.723838,-1.63486 0.571327,1.03766 0,0 z"
         id="path1112"
         inkscape:connector-curvature="0" />
      <path
         style="fill:#a34c22;stroke-width:0.21199162"
         d="m 42.464662,287.84571 c -0.37065,-0.88041 4.80421,-1.71102 1.512155,-3.46346 -3.410505,-2.03046 2.351439,-1.39611 3.405285,-0.76628 1.528583,2.02079 1.721706,4.78083 -1.287927,3.93347 -1.135866,0.44321 -2.438105,0.58071 -3.629513,0.29627 z m 15.341719,-0.8582 c -2.309932,0.39836 -3.25994,-0.0751 -1.944623,-2.51234 0.187704,-2.65744 3.694666,-1.24919 5.108559,-1.63837 -2.157241,1.86742 -2.536306,3.44408 0.687585,3.69392 -0.593332,1.25134 -2.772646,0.7668 -3.851521,0.45679 z m -20.482516,-3.33297 c 0.992553,-1.65663 1.040607,-2.38841 -0.105674,-2.19683 1.108944,-3.40391 1.206453,-7.18082 0.641376,-10.6875 -2.72009,-0.93801 1.156129,-3.91992 -1.816771,-5.43282 -2.26121,-1.44942 -2.328048,-1.95114 0.05063,-3.3599 1.963181,-2.91511 0.04619,-5.79371 0.703845,-8.80006 -0.160855,-3.5937 4.340808,-6.79871 4.978421,-8.80017 0.05,-2.03673 7.945536,-0.0199 6.396217,-4.78684 -0.683974,-3.20469 -1.413315,-8.42647 2.427939,-9.46967 3.94489,-1.27381 3.405975,5.97191 5.40891,6.79285 1.288332,-2.53464 -0.42038,-8.49556 3.689101,-8.28854 3.018686,-0.45698 1.905655,2.26337 3.603366,4.1556 1.124691,3.53915 -1.411977,6.88544 0.08852,10.25451 1.946566,-0.25532 7.108482,0.30627 3.359471,1.50597 3.512433,2.00922 5.630466,6.24459 5.539144,10.26826 -2.183933,-2.26318 0.08021,2.98976 -1.471158,4.03374 -0.588495,2.06105 -0.73917,2.82548 -1.537478,1.37321 -2.329865,2.25016 3.309642,3.44889 -0.104968,4.78029 -2.173966,1.16557 -1.035659,3.67813 -1.823324,4.67684 -4.001463,-1.78098 -3.329424,4.5237 -3.455136,7.04872 -1.306581,2.1386 3.283737,8.46366 -0.41499,4.47639 -2.739995,-1.90433 -1.781675,-8.31103 -3.638293,-8.87078 -0.779715,2.45405 -1.34095,4.85946 -4.431316,5.1979 0.658294,-2.48705 0.186644,-4.25769 -2.732973,-3.32152 -1.058612,0.34676 -3.873508,-0.85362 -3.196521,1.00937 0.544752,2.18367 0.521318,3.59594 -1.826197,1.60247 -3.385188,-0.58707 -1.896937,-5.70068 -3.970982,-6.57577 -0.701874,3.73495 -0.362741,8.47788 -3.901034,10.78292 -0.766811,0.7123 -1.520255,2.55222 -2.460124,2.63136 z m 2.533576,-3.63598 c 1.796453,-3.38695 3.442483,-6.24682 3.410067,-10.26288 0.639641,-4.83642 1.809575,-10.46371 6.368016,-13.13346 -1.926816,-3.08892 5.717565,2.07715 1.760867,-1.29134 -4.034393,-1.00524 -1.047892,-7.0206 -4.115761,-7.59346 -1.70263,0.45195 -4.068389,0.28848 -1.160363,-0.67312 2.849432,-0.65144 4.189152,0.20626 3.58423,2.95029 0.2367,3.4126 2.366646,5.52879 5.776363,5.91138 2.245509,0.55726 4.8663,-2.86474 0.999779,-1.87217 -4.434165,0.81584 -7.89739,-5.31977 -3.469394,-7.80036 -2.673508,-0.97068 -6.206544,-3.71216 -8.852284,-1.7105 -3.66238,1.36379 -6.187376,5.02991 -6.778924,8.80334 0.809952,-1.61743 2.558276,-2.60426 1.3215,-0.12603 -0.682573,2.59049 -1.68948,6.02986 -1.078108,8.3921 1.785892,-3.01829 0.605024,3.37558 0.908072,4.48121 0.07972,3.77115 -0.268163,10.35979 0.128033,12.52157 0.172971,-1.94568 1.355151,-4.07514 0.949709,-0.75154 0.160413,0.84166 -1.343571,4.76921 0.248198,2.15497 z m 23.299615,-1.27885 c -1.090418,-3.56543 -0.489763,-7.0875 1.577036,-10.03734 1.816014,-4.0663 4.364747,-7.95783 4.769806,-12.49652 1.06246,-1.61142 0.482506,4.68946 1.113856,1.19231 0.405808,-2.45693 -0.736254,-5.30239 -0.511184,-7.43867 2.259673,2.1595 -1.166156,-3.67014 -2.259752,-3.99818 -1.243453,-1.59564 -4.095274,-1.21252 -4.384666,-2.21603 -3.042488,0.37429 -2.738926,2.05995 0.08153,2.69368 1.227764,0.30906 -0.378823,3.72984 -0.98129,5.2253 -2.320997,1.51592 -4.10319,3.61841 -1.604208,5.92086 1.871913,6.2722 -1.122731,12.91308 0.842523,19.21914 0.191596,1.31956 2.522612,5.72636 1.356347,1.93545 z M 49.577275,268.53588 c 1.465547,-3.02995 2.55268,-6.78471 2.532723,-9.81357 -0.198957,-3.91081 -6.371655,0.70868 -5.014147,3.6283 0.468728,1.9174 0.219635,6.63621 1.943859,6.89643 l 0.266456,-0.32019 0.271099,-0.39098 z m -0.724449,-3.75047 c -0.18923,-3.1222 1.3694,1.14826 0,0 z m 11.023435,2.96283 c 1.393966,-1.88229 0.689675,-4.313 0.958605,-6.48251 1.043802,-3.72386 -5.572031,-5.8618 -4.839995,-1.17548 1.983908,2.38675 1.427479,6.45986 2.909053,9.2406 0.418314,-0.46509 0.672268,-1.04231 0.972337,-1.58261 z m -0.364755,-5.28607 c -0.810138,-1.91732 -2.657076,-3.3035 -0.04139,-1.31359 1.172551,0.51603 0.722713,3.94828 0.04139,1.31359 z m -4.686817,-1.62181 c 2.257495,-1.94568 0.143532,-5.03562 -1.941053,-3.02762 -0.100429,1.57998 -0.991844,5.17403 1.941053,3.02762 z m 4.897621,-7.65843 c 4.624849,-0.6991 4.607079,-8.46865 -0.51571,-7.83916 0.386105,-2.77198 2.922447,-7.10949 0.896123,-10.44824 -2.923435,-2.53966 -3.691004,4.76258 -3.600657,6.79123 2.281587,2.45811 -1.918449,5.7615 -2.218872,1.56929 1.706012,-2.27134 0.03412,-5.86779 -1.557223,-8.11049 -3.558815,0.73768 -2.200583,6.40224 -0.460299,8.69687 0.871433,1.60125 3.503956,2.53819 0.355594,3.28096 -3.466728,2.73409 0.513347,7.37459 4.118452,6.59599 1.014609,-0.0101 2.02944,-0.18655 2.982592,-0.53645 z m -7.87895,-9.34307 c -2.539538,-3.06135 -1.665599,-6.97303 -0.208562,-10.0084 2.810355,1.11667 3.484173,6.15077 4.112388,8.16881 0.228961,-1.99205 1.610409,-6.1865 -0.242412,-3.55086 -1.376457,-2.38936 -1.348665,-9.00065 -5.244519,-7.39494 -2.845672,2.71436 -2.332276,7.94255 -0.412993,11.14132 0.184487,0.55725 3.334515,4.14538 1.996098,1.64407 z m 9.410549,-1.41612 c 1.403097,-3.37448 2.129157,-7.1313 0.809781,-10.54572 0.0069,-4.13442 -5.935993,-2.63914 -5.010366,1.23825 -0.197088,2.40943 0.0227,3.08892 1.144854,0.58389 1.629485,-2.76615 2.912143,2.98459 2.988749,4.51009 0.295485,2.07148 -1.206243,4.83252 -1.421459,6.25064 0.601393,-0.59264 1.077919,-1.30315 1.488441,-2.03715 z m -4.753519,38.76553 c -0.08574,-1.15943 1.404878,0.70503 0,0 z m -32.108013,-7.49908 c 0.723838,-1.63486 0.571327,1.03766 0,0 z"
         id="path1110"
         inkscape:connector-curvature="0" />
      <path
         style="fill:#a43220;stroke-width:0.21199162"
         d="m 42.464662,287.84571 c -0.37065,-0.88041 4.80421,-1.71102 1.512155,-3.46346 -3.410505,-2.03046 2.351439,-1.39611 3.405285,-0.76628 1.528583,2.02079 1.721706,4.78083 -1.287927,3.93347 -1.135866,0.44321 -2.438105,0.58071 -3.629513,0.29627 z m 15.341719,-0.8582 c -2.309932,0.39836 -3.25994,-0.0751 -1.944623,-2.51234 0.187704,-2.65744 3.694666,-1.24919 5.108559,-1.63837 -2.157241,1.86742 -2.536306,3.44408 0.687585,3.69392 -0.593332,1.25134 -2.772646,0.7668 -3.851521,0.45679 z m -20.481608,-3.40023 c 1.487687,-1.80411 0.943693,-2.19866 -0.091,-2.17668 1.034811,-1.24465 2.657836,-7.51814 2.308237,-3.05644 -0.449556,1.64299 -0.462697,4.93372 -2.217237,5.23312 z m 27.614996,-0.82804 c -1.809576,-1.34299 -1.228892,-3.46084 0.106513,-0.5499 1.006583,0.37575 0.179439,0.89388 -0.106513,0.5499 z m -8.439379,-1.57097 c -0.08574,-1.15943 1.404878,0.70503 0,0 z m 6.805952,-2.13602 c -1.361063,-3.65934 -0.432134,-7.0486 1.425695,-10.18028 1.348016,-1.77884 2.071844,-6.54673 4.000162,-6.68078 4.924642,1.9713 -3.652598,3.91441 -0.758427,7.08466 -2.019905,0.42373 -4.137323,-0.59227 -3.941647,2.87747 -0.648348,2.51204 -2.29e-4,6.34223 -0.467583,7.67565 l -0.258192,-0.77669 z m -22.431668,-1.01957 c 0.617299,-1.27804 2.036057,-2.91195 2.070147,-3.70085 0.698324,1.51941 -2.876671,7.84338 -2.433704,4.61389 0.121186,-0.30435 0.242371,-0.60869 0.363557,-0.91304 z m 8.651157,-0.20203 c -4.085929,-0.88947 -4.359865,-4.67716 -5.490002,-7.86383 -1.363686,-3.16751 0.979028,-7.89614 2.874729,-10.91338 2.086244,-1.8391 -1.51423,4.05517 0.02068,5.57647 0.10841,2.46675 1.680503,7.94376 3.494536,3.08132 1.445145,-2.5496 0.41572,-7.03351 4.306186,-6.26738 3.079535,-1.52027 2.393489,5.36974 3.35947,7.39255 2.359897,1.94354 2.959129,-4.49597 3.158834,-6.2473 0.902546,-4.01692 -2.706747,-6.14858 -5.895822,-5.67509 -3.44699,-0.0757 -7.164287,-3.51138 -6.558434,-7.19808 1.445358,-3.42461 -6.615624,-1.1893 -2.144781,-2.59003 4.66227,-1.44676 1.590391,4.33278 4.273517,6.16274 -0.101592,2.03379 5.10624,3.62358 7.027506,2.01721 0.949237,-1.63033 2.609263,-2.80331 1.445006,-0.0208 3.536264,4.0227 1.736046,9.68696 1.707262,14.49592 0.02925,2.26032 -2.682464,3.17398 -2.279254,6.01142 -1.688841,1.34873 -4.371947,2.76167 -2.966192,-0.61863 0.58429,-2.20813 -2.021096,-1.03076 -3.230186,-1.27485 -4.469344,-0.20439 -3.343767,0.008 -3.103051,3.93179 z m -11.072445,-2.03406 c 0.140026,-2.84605 0.09324,3.10593 0,0 z m -14.061009,-2.1074 c 0.723838,-1.63486 0.571327,1.03766 0,0 z m 12.900845,-3.36295 c -1.646525,-0.8748 1.650856,-3.5464 -1.102281,-4.85802 -1.592821,-1.55444 -3.271312,-1.77731 -0.493882,-3.10294 1.059627,-1.56483 1.746825,-1.35756 1.842706,-0.33506 1.738254,-3.93078 0.529217,3.38635 0.80141,4.61144 -0.394193,0.8145 0.941252,5.40408 -1.047953,3.68458 z m 32.539146,-9.71568 c -0.846765,-0.70392 -0.939423,-3.68455 0.08671,-4.47846 0.386687,0.93418 0.674002,6.00915 -0.08671,4.47846 z M 36.94228,258.68887 c -0.09151,-1.21249 0.79481,-2.43503 -0.353565,-3.29321 0.558831,-3.48495 1.424162,-7.07866 4.176401,-9.53784 2.795964,-0.92675 -0.734802,-2.03416 2.021689,-2.32308 2.355771,-1.102 3.497433,0.56402 0.608611,1.28992 -3.175368,1.18108 -6.343734,6.09302 -5.775719,8.45102 2.731802,-3.95906 -0.08908,2.74335 -0.0017,4.2948 -0.09195,0.11931 0.0067,1.94637 -0.675671,1.11839 z m 33.83078,-2.23651 c 0.226451,-2.09051 -1.737637,-8.16241 0.472412,-5.03681 0.296557,-2.69257 -4.190009,-5.60324 -3.799287,-6.57866 2.798297,2.5738 4.807701,6.09519 4.842143,9.97253 -2.323328,-3.1278 -0.193359,5.62044 -1.515268,1.64294 z m -18.39779,0.58297 c 0.570814,-0.85433 0.499567,0.82539 0,0 z m -2.589191,-0.25149 c -1.438809,-2.64028 3.765905,0.69456 -0.0022,0.19843 l -0.06076,-0.0819 0.06292,-0.1166 z m 13.335862,-9.84768 c -0.0838,-1.06856 1.679005,0.51278 0,0 z m -12.336608,-1.78031 c -1.292034,-0.99722 -6.209188,-0.90234 -3.193837,-2.99703 1.934804,-3.53468 3.036993,3.46466 5.972756,3.37604 2.124818,1.55957 -2.390988,-0.1661 -2.778919,-0.37901 z m 4.934421,-0.1216 c -1.824506,-0.35162 -1.481885,-3.51606 0.155631,-2.57334 1.813743,-1.50064 1.539635,2.34353 0.165578,2.64895 0.233439,0.67317 -0.642499,0.51962 -0.321209,-0.0756 z m 3.704237,0.20115 c 0.410226,-0.82112 2.474332,-3.99763 3.100382,-4.57293 0.451478,1.93542 2.491988,3.48588 -0.747991,3.6335 -0.803797,0.23825 -1.421822,1.37301 -2.352391,0.93943 z m 4.398826,-1.04937 c 0.906996,-2.36517 6.976344,-0.27955 2.755891,-0.0185 -0.424647,0.54896 -2.253824,0.46978 -2.755891,0.0185 z m -8.569928,-6.1594 c 0.257339,-2.21113 1.45542,1.39667 0,0 z m 7.297979,-0.46518 c -0.124528,-3.00798 1.617954,-0.90962 0.370985,0.56744 l -0.292997,-0.0786 z m -14.847056,-1.4165 c -0.486317,-2.89093 1.614838,-1.74786 0.283186,0.22707 l -0.283185,-0.22705 z m 4.136408,-1.80869 c -0.0887,-1.87705 1.953085,1.72966 0,0 z m 6.599855,-0.9216 c 1.327961,-1.62102 0.778629,1.15557 0,0 z m 3.90125,-0.53895 c -0.401351,-3.06234 2.049202,2.66027 3e-6,0 z m -13.929707,-1.02322 c -0.199182,-1.7492 3.342259,-0.74149 0.499747,0.1205 l -0.499747,-0.12047 z m 3.084769,-1.3022 c -1.080124,-2.06045 2.05644,1.00842 0,0 z m 5.966682,-0.82201 c 1.418127,-3.2614 2.826233,0.86525 0,0 z m 3.219493,-0.19886 c 2.002129,-1.61578 1.172737,1.11823 0,0 z"
         id="path1108"
         inkscape:connector-curvature="0" />
      <path
         style="fill:#652816;stroke-width:0.21199162"
         d="m 42.464662,287.84571 c -0.37065,-0.88041 4.80421,-1.71102 1.512155,-3.46346 -3.410505,-2.03046 2.351439,-1.39611 3.405285,-0.76628 1.528583,2.02079 1.721706,4.78083 -1.287927,3.93347 -1.135866,0.44321 -2.438105,0.58071 -3.629513,0.29627 z m 15.341719,-0.8582 c -2.309932,0.39836 -3.25994,-0.0751 -1.944623,-2.51234 0.187704,-2.65744 3.694666,-1.24919 5.108559,-1.63837 -2.157241,1.86742 -2.536306,3.44408 0.687585,3.69392 -0.593332,1.25134 -2.772646,0.7668 -3.851521,0.45679 z M 37.323865,283.6123 c 1.389787,-3.04292 2.169978,-0.87527 0,0 z m 27.508512,-0.94151 c -1.98206,-1.68503 0.964038,-0.72884 0.378529,0.18666 z m -27.720503,-0.94524 c 0.595163,-1.27319 2.954074,-5.09542 1.883889,-1.55701 0.01837,1.02129 -1.25797,1.48303 -1.883889,1.55701 z m 19.388516,-0.53728 c -0.08574,-1.15943 1.404878,0.70503 0,0 z m -15.893499,-1.99981 c 0.657048,-2.18456 1.494614,-2.63201 1.003594,-0.0615 0.388734,0.91409 -2.046633,1.23903 -1.003594,0.0615 z m 22.573166,-1.50179 c -0.952833,-1.73946 0.993624,-6.98943 0.568951,-2.36096 -0.216952,0.47986 0.885308,3.93246 -0.568951,2.36096 z m -13.654226,0.14398 c -4.593987,-0.82472 -4.146693,-5.68643 -5.974901,-8.54028 0.612891,-3.82818 1.390547,-8.17886 4.293318,-10.92096 -1.349792,3.61247 -4.011337,7.11423 -3.477445,11.15954 -0.03421,2.95489 4.004387,4.57946 5.199581,4.33683 -1.104512,0.74994 0.657424,3.899 -0.04055,3.96487 z m 6.180039,-1.64481 c -0.89137,-3.09358 1.770622,-2.49945 3.803845,-3.60706 0.367786,2.39559 -2.268823,5.28117 -3.972939,4.60295 l 0.06597,-0.44785 0.10312,-0.54804 z m -31.313493,-2.49665 c 0.723838,-1.63486 0.571327,1.03766 0,0 z m 26.763941,0.15363 c 2.558286,-0.10631 0.525229,0.25538 0,0 z m 12.702532,-1.65009 c 0.425649,-2.65572 0.321172,0.61501 0,0 z m -3.572017,-0.27897 c -0.468849,-2.74613 0.107159,-5.39745 0.945501,-7.68841 -0.470103,2.29937 0.214776,6.12739 -0.945501,7.68841 z M 37.293222,270.3197 c -1.647454,-0.86437 1.65151,-3.54346 -1.101667,-4.85079 -1.101598,-1.49325 -3.691266,-1.73747 -0.665495,-2.97504 1.519196,-1.89272 1.552888,-1.205 2.008686,0.1667 1.53239,-3.30131 0.191102,3.40351 0.567435,4.69725 -0.227477,0.70027 0.868179,4.20425 -0.808959,2.96188 z m 0.242635,-0.77686 c -0.570787,-0.85431 -0.499593,0.82536 0,0 z m -0.173127,-3.86178 c -0.835497,-0.3128 0.560391,0.92946 0,0 z m -0.858997,-3.19091 c -3.386656,0.46178 1.339828,4.38117 0.127361,0.492 l -0.127359,-0.492 z m 11.419713,7.58932 c 0.700154,-0.80308 0.749081,1.04225 0,0 z m 10.581091,-0.37764 c 0.203059,-1.09915 1.670959,1.15409 3e-6,1e-5 z m 7.63604,-0.28203 c -2.908173,-0.78091 1.702855,-5.00188 2.034345,-7.11405 1.104804,-0.23375 3.768827,2.11544 0.813305,2.84969 -2.145437,1.14785 -0.750806,3.75392 -1.767775,4.54585 -0.370803,0.0994 -0.825977,0.0357 -1.079875,-0.28149 z m 0.438131,-0.79706 c -0.152827,-1.82689 4.861862,-5.54909 1.746299,-5.36942 -0.223946,0.75539 -4.057886,6.46562 -1.746299,5.36942 z m -15.745435,-2.01022 c 1.186695,-3.01518 -0.633001,2.79157 0,0 z m 1.330006,-4.91337 c 0.570787,-0.85432 0.499592,0.82536 0,0 z m 2.967882,-0.63012 c 0.374309,-1.04759 0.934668,0.48064 0,0 z m 14.67562,-0.30749 c 0.828042,-2.14427 0.300861,1.44771 0,0 z m -9.061575,-1.61457 c -0.923743,-1.4853 -1.655569,-1.74786 -1.292598,-2.64907 -2.021556,-0.95767 -3.874662,1.98157 -5.918922,-0.0985 -2.766356,-1.91118 4.232407,1.31492 4.95715,-1.35044 1.12034,-2.27924 1.244563,-1.42859 0.805357,0.49526 0.869173,-0.0261 2.833929,5.91322 1.449013,3.60272 z m 8.377402,0.67023 c 0.03179,-1.86207 1.178157,-3.73196 0.758493,-0.66019 0.118882,0.3636 -0.380245,1.20839 -0.758493,0.66019 z M 36.94228,258.68887 c -0.822848,-1.7428 1.400485,0.0953 0,0 z m 33.879506,-1.38855 c 0.96614,-2.74157 0.87536,1.56138 0,0 z m -20.627857,-0.68897 c 1.4219,-1.80406 0.939839,1.95186 0,0 z m -13.600407,-0.61716 c -0.20405,-1.65304 3.150453,-5.45384 1.50883,-1.52376 -0.192548,0.63017 -0.492604,2.1505 -1.50883,1.52376 z m 35.230317,-1.70579 c -1.923945,-0.56305 -1.819092,-5.43991 -0.06002,-1.70489 0.469031,0.0324 0.894054,2.90875 0.06002,1.70489 z M 49.28297,252.69114 c -0.870251,-3.15518 2.272346,1.9941 0,0 z m 22.400274,-0.86727 c 0.195858,-0.79341 0.0906,0.92107 0,0 z m -0.489641,-1.52335 c -0.903225,-3.08053 1.279623,2.82573 0,0 z m -22.065339,0.66125 c -0.896333,-2.79495 1.439086,-0.34615 0,0 z m -11.586261,-0.11722 c 0.1288,-2.68385 4.340584,-4.89337 4.233683,-6.52871 -0.710769,-0.59366 1.647952,-1.18982 1.321957,-0.023 -1.4691,1.31105 -4.477713,3.96616 -5.55564,6.5517 z m 32.852554,-2.28888 c -0.519803,-1.50466 1.007923,1.52128 0,0 z m -21.835136,-0.95396 c -0.309308,-1.20414 1.13778,1.0112 0,0 z m 4.780373,-1.63067 c -2.425304,-1.36538 -9.311626,-2.0296 -4.6028,-5.11296 0.646255,2.51478 4.2788,4.27511 5.089979,5.33592 z m 14.192877,-0.69467 c -1.547321,-1.96751 2.268471,1.80198 0,0 z m -11.805283,0.1666 c 1.223273,-0.13366 -0.402167,0.37334 0,0 z m 3.799065,-0.19437 c 1.447588,-1.37469 3.079212,-6.88965 3.766385,-2.4111 -0.288322,1.14597 -2.855214,2.02973 -3.766385,2.4111 z m -4.900665,-0.83245 c -1.62006,-3.36165 2.538491,-1.68566 0.350868,0.24928 z m 1.494668,-0.0296 c -1.051286,-2.07885 1.491038,-3.34125 1.060632,-0.52977 -0.148531,0.34405 -0.656605,0.9097 -1.060632,0.52977 z m 9.292298,-0.15356 c -1.546548,-0.44336 1.469966,-0.4223 0.444627,-1.27364 1.531929,-0.17511 3.770184,1.35782 0.852314,0.97696 -0.120914,0.78385 -0.739644,0.5883 -1.296941,0.29668 z M 43.78961,243.25588 c 1.271036,-0.84014 1.1145,0.8428 0,0 z m 18.973249,-5.37078 c 0.286375,-2.43944 1.047249,0.73771 0,0 z m -7.419706,-0.247 c 0.536408,-1.1039 0.431995,1.06418 0,0 z m -7.745142,-1.60199 c -0.332525,-2.45846 1.390177,0.40188 4e-6,0 z m 4.565268,-1.47189 c 0.57079,-0.85431 0.499591,0.82536 0,0 z m 6.467881,-1.06341 c 0.836221,-0.47504 0.434515,0.78823 0,0 z m 4.151338,-0.17184 c -0.642374,-1.92506 1.498115,0.87272 0,0 z m -14.397735,-1.49308 c -0.06354,-1.9546 2.601868,0.24544 0,0 z m 2.932321,-1.50592 c -0.518597,-1.46044 1.806754,0.63421 0,0 z m 6.145985,-0.70768 c 1.96239,-2.93072 2.276832,0.87306 0,0 z m 3.504435,0.0768 c 1.254574,-1.57013 1.391286,0.41683 0,0 z"
         id="path1106"
         inkscape:connector-curvature="0" />
      <path
         style="fill:#14110e;stroke-width:0.21199162"
         d="m 42.994641,287.8447 c -1.474913,-0.66544 4.661736,-1.72117 1.11348,-3.49665 -3.517695,-1.97448 3.180378,-1.5362 3.533832,0.0146 1.481802,1.93293 0.886351,3.73609 -1.531813,3.05629 -0.970208,0.42455 -2.067222,0.56989 -3.115499,0.4258 z m 12.460922,-0.90817 c -0.459269,-3.43992 2.852544,-4.54001 5.290259,-4.15777 -1.61261,1.65431 -2.959865,3.72288 0.661284,3.55868 0.162807,1.87231 -4.777122,-0.20398 -5.951543,0.59909 z m 1.157602,-5.84248 c -0.238581,-1.04476 1.244639,0.72882 0,0 z m -15.747263,-1.5081 c -0.122123,-1.67994 1.208528,0.0525 0,0 z m 7.354691,-2.49995 c -1.952033,-0.333 -4.109697,-3.8425 -1.164536,-1.09209 1.167918,0.41888 4.084887,2.42667 1.164536,1.09209 z m 15.178241,0.28802 c 0.550312,-1.10883 0.381004,1.36767 0,0 z m -7.69346,-0.19819 c 1.437673,-1.43063 4.783676,-2.04721 1.378958,-0.28498 -0.107048,-0.13697 -1.639505,1.1339 -1.378958,0.28498 z m -7.569936,-2.65912 c -1.748411,-1.10014 2.548704,0.81954 0,0 z m 8.056103,-0.1436 c 1.41308,-1.05935 1.498267,0.40594 0,0 z m 2.387007,-0.94881 c 1.435727,-0.78407 -0.614104,1.18699 0,0 z m -13.331646,-0.37661 c -0.303995,-1.64355 1.39268,1.24898 5e-6,0 z m -7.658974,-5.13833 c 0.2551,-2.46226 0.453457,2.70982 2e-6,0 z m -0.476054,-3.63345 c 0.897521,-3.25965 0.96481,1.7811 0,0 z m 9.539622,-4.24767 c 0.622176,-1.22754 0.45653,0.56503 0,0 z m -9.302673,-5.21351 c 1.655329,-2.31088 -0.886278,2.23991 0,0 z m 33.575714,-2.01923 c -0.146211,-1.79485 0.578831,1.28007 0,0 z m -21.51715,-0.43649 c 0.431007,-0.46528 0.479938,0.70939 0,0 z m -0.476376,-8.32405 c -3.816204,-0.0466 0.179353,-4.89524 0.878026,-1.14147 1.345797,1.82498 2.269526,2.38496 -0.878026,1.14147 z m 5.553722,-0.0646 c -0.254492,-4.49161 1.96899,1.71724 0,0 z m 1.847715,0.20415 c -1.028951,-3.5656 2.594644,-1.15053 0,0 z m 4.725168,-0.58558 c 0.641404,-1.59682 1.842075,-3.70675 1.95879,-0.62472 -0.07179,0.49685 -3.252365,2.2029 -1.95879,0.62472 z m 6.263063,0.0909 c 0.640271,-0.87272 1.195301,0.79985 0,0 z"
         id="path1104"
         inkscape:connector-curvature="0" />
    </g>
  </g>
</svg>
